<svg width="28" height="28" viewBox="0 0 28 28" fill="none" xmlns="http://www.w3.org/2000/svg">
<path d="M8.80544 25.8408C19.3715 25.8408 25.1507 16.9082 25.1507 9.16192C25.1507 8.90821 25.1507 8.65564 25.1339 8.40421C26.2582 7.57439 27.2287 6.54692 28 5.36992C26.9515 5.84398 25.8393 6.15487 24.7005 6.2922C25.8997 5.55961 26.7973 4.40737 27.2261 3.04992C26.0984 3.73272 24.8647 4.21393 23.5782 4.47277C22.7121 3.53298 21.5666 2.91068 20.3189 2.70216C19.0712 2.49364 17.791 2.71053 16.6763 3.31926C15.5616 3.928 14.6746 4.89465 14.1525 6.06962C13.6305 7.24459 13.5025 8.56238 13.7883 9.81907C11.5044 9.70223 9.27001 9.09659 7.23032 8.04145C5.19062 6.98632 3.39118 5.50528 1.9488 3.69449C1.21418 4.98496 0.989185 6.51262 1.31962 7.96642C1.65005 9.42023 2.51107 10.6909 3.72736 11.5196C2.81315 11.492 1.91887 11.2403 1.12 10.7859C1.12 10.8099 1.12 10.8351 1.12 10.8602C1.12036 12.2136 1.57949 13.5252 2.41952 14.5726C3.25954 15.6199 4.42874 16.3385 5.7288 16.6065C4.88305 16.8419 3.99569 16.8763 3.13488 16.7071C3.50197 17.8718 4.21665 18.8904 5.17896 19.6203C6.14127 20.3502 7.30309 20.755 8.50192 20.7779C6.4677 22.4093 3.95479 23.2949 1.36752 23.2922C0.910452 23.2913 0.453829 23.2631 0 23.2077C2.62711 24.928 5.6839 25.8405 8.80544 25.8362" fill="#333"/>
</svg>
