<svg width="287" height="23" viewBox="0 0 287 23" fill="none" xmlns="http://www.w3.org/2000/svg">
<g clip-path="url(#clip0_226_204)">
<path d="M4.89399 22.6308L6.28711 15.3551C6.96645 11.7338 8.83623 9.75641 10.4328 9.75641C11.6561 9.75641 12.0639 10.561 12.0639 11.7006C12.0595 12.3188 12.0026 12.9356 11.894 13.5444L10.1581 22.6308H15.052L16.8873 13.109C17.0419 12.1886 17.1326 11.2588 17.1589 10.3262C17.1589 7.51031 15.6296 5.86723 12.9131 5.86723C11.7559 5.86345 10.6158 6.14307 9.59514 6.68102C8.57447 7.21897 7.7051 7.99843 7.06499 8.94949H6.99689L7.33656 6.23394H2.99056C2.78628 7.67549 2.51471 9.48612 2.10935 11.5647L0.00244141 22.6292L4.89399 22.6308ZM32.6923 18.205C31.2424 18.9012 29.6488 19.2569 28.0363 19.2442C27.44 19.2921 26.8406 19.2019 26.2859 18.9807C25.7312 18.7595 25.2366 18.4135 24.8415 17.9702C24.5188 17.4683 24.3425 16.8883 24.332 16.294C30.9932 16.4615 35.1053 14.9504 35.1053 10.7617C35.1053 7.71105 32.6923 5.86644 29.3277 5.86644C23.3122 5.86644 19.6423 11.0628 19.6423 16.0616C19.6423 20.3199 22.0889 22.9683 26.8467 22.9683C28.9791 23.0053 31.0928 22.5699 33.032 21.6942L32.6923 18.205ZM30.5181 10.7957C30.5181 12.2712 28.6147 12.8071 24.8087 12.7715C24.9671 11.8501 25.442 11.0106 26.1538 10.3939C26.8655 9.77725 27.7707 9.42098 28.7173 9.38496C29.8388 9.38733 30.5181 9.95795 30.5181 10.7957ZM37.2811 6.23631L41.1897 14.1467L33.9845 22.6308H39.6259L41.5966 19.7809C42.3441 18.6412 42.8199 17.8051 43.2958 17.0313H43.3975C43.7035 18.0034 43.9751 18.808 44.451 20.0156L45.5044 22.6308H50.8718L47.0009 14.1822L54.0017 6.23631H48.394L46.5587 8.8183C45.8449 9.82438 45.4035 10.5618 44.7914 11.4335H44.6897C44.4494 10.7965 44.1458 9.99193 43.6363 8.68394L42.6509 6.23394L37.2811 6.23631ZM70.8242 19.7809C69.6422 20.3655 68.3402 20.675 67.0181 20.6858C64.3336 20.6858 62.9397 18.9755 62.9397 16.3612C62.9397 12.5391 65.6242 8.37888 69.9093 8.37888C70.8726 8.37039 71.8253 8.5768 72.6963 8.98268L73.5119 6.76978C72.4306 6.29924 71.2609 6.05928 70.0791 6.0656C64.1662 6.0656 60.0197 11.1616 60.0197 16.6939C60.0197 20.1468 62.0929 22.9635 66.3412 22.9635C67.9796 22.9818 69.6026 22.6501 71.0989 21.9914L70.8242 19.7809ZM83.1948 6.03478C77.8595 6.03478 74.0871 10.9964 74.0871 16.328C74.0871 19.9824 76.3983 22.9999 80.5103 22.9999C86.0155 22.9999 89.6181 17.8035 89.6181 12.8047C89.6173 9.35414 87.6466 6.03478 83.194 6.03478H83.1948ZM82.8888 8.24768C85.8457 8.24768 86.7293 10.8961 86.7293 12.7739C86.7293 16.5627 84.2146 20.787 80.8812 20.787C78.4683 20.787 77.0071 18.876 77.0071 16.2276C76.9751 12.5052 79.3543 8.24768 82.888 8.24768H82.8888ZM94.3446 22.6316L95.8739 14.4841C96.5196 11.0312 99.0687 8.34885 101.141 8.34885C103.214 8.34885 103.588 9.7572 103.588 11.1316C103.584 11.7951 103.515 12.4567 103.383 13.1074L101.548 22.6292H104.267L105.865 14.3142C106.544 10.6929 108.957 8.34647 110.996 8.34647C112.832 8.34647 113.48 9.45293 113.48 11.1624C113.471 11.8727 113.39 12.5803 113.239 13.2749L111.472 22.6292H114.222L116.057 13.0402C116.225 12.1328 116.316 11.2131 116.329 10.2907C116.329 7.24002 114.255 6.03241 112.353 6.03241C111.11 6.05702 109.897 6.40485 108.835 7.04074C107.772 7.67662 106.899 8.57799 106.304 9.65367C106.167 7.60831 104.978 6.03241 102.463 6.03241C100.288 6.03241 98.2172 7.20604 96.6854 9.45214H96.5837L97.0251 6.40149H94.5417C94.3719 7.74504 94.1339 9.31857 93.7943 11.1292L91.5856 22.6292L94.3446 22.6316ZM121.804 22.6316L123.333 14.4841C123.979 11.0312 126.528 8.34885 128.601 8.34885C130.673 8.34885 131.047 9.7572 131.047 11.1316C131.043 11.7951 130.975 12.4567 130.843 13.1074L129.008 22.6292H131.727L133.324 14.3142C134.003 10.6929 136.416 8.34647 138.456 8.34647C140.291 8.34647 140.939 9.45293 140.939 11.1624C140.93 11.8727 140.85 12.5803 140.699 13.2749L138.932 22.6292H141.684L143.517 13.0402C143.685 12.1328 143.776 11.2131 143.789 10.2907C143.789 7.24002 141.716 6.03241 139.813 6.03241C138.571 6.05702 137.357 6.40485 136.295 7.04074C135.233 7.67662 134.36 8.57799 133.764 9.65367C133.628 7.60831 132.439 6.03241 129.923 6.03241C127.748 6.03241 125.677 7.20604 124.146 9.45214H124.044L124.485 6.40149H122.002C121.832 7.74504 121.594 9.31857 121.255 11.1292L119.046 22.6292L121.804 22.6316ZM159.558 6.40149L157.962 14.7181C157.283 18.3053 154.665 20.6526 152.627 20.6526C150.69 20.6526 149.976 19.513 149.976 17.8367C149.989 17.0346 150.092 16.2363 150.282 15.4562L152.013 6.40149H149.192L147.425 15.5882C147.239 16.4822 147.136 17.3912 147.119 18.3038C147.119 21.9914 149.328 22.9975 151.435 22.9975C152.611 22.9309 153.754 22.5852 154.766 21.9899C155.777 21.3945 156.628 20.567 157.247 19.5778H157.315L156.873 22.6284H159.422C159.592 21.2849 159.83 19.7113 160.17 17.9007L162.378 6.40149H159.558ZM167.035 22.6284L168.53 14.7497C169.278 10.7261 172.135 8.34806 174.138 8.34806C176.075 8.34806 176.721 9.55488 176.721 11.198C176.71 11.8969 176.629 12.5931 176.48 13.2765L174.681 22.6308H177.502L179.337 13.1761C179.513 12.3144 179.616 11.4396 179.643 10.561C179.643 7.14123 177.434 6.03478 175.463 6.03478C174.224 6.06039 173.013 6.40126 171.947 7.02437C170.882 7.64747 169.997 8.53166 169.379 9.59124H169.311L169.719 6.40623H167.204C167 7.74978 166.797 9.32331 166.422 11.1339L164.211 22.6308L167.035 22.6284ZM185.182 22.6284L188.342 6.40149H185.52L182.36 22.6284H185.182ZM187.665 3.61876C187.917 3.62483 188.167 3.5804 188.401 3.48818C188.635 3.39596 188.847 3.25786 189.025 3.08227C189.203 2.90667 189.343 2.69724 189.436 2.46667C189.53 2.2361 189.575 1.98921 189.569 1.74095C189.588 1.51581 189.558 1.28928 189.483 1.07607C189.407 0.862855 189.287 0.667715 189.13 0.503315C188.973 0.338915 188.782 0.208927 188.571 0.121787C188.36 0.034646 188.132 -0.00769892 187.903 -0.00250339C187.655 -0.00222475 187.409 0.0467875 187.18 0.141679C186.952 0.23657 186.744 0.375443 186.57 0.550208C186.396 0.724974 186.259 0.932139 186.167 1.15964C186.075 1.38713 186.03 1.63041 186.034 1.87531C186.014 2.09775 186.042 2.32183 186.115 2.53322C186.188 2.74462 186.305 2.93868 186.458 3.10299C186.611 3.2673 186.798 3.39824 187.005 3.48746C187.213 3.57668 187.437 3.62221 187.663 3.62113L187.665 3.61876ZM201.191 19.7785C200.009 20.3631 198.707 20.6726 197.385 20.6834C194.701 20.6834 193.307 18.9732 193.307 16.3588C193.307 12.5368 195.991 8.37651 200.276 8.37651C201.24 8.36802 202.192 8.57443 203.063 8.98031L203.879 6.76741C202.798 6.29687 201.628 6.0569 200.446 6.06323C194.533 6.06323 190.387 11.1592 190.387 16.6915C190.387 20.1444 192.46 22.9611 196.707 22.9611C198.346 22.9794 199.969 22.6478 201.465 21.989L201.191 19.7785ZM217.538 22.6284C217.517 20.1083 217.756 17.5926 218.252 15.1203L219.917 6.67178C218.484 6.24797 216.995 6.03336 215.499 6.03478C208.328 6.03478 204.114 12.0025 204.114 17.6352C204.114 20.7174 205.95 22.9999 208.841 22.9999C211.186 22.9999 213.429 21.793 215.23 18.4405H215.298C215.102 19.8297 214.977 21.2277 214.924 22.6292L217.538 22.6284ZM215.802 13.3769C214.986 17.7015 212.197 20.719 209.854 20.719C207.679 20.719 207.034 18.9423 207.034 17.1317C207.067 12.6387 210.534 8.24689 214.782 8.24689C215.447 8.24077 216.109 8.32048 216.753 8.48399L215.802 13.3769ZM226.201 2.74861L225.487 6.40307H223.142L222.701 8.58199H225.08L223.449 16.7958C223.231 17.7987 223.117 18.8209 223.109 19.8465C223.109 21.4896 224.061 22.9983 226.576 22.9983C227.313 23.0188 228.048 22.9167 228.751 22.6964L228.887 20.5175C228.449 20.5882 228.005 20.6217 227.561 20.6178C227.349 20.6468 227.133 20.6269 226.93 20.5597C226.727 20.4924 226.543 20.3797 226.391 20.2303C226.24 20.0809 226.125 19.8989 226.057 19.6986C225.989 19.4983 225.969 19.2852 225.998 19.0759C226.018 18.1967 226.121 17.3213 226.304 16.4607L227.834 8.58199H231.776L232.218 6.40307H228.276L229.126 2.04443L226.201 2.74861ZM235.207 22.63L238.368 6.40149H235.547L232.385 22.6308L235.207 22.63ZM237.69 3.62034C237.942 3.62641 238.192 3.58198 238.426 3.48976C238.66 3.39754 238.872 3.25945 239.05 3.08385C239.228 2.90826 239.368 2.69882 239.461 2.46825C239.555 2.23768 239.6 1.99079 239.594 1.74253C239.613 1.51739 239.583 1.29086 239.508 1.07765C239.432 0.864435 239.312 0.669295 239.155 0.504895C238.998 0.340495 238.807 0.210507 238.596 0.123366C238.385 0.0362257 238.157 -0.00611914 237.928 -0.000923608C237.68 -0.000644971 237.434 0.0483673 237.205 0.143258C236.977 0.238149 236.769 0.377022 236.595 0.551788C236.421 0.726554 236.284 0.933719 236.192 1.16121C236.1 1.38871 236.055 1.63199 236.059 1.87688C236.04 2.0992 236.067 2.32312 236.14 2.53432C236.213 2.74552 236.33 2.93938 236.484 3.10352C236.637 3.26765 236.823 3.39845 237.03 3.48758C237.238 3.5767 237.462 3.62219 237.688 3.62113L237.69 3.62034ZM249.517 6.03399C244.182 6.03399 240.409 10.9956 240.409 16.3272C240.409 19.9816 242.721 22.9991 246.833 22.9991C252.338 22.9991 255.94 17.8027 255.94 12.8039C255.937 9.35413 253.966 6.03478 249.515 6.03478L249.517 6.03399ZM249.211 8.24689C252.168 8.24689 253.052 10.8953 253.052 12.7731C253.052 16.5619 250.537 20.7862 247.204 20.7862C244.791 20.7862 243.329 18.8752 243.329 16.2268C243.296 12.5052 245.674 8.24768 249.208 8.24768L249.211 8.24689ZM260.732 22.6308L262.227 14.752C262.975 10.7285 265.832 8.35043 267.835 8.35043C269.772 8.35043 270.418 9.55725 270.418 11.2003C270.407 11.8993 270.327 12.5955 270.178 13.2789L268.377 22.6332H271.197L273.033 13.1785C273.209 12.3168 273.311 11.442 273.339 10.5633C273.339 7.1436 271.13 6.03715 269.159 6.03715C267.92 6.06276 266.709 6.40363 265.643 7.02674C264.577 7.64984 263.693 8.53403 263.075 9.59361H263.007L263.415 6.4086H260.9C260.696 7.75215 260.492 9.32569 260.118 11.1363L257.91 22.6363L260.732 22.6308ZM275.413 21.8594C276.63 22.6222 278.05 23.0076 279.491 22.9659C282.958 22.9659 285.778 21.0549 285.778 17.6352C285.778 15.8245 284.521 14.4162 282.686 13.3769C281.225 12.5723 280.443 11.835 280.443 10.6613C280.443 9.25297 281.666 8.21133 283.365 8.21133C284.365 8.21383 285.347 8.46761 286.22 8.9487L287.002 6.83617C285.948 6.2764 284.765 5.99899 283.569 6.03162C280.103 6.03162 277.622 8.21054 277.622 11.0604C277.622 12.7035 278.675 14.1427 280.578 15.1844C282.278 16.1233 282.855 16.8946 282.855 18.1686C282.855 19.6102 281.632 20.817 279.731 20.817C278.486 20.7768 277.271 20.431 276.196 19.8109L275.413 21.8594Z" fill="#fff"/>
</g>
<defs>
<clipPath id="clip0_226_204">
<rect width="287" height="23" fill="#fff"/>
</clipPath>
</defs>
</svg>
