<svg width="92" height="112" viewBox="0 0 92 112" fill="none" xmlns="http://www.w3.org/2000/svg">
<path d="M31.7778 38.7697H75.562C76.468 38.7697 77.2026 38.0352 77.2026 37.1291C77.2026 36.223 76.468 35.4885 75.562 35.4885H31.7778C30.8718 35.4885 30.1372 36.223 30.1372 37.1291C30.1372 38.0352 30.8718 38.7697 31.7778 38.7697Z" fill="white"/>
<path d="M31.7778 50.9296H75.562C76.468 50.9296 77.2026 50.195 77.2026 49.2889C77.2026 48.3829 76.468 47.6483 75.562 47.6483H31.7778C30.8718 47.6483 30.1372 48.3829 30.1372 49.2889C30.1372 50.195 30.8718 50.9296 31.7778 50.9296Z" fill="white"/>
<path d="M31.7778 63.0895H75.562C76.468 63.0895 77.2026 62.3549 77.2026 61.4489C77.2026 60.5428 76.468 59.8082 75.562 59.8082H31.7778C30.8718 59.8082 30.1372 60.5428 30.1372 61.4489C30.1372 62.3549 30.8718 63.0895 31.7778 63.0895Z" fill="white"/>
<path d="M91.6534 21.0048C91.6392 20.5936 91.4675 20.1915 91.1756 19.8999L71.7563 0.480594C71.4527 0.176969 71.0253 0 70.5961 0H22.1176C18.5697 0 15.6835 2.88641 15.6835 6.43431V7.66981H14.448C11.1304 7.66981 8.3919 10.1938 8.05021 13.4221H6.77818C3.23028 13.4221 0.343872 16.3085 0.343872 19.8564V75.0057C0.343872 75.9117 1.07843 76.6463 1.9845 76.6463C2.89056 76.6463 3.62512 75.9117 3.62512 75.0057V19.8562C3.62512 18.1175 5.03956 16.7031 6.77818 16.7031H8.01368V99.8134C8.01368 103.361 10.9001 106.248 14.448 106.248H56.1842C57.0902 106.248 57.8248 105.513 57.8248 104.607C57.8248 103.701 57.0902 102.966 56.1842 102.966H14.448C12.7094 102.966 11.2949 101.552 11.2949 99.8134V14.1039C11.2949 12.3653 12.7094 10.9508 14.448 10.9508H15.6835V19.8877C15.6835 20.7937 16.4181 21.5283 17.3241 21.5283C18.2302 21.5283 18.9647 20.7937 18.9647 19.8877V6.43431C18.9647 4.69569 20.3792 3.28125 22.1176 3.28125H68.9555V16.2671C68.9555 19.8146 71.8414 22.7006 75.3889 22.7006H88.3748V92.1436C88.3748 93.8822 86.9603 95.2967 85.2217 95.2967H22.1176C20.379 95.2967 18.9647 93.8822 18.9647 92.1436V27.0377C18.9647 26.1317 18.2302 25.3971 17.3241 25.3971C16.4181 25.3971 15.6835 26.1317 15.6835 27.0377V92.1436C15.6835 95.6915 18.5699 98.5779 22.1176 98.5779H80.7052V99.8134C80.7052 101.552 79.2907 102.966 77.5521 102.966H63.334C62.428 102.966 61.6934 103.701 61.6934 104.607C61.6934 105.513 62.428 106.248 63.334 106.248H72.959C72.6462 107.659 71.3866 108.719 69.8823 108.719H6.77818C5.03956 108.719 3.62512 107.304 3.62512 105.566V82.1555C3.62512 81.2494 2.89056 80.5149 1.9845 80.5149C1.07843 80.5149 0.343872 81.2494 0.343872 82.1555V105.566C0.343872 109.114 3.23028 112 6.77818 112H69.8825C73.2001 112 75.9386 109.476 76.2803 106.248H77.5523C81.1002 106.248 83.9866 103.361 83.9866 99.8134V98.5779H85.2221C88.77 98.5779 91.6564 95.6915 91.6564 92.1436V21.0599C91.6562 21.0416 91.654 21.0232 91.6534 21.0048ZM75.3891 19.4193C73.6509 19.4193 72.2369 18.0053 72.2369 16.2671V5.60131L86.0549 19.4193H75.3891Z" fill="white"/>
</svg>
