<svg width="112" height="112" viewBox="0 0 112 112" fill="none" xmlns="http://www.w3.org/2000/svg">
<g clip-path="url(#clip0_248_380)">
<path d="M97.9617 69.2926C99.3733 64.9355 100.09 60.3913 100.09 55.7608C100.09 51.1474 99.3784 46.6194 97.9754 42.2761C101.061 41.1174 103.866 39.2623 106.196 36.7953C110.221 32.534 112.345 26.9593 112.178 21.1C111.831 9.00294 101.709 -0.554566 89.6099 -0.209351C83.7498 -0.0418698 78.3066 2.39771 74.2811 6.65992C72.2483 8.81239 70.7016 11.2998 69.6891 13.9898C65.3448 12.5875 60.8169 11.8757 56.2017 11.8757C51.5841 11.8757 47.0527 12.5892 42.7059 13.9932C39.5707 5.69691 31.547 -0.21875 22.1664 -0.21875C10.0642 -0.21875 0.21875 9.62672 0.21875 21.7281C0.21875 31.1078 6.13526 39.1307 14.4315 42.2649C13.0268 46.6126 12.3141 51.144 12.3141 55.7608C12.3141 60.3913 13.031 64.9355 14.4426 69.2926C6.14039 72.4243 0.21875 80.4505 0.21875 89.8346C0.21875 93.1381 0.934816 96.3142 2.34729 99.2742C2.7378 100.092 3.71705 100.439 4.5348 100.048C5.35169 99.6578 5.69862 98.6786 5.30897 97.8608C4.1084 95.3452 3.50001 92.645 3.50001 89.8346C3.50001 79.5431 11.874 71.1699 22.1664 71.1699C32.4596 71.1699 40.8337 79.5431 40.8337 89.8346C40.8337 100.127 32.4596 108.5 22.1664 108.5C17.4718 108.5 12.9849 106.751 9.53273 103.575C8.86537 102.961 7.82716 103.005 7.21449 103.671C6.60096 104.339 6.64369 105.376 7.31105 105.99C11.3707 109.725 16.6464 111.781 22.1664 111.781C31.5607 111.781 39.5947 105.848 42.7195 97.5327C47.0612 98.9341 51.5883 99.6459 56.2017 99.6459C60.816 99.6459 65.344 98.9341 69.6857 97.5336C72.8105 105.849 80.8445 111.781 90.2388 111.781C102.341 111.781 112.186 101.936 112.186 89.8346C112.186 80.4505 106.265 72.4234 97.9617 69.2926ZM76.6669 8.91236C80.09 5.2876 84.7205 3.2129 89.7047 3.07019C89.8859 3.06507 90.0653 3.0625 90.2465 3.0625C100.294 3.0625 108.609 11.0871 108.897 21.1931C109.04 26.1765 107.234 30.9173 103.811 34.5429C100.388 38.1677 95.7571 40.2424 90.7728 40.3851C90.5917 40.3902 90.4114 40.3928 90.2311 40.3928C80.184 40.3928 71.8689 32.3682 71.5801 22.2621C71.4365 17.2787 73.2438 12.5371 76.6669 8.91236ZM68.7654 94.3822C64.7228 95.6964 60.5041 96.3646 56.2017 96.3646C51.9011 96.3646 47.6824 95.6964 43.6398 94.3822C43.95 92.9142 44.1149 91.3932 44.1149 89.8346C44.1149 77.7333 34.2686 67.8886 22.1664 67.8886C20.5984 67.8886 19.0689 68.0553 17.5932 68.3689C16.2678 64.3117 15.5954 60.0777 15.5954 55.7608C15.5954 51.4576 16.2644 47.2372 17.5812 43.1904C19.0603 43.5065 20.5941 43.674 22.1664 43.674C25.9262 43.674 29.6355 42.7067 32.8954 40.8773C33.685 40.4338 33.9661 39.434 33.5226 38.6436C33.0792 37.8532 32.0794 37.5729 31.289 38.0164C28.5187 39.5707 25.3639 40.3928 22.1664 40.3928C11.8732 40.3928 3.50001 32.0196 3.50001 21.7272C3.50001 11.4357 11.874 3.0625 22.1664 3.0625C32.4596 3.0625 40.8337 11.4357 40.8337 21.7281C40.8337 26.0338 39.3323 30.2345 36.6065 33.5577C36.0314 34.2575 36.134 35.2914 36.8346 35.8665C37.5345 36.4407 38.5684 36.339 39.1435 35.6384C42.3487 31.7308 44.1149 26.7901 44.1149 21.7272C44.1149 20.1558 43.9466 18.622 43.6313 17.1428C47.6773 15.8261 51.8985 15.157 56.2017 15.157C60.5041 15.157 64.7236 15.8252 68.7679 17.1403C68.4099 18.8339 68.2492 20.5813 68.2997 22.3561C68.6406 34.2395 78.416 43.6749 90.2302 43.674C90.4413 43.674 90.6541 43.6714 90.8668 43.6646C92.2118 43.6262 93.5346 43.4664 94.824 43.1938C96.1399 47.239 96.809 51.4593 96.809 55.7608C96.809 60.0777 96.1356 64.3117 94.8112 68.3689C93.3355 68.0544 91.8059 67.8886 90.2388 67.8886C78.1366 67.8886 68.2911 77.7333 68.2911 89.8346C68.2911 91.394 68.4552 92.915 68.7654 94.3822ZM90.2388 108.5C79.9456 108.5 71.5724 100.127 71.5724 89.8354C71.5724 79.5431 79.9456 71.1699 90.2388 71.1699C100.532 71.1699 108.905 79.5431 108.905 89.8354C108.905 100.127 100.532 108.5 90.2388 108.5Z" fill="white"/>
<path d="M33.3381 12.0432C32.7724 11.6587 32.0282 11.6647 31.4693 12.0594C30.9105 12.4534 30.3123 12.7823 29.6834 13.043C27.4293 11.2793 24.1625 11.2998 21.9246 13.2455C20.7617 14.2572 20.0345 15.656 19.8653 17.1667C17.4582 16.8087 15.2827 15.4834 13.8557 13.4514C13.5156 12.9678 12.9413 12.7054 12.3543 12.7618C11.7656 12.8191 11.2537 13.1882 11.0136 13.7283C10.9666 13.8342 9.8626 16.3567 10.0036 19.444C10.1113 21.8066 10.9564 24.8521 14.0385 27.2036C12.9285 27.5617 11.7562 27.7274 10.5881 27.6804C9.82757 27.6505 9.14825 28.1453 8.94317 28.8767C8.73809 29.6082 9.06194 30.3849 9.72588 30.7541C12.2996 32.1836 15.0571 32.8997 17.7513 32.8997C20.3395 32.8997 22.8688 32.2383 25.1196 30.9147C27.942 29.2544 29.9928 26.7123 31.1062 23.6079C31.1412 23.5293 31.1702 23.4473 31.1933 23.3627C31.7658 21.6768 32.0658 19.8302 32.0658 17.8717C32.0658 17.7863 32.0632 17.7 32.0598 17.6145C32.9963 16.5105 33.6645 15.2023 34.0097 13.7881C34.1704 13.1233 33.9038 12.4277 33.3381 12.0432ZM28.7341 17.3599C28.7666 17.5308 28.7837 17.7076 28.7837 17.8768C28.7837 19.485 28.5444 20.9744 28.0889 22.3202C28.0642 22.3817 28.0437 22.4458 28.0266 22.5116C27.1746 24.8956 25.6237 26.8106 23.4559 28.0863C21.4718 29.2544 19.1945 29.7517 16.8737 29.5834C17.4052 29.3202 17.9188 29.0211 18.4101 28.6879C18.9023 28.3529 19.1757 27.7779 19.1227 27.184C19.0698 26.5901 18.6989 26.0723 18.1546 25.8305C15.0912 24.4693 13.4532 22.304 13.2866 19.3961C13.2524 18.8005 13.2823 18.2289 13.3464 17.7051C15.6031 19.5909 18.4938 20.6198 21.5111 20.542C22.4006 20.5189 23.1098 19.7918 23.1098 18.9022V17.9067C23.1098 17.8999 23.1098 17.8922 23.1098 17.8845C23.0987 17.0548 23.4508 16.2661 24.078 15.7218C25.2503 14.7024 27.0328 14.8263 28.0522 15.9987C28.2573 16.2336 28.5188 16.4003 28.8042 16.4883C28.7042 16.7634 28.6777 17.0634 28.7341 17.3599Z" fill="white"/>
<path d="M84.8401 23.0217H87.166V32.8048C87.166 33.7106 87.9009 34.4455 88.8066 34.4455C89.7133 34.4455 90.4473 33.7106 90.4473 32.8048V23.0217H92.9808C93.8866 23.0217 94.6215 22.2869 94.6215 21.3811C94.6215 20.4754 93.8866 19.7405 92.9808 19.7405H90.4473V15.1502C90.4473 13.5745 91.7299 12.2919 93.3064 12.2919H95.4307C96.3364 12.2919 97.0713 11.557 97.0713 10.6512C97.0713 9.74463 96.3364 9.01062 95.4307 9.01062H93.3064C89.9209 9.01062 87.166 11.7647 87.166 15.1502V19.7405H84.8401C83.9343 19.7405 83.1995 20.4754 83.1995 21.3811C83.1995 22.2869 83.9343 23.0217 84.8401 23.0217Z" fill="white"/>
<path d="M18.4441 98.3197C18.8346 98.3197 19.2251 98.2189 19.5729 98.0181L30.7403 91.5675C31.4367 91.1659 31.869 90.4165 31.869 89.6124C31.869 88.8092 31.4367 88.0598 30.7403 87.6582L19.5729 81.2076C18.8773 80.8051 18.0126 80.8051 17.3162 81.2076C16.6198 81.6092 16.1865 82.3586 16.1865 83.1627V96.063C16.1865 96.8671 16.6198 97.6165 17.3162 98.0181C17.6639 98.2197 18.0536 98.3197 18.4441 98.3197ZM19.4678 84.9366L27.565 89.6133L19.4678 94.2899V84.9366Z" fill="white"/>
<path d="M97.3677 78.2152H83.1096C80.6333 78.2152 78.6184 80.2301 78.6184 82.7073V96.9628C78.6184 99.44 80.6333 101.455 83.1096 101.455H97.3677C99.844 101.455 101.859 99.44 101.859 96.9628V82.7073C101.859 80.2301 99.844 78.2152 97.3677 78.2152ZM98.5777 96.9628C98.5777 97.631 98.0351 98.1736 97.3677 98.1736H83.1096C82.4423 98.1736 81.8997 97.631 81.8997 96.9628V82.7073C81.8997 82.0399 82.4423 81.4965 83.1096 81.4965H97.3677C98.0351 81.4965 98.5777 82.0399 98.5777 82.7073V96.9628Z" fill="white"/>
<path d="M90.2388 84.876C87.5044 84.876 85.2793 87.1011 85.2793 89.8355C85.2793 92.5698 87.5044 94.7941 90.2388 94.7941C92.9732 94.7941 95.1983 92.5698 95.1983 89.8355C95.1983 87.1011 92.9732 84.876 90.2388 84.876ZM90.2388 91.5128C89.3134 91.5128 88.5606 90.76 88.5606 89.8355C88.5606 88.91 89.3134 88.1572 90.2388 88.1572C91.1642 88.1572 91.917 88.91 91.917 89.8355C91.917 90.76 91.1642 91.5128 90.2388 91.5128Z" fill="white"/>
<path d="M68.0757 38.7393C67.1691 38.7393 66.4351 39.4742 66.4351 40.3799V41.1157C64.1228 42.4786 61.6918 43.6552 59.1924 44.6182C57.1912 45.389 55.1242 46.0299 53.0332 46.5314C52.7119 46.2845 52.312 46.135 51.8762 46.135H44.3644C42.5494 46.135 41.0737 47.6115 41.0737 49.4256V58.0415C41.0737 59.8564 42.5494 61.3321 44.3644 61.3321H45.8657L46.4348 72.2714C46.4801 73.1472 47.2047 73.8265 48.072 73.8265C48.1002 73.8265 48.1293 73.8257 48.1583 73.824C49.0632 73.777 49.7588 73.0054 49.7118 72.1005L49.1513 61.3321H51.8762C52.3112 61.3321 52.7119 61.1834 53.0324 60.9365C54.3637 61.2578 55.6881 61.6355 56.9827 62.0653C57.8432 62.3498 58.7711 61.8841 59.0565 61.0245C59.3419 60.164 58.8754 59.2352 58.0158 58.9507C56.6255 58.4892 55.2036 58.0833 53.7732 57.739V49.7298C56.0137 49.1932 58.2277 48.5053 60.3716 47.6799C62.4446 46.8809 64.4749 45.9453 66.4342 44.8857V62.5857C65.713 62.196 64.9842 61.8243 64.2502 61.4714C63.4333 61.0783 62.4532 61.4218 62.0609 62.2387C61.6679 63.0556 62.0114 64.0357 62.8283 64.4288C64.0502 65.0167 65.2585 65.6644 66.4342 66.3548V67.0871C66.4342 67.9938 67.1691 68.7278 68.0749 68.7278C68.9806 68.7278 69.7155 67.9938 69.7155 67.0871V40.3799C69.7164 39.4742 68.9815 38.7393 68.0757 38.7393ZM50.4928 58.05L44.355 58.0415L44.3644 49.4162H50.4928V58.05Z" fill="white"/>
</g>
<defs>
<clipPath id="clip0_248_380">
<rect width="112" height="112" fill="white"/>
</clipPath>
</defs>
</svg>
