<svg width="112" height="112" viewBox="0 0 112 112" fill="none" xmlns="http://www.w3.org/2000/svg">
<g clip-path="url(#clip0_248_397)">
<path d="M111.479 99.9819C110.967 99.2831 110.141 98.8663 109.269 98.8663H106.853C107.271 98.0559 107.509 97.1398 107.509 96.1692V40.2459C107.509 37.6582 105.831 35.4526 103.497 34.6368L105.048 33.1004C106.191 31.9681 106.191 30.1258 105.048 28.9934L78.6527 2.85064C78.0988 2.30225 77.3627 2 76.5793 2C75.796 2 75.0596 2.30225 74.506 2.85064L42.7549 34.299H10.4943C7.18338 34.299 4.48984 36.9669 4.48984 40.2459V96.169C4.48984 97.1396 4.72741 98.0559 5.14545 98.8661H2.73104C1.85908 98.8661 1.03284 99.2833 0.520513 99.9821C0.00840559 100.681 -0.136192 101.588 0.133753 102.409L0.575859 103.754C1.80439 107.49 5.29508 110 9.26222 110H102.738C106.706 110 110.197 107.489 111.425 103.753L111.867 102.409C112.137 101.588 111.992 100.68 111.479 99.9819ZM101.179 29.7581L71.5333 31.8283L77.5093 6.31452L101.179 29.7581ZM37.5231 44.0771L73.685 8.26042L66.8755 37.3326L37.5231 44.0771ZM7.7714 96.169V40.2459C7.7714 38.7589 8.99293 37.549 10.4945 37.549H39.4735L35.5549 41.4302H12.0216C11.1155 41.4302 10.3809 42.1576 10.3809 43.0552V93.3596C10.3809 94.2573 11.1155 94.9846 12.0216 94.9846H51.1691C52.0752 94.9846 52.8098 94.2573 52.8098 93.3596C52.8098 92.462 52.0752 91.7346 51.1691 91.7346H13.6623V44.6803H32.2736L32.0614 44.8904C30.9182 46.023 30.9182 47.8651 32.0614 48.9976L39.3276 56.1945C39.9683 56.8289 41.0072 56.8289 41.6477 56.1945C42.2885 55.5596 42.2885 54.5309 41.6477 53.8963L35.5582 47.8649L61.3181 41.9459L59.2281 71.3086L51.2778 63.4342L54.0516 60.6866C54.6924 60.0518 54.6924 59.0231 54.0516 58.3884C53.4109 57.754 52.372 57.754 51.7315 58.3884L48.9575 61.136L46.6999 58.9C46.0592 58.2656 45.0203 58.2656 44.3798 58.9C43.739 59.5348 43.739 60.5636 44.3798 61.1982L46.6373 63.434L35.4445 74.5203C34.8037 75.1551 34.8037 76.1839 35.4445 76.8185C35.7647 77.1357 36.1847 77.2943 36.6045 77.2943C37.0243 77.2943 37.4443 77.1357 37.7646 76.8185L48.9577 65.7322L58.2095 74.8956L49.8668 83.1589C49.2261 83.7937 49.2261 84.8224 49.8668 85.4571C50.1871 85.7743 50.6071 85.9329 51.0269 85.9329C51.4467 85.9329 51.8667 85.7743 52.187 85.4571L75.0671 62.7953C75.7078 62.1604 75.7078 61.1317 75.0671 60.4971C74.4263 59.8627 73.3875 59.8627 72.747 60.4971L62.5698 70.5771L64.6624 41.1772L67.8293 40.4496C68.9106 40.2013 69.7717 39.3487 70.023 38.2773L70.7578 35.1403L100.441 33.0675L77.7987 55.4938C77.1579 56.1286 77.1579 57.1573 77.7987 57.792C78.1189 58.1092 78.539 58.2678 78.9587 58.2678C79.3785 58.2678 79.7986 58.1092 80.1188 57.792L93.3566 44.6803H98.3364V91.7346H58.3139C57.4078 91.7346 56.6732 92.462 56.6732 93.3596C56.6732 94.2573 57.4078 94.9846 58.3139 94.9846H99.9773C100.883 94.9846 101.618 94.2573 101.618 93.3596V43.0552C101.618 42.1576 100.883 41.4302 99.9773 41.4302H96.6382L100.557 37.549H101.505C103.006 37.549 104.228 38.7589 104.228 40.2459V96.169C104.228 97.6562 103.006 98.8661 101.505 98.8661H10.4943C8.99293 98.8661 7.7714 97.6562 7.7714 96.169ZM3.69576 102.747L3.48816 102.116H43.6721L44.9326 105.911C45.0295 106.203 45.1487 106.483 45.2859 106.75H25.6293V105.974C25.6293 105.076 24.8947 104.349 23.9887 104.349C23.0826 104.349 22.348 105.076 22.348 105.974V106.75H20.617V105.974C20.617 105.076 19.8824 104.349 18.9763 104.349C18.0702 104.349 17.3356 105.076 17.3356 105.974V106.75H15.6046V105.974C15.6046 105.076 14.87 104.349 13.9639 104.349C13.0579 104.349 12.3233 105.076 12.3233 105.974V106.75H9.262C6.71984 106.75 4.48284 105.142 3.69576 102.747ZM50.6362 106.75C49.4573 106.75 48.4178 106.005 48.0494 104.896L47.1263 102.116H64.8737L63.9506 104.896C63.5822 106.005 62.5426 106.75 61.3638 106.75H50.6362ZM108.305 102.747C107.518 105.141 105.281 106.75 102.738 106.75H66.7145C66.8515 106.483 66.9709 106.203 67.0678 105.911L68.3283 102.116H108.512L108.305 102.747Z" fill="white"/>
<path d="M90.2075 83.3497H93.4759C94.3819 83.3497 95.1165 82.6223 95.1165 81.7247C95.1165 80.8271 94.3819 80.0997 93.4759 80.0997H90.2075C89.3015 80.0997 88.5669 80.8271 88.5669 81.7247C88.5669 82.6223 89.3015 83.3497 90.2075 83.3497Z" fill="white"/>
<path d="M78.8687 88.1793H93.4761C94.3822 88.1793 95.1168 87.4519 95.1168 86.5543C95.1168 85.6566 94.3822 84.9293 93.4761 84.9293H78.8687C77.9626 84.9293 77.228 85.6566 77.228 86.5543C77.228 87.4519 77.9626 88.1793 78.8687 88.1793Z" fill="white"/>
<path d="M46.1417 73.1724L36.2088 83.0104C35.5681 83.6453 35.5681 84.674 36.2088 85.3086C36.5291 85.6258 36.9491 85.7844 37.3689 85.7844C37.7887 85.7844 38.2087 85.6258 38.5289 85.3086L48.4618 75.4706C49.1025 74.8357 49.1025 73.807 48.4618 73.1724C47.8213 72.5382 46.7824 72.5382 46.1417 73.1724Z" fill="white"/>
<path d="M29.7759 80.1344L26.4896 83.3893C25.8489 84.0242 25.8489 85.0529 26.4896 85.6875C26.8098 86.0047 27.2298 86.1633 27.6496 86.1633C28.0694 86.1633 28.4894 86.0047 28.8096 85.6875L32.0959 82.4326C32.7366 81.7977 32.7366 80.769 32.0959 80.1344C31.4554 79.5 30.4166 79.5 29.7759 80.1344Z" fill="white"/>
</g>
<defs>
<clipPath id="clip0_248_397">
<rect width="112" height="112" fill="white"/>
</clipPath>
</defs>
</svg>
