<svg width="112" height="98" viewBox="0 0 112 98" fill="none" xmlns="http://www.w3.org/2000/svg">
<path d="M95.9959 8.02423C94.5314 8.02423 93.3442 9.20778 93.3442 10.6679C93.3442 12.128 94.5314 13.3115 95.9959 13.3115C97.4605 13.3115 98.6476 12.128 98.6476 10.6679C98.6476 9.20778 97.4605 8.02423 95.9959 8.02423Z" fill="white"/>
<path d="M86.9364 13.3115C88.4008 13.3115 89.5881 12.1279 89.5881 10.6679C89.5881 9.20783 88.4008 8.02423 86.9364 8.02423C85.4719 8.02423 84.2847 9.20783 84.2847 10.6679C84.2847 12.1279 85.4719 13.3115 86.9364 13.3115Z" fill="white"/>
<path d="M77.8763 13.3115C79.3408 13.3115 80.528 12.1279 80.528 10.6679C80.528 9.20783 79.3408 8.02423 77.8763 8.02423C76.4118 8.02423 75.2246 9.20783 75.2246 10.6679C75.2246 12.1279 76.4118 13.3115 77.8763 13.3115Z" fill="white"/>
<path d="M112 6.04164C112 2.71037 109.281 1.316e-08 105.94 1.316e-08H6.06003C2.71862 -0.000218073 0 2.71015 0 6.04164V77.7139C0 78.6172 0.734344 79.3495 1.64062 79.3495C2.54691 79.3495 3.28125 78.6172 3.28125 77.7139V21.3364H108.719V29.9836C108.719 30.8869 109.453 31.6192 110.359 31.6192C111.266 31.6192 112 30.8869 112 29.9836V6.04164ZM3.28125 18.0649V6.04164C3.28125 4.51416 4.52769 3.27129 6.06003 3.27129H105.94C107.472 3.27129 108.719 4.51416 108.719 6.04164V18.0652H3.28125V18.0649Z" fill="white"/>
<path d="M110.359 35.9807C109.453 35.9807 108.719 36.713 108.719 37.6164V91.959C108.719 93.4863 107.473 94.7287 105.941 94.7287H6.05938C4.52747 94.7287 3.28125 93.4863 3.28125 91.959V85.3467C3.28125 84.4433 2.54691 83.711 1.64062 83.711C0.734344 83.711 0 84.4433 0 85.3467V91.959C0 95.2901 2.71819 98 6.05938 98H105.941C109.282 98 112 95.2901 112 91.959V37.6164C112 36.713 111.266 35.9807 110.359 35.9807Z" fill="white"/>
<path d="M57.3936 56.3979H37.2183C36.312 56.3979 35.5776 57.1302 35.5776 58.0335V89.3158C35.5776 90.2191 36.312 90.9514 37.2183 90.9514H93.787C94.6933 90.9514 95.4276 90.2191 95.4276 89.3158V70.1249C101.041 69.3276 105.371 64.5063 105.371 58.6937C105.371 52.3254 100.174 47.1443 93.7866 47.1443C88.1872 47.1443 83.5036 51.1257 82.4326 56.3977H65.0498C64.1435 56.3977 63.4092 57.13 63.4092 58.0333C63.4092 58.9366 64.1435 59.669 65.0498 59.669H82.2464C82.6994 65.0385 86.8504 69.3729 92.1464 70.1249V87.6799H38.8589V59.669H57.3936C58.2999 59.669 59.0342 58.9366 59.0342 58.0333C59.0342 57.13 58.2999 56.3979 57.3936 56.3979ZM85.4833 58.6939C85.4833 54.1294 89.2081 50.4158 93.7866 50.4158C98.365 50.4158 102.09 54.1294 102.09 58.6939C102.09 63.2541 98.372 66.9644 93.7995 66.9716C93.7953 66.9716 93.7912 66.9709 93.787 66.9709C93.7826 66.9709 93.7785 66.9716 93.7741 66.9716C89.2016 66.9646 85.4833 63.2541 85.4833 58.6939Z" fill="white"/>
<path d="M52.7345 65.3285C52.4222 64.5715 51.6905 64.0826 50.8695 64.0826C50.8688 64.0826 50.8684 64.0826 50.8677 64.0826C50.0461 64.0832 49.314 64.5733 49.0029 65.3316C48.9979 65.344 48.9926 65.3566 48.988 65.3691L42.7554 81.6841C42.4327 82.5283 42.858 83.4733 43.7048 83.7947C43.8968 83.8678 44.0941 83.9022 44.2884 83.9022C44.9492 83.9022 45.5725 83.501 45.8218 82.8482L46.9716 79.8384H54.721L55.8585 82.8436C56.1783 83.6887 57.1253 84.1157 57.9727 83.7965C58.8204 83.4774 59.2483 82.5337 58.9282 81.6887L52.7523 65.373C52.7466 65.3579 52.7407 65.3431 52.7345 65.3285ZM48.2211 76.5671L50.8638 69.6494L53.4825 76.5671H48.2211Z" fill="white"/>
<path d="M83.5895 80.6053C82.6522 80.6053 81.7534 80.2323 81.1855 79.6073C80.5771 78.938 79.5396 78.8872 78.868 79.4937C78.1967 80.1002 78.1455 81.1346 78.7541 81.8041C79.9513 83.1213 81.7135 83.8766 83.5895 83.8766C85.9448 83.8766 87.9247 82.3657 88.2975 80.2838C88.5805 78.7038 87.8784 76.6464 85.0593 75.6096C83.844 75.1627 82.7084 74.6773 82.2987 74.4991C82.1919 74.3944 82.1828 74.2631 82.1968 74.1645C82.2326 73.9151 82.4464 73.7142 82.783 73.613C84.0627 73.229 85.2842 74.1759 85.3275 74.2101C86.0212 74.7813 87.0482 74.689 87.6281 74.0012C88.2111 73.3097 88.1214 72.2779 87.428 71.6967C86.4832 70.9053 84.2425 69.7581 81.8367 70.4806C80.2735 70.95 79.1673 72.1837 78.949 73.6996C78.7429 75.1305 79.3653 76.507 80.5734 77.2923C80.646 77.3394 80.7222 77.3807 80.8011 77.4158C80.8615 77.4428 82.3022 78.082 83.9238 78.6785C84.5262 78.9001 85.1429 79.2869 85.0676 79.7085C85.0027 80.0703 84.4882 80.6053 83.5895 80.6053Z" fill="white"/>
<path d="M71.6957 82.7996C71.9249 83.4275 72.5269 83.8766 73.2361 83.8766C74.1424 83.8766 74.8767 83.1442 74.8767 82.2409V66.6848C74.8767 65.7815 74.1424 65.0492 73.2361 65.0492C72.3298 65.0492 71.5955 65.7815 71.5955 66.6848V71.1857C70.5496 70.5439 69.3196 70.1729 68.004 70.1729C64.2144 70.1729 61.1313 73.2466 61.1313 77.0245C61.1313 80.8024 64.2144 83.8763 68.004 83.8763C69.3623 83.8766 70.6286 83.4801 71.6957 82.7996ZM64.4126 77.0247C64.4126 75.0504 66.0237 73.4444 68.004 73.4444C69.9844 73.4444 71.5955 75.0506 71.5955 77.0247C71.5955 78.9988 69.9844 80.6053 68.004 80.6053C66.0237 80.6053 64.4126 78.9991 64.4126 77.0247Z" fill="white"/>
<path d="M93.7862 61.007L94.6572 61.8754C94.9777 62.1949 95.3975 62.3545 95.8175 62.3545C96.2373 62.3545 96.6573 62.1949 96.9775 61.8754C97.6184 61.2366 97.6184 60.2011 96.9777 59.5624L96.1064 58.6937L96.9777 57.8251C97.6184 57.1863 97.6184 56.1506 96.9775 55.5119C96.337 54.8731 95.2982 54.8733 94.6574 55.5119L93.7864 56.3803L92.9153 55.5119C92.2744 54.8731 91.2358 54.8731 90.595 55.5119C89.9543 56.1506 89.9543 57.1863 90.595 57.8249L91.4663 58.6935L90.5953 59.5619C89.9543 60.2007 89.9543 61.2362 90.595 61.875C90.9155 62.1945 91.3353 62.3541 91.7553 62.3541C92.1751 62.3541 92.5951 62.1945 92.9153 61.875L93.7862 61.007Z" fill="white"/>
<path d="M88.9252 25.1143H23.075C22.1687 25.1143 21.4343 25.8467 21.4343 26.75V33.7996C21.4343 34.7029 22.1687 35.4352 23.075 35.4352H88.925C89.8313 35.4352 90.5656 34.7029 90.5656 33.7996V26.75C90.5659 25.8467 89.8313 25.1143 88.9252 25.1143ZM87.2846 32.1639H24.7156V28.3856H87.2844V32.1639H87.2846Z" fill="white"/>
<path d="M7.07104 50.9837C7.07104 51.8872 7.80539 52.6198 8.71167 52.6198H66.1648C67.0711 52.6198 67.8054 51.8872 67.8054 50.9837C67.8054 50.0801 67.0711 49.3476 66.1648 49.3476H8.71167C7.80561 49.3476 7.07104 50.0801 7.07104 50.9837Z" fill="white"/>
<path d="M24.1797 42.298C23.2734 42.298 22.5391 43.0305 22.5391 43.9341C22.5391 44.8376 23.2734 45.5702 24.1797 45.5702H66.1648C67.0711 45.5702 67.8054 44.8376 67.8054 43.9341C67.8054 43.0305 67.0711 42.298 66.1648 42.298H24.1797Z" fill="white"/>
<path d="M8.71167 59.6695H30.1459C31.0522 59.6695 31.7865 58.9369 31.7865 58.0334C31.7865 57.1298 31.0522 56.3973 30.1459 56.3973H8.71167C7.80539 56.3973 7.07104 57.1298 7.07104 58.0334C7.07104 58.9369 7.80561 59.6695 8.71167 59.6695Z" fill="white"/>
<path d="M8.71167 66.7191H30.1459C31.0522 66.7191 31.7865 65.9866 31.7865 65.083C31.7865 64.1794 31.0522 63.4469 30.1459 63.4469H8.71167C7.80539 63.4469 7.07104 64.1794 7.07104 65.083C7.07104 65.9866 7.80561 66.7191 8.71167 66.7191Z" fill="white"/>
<path d="M8.71167 73.7688H19.0975C20.0038 73.7688 20.7381 73.0362 20.7381 72.1327C20.7381 71.2291 20.0038 70.4966 19.0975 70.4966H8.71167C7.80539 70.4966 7.07104 71.2291 7.07104 72.1327C7.07104 73.0362 7.80561 73.7688 8.71167 73.7688Z" fill="white"/>
</svg>
