<svg width="112" height="112" viewBox="0 0 112 112" fill="none" xmlns="http://www.w3.org/2000/svg">
<path d="M84.9916 104.752C93.8893 104.752 101.128 97.5133 101.128 88.6154C101.128 79.7178 93.8893 72.4789 84.9916 72.4789C76.094 72.4789 68.8551 79.7178 68.8551 88.6154C68.8553 97.5133 76.094 104.752 84.9916 104.752ZM84.9916 75.7604C92.08 75.7604 97.8469 81.527 97.8469 88.6156C97.8469 95.7042 92.08 101.471 84.9916 101.471C77.9033 101.471 72.1364 95.7042 72.1364 88.6156C72.1364 81.527 77.9033 75.7604 84.9916 75.7604Z" fill="white"/>
<path d="M93.8801 66.9878V12.5123C93.8801 7.61141 89.8927 3.62403 84.9918 3.62403H79.1214C78.4302 1.52228 76.4498 0 74.1197 0C71.7896 0 69.8092 1.52228 69.1182 3.62403H53.7534C53.0624 1.52228 51.0823 0 48.7522 0C46.422 0 44.4417 1.52228 43.7507 3.62403H28.3861C27.6948 1.52228 25.7145 0 23.3844 0C21.0542 0 19.0741 1.52228 18.3829 3.62403H12.5123C7.61118 3.62403 3.62402 7.61119 3.62402 12.5123V81.368C3.62402 86.2691 7.6114 90.2565 12.5123 90.2565H25.1961C26.1021 90.2565 26.8367 89.5221 26.8367 88.6158C26.8367 87.7096 26.1021 86.9752 25.1961 86.9752H12.5123C9.42046 86.9752 6.90527 84.4598 6.90527 81.368V25.025H90.5988V65.9124C88.8016 65.4684 86.924 65.2313 84.9916 65.2313C72.6491 65.2313 62.5104 74.8436 61.6656 86.975H31.759C30.8529 86.975 30.1184 87.7093 30.1184 88.6156C30.1184 89.5219 30.8529 90.2562 31.759 90.2562H61.6669C61.9714 94.6809 63.5036 98.8741 66.1504 102.468C66.6877 103.198 67.7147 103.354 68.4443 102.817C69.1738 102.279 69.3298 101.253 68.7925 100.523C66.2384 97.0546 64.8885 92.9368 64.8885 88.6154C64.8885 77.5305 73.9067 68.5125 84.9916 68.5125C96.0765 68.5125 105.095 77.5307 105.095 88.6154C105.095 99.7001 96.0765 108.719 84.9916 108.719C80.5844 108.719 76.4011 107.319 72.8938 104.673C72.1707 104.127 71.1419 104.27 70.5961 104.994C70.0503 105.717 70.194 106.746 70.9172 107.292C74.9984 110.372 79.8654 112 84.9916 112C97.8858 112 108.376 101.51 108.376 88.6156C108.376 78.8666 102.379 70.4935 93.8801 66.9878ZM74.1197 3.28125C75.2132 3.28125 76.1029 4.17091 76.1029 5.26444V12.5125C76.1029 13.606 75.2132 14.4957 74.1197 14.4957C73.0262 14.4957 72.1363 13.606 72.1363 12.5125V5.26684C72.1363 5.26619 72.1363 5.26553 72.1363 5.26466C72.1363 5.26422 72.1363 5.26378 72.1363 5.26356C72.137 4.17047 73.0264 3.28125 74.1197 3.28125ZM46.7687 5.26444C46.7687 4.17091 47.6584 3.28125 48.7522 3.28125C49.8457 3.28125 50.7353 4.17091 50.7353 5.26444V12.5125C50.7353 13.606 49.8457 14.4957 48.7522 14.4957C47.6586 14.4957 46.7687 13.606 46.7687 12.5125V5.26444ZM21.4012 5.26444C21.4012 4.17091 22.2908 3.28125 23.3844 3.28125C24.4781 3.28125 25.3678 4.17091 25.3678 5.26444V12.5125C25.3678 13.606 24.4781 14.4957 23.3844 14.4957C22.2908 14.4957 21.4012 13.606 21.4012 12.5125V5.26444ZM6.90527 21.7437V12.5123C6.90527 9.42047 9.42068 6.90528 12.5123 6.90528H18.1197V12.5125C18.1197 15.4155 20.4813 17.7769 23.3841 17.7769C26.2872 17.7769 28.6488 15.4153 28.6488 12.5125V6.90528H43.4875V12.5125C43.4875 15.4155 45.8491 17.7769 48.7522 17.7769C51.655 17.7769 54.0166 15.4153 54.0166 12.5125V6.90528H68.8551V12.5125C68.8551 15.4155 71.2167 17.7769 74.1197 17.7769C77.0225 17.7769 79.3842 15.4153 79.3842 12.5125V6.90528H84.9916C88.0834 6.90528 90.5986 9.42047 90.5986 12.5123V21.7437H6.90527Z" fill="white"/>
<path d="M84.9916 90.2563H92.2394C93.1455 90.2563 93.8801 89.5219 93.8801 88.6156C93.8801 87.7094 93.1455 86.975 92.2394 86.975H86.6322V81.3678C86.6322 80.4615 85.8976 79.7272 84.9916 79.7272C84.0855 79.7272 83.351 80.4615 83.351 81.3678V88.6156C83.351 89.5217 84.0855 90.2563 84.9916 90.2563Z" fill="white"/>
<path d="M34.8602 43.1447H42.1081C44.0119 43.1447 45.5606 41.596 45.5606 39.6922V32.4441C45.5606 30.5403 44.0116 28.9916 42.1081 28.9916H34.8602C32.9564 28.9916 31.4075 30.5403 31.4075 32.4441V39.6922C31.4077 41.596 32.9564 43.1447 34.8602 43.1447ZM34.6889 32.4441C34.6889 32.3496 34.7659 32.2728 34.8604 32.2728H42.1083C42.2028 32.2728 42.2796 32.3498 42.2796 32.4441V39.6922C42.2796 39.7867 42.2026 39.8635 42.1083 39.8635H34.8604C34.7659 39.8635 34.6889 39.7865 34.6889 39.6922V32.4441Z" fill="white"/>
<path d="M55.396 43.1447H62.6439C64.5476 43.1447 66.0966 41.596 66.0966 39.6922V32.4441C66.0966 30.5403 64.5476 28.9916 62.6439 28.9916H55.396C53.4922 28.9916 51.9435 30.5403 51.9435 32.4441V39.6922C51.9435 41.596 53.4922 43.1447 55.396 43.1447ZM55.2247 32.4441C55.2247 32.3496 55.3017 32.2728 55.396 32.2728H62.6439C62.7384 32.2728 62.8154 32.3498 62.8154 32.4441V39.6922C62.8154 39.7867 62.7384 39.8635 62.6439 39.8635H55.396C55.3015 39.8635 55.2247 39.7865 55.2247 39.6922V32.4441Z" fill="white"/>
<path d="M75.9319 43.1447H83.1797C85.0835 43.1447 86.6323 41.596 86.6323 39.6922V32.4441C86.6323 30.5403 85.0835 28.9916 83.1797 28.9916H75.9319C74.0281 28.9916 72.4794 30.5403 72.4794 32.4441V39.6922C72.4792 41.596 74.0281 43.1447 75.9319 43.1447ZM75.7604 32.4441C75.7604 32.3496 75.8374 32.2728 75.9317 32.2728H83.1795C83.274 32.2728 83.3508 32.3498 83.3508 32.4441V39.6922C83.3508 39.7867 83.2738 39.8635 83.1795 39.8635H75.9317C75.8372 39.8635 75.7604 39.7865 75.7604 39.6922V32.4441Z" fill="white"/>
<path d="M25.025 50.5021C25.025 48.6325 23.504 47.1115 21.6343 47.1115H14.2625C12.3928 47.1115 10.8718 48.6325 10.8718 50.5021V57.8738C10.8718 59.7434 12.3928 61.2644 14.2625 61.2644H21.6343C23.504 61.2644 25.025 59.7434 25.025 57.8738V50.5021ZM21.7437 57.8738C21.7437 57.9339 21.6947 57.9832 21.6343 57.9832H14.2625C14.2021 57.9832 14.1531 57.9339 14.1531 57.8738V50.5021C14.1531 50.442 14.2021 50.3928 14.2625 50.3928H21.6343C21.6947 50.3928 21.7437 50.442 21.7437 50.5021V57.8738Z" fill="white"/>
<path d="M31.4077 57.8738C31.4077 59.7434 32.9287 61.2644 34.7983 61.2644H42.1702C44.0399 61.2644 45.5608 59.7434 45.5608 57.8738V50.5021C45.5608 48.6325 44.0399 47.1115 42.1702 47.1115H34.7983C32.9287 47.1115 31.4077 48.6325 31.4077 50.5021V57.8738ZM34.689 50.5021C34.689 50.442 34.738 50.3928 34.7983 50.3928H42.1702C42.2306 50.3928 42.2796 50.442 42.2796 50.5021V57.8738C42.2796 57.9339 42.2306 57.9832 42.1702 57.9832H34.7983C34.738 57.9832 34.689 57.9339 34.689 57.8738V50.5021Z" fill="white"/>
<path d="M51.9435 57.8738C51.9435 59.7434 53.4645 61.2644 55.3341 61.2644H62.706C64.5756 61.2644 66.0966 59.7434 66.0966 57.8738V50.5021C66.0966 48.6325 64.5756 47.1115 62.706 47.1115H55.3341C53.4645 47.1115 51.9435 48.6325 51.9435 50.5021V57.8738ZM55.2247 50.5021C55.2247 50.442 55.2737 50.3928 55.3341 50.3928H62.706C62.7664 50.3928 62.8154 50.442 62.8154 50.5021V57.8738C62.8154 57.9339 62.7664 57.9832 62.706 57.9832H55.3341C55.2737 57.9832 55.2247 57.9339 55.2247 57.8738V50.5021Z" fill="white"/>
<path d="M31.4077 75.9938C31.4077 77.8634 32.9287 79.3844 34.7983 79.3844H42.1702C44.0399 79.3844 45.5608 77.8634 45.5608 75.9938V68.6219C45.5608 66.7522 44.0399 65.2313 42.1702 65.2313H34.7983C32.9287 65.2313 31.4077 66.7522 31.4077 68.6219V75.9938ZM34.689 68.6219C34.689 68.5617 34.738 68.5125 34.7983 68.5125H42.1702C42.2306 68.5125 42.2796 68.5617 42.2796 68.6219V75.9938C42.2796 76.0539 42.2306 76.1031 42.1702 76.1031H34.7983C34.738 76.1031 34.689 76.0539 34.689 75.9938V68.6219Z" fill="white"/>
<path d="M72.4791 57.8738C72.4791 59.7434 74.0001 61.2644 75.8698 61.2644H83.2416C85.1113 61.2644 86.6322 59.7434 86.6322 57.8738V50.5021C86.6322 48.6325 85.1113 47.1115 83.2416 47.1115H75.8698C74.0001 47.1115 72.4791 48.6325 72.4791 50.5021V57.8738ZM75.7604 50.5021C75.7604 50.442 75.8094 50.3928 75.8698 50.3928H83.2416C83.302 50.3928 83.351 50.442 83.351 50.5021V57.8738C83.351 57.9339 83.302 57.9832 83.2416 57.9832H75.8698C75.8094 57.9832 75.7604 57.9339 75.7604 57.8738V50.5021Z" fill="white"/>
<path d="M21.6343 65.2313H14.2625C12.3928 65.2313 10.8718 66.7522 10.8718 68.6219V75.9938C10.8718 77.8634 12.3928 79.3844 14.2625 79.3844H21.6343C23.504 79.3844 25.025 77.8634 25.025 75.9938V68.6219C25.025 66.7522 23.504 65.2313 21.6343 65.2313ZM21.7437 75.9938C21.7437 76.0539 21.6947 76.1031 21.6343 76.1031H14.2625C14.2021 76.1031 14.1531 76.0539 14.1531 75.9938V68.6219C14.1531 68.5617 14.2021 68.5125 14.2625 68.5125H21.6343C21.6947 68.5125 21.7437 68.5617 21.7437 68.6219V75.9938Z" fill="white"/>
</svg>
