<svg width="64" height="64" viewBox="0 0 64 64" fill="none" xmlns="http://www.w3.org/2000/svg">
<path d="M62.1614 53.4443L53.9925 45.7579C53.2005 45.0127 52.1629 44.6021 51.0712 44.6021C50.4247 44.6021 49.7914 44.751 49.2191 45.0259L46.2987 42.2774C52.3011 32.9631 51.0067 20.3714 42.6552 12.5087C41.8818 11.7831 41.061 11.1098 40.209 10.5014V2.27586C40.209 1.02099 39.1865 0 37.9297 0H33.9683C32.7115 0 31.689 1.02099 31.689 2.27586V6.7016C27.9728 5.88129 24.0661 5.97797 20.3991 6.97308C20.3605 6.45013 20.1447 5.93744 19.7463 5.53608L18.3156 4.10934C17.8898 3.68356 17.3225 3.4487 16.7175 3.4487C16.113 3.4487 15.5451 3.68356 15.1194 4.10934L14.9953 4.23336C14.8738 4.17769 14.7512 4.12447 14.6282 4.07467V3.90426C14.6282 2.65915 13.6135 1.64598 12.3665 1.64598H10.3445C9.09745 1.64598 8.08281 2.65915 8.08281 3.90426V4.07467C7.95977 4.12447 7.83721 4.17769 7.71563 4.23336L7.5916 4.10934C7.16583 3.68356 6.59796 3.4487 5.99348 3.4487C5.3885 3.4487 4.82112 3.68356 4.39584 4.10836L2.96128 5.5395C2.08336 6.42377 2.08433 7.85832 2.96519 8.73917L3.16782 8.94083C3.12827 9.03604 3.09018 9.13224 3.05356 9.22891H2.76206C1.515 9.22891 0.500854 10.2436 0.500854 11.4906V13.5126C0.500854 14.7596 1.515 15.7743 2.76206 15.7743H3.13755C3.16782 15.8495 3.19956 15.9242 3.23178 15.9984L2.96372 16.2655C2.53794 16.6917 2.30308 17.2591 2.30308 17.8641C2.30308 18.4691 2.53794 19.0364 2.96372 19.4627L4.39486 20.8938C4.493 20.992 4.59945 21.0789 4.71077 21.156C1.70153 28.9548 3.08433 37.7721 8.42119 44.3941C8.60771 44.626 8.88114 44.7461 9.15702 44.7461C9.36502 44.7461 9.5745 44.6778 9.7493 44.5372C10.1555 44.2095 10.2195 43.6148 9.89187 43.2086C4.89632 37.0104 3.6644 28.7253 6.62091 21.4656C6.98468 21.3616 7.31817 21.1678 7.59307 20.8924L7.8582 20.6263C7.93291 20.659 8.00762 20.6902 8.08281 20.721V21.096C8.08281 22.1634 8.82694 23.0579 9.82303 23.2942C7.29424 30.0168 9.01786 37.631 14.3205 42.6217C15.5671 43.7945 16.9392 44.752 18.3903 45.4991C18.4421 45.5328 18.4973 45.5611 18.5554 45.5845C19.7233 46.17 20.9416 46.6187 22.1862 46.9326C22.255 46.9585 22.3278 46.9766 22.4035 46.9859C23.778 47.314 25.1832 47.479 26.5875 47.479C27.4488 47.479 28.3092 47.4165 29.1622 47.2935C29.252 47.292 29.338 47.2783 29.42 47.2539C30.5836 47.0694 31.732 46.7701 32.8462 46.357C32.9317 46.337 33.0123 46.3067 33.0874 46.2657C35.4986 45.3316 37.7432 43.8594 39.6304 41.8546C39.7397 41.7384 39.8467 41.6207 39.9526 41.502C39.9697 41.484 39.9863 41.4659 40.0014 41.4464C42.8559 38.2218 44.4482 34.1022 44.495 29.7829C44.5424 25.4285 43.0224 21.2434 40.209 17.9549V12.8788C40.6035 13.2006 40.9887 13.536 41.3613 13.8861C50.0126 22.031 50.4281 35.6984 42.2871 44.3531C38.0952 48.8076 32.3321 51.0928 26.5484 51.0928C21.8556 51.0928 17.1496 49.5879 13.2595 46.5171C12.8499 46.1939 12.2561 46.2637 11.9329 46.6734C11.6096 47.0826 11.6795 47.6768 12.0891 48C16.2307 51.27 21.321 53.0244 26.5792 53.0244C27.1398 53.0244 27.7027 53.0044 28.2662 52.9643C33.086 52.6206 37.6255 50.8144 41.3335 47.8101L44.1244 50.4355C43.9008 50.9829 43.7914 51.5762 43.8105 52.186C43.8461 53.3266 44.3212 54.3818 45.1474 55.1577L53.3162 62.8431C54.1068 63.5892 55.1444 63.9999 56.2371 63.9999C57.4104 63.9999 58.5423 63.5131 59.3435 62.6635L62.3455 59.4716C63.9538 57.7612 63.8718 55.0581 62.1614 53.4443V53.4443ZM31.689 8.64005V12.4164C28.6119 11.5053 25.3263 11.4369 22.2101 12.2206V11.4906C22.2101 10.2436 21.196 9.2294 19.9489 9.2294H19.6574C19.6511 9.21231 19.6442 9.1962 19.6374 9.1796C23.4962 7.87151 27.7218 7.68205 31.689 8.64005ZM9.31229 19.157C8.90019 19.0267 8.49589 18.8558 8.11113 18.6492C7.97051 18.5736 7.81719 18.5369 7.66485 18.5369C7.41875 18.5369 7.17657 18.6326 6.99493 18.8152L6.25568 19.5579C6.16242 19.6512 6.05109 19.6648 5.99348 19.6648C5.93488 19.6648 5.82404 19.6512 5.73078 19.5579L4.29916 18.1263C4.20638 18.033 4.19222 17.9222 4.19222 17.8641C4.19222 17.806 4.20638 17.6947 4.29818 17.6033L5.04231 16.8626C5.33821 16.5677 5.40559 16.1136 5.20833 15.7459C5.00374 15.3656 4.83284 14.9608 4.70003 14.5433C4.57503 14.1512 4.21127 13.8846 3.79965 13.8846H2.76206C2.5604 13.8846 2.39 13.7142 2.39 13.5126V11.4906C2.39 11.289 2.55992 11.1185 2.76206 11.1185H3.7352C4.15707 11.1185 4.52767 10.8388 4.64388 10.4335C4.76937 9.99258 4.93733 9.56924 5.14241 9.17423C5.33284 8.80802 5.26301 8.36027 4.97054 8.06926L4.29965 7.40178C4.15658 7.25872 4.15804 7.01605 4.29867 6.87396L5.73078 5.44526C5.82404 5.352 5.93537 5.33833 5.99348 5.33833C6.05158 5.33833 6.16242 5.352 6.25568 5.44526L6.86407 6.05365C7.16339 6.35297 7.62481 6.41644 7.99394 6.2099C8.41435 5.97406 8.85771 5.78217 9.3118 5.63911C9.70486 5.51508 9.97244 5.15034 9.97244 4.73824V3.90426C9.97244 3.70455 10.1428 3.53561 10.3445 3.53561H12.3665C12.5681 3.53561 12.7385 3.70455 12.7385 3.90426V4.73824C12.7385 5.15034 13.0061 5.51508 13.3997 5.63911C13.8537 5.78217 14.2966 5.97406 14.717 6.2099C15.0857 6.41644 15.5476 6.35297 15.8469 6.05365L16.4548 5.44526C16.5481 5.352 16.6599 5.33833 16.7175 5.33833C16.7756 5.33833 16.8869 5.352 16.9807 5.44624L18.4089 6.87103C18.5529 7.01605 18.5539 7.25921 18.4133 7.39983L17.9528 7.85783C17.9426 7.86711 17.9333 7.87688 17.924 7.88664L17.7404 8.06926C17.4475 8.36027 17.3781 8.80802 17.5681 9.17472C17.7731 9.56924 17.9411 9.99258 18.0671 10.4335C18.1833 10.8393 18.5539 11.1185 18.9753 11.1185H19.9489C20.1506 11.1185 20.321 11.289 20.321 11.4906V13.4886V13.495V13.5126C20.321 13.7142 20.1506 13.8851 19.9489 13.8851H18.9147C18.506 13.8851 18.1433 14.1478 18.0168 14.537C17.8776 14.9627 17.7048 15.37 17.5031 15.7459C17.3054 16.1141 17.3728 16.5682 17.6687 16.8626L18.4113 17.6019C18.5534 17.744 18.5534 17.9847 18.4113 18.1268L16.9797 19.5584C16.8869 19.6512 16.7756 19.6653 16.7175 19.6653C16.6594 19.6653 16.5481 19.6512 16.4568 19.5599L15.716 18.8152C15.4216 18.5194 14.967 18.452 14.5993 18.6492C14.2151 18.8563 13.8108 19.0267 13.3987 19.157C13.0056 19.2811 12.7385 19.6458 12.7385 20.0579V21.0955C12.7385 21.2976 12.5681 21.4681 12.366 21.4681H10.3445C10.1428 21.4681 9.97244 21.2976 9.97244 21.0955V20.0579C9.97244 19.6453 9.70486 19.2811 9.31229 19.157ZM13.218 38.3981V29.4191C13.218 29.2077 13.3948 29.029 13.6042 29.029H17.569C17.7805 29.029 17.9592 29.2077 17.9592 29.4191V43.0728C17.1369 42.5465 16.3513 41.9381 15.615 41.2452C14.6931 40.3775 13.8938 39.42 13.218 38.3981ZM23.4625 45.2833V38.1652C23.4625 37.6432 23.0397 37.2203 22.5177 37.2203C21.9962 37.2203 21.5729 37.6432 21.5729 38.1652V44.7886C20.9884 44.5967 20.4123 44.3707 19.8483 44.1094V29.4191C19.8483 28.1623 18.8259 27.1394 17.569 27.1394H13.6042C12.3494 27.1394 11.3284 28.1623 11.3284 29.4191V34.4582C10.1868 30.8908 10.3098 26.9592 11.8323 23.3572H12.366C13.613 23.3572 14.6277 22.3426 14.6277 21.0955V20.7205C14.7029 20.6897 14.7781 20.6585 14.8523 20.6258L15.1194 20.8938C15.5451 21.3201 16.113 21.5545 16.7175 21.5545C17.3225 21.5545 17.8898 21.3196 18.3156 20.8938L19.7472 19.4622C20.6286 18.5809 20.6286 17.1473 19.7453 16.264L19.4787 15.9989C19.5114 15.9246 19.5431 15.8495 19.5739 15.7743H19.9489C20.9533 15.7743 21.8058 15.1156 22.0998 14.2074C25.2355 13.2938 28.5973 13.3602 31.689 14.3963V44.7618C31.1636 44.9371 30.6309 45.085 30.0933 45.2046V21.3997C30.0933 20.1429 29.0709 19.1204 27.8136 19.1204H23.8527C22.5959 19.1204 21.5734 20.1429 21.5734 21.3997V33.631C21.5734 34.153 21.9962 34.5758 22.5177 34.5758C23.0397 34.5758 23.4625 34.153 23.4625 33.631V21.3997C23.4625 21.1883 23.6413 21.0096 23.8527 21.0096H27.8141C28.0255 21.0096 28.2042 21.1883 28.2042 21.3997V45.5088C26.6251 45.6675 25.026 45.5923 23.4625 45.2833ZM33.5782 43.9932V2.27586C33.5782 2.06639 33.7569 1.88914 33.9683 1.88914H37.9297C38.1411 1.88914 38.3198 2.06639 38.3198 2.27586V10.9852V10.9921V40.4879C38.2978 40.5118 38.2764 40.5357 38.2544 40.5592C36.8774 42.0221 35.2881 43.1671 33.5782 43.9932ZM40.209 38.0016V21.1536C43.3671 26.2839 43.353 32.8781 40.209 38.0016ZM43.663 45.6475C44.2114 45.0645 44.7236 44.4605 45.2011 43.8384L47.7167 46.2061L45.2128 48.8652L42.7582 46.5562C43.0668 46.2622 43.3691 45.9595 43.663 45.6475V45.6475ZM60.9695 58.1767L57.9681 61.3676C57.5164 61.8466 56.9017 62.1102 56.2371 62.1102C55.6278 62.1102 55.0511 61.8822 54.6112 61.4677L46.4413 53.7798C45.9823 53.3496 45.7182 52.7622 45.6986 52.1269C45.6786 51.4897 45.9062 50.8852 46.3393 50.4248L49.3427 47.2354C49.7928 46.7554 50.4066 46.4917 51.0712 46.4917C51.68 46.4917 52.2572 46.7198 52.6976 47.1338L60.866 54.8198C61.8186 55.7182 61.865 57.2245 60.9695 58.1767V58.1767Z" fill="#333333"/>
<path d="M14.8083 15.7479C16.5939 13.8466 16.5017 10.8417 14.6022 9.0492C13.7214 8.22009 12.5695 7.76306 11.3591 7.76306C10.0568 7.76306 8.79853 8.30652 7.90742 9.2533C7.03974 10.1732 6.58222 11.3759 6.61982 12.6405C6.65742 13.9066 7.18574 15.0819 8.10713 15.9496C8.98896 16.7816 10.1418 17.2391 11.3537 17.2391C12.6545 17.2396 13.9133 16.6967 14.8083 15.7479ZM8.50801 12.5844C8.48554 11.8251 8.76045 11.1024 9.28242 10.5492C9.82685 9.97107 10.5642 9.65271 11.3591 9.65271C12.0866 9.65271 12.7785 9.92664 13.3068 10.4242C14.4494 11.5028 14.5051 13.3109 13.4323 14.453C12.8864 15.0316 12.1481 15.35 11.3537 15.35C10.6257 15.35 9.9333 15.0751 9.40302 14.5746C8.84834 14.0526 8.53047 13.3456 8.50801 12.5844Z" fill="#333333"/>
</svg>
