<svg width="64" height="64" viewBox="0 0 64 64" fill="none" xmlns="http://www.w3.org/2000/svg">
<g clip-path="url(#clip0_6_928)">
<path d="M54.8548 8.51416C54.018 8.51416 53.3396 9.19254 53.3396 10.0294C53.3396 10.8663 54.018 11.5447 54.8548 11.5447C55.6917 11.5447 56.3701 10.8663 56.3701 10.0294C56.3701 9.19254 55.6917 8.51416 54.8548 8.51416Z" fill="#333333"/>
<path d="M49.6778 11.5447C50.5147 11.5447 51.1931 10.8663 51.1931 10.0294C51.1931 9.19256 50.5147 8.51416 49.6778 8.51416C48.841 8.51416 48.1626 9.19256 48.1626 10.0294C48.1626 10.8663 48.841 11.5447 49.6778 11.5447Z" fill="#333333"/>
<path d="M44.5006 11.5447C45.3375 11.5447 46.0159 10.8663 46.0159 10.0294C46.0159 9.19256 45.3375 8.51416 44.5006 8.51416C43.6638 8.51416 42.9854 9.19256 42.9854 10.0294C42.9854 10.8663 43.6638 11.5447 44.5006 11.5447Z" fill="#333333"/>
<path d="M64 7.37767C64 5.4683 62.4465 3.91479 60.5371 3.91479H3.46287C1.5535 3.91467 0 5.46817 0 7.37767V48.4579C0 48.9757 0.419625 49.3954 0.9375 49.3954C1.45537 49.3954 1.875 48.9757 1.875 48.4579V16.1442H62.125V21.1004C62.125 21.6182 62.5446 22.0379 63.0625 22.0379C63.5804 22.0379 64 21.6182 64 21.1004V7.37767ZM1.875 14.269V7.37767C1.875 6.50217 2.58725 5.7898 3.46287 5.7898H60.5371C61.4128 5.7898 62.125 6.50217 62.125 7.37767V14.2692H1.875V14.269Z" fill="#333333"/>
<path d="M63.0625 24.5378C62.5446 24.5378 62.125 24.9576 62.125 25.4753V56.6228C62.125 57.4982 61.4129 58.2103 60.5375 58.2103H3.4625C2.58713 58.2103 1.875 57.4982 1.875 56.6228V52.8328C1.875 52.3151 1.45537 51.8953 0.9375 51.8953C0.419625 51.8953 0 52.3151 0 52.8328V56.6228C0 58.5321 1.55325 60.0853 3.4625 60.0853H60.5375C62.4467 60.0853 64 58.5321 64 56.6228V25.4753C64 24.9576 63.5804 24.5378 63.0625 24.5378Z" fill="#333333"/>
<path d="M32.7963 36.2403H21.2676C20.7497 36.2403 20.3301 36.66 20.3301 37.1778V55.1078C20.3301 55.6255 20.7497 56.0453 21.2676 56.0453H53.5926C54.1105 56.0453 54.5301 55.6255 54.5301 55.1078V44.1082C57.7375 43.6512 60.212 40.8878 60.212 37.5562C60.212 33.906 57.2423 30.9364 53.5923 30.9364C50.3927 30.9364 47.7163 33.2184 47.1043 36.2402H37.1713C36.6535 36.2402 36.2338 36.6599 36.2338 37.1777C36.2338 37.6954 36.6535 38.1152 37.1713 38.1152H46.998C47.2568 41.1928 49.6288 43.6772 52.6551 44.1082V54.1702H22.2051V38.1152H32.7963C33.3142 38.1152 33.7338 37.6954 33.7338 37.1777C33.7338 36.6599 33.3142 36.2403 32.7963 36.2403ZM48.8476 37.5563C48.8476 34.94 50.9761 32.8115 53.5923 32.8115C56.2086 32.8115 58.337 34.94 58.337 37.5563C58.337 40.17 56.2126 42.2967 53.5997 42.3008C53.5973 42.3008 53.595 42.3004 53.5926 42.3004C53.5901 42.3004 53.5877 42.3008 53.5852 42.3008C50.9723 42.2968 48.8476 40.17 48.8476 37.5563Z" fill="#333333"/>
<path d="M30.1339 41.359C29.9554 40.9251 29.5373 40.6449 29.0682 40.6449C29.0678 40.6449 29.0675 40.6449 29.0672 40.6449C28.5977 40.6453 28.1793 40.9261 28.0015 41.3608C27.9987 41.3679 27.9957 41.3751 27.993 41.3823L24.4315 50.7335C24.2472 51.2174 24.4902 51.759 24.974 51.9433C25.0838 51.9851 25.1965 52.0049 25.3075 52.0049C25.6852 52.0049 26.0413 51.7749 26.1838 51.4008L26.8408 49.6756H31.269L31.919 51.3981C32.1018 51.8825 32.6429 52.1273 33.1272 51.9443C33.6115 51.7614 33.856 51.2205 33.6732 50.7361L30.144 41.3845C30.1408 41.3759 30.1374 41.3674 30.1339 41.359ZM27.5548 47.8006L29.0649 43.8356L30.5613 47.8006H27.5548Z" fill="#333333"/>
<path d="M47.7655 50.1152C47.2299 50.1152 46.7162 49.9015 46.3917 49.5432C46.0441 49.1596 45.4512 49.1305 45.0675 49.4781C44.6839 49.8257 44.6546 50.4186 45.0024 50.8024C45.6865 51.5573 46.6935 51.9902 47.7655 51.9902C49.1114 51.9902 50.2427 51.1242 50.4557 49.931C50.6175 49.0254 50.2162 47.8461 48.6054 47.2519C47.9109 46.9957 47.262 46.7175 47.0279 46.6154C46.9669 46.5554 46.9616 46.4801 46.9696 46.4236C46.9901 46.2806 47.1122 46.1655 47.3046 46.1075C48.0359 45.8874 48.7339 46.4301 48.7586 46.4497C49.155 46.7771 49.7419 46.7242 50.0732 46.33C50.4064 45.9336 50.3551 45.3422 49.9589 45.0091C49.419 44.5555 48.1386 43.898 46.7639 44.3121C45.8706 44.5811 45.2385 45.2882 45.1137 46.1571C44.996 46.9772 45.3516 47.7662 46.042 48.2164C46.0835 48.2434 46.127 48.267 46.1721 48.2871C46.2066 48.3026 47.0299 48.669 47.9565 49.0109C48.3007 49.1379 48.6531 49.3596 48.6101 49.6012C48.573 49.8086 48.279 50.1152 47.7655 50.1152Z" fill="#333333"/>
<path d="M40.9689 51.373C41.0999 51.7329 41.4439 51.9902 41.8491 51.9902C42.367 51.9902 42.7866 51.5705 42.7866 51.0527V42.1365C42.7866 41.6187 42.367 41.199 41.8491 41.199C41.3313 41.199 40.9116 41.6187 40.9116 42.1365V44.7162C40.314 44.3484 39.6111 44.1357 38.8594 44.1357C36.6939 44.1357 34.9321 45.8975 34.9321 48.0629C34.9321 50.2282 36.6939 51.9901 38.8594 51.9901C39.6355 51.9902 40.3591 51.763 40.9689 51.373ZM36.8071 48.063C36.8071 46.9314 37.7278 46.0109 38.8594 46.0109C39.991 46.0109 40.9116 46.9315 40.9116 48.063C40.9116 49.1945 39.991 50.1152 38.8594 50.1152C37.7278 50.1152 36.8071 49.1946 36.8071 48.063Z" fill="#333333"/>
<path d="M53.5922 38.8821L54.09 39.3799C54.2731 39.563 54.513 39.6545 54.753 39.6545C54.9929 39.6545 55.2329 39.563 55.4159 39.3799C55.7821 39.0137 55.7821 38.4202 55.416 38.0541L54.9181 37.5562L55.416 37.0584C55.7821 36.6922 55.7821 36.0986 55.4159 35.7325C55.0499 35.3664 54.4562 35.3665 54.0901 35.7325L53.5924 36.2302L53.0946 35.7325C52.7284 35.3664 52.1349 35.3664 51.7687 35.7325C51.4026 36.0986 51.4026 36.6922 51.7687 37.0582L52.2666 37.5561L51.7689 38.0539C51.4026 38.42 51.4026 39.0135 51.7687 39.3796C51.9519 39.5627 52.1917 39.6542 52.4317 39.6542C52.6716 39.6542 52.9116 39.5627 53.0946 39.3796L53.5922 38.8821Z" fill="#333333"/>
<path d="M50.8143 18.3096H13.1855C12.6677 18.3096 12.248 18.7293 12.248 19.2471V23.2877C12.248 23.8054 12.6677 24.2252 13.1855 24.2252H50.8142C51.332 24.2252 51.7517 23.8054 51.7517 23.2877V19.2471C51.7518 18.7293 51.332 18.3096 50.8143 18.3096ZM49.8768 22.3502H14.123V20.1846H49.8767V22.3502H49.8768Z" fill="#333333"/>
<path d="M4.04053 33.1368C4.04053 33.6546 4.46015 34.0743 4.97803 34.0743H37.8084C38.3263 34.0743 38.7459 33.6546 38.7459 33.1368C38.7459 32.6191 38.3263 32.1993 37.8084 32.1993H4.97803C4.46028 32.1993 4.04053 32.6191 4.04053 33.1368Z" fill="#333333"/>
<path d="M13.8169 28.1587C13.299 28.1587 12.8794 28.5784 12.8794 29.0962C12.8794 29.6139 13.299 30.0337 13.8169 30.0337H37.8084C38.3263 30.0337 38.7459 29.6139 38.7459 29.0962C38.7459 28.5784 38.3263 28.1587 37.8084 28.1587H13.8169Z" fill="#333333"/>
<path d="M4.97803 38.115H17.2262C17.744 38.115 18.1637 37.6952 18.1637 37.1775C18.1637 36.6597 17.744 36.24 17.2262 36.24H4.97803C4.46015 36.24 4.04053 36.6597 4.04053 37.1775C4.04053 37.6952 4.46028 38.115 4.97803 38.115Z" fill="#333333"/>
<path d="M4.97803 42.1555H17.2262C17.744 42.1555 18.1637 41.7358 18.1637 41.218C18.1637 40.7003 17.744 40.2805 17.2262 40.2805H4.97803C4.46015 40.2805 4.04053 40.7003 4.04053 41.218C4.04053 41.7358 4.46028 42.1555 4.97803 42.1555Z" fill="#333333"/>
<path d="M4.97803 46.1963H10.9128C11.4307 46.1963 11.8503 45.7765 11.8503 45.2588C11.8503 44.741 11.4307 44.3213 10.9128 44.3213H4.97803C4.46015 44.3213 4.04053 44.741 4.04053 45.2588C4.04053 45.7765 4.46028 46.1963 4.97803 46.1963Z" fill="#333333"/>
</g>
<defs>
<clipPath id="clip0_6_928">
<rect width="64" height="64" fill="white"/>
</clipPath>
</defs>
</svg>
