<svg width="64" height="50" viewBox="0 0 64 50" fill="none" xmlns="http://www.w3.org/2000/svg">
<path d="M38.2125 14.7439C30.8444 14.7439 24.85 20.7383 24.85 28.1064C24.85 35.4745 30.8445 41.4689 38.2125 41.4689C45.5805 41.4689 51.5749 35.4745 51.5749 28.1064C51.5749 20.7383 45.5806 14.7439 38.2125 14.7439ZM38.2125 39.5939C31.8782 39.5939 26.725 34.4406 26.725 28.1064C26.725 21.7721 31.8784 16.6189 38.2125 16.6189C44.5466 16.6189 49.6999 21.7721 49.6999 28.1064C49.6999 34.4406 44.5467 39.5939 38.2125 39.5939Z" fill="#333333"/>
<path d="M38.2126 23.0272C35.4119 23.0272 33.1333 25.3057 33.1333 28.1064C33.1333 30.907 35.4118 33.1855 38.2126 33.1855C41.0132 33.1855 43.2917 30.907 43.2917 28.1064C43.2917 25.3057 41.0132 23.0272 38.2126 23.0272ZM38.2126 31.3105C36.4457 31.3105 35.0083 29.8731 35.0083 28.1064C35.0083 26.3396 36.4457 24.9022 38.2126 24.9022C39.9793 24.9022 41.4167 26.3396 41.4167 28.1064C41.4167 29.8731 39.9793 31.3105 38.2126 31.3105Z" fill="#333333"/>
<path d="M58.9207 10.6022H55.5122C54.1945 10.6022 53.0268 9.81155 52.5374 8.58792L50.4784 3.4408C49.7026 1.50117 47.8515 0.248047 45.7624 0.248047H28.5915C26.5025 0.248047 24.6515 1.5013 23.8756 3.4408L21.8167 8.58792C21.3272 9.81155 20.1595 10.6022 18.8417 10.6022H14.3V8.39792C14.3 7.32955 13.4309 6.46042 12.3625 6.46042H8.15C7.08162 6.46042 6.2125 7.32955 6.2125 8.39792V10.6022H5.07912C2.2785 10.6022 0 12.8807 0 15.6813V44.6729C0 47.4735 2.2785 49.752 5.07912 49.752H13.3625H21.6459H24.315C24.8328 49.752 25.2525 49.3323 25.2525 48.8145C25.2525 48.2968 24.8328 47.877 24.315 47.877H22.5834V45.6729C22.5834 44.6045 21.7143 43.7354 20.6459 43.7354H18.4417V20.7604H22.3267C21.2891 22.9955 20.7085 25.4842 20.7085 28.1063C20.7085 37.758 28.5609 45.6104 38.2127 45.6104C46.839 45.6104 54.027 39.3379 55.4574 31.1145H56.85C58.5089 31.1145 59.8582 29.765 59.8582 28.1063C59.8582 26.4474 58.5087 25.0979 56.85 25.0979H55.4571C55.1924 23.576 54.7302 22.1213 54.0984 20.7604H62.125V26.7C62.125 27.2178 62.5446 27.6375 63.0625 27.6375C63.5804 27.6375 64 27.2178 64 26.7V15.6813C64 12.8807 61.7215 10.6022 58.9207 10.6022ZM8.0875 8.39792C8.0875 8.36342 8.1155 8.33542 8.15 8.33542H12.3625C12.397 8.33542 12.425 8.36342 12.425 8.39792V10.6022H8.0875V8.39792ZM5.07912 12.4772H7.15H13.3625H16.5666V18.8855H1.875V15.6813C1.875 13.9145 3.31238 12.4772 5.07912 12.4772ZM20.7083 45.6729V47.877H14.3V45.6729C14.3 45.6384 14.328 45.6104 14.3625 45.6104H20.6459C20.6803 45.6104 20.7083 45.6384 20.7083 45.6729ZM16.5666 43.7354H14.3625C13.2941 43.7354 12.425 44.6045 12.425 45.6729V47.877H5.07912C3.31238 47.8772 1.875 46.4398 1.875 44.6729V35.2563H5.07912C5.59688 35.2563 6.01662 34.8365 6.01662 34.3188C6.01662 33.801 5.59688 33.3813 5.07912 33.3813H1.875V31.1147H5.07912C5.59688 31.1147 6.01662 30.6949 6.01662 30.1772C6.01662 29.6594 5.59688 29.2397 5.07912 29.2397H1.875V26.973H5.07912C5.59688 26.973 6.01662 26.5533 6.01662 26.0355C6.01662 25.5178 5.59688 25.098 5.07912 25.098H1.875V20.7605H16.5666V43.7354ZM38.2125 43.7354C29.5945 43.7354 22.5833 36.7242 22.5833 28.1063C22.5833 19.4884 29.5945 12.4772 38.2125 12.4772C46.8304 12.4772 53.8416 19.4884 53.8416 28.1063C53.8416 36.7242 46.8305 43.7354 38.2125 43.7354ZM56.85 26.9729C57.4749 26.9729 57.9832 27.4813 57.9832 28.1063C57.9832 28.7312 57.4749 29.2395 56.85 29.2395H55.679C55.7031 28.8647 55.7168 28.487 55.7168 28.1063C55.7168 27.7254 55.7031 27.3478 55.679 26.9729H56.85ZM53.0845 18.8854C49.9927 13.9169 44.4829 10.602 38.2125 10.602C31.9421 10.602 26.4322 13.9168 23.3405 18.8854H18.4416V12.477H18.8417C20.9306 12.477 22.7819 11.2238 23.5576 9.28417L25.6165 4.13705C26.106 2.91342 27.2738 2.12292 28.5915 2.12292H45.7625C47.0804 2.12292 48.2481 2.91355 48.7375 4.13705L50.7965 9.28417C51.5723 11.2238 53.4234 12.477 55.5124 12.477H58.9209C60.6878 12.477 62.1251 13.9144 62.1251 15.6812V18.8853H53.0845V18.8854Z" fill="#333333"/>
<path d="M63.0625 29.5126C62.5446 29.5126 62.125 29.9323 62.125 30.4501V44.6731C62.125 46.4398 60.6876 47.8772 58.9207 47.8772H28.0648C27.5471 47.8772 27.1273 48.2969 27.1273 48.8147C27.1273 49.3324 27.5471 49.7522 28.0648 49.7522H58.9208C61.7215 49.7522 64.0001 47.4737 64.0001 44.6731V30.4501C64 29.9322 63.5803 29.5126 63.0625 29.5126Z" fill="#333333"/>
<path d="M44.425 6.46045H29.9291C29.4113 6.46045 28.9916 6.8802 28.9916 7.39795C28.9916 7.9157 29.4113 8.33545 29.9291 8.33545H44.425C44.9428 8.33545 45.3625 7.9157 45.3625 7.39795C45.3625 6.8802 44.9428 6.46045 44.425 6.46045Z" fill="#333333"/>
<path d="M58.9208 45.6104C59.4387 45.6104 59.8583 45.1906 59.8583 44.6729V40.5312C59.8583 40.0135 59.4387 39.5938 58.9208 39.5938H54.7792C54.2613 39.5938 53.8417 40.0135 53.8417 40.5312V44.6729C53.8417 45.1906 54.2613 45.6104 54.7792 45.6104H58.9208ZM55.7167 41.4688H57.9833V43.7354H55.7167V41.4688Z" fill="#333333"/>
</svg>
