<svg width="64" height="64" viewBox="0 0 64 64" fill="none" xmlns="http://www.w3.org/2000/svg">
<path d="M61.0962 21.182H12.7102L59.5333 8.63579C60.0987 8.48429 60.4342 7.90304 60.2828 7.33767L58.5273 0.785669C58.4546 0.514169 58.2769 0.282544 58.0334 0.142169C57.7899 0.00154375 57.5007 -0.0364562 57.2292 0.0361688L2.6297 14.666C2.06433 14.8175 1.72883 15.3988 1.8802 15.9642L3.51083 22.0495V61.8097C3.51083 63.0174 4.49333 64 5.7012 64H59.9657C61.1734 64 62.1561 63.0175 62.1561 61.8097V22.2418C62.1561 21.6565 61.6814 21.182 61.0962 21.182ZM60.0363 23.3015V27.5967L55.7412 23.3015H60.0363ZM45.9606 23.3017L50.6239 27.965H46.8386L42.1752 23.3017H45.9606ZM39.1776 23.3017L43.8409 27.965H40.0556L35.3922 23.3017H39.1776ZM32.3944 23.3017L37.0578 27.965H33.2724L28.6091 23.3017H32.3944ZM25.6114 23.3017L30.2748 27.965H26.4894L21.8261 23.3017H25.6114ZM18.8284 23.3017L23.4918 27.965H19.7064L15.0431 23.3017H18.8284ZM16.7087 27.965H12.9233L8.25995 23.3017H12.0453L16.7087 27.965ZM9.92557 27.965H5.63058V23.6699L9.92557 27.965ZM57.9611 6.86254L53.8123 7.97417L56.8494 2.71379L57.9611 6.86254ZM54.2143 3.03842L50.9168 8.74992L47.2604 9.72967L50.5579 4.01817L54.2143 3.03842ZM47.6624 4.79417L44.3649 10.5057L40.7086 11.4854L44.0061 5.77392L47.6624 4.79417ZM41.1104 6.54967L37.8129 12.2612L34.1566 13.2409L37.4541 7.52942L41.1104 6.54967ZM34.5586 8.30517L31.2611 14.0167L27.6047 14.9964L30.9022 9.28492L34.5586 8.30517ZM28.0067 10.0609L24.7092 15.7724L21.0528 16.7522L24.3503 11.0407L28.0067 10.0609ZM21.4547 11.8164L18.1572 17.5279L14.5007 18.5077L17.7982 12.7962L21.4547 11.8164ZM14.9028 13.5719L11.6053 19.2834L7.94895 20.2632L11.2464 14.5517L14.9028 13.5719ZM4.20208 16.4392L8.35082 15.3275L5.3137 20.588L4.20208 16.4392ZM60.0364 61.8097H60.0363C60.0363 61.8487 60.0047 61.8803 59.9657 61.8803H5.7012C5.6622 61.8803 5.63058 61.8487 5.63058 61.8097V30.0848H53.1827C53.7681 30.0848 54.2426 29.6103 54.2426 29.0249C54.2426 28.7322 54.1238 28.4672 53.9319 28.2754L48.9584 23.3018H52.7438L57.4416 27.9995C56.9838 28.1168 56.6451 28.5309 56.6451 29.025C56.6451 29.6104 57.1196 30.0849 57.7049 30.0849H60.0366V61.8097H60.0364Z" fill="#333333"/>
<path d="M41.6365 44.0497L28.2117 36.8897C27.5266 36.5243 26.7199 36.5446 26.054 36.9441C25.3881 37.3436 24.9906 38.0457 24.9906 38.8223V53.1421C24.9906 53.9186 25.3881 54.6208 26.054 55.0203C26.4032 55.23 26.7911 55.3352 27.18 55.3352C27.5326 55.3352 27.8859 55.2486 28.2117 55.075C28.7282 54.7996 28.9236 54.1576 28.6481 53.6411C28.3727 53.1246 27.7305 52.929 27.2142 53.2047C27.201 53.2117 27.1789 53.2235 27.1446 53.203C27.1102 53.1825 27.1102 53.1573 27.1102 53.1423V38.8226C27.1102 38.8076 27.1102 38.7826 27.1446 38.762C27.1791 38.7413 27.201 38.7532 27.2142 38.7602L40.639 45.9202C40.6549 45.9287 40.6765 45.9401 40.6765 45.9826C40.6765 46.025 40.6549 46.0365 40.639 46.045L31.204 51.0768C30.6875 51.3522 30.492 51.9942 30.7676 52.5107C31.0431 53.0273 31.6855 53.2225 32.2015 52.9471L41.6365 47.9152C42.3519 47.5337 42.7961 46.7932 42.7961 45.9826C42.7961 45.1717 42.3517 44.4313 41.6365 44.0497Z" fill="#333333"/>
</svg>
