<svg width="64" height="64" viewBox="0 0 64 64" fill="none" xmlns="http://www.w3.org/2000/svg">
<path d="M61.2892 0.148875C61.0848 0.05425 60.8583 0 60.6188 0H3.38134C3.06084 0 2.76271 0.095625 2.51184 0.258375C2.07071 0.5445 1.77759 1.04037 1.77759 1.60425V62.3959C1.77759 63.2805 2.49709 64 3.38171 64H15.2185C15.7362 64 16.1557 63.5804 16.1557 63.0628C16.1557 62.5451 15.7361 62.1255 15.2185 62.1255H3.65221V9.98763H60.3482V62.1254H19.5508C19.0331 62.1254 18.6136 62.545 18.6136 63.0626C18.6136 63.5802 19.0332 63.9999 19.5508 63.9999H60.6187C61.5031 63.9999 62.2227 63.2804 62.2227 62.3957V1.60425C62.2227 0.95925 61.8392 0.4035 61.2892 0.148875ZM60.3476 8.11312H3.65246V1.87475H60.3476V8.11312Z" fill="#333333"/>
<path d="M56.6839 30.3694H41.3372C40.8194 30.3694 40.3999 30.789 40.3999 31.3066C40.3999 31.8243 40.8195 32.2439 41.3372 32.2439H56.6839C57.2017 32.2439 57.6212 31.8243 57.6212 31.3066C57.6212 30.789 57.2015 30.3694 56.6839 30.3694Z" fill="#333333"/>
<path d="M7.3164 32.2441H11.5615C12.0793 32.2441 12.4988 31.8245 12.4988 31.3069C12.4988 30.7893 12.0791 30.3696 11.5615 30.3696H7.3164C6.79865 30.3696 6.37915 30.7893 6.37915 31.3069C6.37915 31.8245 6.79878 32.2441 7.3164 32.2441Z" fill="#333333"/>
<path d="M56.6839 35.606H42.9976C42.4798 35.606 42.0603 36.0256 42.0603 36.5432C42.0603 37.0608 42.4799 37.4805 42.9976 37.4805H56.6839C57.2017 37.4805 57.6212 37.0608 57.6212 36.5432C57.6212 36.0256 57.2016 35.606 56.6839 35.606Z" fill="#333333"/>
<path d="M7.3164 37.4805H11.5615C12.0793 37.4805 12.4988 37.0608 12.4988 36.5432C12.4988 36.0256 12.0791 35.606 11.5615 35.606H7.3164C6.79865 35.606 6.37915 36.0256 6.37915 36.5432C6.37915 37.0608 6.79878 37.4805 7.3164 37.4805Z" fill="#333333"/>
<path d="M56.6838 40.8423H44.53C44.0123 40.8423 43.5928 41.2619 43.5928 41.7795C43.5928 42.2973 44.0124 42.7168 44.53 42.7168H56.6838C57.2015 42.7168 57.621 42.2972 57.621 41.7795C57.621 41.2619 57.2014 40.8423 56.6838 40.8423Z" fill="#333333"/>
<path d="M7.3164 42.7169H12.4988C13.0165 42.7169 13.436 42.2973 13.436 41.7797C13.436 41.2619 13.0164 40.8424 12.4988 40.8424H7.3164C6.79865 40.8424 6.37915 41.262 6.37915 41.7797C6.37915 42.2973 6.79878 42.7169 7.3164 42.7169Z" fill="#333333"/>
<path d="M56.6839 46.0789H50.6069C50.0892 46.0789 49.6697 46.4985 49.6697 47.0161C49.6697 47.5337 50.0893 47.9534 50.6069 47.9534H56.6839C57.2017 47.9534 57.6212 47.5337 57.6212 47.0161C57.6212 46.4985 57.2016 46.0789 56.6839 46.0789Z" fill="#333333"/>
<path d="M7.3164 47.9534H16.0828C16.6005 47.9534 17.02 47.5337 17.02 47.0161C17.02 46.4985 16.6004 46.0789 16.0828 46.0789H7.3164C6.79865 46.0789 6.37915 46.4985 6.37915 47.0161C6.37915 47.5337 6.79877 47.9534 7.3164 47.9534Z" fill="#333333"/>
<path d="M56.6837 51.3152H52.9592C52.4415 51.3152 52.022 51.7348 52.022 52.2524C52.022 52.7701 52.4416 53.1897 52.9592 53.1897H56.6837C57.2015 53.1897 57.621 52.7701 57.621 52.2524C57.621 51.7348 57.2013 51.3152 56.6837 51.3152Z" fill="#333333"/>
<path d="M7.3164 53.1897H32C32.5178 53.1897 32.9373 52.7701 32.9373 52.2524C32.9373 51.7348 32.5176 51.3152 32 51.3152H7.3164C6.79865 51.3152 6.37915 51.7348 6.37915 52.2524C6.37915 52.7701 6.79878 53.1897 7.3164 53.1897Z" fill="#333333"/>
<path d="M56.6838 56.5515H51.5544C51.0367 56.5515 50.6172 56.9711 50.6172 57.4888C50.6172 58.0065 51.0368 58.426 51.5544 58.426H56.6838C57.2016 58.426 57.6211 58.0064 57.6211 57.4888C57.6211 56.9711 57.2014 56.5515 56.6838 56.5515Z" fill="#333333"/>
<path d="M7.3164 58.426H34.568C35.0858 58.426 35.5053 58.0064 35.5053 57.4888C35.5053 56.971 35.0856 56.5515 34.568 56.5515H7.3164C6.79865 56.5515 6.37915 56.9711 6.37915 57.4888C6.37915 58.0064 6.79878 58.426 7.3164 58.426Z" fill="#333333"/>
<path d="M7.97778 5.93114C8.4954 5.93114 8.91503 5.51152 8.91503 4.99389C8.91503 4.47627 8.4954 4.05664 7.97778 4.05664C7.46015 4.05664 7.04053 4.47627 7.04053 4.99389C7.04053 5.51152 7.46003 5.93114 7.97778 5.93114Z" fill="#333333"/>
<path d="M12.499 5.93114C13.0166 5.93114 13.4363 5.51152 13.4363 4.99389C13.4363 4.47627 13.0166 4.05664 12.499 4.05664C11.9814 4.05664 11.5618 4.47627 11.5618 4.99389C11.5618 5.51152 11.9814 5.93114 12.499 5.93114Z" fill="#333333"/>
<path d="M17.0203 5.93114C17.5379 5.93114 17.9575 5.51152 17.9575 4.99389C17.9575 4.47627 17.5379 4.05664 17.0203 4.05664C16.5026 4.05664 16.083 4.47627 16.083 4.99389C16.083 5.51152 16.5026 5.93114 17.0203 5.93114Z" fill="#333333"/>
<path d="M8.29978 15.5133H41.8805C42.3983 15.5133 42.8178 15.0937 42.8178 14.576C42.8178 14.0584 42.3982 13.6388 41.8805 13.6388H8.29978C7.24078 13.6388 6.37915 14.5004 6.37915 15.5594V25.7259C6.37915 26.7849 7.24078 27.6465 8.29978 27.6465H16.7868C15.1619 29.739 14.281 32.2956 14.281 34.9877C14.281 38.1927 15.5292 41.2058 17.7954 43.4722C20.1345 45.8113 23.2072 46.9808 26.2798 46.9808C28.2802 46.9808 30.2792 46.4818 32.0772 45.4904L35.133 48.5463C34.7173 49.3336 34.8399 50.3328 35.5015 50.9946L41.5282 57.0213C42.4635 57.9567 43.6922 58.4243 44.9208 58.4243C46.1494 58.4243 47.378 57.9567 48.3133 57.0213C50.1838 55.1507 50.1838 52.1068 48.3133 50.2362L42.2865 44.2096C41.6248 43.5479 40.6254 43.4253 39.8383 43.8411L36.7844 40.7873C39.0614 36.6573 38.7215 31.4599 35.767 27.6468H55.7003C56.7594 27.6468 57.621 26.7852 57.621 25.7262V15.5597C57.621 14.5007 56.7594 13.639 55.7003 13.639H46.2328C45.715 13.639 45.2955 14.0587 45.2955 14.5763C45.2955 15.0939 45.7152 15.5135 46.2328 15.5135H55.7003C55.7257 15.5135 55.7464 15.5342 55.7464 15.5595V25.726C55.7464 25.7514 55.7257 25.772 55.7003 25.772H33.9603C29.527 22.072 23.0327 22.072 18.5992 25.772H8.29978C8.2744 25.772 8.25378 25.7514 8.25378 25.726V15.5595C8.25378 15.5339 8.2744 15.5133 8.29978 15.5133ZM40.6647 45.5348C40.7054 45.4939 40.7592 45.4734 40.8128 45.4734C40.8665 45.4734 40.9202 45.4939 40.9609 45.5348L46.9877 51.5614C48.1274 52.7012 48.1274 54.5556 46.9877 55.6953C45.848 56.8352 43.9935 56.8352 42.8537 55.6953L36.827 49.6686C36.7453 49.5869 36.7453 49.4539 36.827 49.3723L40.6647 45.5348ZM38.4473 45.1008L36.3932 47.1549L33.6728 44.4346C34.0507 44.1384 34.4164 43.8197 34.7643 43.4718C35.112 43.1239 35.4312 42.7584 35.7272 42.3807L38.4473 45.1008ZM19.1208 27.8285C21.0945 25.8549 23.6872 24.868 26.2798 24.868C28.8723 24.868 31.465 25.8549 33.4387 27.8285C37.386 31.7759 37.386 38.1989 33.4387 42.1463C29.4912 46.0937 23.0682 46.0937 19.1209 42.1463C15.1735 38.1988 15.1735 31.7761 19.1208 27.8285Z" fill="#333333"/>
<path d="M20.3996 40.8674C22.0209 42.4885 24.1502 43.2991 26.2797 43.2991C28.4092 43.2991 30.5386 42.4885 32.1599 40.8674C35.402 37.6251 35.402 32.3495 32.1599 29.1071C28.9175 25.865 23.6421 25.865 20.3996 29.1071C17.1575 32.3495 17.1575 37.6251 20.3996 40.8674ZM21.7252 30.4329C22.981 29.1771 24.6304 28.5493 26.2797 28.5493C27.9291 28.5493 29.5785 29.1771 30.8342 30.4329C33.3456 32.9443 33.3456 37.0305 30.8342 39.5419C28.3229 42.0533 24.2366 42.0533 21.7252 39.5419C19.2139 37.0305 19.2139 32.9443 21.7252 30.4329Z" fill="#333333"/>
</svg>
