<svg width="64" height="64" viewBox="0 0 64 64" fill="none" xmlns="http://www.w3.org/2000/svg">
<g clip-path="url(#clip0_6_886)">
<path d="M59.3032 5.76123H56.7358V3.75732H46.7163V0H17.2837V5.76123H4.69678C2.10693 5.76123 0 7.86816 0 10.458V46.7788C0 49.3687 2.10693 51.4756 4.69678 51.4756H22.2935V57.1113H19.4756C17.5767 57.1113 16.0312 58.6567 16.0312 60.5557V64H47.9688V60.5557C47.9688 58.6567 46.4233 57.1113 44.5244 57.1113H41.7065V51.4756H59.3032C61.8931 51.4756 64 49.3687 64 46.7788V10.458C64 7.86816 61.8931 5.76123 59.3032 5.76123ZM54.8569 5.63623V18.7866H41.7065V5.63623H54.8569ZM35.1938 12.3994V18.8154L30.0483 14.4204L22.583 22.4131L17.0933 17.0303L6.26221 27.7354V12.3994H35.1938ZM30.1943 17.0161L35.1938 21.2861V28.0547H19.8848L30.1943 17.0161ZM17.314 28.0547H8.61133L17.0986 19.6665L21.3008 23.7866L17.314 28.0547ZM44.5244 58.9902C45.3877 58.9902 46.0898 59.6924 46.0898 60.5557V62.1211H17.9102V60.5557C17.9102 59.6924 18.6123 58.9902 19.4756 58.9902H44.5244ZM24.1724 57.1113V51.4756H39.8276V57.1113H24.1724ZM62.1211 46.7788C62.1211 48.333 60.8569 49.5967 59.3032 49.5967H4.69678C3.14307 49.5967 1.87891 48.333 1.87891 46.7788V40.2036H62.1211V46.7788ZM62.1211 38.3247H1.87891V10.458C1.87891 8.90381 3.14307 7.64014 4.69678 7.64014H17.2837V10.5205H4.38379V29.9336H17.2837V33.3149H14.4658V35.1938H40.3916V33.3149H19.1626V29.9336H37.0723V10.5205H19.1626V1.87891H44.8374V3.75732H39.8276V20.6655H44.8374V22.5439H42.3325V32.689H45.5889V36.9795L50.8696 32.689H59.7417V22.5439H46.7163V20.6655H56.7358V7.64014H59.3032C60.8569 7.64014 62.1211 8.90381 62.1211 10.458V38.3247ZM44.2114 30.8101V24.4229H57.8628V30.8101H50.2026L47.4678 33.0322V30.8101H44.2114Z" fill="#333333"/>
<path d="M34.8179 42.082H29.1821V47.7183H34.8179V42.082ZM32.9395 45.8394H31.0605V43.9609H32.9395V45.8394Z" fill="#333333"/>
<path d="M44.8374 7.38525V17.0371L52.5591 12.2114L44.8374 7.38525ZM46.7163 10.7749L49.0142 12.2114L46.7163 13.6475V10.7749Z" fill="#333333"/>
<path d="M10.7085 33.3149H12.5869V35.1938H10.7085V33.3149Z" fill="#333333"/>
<path d="M23.6084 5.76123H32.376V7.64014H23.6084V5.76123Z" fill="#333333"/>
<path d="M34.2544 5.76123H37.8867V7.64014H34.2544V5.76123Z" fill="#333333"/>
<path d="M8.20361 14.2778H10.082V16.1567H8.20361V14.2778Z" fill="#333333"/>
<path d="M11.9609 14.2778H14.4658V16.1567H11.9609V14.2778Z" fill="#333333"/>
<path d="M25.0913 25.2305L26.3735 23.8574L27.7466 25.1396L26.4644 26.5127L25.0913 25.2305Z" fill="#333333"/>
<path d="M27.6558 22.4849L30.3516 19.5986L31.7241 20.8809L29.0288 23.7671L27.6558 22.4849Z" fill="#333333"/>
<path d="M46.0273 26.6772H52.2896V28.5557H46.0273V26.6772Z" fill="#333333"/>
<path d="M54.1685 26.6772H56.0469V28.5557H54.1685V26.6772Z" fill="#333333"/>
</g>
<defs>
<clipPath id="clip0_6_886">
<rect width="64" height="64" fill="white"/>
</clipPath>
</defs>
</svg>
