<svg width="64" height="64" viewBox="0 0 64 64" fill="none" xmlns="http://www.w3.org/2000/svg">
<path d="M4.3125 51.6247C4.83025 51.6247 5.25 51.205 5.25 50.6872V2.5625C5.25 2.18337 5.55837 1.875 5.9375 1.875H17.7593C18.277 1.875 18.6968 1.45525 18.6968 0.9375C18.6968 0.41975 18.277 0 17.7593 0H5.9375C4.5245 0 3.375 1.1495 3.375 2.5625V50.6872C3.375 51.205 3.79475 51.6247 4.3125 51.6247Z" fill="#333333"/>
<path d="M48.7301 16.2449L40.875 24.1V14.2937C40.875 13.8791 40.7731 13.4669 40.5839 13.108C40.3107 12.5799 41.2035 13.5702 28.4974 0.759C28.0233 0.2805 27.3715 0 26.6775 0H21.5093C20.9915 0 20.5718 0.41975 20.5718 0.9375C20.5718 1.45525 20.9915 1.875 21.5093 1.875H26.4375V12.6025C26.4375 13.6357 27.2781 14.4762 28.3113 14.4762H39V25.975L34.536 30.439C34.1699 30.8051 34.1699 31.3988 34.536 31.7647C34.9021 32.1309 35.4958 32.1309 35.8618 31.7647L46.8677 20.7588L48.0892 21.9802L30.9142 39.1553L28.5629 39.0636L33.2101 34.4162C33.5763 34.0501 33.5763 33.4565 33.2101 33.0905C32.844 32.7244 32.2504 32.7244 31.8844 33.0905C25.0609 39.914 25.4816 39.4445 25.3795 39.7094L20.5357 52.2817C20.0467 53.5454 21.2913 54.7784 22.546 54.2939C36.1454 49.0544 35.2423 49.4411 35.4456 49.2376L39 45.6831V61.4375C39 61.8166 38.6916 62.125 38.3125 62.125H5.9375C5.55837 62.125 5.25 61.8166 5.25 61.4375V54.4372C5.25 53.9195 4.83025 53.4997 4.3125 53.4997C3.79475 53.4997 3.375 53.9195 3.375 54.4372V61.4375C3.375 62.8505 4.5245 64 5.9375 64H38.3125C39.7255 64 40.875 62.8505 40.875 61.4375V43.8081L58.5841 26.099C59.9002 24.783 60.625 23.0333 60.625 21.172C60.625 15.0259 53.1384 11.8366 48.7301 16.2449ZM28.3125 12.6025V3.23537C29.4005 4.33238 36.1048 11.0921 37.6019 12.6015L28.3125 12.6025ZM22.5436 52.2855L24.1446 48.1299L26.6992 50.6845L22.5436 52.2855ZM28.6134 49.947L24.8821 46.2158L26.939 40.877L30.3795 41.0111L30.4443 43.4729C30.4574 43.9714 30.8584 44.3724 31.3569 44.3854L33.8252 44.4501L33.986 47.8771L28.6134 49.947ZM34.3486 42.5881L32.2952 42.5344L32.2412 40.4801L49.4151 23.3062L51.5229 25.414L34.3486 42.5881ZM35.7865 46.245L35.6771 43.9113L52.8486 26.7397L54.0703 27.9614L35.7865 46.245ZM57.2584 24.7733L55.396 26.6356L48.1935 19.4331L50.0559 17.5707C53.2765 14.3501 58.75 16.6783 58.75 21.172C58.75 22.5324 58.2202 23.8114 57.2584 24.7733Z" fill="#333333"/>
<path d="M8.8125 52.521C8.29475 52.521 7.875 52.9407 7.875 53.4585C7.875 53.9762 8.29475 54.396 8.8125 54.396H17.25C17.7677 54.396 18.1875 53.9762 18.1875 53.4585C18.1875 52.9407 17.7677 52.521 17.25 52.521H8.8125Z" fill="#333333"/>
<path d="M19.6459 47.3103C19.6459 46.7926 19.2261 46.3728 18.7084 46.3728H8.8125C8.29475 46.3728 7.875 46.7926 7.875 47.3103C7.875 47.8281 8.29475 48.2478 8.8125 48.2478H18.7084C19.2261 48.2478 19.6459 47.8282 19.6459 47.3103Z" fill="#333333"/>
<path d="M22.25 41.1624C22.25 40.6446 21.8302 40.2249 21.3125 40.2249H8.8125C8.29475 40.2249 7.875 40.6446 7.875 41.1624C7.875 41.6801 8.29475 42.0999 8.8125 42.0999H21.3125C21.8302 42.0999 22.25 41.6801 22.25 41.1624Z" fill="#333333"/>
<path d="M26.7084 35.0143C26.7084 34.4965 26.2886 34.0768 25.7709 34.0768H8.8125C8.29475 34.0768 7.875 34.4965 7.875 35.0143C7.875 35.532 8.29475 35.9518 8.8125 35.9518H25.7709C26.2886 35.9518 26.7084 35.532 26.7084 35.0143Z" fill="#333333"/>
<path d="M32.5416 28.8662C32.5416 28.3485 32.1219 27.9287 31.6041 27.9287H8.8125C8.29475 27.9287 7.875 28.3485 7.875 28.8662C7.875 29.384 8.29475 29.8037 8.8125 29.8037H31.6041C32.122 29.8037 32.5416 29.384 32.5416 28.8662Z" fill="#333333"/>
<path d="M36.375 22.7183C36.375 22.2005 35.9552 21.7808 35.4375 21.7808H8.8125C8.29475 21.7808 7.875 22.2005 7.875 22.7183C7.875 23.236 8.29475 23.6558 8.8125 23.6558H35.4375C35.9552 23.6558 36.375 23.236 36.375 22.7183Z" fill="#333333"/>
<path d="M24.9584 15.6327H8.8125C8.29475 15.6327 7.875 16.0524 7.875 16.5702C7.875 17.0879 8.29475 17.5077 8.8125 17.5077H24.9584C25.4761 17.5077 25.8959 17.0879 25.8959 16.5702C25.8959 16.0524 25.4761 15.6327 24.9584 15.6327Z" fill="#333333"/>
<path d="M21.6875 9.5625H8.8125C8.29475 9.5625 7.875 9.98225 7.875 10.5C7.875 11.0178 8.29475 11.4375 8.8125 11.4375H21.6875C22.2052 11.4375 22.625 11.0178 22.625 10.5C22.625 9.98225 22.2052 9.5625 21.6875 9.5625Z" fill="#333333"/>
</svg>
