<svg width="64" height="64" viewBox="0 0 64 64" fill="none" xmlns="http://www.w3.org/2000/svg">
<path d="M9.33749 39.1668C9.46066 39.2209 9.5891 39.2465 9.71566 39.2465C10.0779 39.2465 10.4233 39.0362 10.5783 38.6833L20.289 16.5732L22.521 18.8052C22.7049 18.989 22.946 19.0811 23.1869 19.0811C23.4278 19.0811 23.6689 18.9892 23.8528 18.8052C24.2206 18.4375 24.2206 17.8412 23.8528 17.4736L21.1019 14.7227L23.2369 9.86161L48.8269 35.452C49.0108 35.6358 49.2519 35.7278 49.4928 35.7278C49.7338 35.7278 49.9748 35.6359 50.1588 35.452C50.5265 35.0843 50.5265 34.488 50.1588 34.1204L23.3718 7.33332C23.0081 6.96959 22.8077 6.48583 22.8077 5.9713C22.8077 5.45678 23.008 4.97315 23.3718 4.60929L23.7862 4.19483C24.5371 3.44402 25.7591 3.44377 26.5101 4.19483L28.9304 6.61527C29.2981 6.98302 29.8943 6.98302 30.2621 6.61527C30.6299 6.24752 30.6299 5.65127 30.2621 5.28364L27.8417 2.8632C26.3566 1.37802 23.9397 1.37789 22.4544 2.8632L22.0401 3.27766C21.3205 3.99709 20.9243 4.95368 20.9243 5.9713C20.9243 6.8763 21.2383 7.73258 21.8138 8.41723L8.85385 37.9259C8.6448 38.4021 8.86126 38.9576 9.33749 39.1668Z" fill="#333333"/>
<path d="M33.0997 8.12139C32.7319 7.75364 32.1357 7.75364 31.768 8.12139C31.4002 8.48914 31.4002 9.0854 31.768 9.45302L59.4538 37.1387C59.8175 37.5024 60.0177 37.9862 60.0177 38.5006C60.0177 39.0149 59.8174 39.4987 59.4536 39.8626L59.0392 40.277C58.6754 40.6408 58.1917 40.8411 57.6773 40.8411C57.1626 40.8411 56.6791 40.6408 56.3153 40.277L53.0074 36.9693C52.6394 36.6014 52.0433 36.6017 51.6757 36.9693C51.3079 37.337 51.3079 37.9333 51.6757 38.3009L53.787 40.4121L48.926 42.547L26.7992 20.4203C26.4312 20.0525 25.835 20.0526 25.4674 20.4203C25.0998 20.7881 25.0997 21.3843 25.4674 21.752L47.0753 43.3599L15.4253 57.2605C15.3806 57.2095 15.3372 57.1578 15.2886 57.1091L6.53945 48.3601C6.49086 48.3115 6.44052 48.2655 6.38929 48.2206L8.928 42.4404C9.13705 41.9643 8.92059 41.4088 8.44437 41.1996C7.96851 40.9905 7.41281 41.2069 7.20351 41.6831L4.65877 47.4769C4.56498 47.4684 4.47044 47.4636 4.37514 47.4636C3.55753 47.4636 2.78889 47.782 2.21084 48.3601L1.05071 49.5202C-0.142556 50.7135 -0.142556 52.6553 1.05071 53.8487L9.79973 62.5977H9.79985C10.3779 63.1758 11.1467 63.4942 11.964 63.4942C12.7816 63.4942 13.5503 63.1758 14.1283 62.5977L15.2885 61.4376C15.957 60.769 16.2505 59.8655 16.17 58.9903L17.965 58.2019L18.9058 60.1264C19.2436 60.8172 19.688 61.4407 20.2268 61.9795C21.5496 63.3021 23.296 63.9999 25.0808 63.9999C26.0054 63.9999 26.9407 63.8125 27.8319 63.4275L33.2975 61.0675C36.715 59.5919 38.3533 55.5866 36.9497 52.139L36.1639 50.2088L55.2314 41.8344C55.9365 42.4259 56.8064 42.7224 57.6772 42.7224C58.6527 42.7224 59.6281 42.3511 60.3708 41.6084L60.7853 41.1939C61.5047 40.4745 61.9009 39.5178 61.9009 38.5003C61.9009 37.4828 61.5048 36.5261 60.7853 35.8067L33.0997 8.12139ZM13.9568 60.106L12.7967 61.2661C12.5744 61.4884 12.2787 61.611 11.9642 61.611C11.6496 61.611 11.354 61.4884 11.1315 61.2661H11.1316L2.3826 52.5171C1.92357 52.0579 1.92357 51.311 2.3826 50.852L3.54272 49.6918C3.76508 49.4695 4.06076 49.347 4.37527 49.347C4.68978 49.347 4.98547 49.4695 5.20782 49.6918L13.9568 58.4409C14.4159 58.8999 14.4159 59.6469 13.9568 60.106ZM30.9292 54.5902C31.0079 54.7837 30.9123 55.017 30.7209 55.0997L25.2551 57.4597C25.0617 57.5434 24.8383 57.4603 24.7459 57.2713L23.9218 55.5856L30.2101 52.8238L30.9292 54.5902ZM35.2057 52.8494C36.2257 55.3551 35.035 58.2662 32.5512 59.3386L27.0854 61.6986C25.1868 62.5186 23.0172 62.1062 21.5585 60.6479C21.1673 60.2565 20.844 59.8027 20.5978 59.2991L19.6909 57.444L22.196 56.3437L23.0538 58.0986C23.4477 58.9044 24.2539 59.3765 25.0979 59.3765C25.4 59.3765 25.707 59.3161 26.0015 59.1888L31.4673 56.8289C32.5956 56.3415 33.1368 55.0187 32.6732 53.8803L31.9349 52.0665L34.4389 50.9667L35.2057 52.8494Z" fill="#333333"/>
<path d="M47.0805 17.7049C47.3215 17.7049 47.5625 17.613 47.7465 17.4291L48.7839 16.3916C49.1517 16.0239 49.1517 15.4276 48.7839 15.06C48.4161 14.6922 47.8199 14.6922 47.4522 15.06L46.4147 16.0974C46.047 16.4652 46.047 17.0615 46.4147 17.4291C46.5985 17.613 46.8396 17.7049 47.0805 17.7049Z" fill="#333333"/>
<path d="M52.0195 12.5708C52.2604 12.5708 52.5015 12.4789 52.6854 12.295L57.0777 7.90261C57.4455 7.53486 57.4455 6.9386 57.0777 6.57098C56.7098 6.20323 56.1137 6.20323 55.746 6.57098L51.3537 10.9634C50.9859 11.3311 50.9859 11.9274 51.3537 12.295C51.5375 12.4789 51.7786 12.5708 52.0195 12.5708Z" fill="#333333"/>
<path d="M41.8668 8.07262C41.8922 8.07463 41.9173 8.07564 41.9424 8.07564C42.4287 8.07564 42.8409 7.70161 42.8802 7.20856L43.3722 1.01634C43.4134 0.497924 43.0266 0.04417 42.508 0.00298811C41.9901 -0.0380682 41.5361 0.348765 41.4948 0.867054L41.0028 7.05927C40.9616 7.57781 41.3484 8.03144 41.8668 8.07262Z" fill="#333333"/>
<path d="M63.8409 21.3357C63.7998 20.8174 63.3465 20.4297 62.8277 20.4716L56.6355 20.9637C56.117 21.0048 55.7301 21.4585 55.7713 21.977C55.8106 22.4701 56.2228 22.8441 56.7091 22.8441C56.7339 22.8441 56.7593 22.8431 56.7847 22.8411L62.9769 22.349C63.4953 22.3078 63.8821 21.8542 63.8409 21.3357Z" fill="#333333"/>
</svg>
