<svg width="64" height="64" viewBox="0 0 64 64" fill="none" xmlns="http://www.w3.org/2000/svg">
<g clip-path="url(#clip0_6_1059)">
<path d="M60.4545 15.952H50.8778L48.8533 4.47223C48.5139 2.54748 46.6723 1.25773 44.746 1.59686L2.92978 8.97061C1.00491 9.30998 -0.285091 11.1525 0.0541595 13.0779L1.48791 21.2091C1.56816 21.664 1.96366 21.984 2.41003 21.984C2.46403 21.984 2.51891 21.9792 2.57391 21.9696C3.08378 21.8797 3.42428 21.3935 3.33441 20.8836L1.90066 12.7524C1.74078 11.8452 2.34853 10.977 3.25516 10.8171L45.0714 3.44336C45.9773 3.28348 46.8468 3.89111 47.0067 4.79786L48.9738 15.9519H45.58L44.2619 8.47361C44.1209 7.67298 43.3588 7.13761 42.5569 7.27911L6.93116 13.5604C6.54328 13.6285 6.20541 13.8439 5.97991 14.1666C5.75478 14.4886 5.66841 14.8791 5.73653 15.2665L11.4892 47.893C11.615 48.6061 12.238 49.1094 12.9392 49.1094C13.1622 49.1094 13.2297 49.0741 14.4484 48.866V52.2582L10.6795 52.9229C9.77328 53.0824 8.90504 52.4742 8.74441 51.5671L4.09441 25.1909C4.00453 24.681 3.51853 24.3407 3.00841 24.4304C2.49853 24.5202 2.15803 25.0065 2.24791 25.5164L6.89803 51.8934C7.20241 53.6114 8.70216 54.8235 10.3887 54.8235C10.592 54.8235 10.7983 54.8059 11.0054 54.7694L14.4485 54.1621V58.9117C14.4485 60.8667 16.039 62.4571 17.9939 62.4571H60.4545C62.4095 62.4571 63.9999 60.8666 63.9999 58.9117V19.4974C64 17.5425 62.4095 15.952 60.4545 15.952ZM13.2659 47.1707L7.65316 15.3372L42.4855 9.19598L43.6765 15.9521H17.994C16.039 15.9521 14.4487 17.5426 14.4487 19.4976V46.9624L13.2659 47.1707ZM62.125 58.9121C62.125 59.8332 61.3757 60.5825 60.4547 60.5825H17.9939C17.0728 60.5825 16.3235 59.8331 16.3235 58.9121V19.4975C16.3235 18.5764 17.0729 17.827 17.9939 17.827H60.4545C61.3755 17.827 62.1249 18.5764 62.1249 19.4974V58.9121H62.125Z" fill="#333333"/>
<path d="M57.3121 21.168H21.1366C20.3248 21.168 19.6644 21.8285 19.6644 22.6402V55.7696C19.6644 56.5813 20.3248 57.2418 21.1366 57.2418H57.3119C58.1237 57.2418 58.7841 56.5813 58.7841 55.7696V31.3305C58.7841 30.8127 58.3644 30.393 57.8466 30.393C57.3287 30.393 56.9091 30.8127 56.9091 31.3305V55.3667H40.1613V53.2808C41.7692 52.895 42.9996 51.536 43.1687 49.8258C43.2018 49.5116 43.2323 49.2211 43.2609 48.9488L43.9417 49.5C44.6782 50.104 45.5667 50.4021 46.4524 50.4021C47.4691 50.4021 48.4818 50.0092 49.2556 49.2356C50.7033 47.7877 50.8169 45.5033 49.5237 43.9263L48.9686 43.2408C49.0179 43.2356 49.8399 43.1493 49.8399 43.1493C51.8752 42.9482 53.4102 41.2526 53.4102 39.2052C53.4102 37.1571 51.8753 35.461 49.8454 35.2603C49.5314 35.2275 49.2413 35.197 48.9693 35.1685C49.0194 35.1066 49.5199 34.4885 49.5199 34.4885C50.8173 32.9066 50.7037 30.6217 49.2556 29.1735C47.8076 27.7256 45.5233 27.6118 43.9463 28.9052L43.2608 29.4603L43.1692 28.589C42.9679 26.5536 41.2718 25.0187 39.2238 25.0187C37.1764 25.0187 35.4809 26.5536 35.2802 28.5831C35.2802 28.5831 35.2017 29.3298 35.1879 29.4597C34.9761 29.2882 34.7512 29.1063 34.5069 28.9088C32.9254 27.612 30.6409 27.7256 29.1933 29.1733C27.7447 30.622 27.6311 32.9065 28.9251 34.4825C29.0554 34.6435 29.2476 34.8807 29.4802 35.168L28.6089 35.2595C26.5736 35.4606 25.0387 37.1568 25.0387 39.2048C25.0387 41.2522 26.5736 42.9478 28.6031 43.1485C28.9173 43.1816 29.2077 43.2121 29.4799 43.2407L28.9288 43.9216C27.6318 45.503 27.7456 47.7873 29.1933 49.2352C29.9677 50.0096 30.9811 50.4023 31.9978 50.4022C32.8821 50.4022 33.7688 50.105 34.5023 49.5035C34.7484 49.3042 34.9749 49.1208 35.1881 48.9483L35.2796 49.8195C35.4491 51.5346 36.6791 52.8942 38.2863 53.2805V55.3665H21.5394V23.0427H56.9092V26.9552C56.9092 27.473 57.3288 27.8927 57.8467 27.8927C58.3646 27.8927 58.7842 27.473 58.7842 26.9552V22.6402C58.7842 21.8285 58.1238 21.168 57.3121 21.168ZM39.2244 43.7035C36.7438 43.7035 34.7258 41.6855 34.7258 39.205C34.7258 36.7243 36.7439 34.7063 39.2244 34.7063C41.7049 34.7063 43.7229 36.7245 43.7229 39.205C43.7229 41.6855 41.7048 43.7035 39.2244 43.7035ZM47.9296 47.9098C47.1666 48.6728 45.9633 48.7332 45.1262 48.0466L43.4944 46.7258C43.5106 46.5726 43.8217 43.6125 43.8217 43.6125C44.3958 43.0138 44.8541 42.3042 45.1613 41.5187L48.0702 45.111C48.7531 45.9436 48.6927 47.1468 47.9296 47.9098ZM51.5351 39.2052C51.5351 40.2841 50.7269 41.1776 49.6497 41.2841C49.6497 41.2841 47.9649 41.4608 47.5616 41.5033L45.5947 39.0743C45.5772 38.2112 45.3878 37.39 45.0587 36.6431C46.3732 36.7815 47.4462 36.8941 49.6554 37.1257C50.7269 37.2316 51.5351 38.1256 51.5351 39.2052ZM44.0551 31.23L45.1307 30.3587C45.9632 29.676 47.1663 29.7362 47.9296 30.4993C48.6929 31.2626 48.7534 32.4665 48.0664 33.304C48.0664 33.304 47.0163 34.6008 46.7459 34.9351C45.7414 34.8296 44.8994 34.741 43.6319 34.6075C43.0334 34.0335 42.3239 33.5752 41.5387 33.2681C42.3813 32.5857 43.3192 31.8261 44.0551 31.23ZM37.1456 28.7736C37.2516 27.702 38.1449 26.8938 39.2238 26.8938C40.3034 26.8938 41.1973 27.702 41.3039 28.7792L41.5234 30.8676C40.6503 31.5747 39.7408 32.3112 39.0943 32.8345C38.2311 32.852 37.4094 33.0413 36.6624 33.3707C36.7326 32.7031 36.7962 32.0973 36.8724 31.375C36.8728 31.372 36.8726 31.369 36.8728 31.3661C36.9349 30.7743 37.1456 28.7736 37.1456 28.7736ZM30.5192 30.4993C31.2821 29.7365 32.4853 29.6761 33.3231 30.363C33.9747 30.8897 34.4987 31.3142 34.9541 31.6836C34.8484 32.6881 34.7601 33.5297 34.6272 34.7972C34.0531 35.3958 33.5947 36.1055 33.2874 36.891C32.1774 35.5197 30.8613 33.8942 30.3783 33.298C29.6953 32.4658 29.7558 31.2627 30.5192 30.4993ZM26.9138 39.2052C26.9138 38.1256 27.7219 37.2316 28.7992 37.1251L30.8871 36.9057C31.5936 37.7783 32.3308 38.6892 32.8541 39.3358C32.8716 40.199 33.0609 41.0202 33.3902 41.767C32.7217 41.6967 29.8692 41.3968 28.7934 41.2836C27.7219 41.1776 26.9138 40.2841 26.9138 39.2052ZM33.3179 48.0503C32.4856 48.7331 31.2822 48.6727 30.5192 47.9098C29.7562 47.1468 29.6958 45.9436 30.3823 45.1065L31.7029 43.4751C32.7074 43.5807 33.5493 43.6691 34.8164 43.802C35.4149 44.3761 36.1244 44.8343 36.9097 45.1416C36.9097 45.1415 34.8351 46.8221 33.3179 48.0503ZM37.1449 49.6297L36.9257 47.5416C37.1991 47.3201 39.3534 45.5751 39.3534 45.5751C40.2172 45.5578 41.0392 45.3683 41.7866 45.0388C41.7866 45.0388 41.4169 48.5568 41.3033 49.6353C41.1973 50.7077 40.3033 51.5163 39.2238 51.5163C38.1449 51.5165 37.2514 50.7077 37.1449 49.6297Z" fill="#333333"/>
</g>
<defs>
<clipPath id="clip0_6_1059">
<rect width="64" height="64" fill="white"/>
</clipPath>
</defs>
</svg>
