<svg width="106" height="112" viewBox="0 0 106 112" fill="none" xmlns="http://www.w3.org/2000/svg">
<path d="M104.137 37.0685H19.0978L101.39 15.1126C102.384 14.8474 102.974 13.8303 102.708 12.8408L99.6224 1.37483C99.4945 0.899705 99.1824 0.494361 98.7544 0.248704C98.3264 0.00261 97.8181 -0.0638901 97.3409 0.0632038L1.38111 25.6655C0.387452 25.9306 -0.202197 26.9478 0.0638481 27.9372L2.92971 38.5867V108.167C2.92971 110.281 4.65647 112 6.77934 112H102.15C104.273 112 106 110.281 106 108.167V38.9231C106 37.8989 105.166 37.0685 104.137 37.0685ZM102.274 40.7777V48.2941L94.7257 40.7777H102.274ZM77.5361 40.7779L85.732 48.9388H79.0792L70.8832 40.7779H77.5361ZM65.6148 40.7779L73.8108 48.9388H67.1579L58.9619 40.7779H65.6148ZM53.6933 40.7779L61.8893 48.9388H55.2364L47.0404 40.7779H53.6933ZM41.772 40.7779L49.968 48.9388H43.3151L35.1192 40.7779H41.772ZM29.8508 40.7779L38.0467 48.9388H31.3939L23.1979 40.7779H29.8508ZM26.1253 48.9388H19.4724L11.2764 40.7779H17.9293L26.1253 48.9388ZM14.2038 48.9388H6.65521V41.4223L14.2038 48.9388ZM98.6272 12.0094L91.3357 13.9547L96.6735 4.74905L98.6272 12.0094ZM92.0422 5.31715L86.2468 15.3123L79.8206 17.0268L85.616 7.03171L92.0422 5.31715ZM80.5271 8.38971L74.7317 18.3849L68.3056 20.0994L74.101 10.1043L80.5271 8.38971ZM69.0119 11.4618L63.2164 21.457L56.7903 23.1715L62.5857 13.1764L69.0119 11.4618ZM57.4968 14.534L51.7014 24.5291L45.2752 26.2437L51.0706 16.2485L57.4968 14.534ZM45.9817 17.6065L40.1863 27.6017L33.7602 29.3162L39.5556 19.3211L45.9817 17.6065ZM34.4665 20.6787L28.671 30.6738L22.2446 32.3884L28.0401 22.3932L34.4665 20.6787ZM22.9514 23.7508L17.156 33.7459L10.7298 35.4605L16.5252 25.4654L22.9514 23.7508ZM4.14459 28.7685L11.4361 26.8231L6.0983 36.029L4.14459 28.7685ZM102.275 108.167H102.274C102.274 108.235 102.219 108.291 102.15 108.291H6.77934C6.7108 108.291 6.65521 108.235 6.65521 108.167V52.6484H90.2291C91.2579 52.6484 92.0919 51.818 92.0919 50.7936C92.0919 50.2813 91.8831 49.8175 91.5459 49.482L82.8049 40.7781H89.4578L97.7142 48.9992C96.9097 49.2044 96.3143 49.9291 96.3143 50.7938C96.3143 51.8182 97.1482 52.6486 98.1771 52.6486H102.275V108.167H102.275Z" fill="white"/>
<path d="M69.9364 77.0871L46.3421 64.5571C45.138 63.9177 43.7201 63.9532 42.5498 64.6523C41.3795 65.3514 40.6809 66.5801 40.6809 67.9392V92.9988C40.6809 94.3577 41.3795 95.5866 42.5498 96.2858C43.1636 96.6526 43.8453 96.8368 44.5288 96.8368C45.1485 96.8368 45.7694 96.6852 46.3421 96.3814C47.2499 95.8995 47.5932 94.7759 47.109 93.8721C46.6251 92.9682 45.4963 92.6259 44.589 93.1084C44.5657 93.1207 44.5268 93.1412 44.4666 93.1054C44.4062 93.0695 44.4062 93.0255 44.4062 92.9993V67.9397C44.4062 67.9134 44.4062 67.8697 44.4666 67.8336C44.5272 67.7975 44.5657 67.8183 44.589 67.8305L68.1833 80.3605C68.2112 80.3754 68.2492 80.3953 68.2492 80.4697C68.2492 80.5438 68.2112 80.564 68.1833 80.5788L51.6011 89.3846C50.6933 89.8665 50.3497 90.99 50.8341 91.8939C51.3183 92.798 52.4473 93.1395 53.3542 92.6576L69.9364 83.8518C71.1937 83.1842 71.9745 81.8883 71.9745 80.4697C71.9745 79.0506 71.1935 77.755 69.9364 77.0871Z" fill="white"/>
</svg>
