<svg width="112" height="112" viewBox="0 0 112 112" fill="none" xmlns="http://www.w3.org/2000/svg">
<g clip-path="url(#clip0_248_471)">
<path d="M101.589 93.6257C102.497 93.6257 103.233 92.8896 103.233 91.9818V15.6712C103.233 14.7634 102.497 14.0273 101.589 14.0273H85.6986V1.64391C85.6986 0.749875 84.9483 0 84.0547 0H10.411C9.50318 0 8.76709 0.736094 8.76709 1.64391V99.8357C8.76709 100.744 9.50318 101.48 10.411 101.48H26.3014V110.356C26.3014 111.264 27.0375 112 27.9453 112H101.589C102.497 112 103.233 111.264 103.233 110.356V99.7992C103.233 98.8914 102.497 98.1553 101.589 98.1553C100.681 98.1553 99.9454 98.8914 99.9454 99.7992V108.713H29.589V17.3152H99.9452V91.982C99.9452 92.8896 100.681 93.6257 101.589 93.6257ZM27.5466 14.0766C26.8256 14.2566 26.3014 14.9286 26.3014 15.6712V98.1918H12.0549V3.28759H70.7022L27.5466 14.0766ZM82.411 14.0273H41.2983L82.411 3.74916V14.0273Z" fill="white"/>
<path d="M89.3149 26.3014H40.2191C39.3113 26.3014 38.5752 27.0375 38.5752 27.9453V50.7397C38.5752 51.6475 39.3113 52.3836 40.2191 52.3836H89.3149C90.2227 52.3836 90.9588 51.6475 90.9588 50.7397V27.9453C90.9588 27.0373 90.2229 26.3014 89.3149 26.3014ZM87.6712 49.0958H41.863V29.589H87.6712V49.0958Z" fill="white"/>
<path d="M70.0273 57.863H40.2191C39.3113 57.863 38.5752 58.5991 38.5752 59.5069V98.0822C38.5752 98.99 39.3113 99.7261 40.2191 99.7261H70.0273C70.9351 99.7261 71.6712 98.99 71.6712 98.0822V59.5067C71.6712 58.5989 70.9351 57.863 70.0273 57.863ZM68.3836 96.4383H41.863V61.1506H68.3836V96.4383Z" fill="white"/>
<path d="M89.3149 63.1234H77.0409C76.1331 63.1234 75.397 63.8595 75.397 64.7673C75.397 65.6751 76.1331 66.4112 77.0409 66.4112H89.3149C90.2228 66.4112 90.9589 65.6751 90.9589 64.7673C90.9589 63.8593 90.223 63.1234 89.3149 63.1234Z" fill="white"/>
<path d="M89.3149 70.137H77.0409C76.1331 70.137 75.397 70.8731 75.397 71.7809C75.397 72.6887 76.1331 73.4248 77.0409 73.4248H89.3149C90.2228 73.4248 90.9589 72.6887 90.9589 71.7809C90.9589 70.8731 90.223 70.137 89.3149 70.137Z" fill="white"/>
<path d="M89.3149 77.1508H77.0409C76.1331 77.1508 75.397 77.8869 75.397 78.7947C75.397 79.7025 76.1331 80.4386 77.0409 80.4386H89.3149C90.2228 80.4386 90.9589 79.7025 90.9589 78.7947C90.9589 77.8866 90.223 77.1508 89.3149 77.1508Z" fill="white"/>
<path d="M89.3149 84.1643H77.0409C76.1331 84.1643 75.397 84.9004 75.397 85.8082C75.397 86.716 76.1331 87.4521 77.0409 87.4521H89.3149C90.2228 87.4521 90.9589 86.716 90.9589 85.8082C90.9589 84.9004 90.223 84.1643 89.3149 84.1643Z" fill="white"/>
<path d="M89.3149 91.1781H77.0409C76.1331 91.1781 75.397 91.9142 75.397 92.822C75.397 93.7298 76.1331 94.4659 77.0409 94.4659H89.3149C90.2228 94.4659 90.9589 93.7298 90.9589 92.822C90.9589 91.9142 90.223 91.1781 89.3149 91.1781Z" fill="white"/>
</g>
<defs>
<clipPath id="clip0_248_471">
<rect width="112" height="112" fill="white"/>
</clipPath>
</defs>
</svg>
