<svg width="112" height="112" viewBox="0 0 112 112" fill="none" xmlns="http://www.w3.org/2000/svg">
<g clip-path="url(#clip0_248_391)">
<path d="M18.1009 107.333C15.7585 107.334 13.6767 105.651 13.2562 103.266L0.0753503 28.5134C-0.152367 27.2223 0.13835 25.917 0.893906 24.8379C1.64946 23.7589 2.77645 23.0392 4.06772 22.8115L19.6879 20.0572V9.58834C19.6879 6.87433 21.8957 4.6665 24.6097 4.6665H74.2656C76.9796 4.6665 79.1874 6.87433 79.1874 9.58834V10.4406L101.881 14.4419C103.172 14.6696 104.299 15.3891 105.055 16.4682C105.81 17.5471 106.101 18.8523 105.873 20.1436L105.82 20.4488C106.397 20.4041 107.003 20.4339 107.608 20.5406C108.791 20.7493 109.878 21.2347 110.666 21.9078C111.682 22.7738 112.152 23.9063 111.956 25.0149L101.399 84.8881C101.399 84.8913 101.398 84.8944 101.398 84.8975C101.397 84.9007 101.396 84.904 101.396 84.9071L101.221 85.8967C101.196 86.0413 101.151 86.1817 101.088 86.3143L95.5601 97.9828C95.2437 98.6506 94.5208 99.024 93.7926 98.896C93.065 98.7679 92.5129 98.1689 92.444 97.4333L92.3189 96.0969C91.9588 96.8812 91.3944 97.5599 90.6664 98.0698C89.5873 98.8254 88.2821 99.1161 86.991 98.8886L75.8195 96.9188C74.9271 96.7615 74.3314 95.9106 74.4887 95.0183C74.646 94.126 75.498 93.5302 76.3892 93.6874L87.5606 95.6573C87.989 95.733 88.4232 95.6352 88.7843 95.3823C89.1453 95.1294 89.3859 94.7545 89.4611 94.3266L91.2564 84.1452C91.2566 84.1437 91.2571 84.1419 91.2573 84.1404L101.993 23.2581C101.994 23.2525 101.995 23.2465 101.996 23.2409L102.642 19.5742C102.799 18.6832 102.202 17.8308 101.312 17.6737L79.1876 13.7723V43.1502C79.1876 44.0563 78.4531 44.7908 77.547 44.7908C76.641 44.7908 75.9064 44.0563 75.9064 43.1502V9.58834C75.9064 8.68382 75.1705 7.94773 74.2658 7.94773H24.6099C23.7052 7.94773 22.9693 8.68382 22.9693 9.58834V19.4788L28.8882 18.4352C29.7816 18.2783 30.6314 18.8738 30.7887 19.766C30.946 20.6583 30.3503 21.5092 29.4578 21.6665L4.63756 26.043C4.20969 26.1185 3.83476 26.3589 3.58188 26.7198C3.32901 27.081 3.23123 27.5156 3.30692 27.9435L16.4878 102.696C16.5633 103.124 16.8037 103.499 17.1646 103.752C17.5258 104.005 17.9602 104.102 18.3883 104.027L67.2899 95.4042C68.1806 95.2471 68.7776 94.3944 68.6205 93.5037L55.4397 18.7513C55.3642 18.3232 55.1238 17.9482 54.7628 17.6954C54.4019 17.4427 53.9677 17.3447 53.5392 17.4204L36.2487 20.4693C35.3566 20.6266 34.5055 20.0307 34.3482 19.1385C34.1909 18.2462 34.7868 17.3952 35.679 17.238L52.9696 14.1891C54.2604 13.9618 55.5659 14.2521 56.645 15.0076C57.724 15.7632 58.4435 16.8904 58.6712 18.1814L70.8295 87.1346H74.2658C75.1705 87.1346 75.9064 86.3987 75.9064 85.494V49.7127C75.9064 48.8066 76.641 48.0721 77.547 48.0721C78.4531 48.0721 79.1876 48.8066 79.1876 49.7127V85.494C79.1876 88.208 76.9798 90.4158 74.2658 90.4158H71.4081L71.8521 92.9338C72.3233 95.6065 70.5324 98.1643 67.8597 98.6355L18.9579 107.258C18.6703 107.309 18.3835 107.333 18.1009 107.333ZM94.6087 85.3665L95.1532 91.1777L97.6524 85.9031L94.6087 85.3665ZM94.9495 82.0949L98.451 82.7122L100.609 70.4747L97.1073 69.8574L94.9495 82.0949ZM97.6771 66.6259L101.179 67.2432L104.333 49.3524L100.832 48.7351L97.6771 66.6259ZM101.402 45.504L104.903 46.1213L108.702 24.573C108.559 24.3781 108.017 23.9446 107.039 23.7722C106.06 23.5994 105.403 23.8219 105.201 23.9555L101.402 45.504ZM108.725 24.4449C108.725 24.4453 108.725 24.4459 108.725 24.4466L108.725 24.4449C108.725 24.4449 108.725 24.4449 108.725 24.4449Z" fill="white"/>
</g>
<defs>
<clipPath id="clip0_248_391">
<rect width="112" height="112" fill="white"/>
</clipPath>
</defs>
</svg>
