<svg width="112" height="112" viewBox="0 0 112 112" fill="none" xmlns="http://www.w3.org/2000/svg">
<g clip-path="url(#clip0_248_510)">
<path d="M40.4504 78.385C41.3197 78.4465 42.2234 78.5581 43.1677 78.7302C43.6472 78.8182 44.1394 78.6878 44.5128 78.3763C44.8867 78.0644 45.1026 77.603 45.1026 77.1163V67.8387C45.1026 67.0286 44.5115 66.3398 43.7109 66.2171C41.7835 65.9213 39.9987 65.8041 38.3283 65.8128C35.7615 62.4793 31.8026 60.514 27.5658 60.514C21.8676 60.514 16.8219 64.0731 14.8534 69.3185C13.9447 69.2352 13.0023 69.0945 12.016 68.8814C11.531 68.7769 11.0252 68.897 10.6394 69.2085C10.2533 69.52 10.0291 69.9892 10.0291 70.4851V79.3082C10.0291 79.9764 10.4346 80.578 11.0539 80.8287C13.0891 81.6529 14.9658 82.1003 16.7272 82.2827C19.2916 85.6773 23.2855 87.6815 27.566 87.6815C33.4121 87.6813 38.623 83.8453 40.4504 78.385ZM27.566 63.7951C29.969 63.7951 32.253 64.6309 34.0675 66.1092C31.2856 66.48 28.8276 67.1393 26.5226 67.7579C23.851 68.475 21.2667 69.1684 18.4181 69.3603C20.1578 65.9999 23.6598 63.7951 27.566 63.7951ZM13.3103 78.1718V72.4434C14.1713 72.5643 15.0001 72.6332 15.8073 72.6674C15.8793 72.677 15.9511 72.682 16.0221 72.682C16.037 72.682 16.0515 72.6787 16.0663 72.6783C20.3232 72.815 23.893 71.861 27.3731 70.9272C31.5897 69.7956 35.9398 68.6273 41.8215 69.2765V75.216C40.9562 75.1182 40.1223 75.0662 39.3153 75.0506C39.2757 75.0484 39.2363 75.0474 39.1972 75.048C34.4746 74.9778 30.6987 76.1916 27.2744 77.2941C22.7113 78.7628 18.7349 80.0425 13.3103 78.1718ZM27.566 84.4C25.2311 84.4 23.0099 83.6114 21.2218 82.2114C23.7165 81.8861 26.016 81.1463 28.2798 80.4174C30.9728 79.5508 33.7234 78.6661 36.9202 78.4041C35.2608 81.9765 31.6136 84.4 27.566 84.4Z" fill="white"/>
<path d="M109.843 16.3644V6.99341C109.843 4.22907 107.594 1.9801 104.83 1.9801H38.0054C35.2378 1.9801 32.986 4.22907 32.986 6.99341V16.3655C31.7273 21.0698 31.0148 28.3996 30.865 38.1756H4.09106C1.83531 38.1754 0 40.0107 0 42.2664V49.1979V49.2117V49.22C0 49.2292 0.0013125 49.238 0.0013125 49.2472C0.00196875 49.2911 0.00371875 49.3351 0.007875 49.3793C0.00984375 49.4001 0.0135625 49.4202 0.0164063 49.4408C0.0207813 49.4729 0.0247188 49.5051 0.0310625 49.5372C0.0374063 49.5696 0.0459375 49.6011 0.05425 49.6326C0.0595 49.6525 0.0636562 49.6724 0.0695625 49.6923C0.0824687 49.735 0.0975625 49.7765 0.11375 49.8177C0.117031 49.826 0.119219 49.8345 0.122719 49.8428C0.123594 49.845 0.124469 49.8472 0.125344 49.8492C0.12775 49.8549 0.129937 49.8605 0.132563 49.8662C0.324844 50.3341 0.527188 50.8058 0.73325 51.2853C1.93134 54.0745 3.17034 56.959 3.17034 60.9735V85.2447C3.17034 90.2954 2.30366 94.0577 0.1785 98.2308C0.0623437 98.4587 0 98.7194 0 98.9752V105.929C0 108.185 1.83531 110.02 4.09106 110.02H52.5689C54.8247 110.02 56.66 108.185 56.66 105.929V99.7694H104.83C107.594 99.7694 109.843 97.5176 109.843 94.75V85.2374C110.361 79.6215 114.426 33.4659 109.843 16.3644ZM35.9041 18.221H67.6821C68.5884 18.221 69.3227 17.4866 69.3227 16.5804C69.3227 15.6741 68.5884 14.9397 67.6821 14.9397H36.2672V6.99341C36.2672 6.03835 37.0468 5.26135 38.0054 5.26135H44.5018V8.69223C44.5018 9.59851 45.2362 10.3329 46.1425 10.3329C47.0487 10.3329 47.7831 9.59851 47.7831 8.69223V5.26135H57.1379V8.69223C57.1379 9.59851 57.8723 10.3329 58.7786 10.3329C59.6848 10.3329 60.4192 9.59851 60.4192 8.69223V5.26135H69.774V8.69223C69.774 9.59851 70.5084 10.3329 71.4147 10.3329C72.3209 10.3329 73.0553 9.59851 73.0553 8.69223V5.26135H82.4099V8.69223C82.4099 9.59851 83.1442 10.3329 84.0505 10.3329C84.9568 10.3329 85.6912 9.59851 85.6912 8.69223V5.26135H95.046V8.69223C95.046 9.59851 95.7803 10.3329 96.6866 10.3329C97.5929 10.3329 98.3272 9.59851 98.3272 8.69223V5.26135H104.83C105.785 5.26135 106.562 6.03835 106.562 6.99341V14.9399H75.3681C74.4618 14.9399 73.7275 15.6743 73.7275 16.5806C73.7275 17.4869 74.4618 18.2212 75.3681 18.2212H106.925C110.111 32.0274 108.372 64.795 106.704 83.5222H53.4896V60.9735C53.4896 58.4581 53.9763 56.3863 54.6343 54.5035C55.8631 55.6023 57.2217 56.5869 58.6981 57.4474C57.8953 58.0201 57.2639 58.7505 57.0157 59.7122C56.4703 61.8255 57.9156 63.8835 60.4249 66.5197C64.1395 70.4189 69.02 72.502 74.5384 72.544C74.5931 72.5445 74.6473 72.5447 74.7018 72.5447C79.7551 72.5445 85.0452 70.7693 89.616 67.5362C89.6433 67.5167 89.6702 67.4964 89.6965 67.4756C94.1082 63.929 97.2888 59.2681 98.6523 54.351C100.127 49.0337 99.463 43.7699 96.7328 39.1293C95.1683 36.4702 93.5747 34.0751 91.2868 33.9743C89.1955 33.8769 87.5403 35.7645 86.2015 37.6331C84.5556 39.6561 82.8242 41.5509 81.0471 43.2784C72.382 41.1816 64.8357 37.2704 57.9989 31.3245C56.5383 29.8823 54.7953 28.4773 52.9174 28.8872C50.8699 29.333 49.8306 31.6739 48.8602 34.244C48.3768 35.5331 48.0539 36.8499 47.8887 38.1754H34.1462C34.2818 29.3827 34.8718 22.6848 35.9041 18.221ZM86.3054 45.9639C85.9642 45.2077 85.3746 44.6766 84.6694 44.2931C86.081 42.8387 87.4578 41.2904 88.7801 39.6631C88.8016 39.6366 88.8221 39.6095 88.842 39.5817C90.4873 37.2767 91.1225 37.252 91.1422 37.252H91.1426C91.3522 37.2612 92.0408 37.6248 93.9052 40.7929C98.3874 48.4118 95.8272 58.3126 87.6803 64.8863C79.1238 70.9148 68.8995 70.6578 62.8016 64.2569C60.1958 61.5193 60.1462 60.7138 60.1932 60.532C60.1998 60.5071 60.3768 59.9248 62.7804 59.1408C65.0175 59.8261 67.2534 60.1637 69.4164 60.1637C75.5153 60.1634 81.0357 57.4991 84.3732 52.5074C86.1748 49.8172 87.1266 47.7842 86.3054 45.9639ZM81.646 50.6828C77.4399 56.9739 68.8446 58.6768 60.7287 54.8345C58.9277 53.8298 57.3258 52.6199 55.9492 51.2328C56.1474 50.7714 56.3421 50.3173 56.5274 49.8667C56.6164 49.6567 56.6628 49.4261 56.6602 49.1979V42.2664C56.6602 40.0107 54.8249 38.1754 52.5691 38.1754H51.1987C51.3441 37.2415 51.5891 36.3127 51.9315 35.3996C52.8889 32.8634 53.3899 32.2378 53.6147 32.1002C53.7412 32.123 54.3239 32.3017 55.7277 33.6929C55.7526 33.7177 55.7782 33.7417 55.8049 33.7647C63.0766 40.0995 71.4623 44.411 80.729 46.5797C80.7807 46.592 80.8329 46.6014 80.8854 46.6084C82.8201 46.8672 83.2549 47.2544 83.3136 47.3169C83.3392 47.4619 83.3245 48.1764 81.646 50.6828ZM3.28125 42.2664C3.28125 41.8199 3.64459 41.4566 4.09106 41.4566H12.8144V42.8223C12.8144 43.7285 13.5487 44.4629 14.455 44.4629C15.3613 44.4629 16.0956 43.7285 16.0956 42.8223V41.4566H26.6895V42.8223C26.6895 43.7285 27.4238 44.4629 28.3301 44.4629C29.2364 44.4629 29.9707 43.7285 29.9707 42.8223V41.4566H32.4715H32.4859H40.5646V42.8223C40.5646 43.7285 41.2989 44.4629 42.2052 44.4629C43.1115 44.4629 43.8458 43.7285 43.8458 42.8223V41.4566H52.5691C53.0082 41.4566 53.3789 41.8274 53.3789 42.2664V47.5794H3.28125V42.2664ZM53.3789 105.929C53.3789 106.368 53.0082 106.739 52.5691 106.739H43.8458V105.373C43.8458 104.467 43.1115 103.732 42.2052 103.732C41.2989 103.732 40.5646 104.467 40.5646 105.373V106.739H29.9707V105.373C29.9707 104.467 29.2364 103.732 28.3301 103.732C27.4238 103.732 26.6895 104.467 26.6895 105.373V106.739H16.0956V105.373C16.0956 104.467 15.3613 103.732 14.455 103.732C13.5487 103.732 12.8144 104.467 12.8144 105.373V106.739H4.09106C3.64459 106.739 3.28125 106.375 3.28125 105.929V100.616H25.3492C26.2555 100.616 26.9898 99.8814 26.9898 98.9752C26.9898 98.0689 26.2555 97.3345 25.3492 97.3345H4.20766C5.78441 93.5589 6.45159 89.8865 6.45159 85.2447V60.9735C6.45159 56.738 5.28019 53.602 4.11972 50.8607H52.5392C52.5118 50.9173 52.4875 50.9753 52.467 51.0344C51.331 53.7344 50.2086 56.8277 50.2086 60.9735V85.2447C50.2086 89.8865 50.8758 93.5591 52.4525 97.3345H32.9214C32.0152 97.3345 31.2808 98.0689 31.2808 98.9752C31.2808 99.8814 32.0152 100.616 32.9214 100.616H53.3789V105.929ZM104.83 96.4882H97.4667V93.051C97.4667 92.1447 96.7323 91.4104 95.8261 91.4104C94.9198 91.4104 94.1854 92.1447 94.1854 93.051V96.4882H83.3696V93.051C83.3696 92.1447 82.6352 91.4104 81.7289 91.4104C80.8227 91.4104 80.0883 92.1447 80.0883 93.051V96.4882H69.2722V93.051C69.2722 92.1447 68.5379 91.4104 67.6316 91.4104C66.7253 91.4104 65.991 92.1447 65.991 93.051V96.4882H55.6607C54.3211 93.4051 53.6631 90.4177 53.5216 86.8033H106.562V94.75C106.562 95.7086 105.785 96.4882 104.83 96.4882Z" fill="white"/>
<path d="M61.0295 41.4258C60.1233 41.4258 59.3889 42.1601 59.3889 43.0664V43.0854C59.3889 43.9917 60.1233 44.7167 61.0295 44.7167C61.9358 44.7167 62.6702 43.9727 62.6702 43.0664C62.6702 42.1601 61.9356 41.4258 61.0295 41.4258Z" fill="white"/>
<path d="M67.446 47.0277C66.5398 47.0277 65.8054 47.7621 65.8054 48.6683V48.6874C65.8054 49.5937 66.5398 50.3186 67.446 50.3186C68.3523 50.3186 69.0867 49.5746 69.0867 48.6683C69.0867 47.7621 68.3521 47.0277 67.446 47.0277Z" fill="white"/>
<path d="M82.0813 60.5076C81.175 60.5076 80.4407 61.2419 80.4407 62.1482V62.1611C80.4407 63.0674 81.175 63.7954 82.0813 63.7954C82.9876 63.7954 83.7219 63.0545 83.7219 62.1484C83.7219 61.2421 82.9876 60.5076 82.0813 60.5076Z" fill="white"/>
<path d="M88.7064 54.9058C89.6127 54.9058 90.347 54.162 90.347 53.2557C90.347 52.3495 89.6127 51.6151 88.7064 51.6151C87.8001 51.6151 87.0658 52.3495 87.0658 53.2557V53.2748C87.0658 54.181 87.8004 54.9058 88.7064 54.9058Z" fill="white"/>
</g>
<defs>
<clipPath id="clip0_248_510">
<rect width="112" height="112" fill="white"/>
</clipPath>
</defs>
</svg>
