<svg width="112" height="112" viewBox="0 0 112 112" fill="none" xmlns="http://www.w3.org/2000/svg">
<g clip-path="url(#clip0_248_424)">
<path d="M103.781 10.0822H99.2877V6.57532H81.7535V0H30.2465V10.0822H8.21936C3.68713 10.0822 0 13.7693 0 18.3015V81.8629C0 86.3951 3.68713 90.0823 8.21936 90.0823H39.0135V99.9448H34.0823C30.7592 99.9448 28.0547 102.649 28.0547 105.972V112H83.9453V105.972C83.9453 102.649 81.2408 99.9448 77.9177 99.9448H72.9865V90.0823H103.781C108.313 90.0823 112 86.3951 112 81.8629V18.3015C112 13.7693 108.313 10.0822 103.781 10.0822ZM95.9996 9.8634V32.8766H72.9865V9.8634H95.9996ZM61.5892 21.699V32.927L52.5846 25.2357L39.5203 39.2229L29.9132 29.803L10.9589 48.5369V21.699H61.5892ZM52.8401 29.7782L61.5892 37.2507V49.0957H34.7983L52.8401 29.7782ZM30.2994 49.0957H15.0698L29.9226 34.4164L37.2764 41.6266L30.2994 49.0957ZM77.9177 103.233C79.4285 103.233 80.6572 104.462 80.6572 105.972V108.712H31.3428V105.972C31.3428 104.462 32.5715 103.233 34.0823 103.233H77.9177ZM42.3016 99.9448V90.0823H69.6984V99.9448H42.3016ZM108.712 81.8629C108.712 84.5828 106.5 86.7942 103.781 86.7942H8.21936C5.50037 86.7942 3.28809 84.5828 3.28809 81.8629V70.3563H108.712V81.8629ZM108.712 67.0682H3.28809V18.3015C3.28809 15.5817 5.50037 13.3702 8.21936 13.3702H30.2465V18.4109H7.67163V52.3838H30.2465V58.3011H25.3152V61.5892H70.6853V58.3011H33.5345V52.3838H64.8765V18.4109H33.5345V3.28809H78.4655V6.57532H69.6984V36.1647H78.4655V39.4519H74.0819V57.2057H79.7805V64.7141L89.0219 57.2057H104.548V39.4519H81.7535V36.1647H99.2877V13.3702H103.781C106.5 13.3702 108.712 15.5817 108.712 18.3015V67.0682ZM77.37 53.9176V42.74H101.26V53.9176H87.8546L83.0686 57.8064V53.9176H77.37Z" fill="white"/>
<path d="M60.9313 73.6436H51.0687V83.507H60.9313V73.6436ZM57.644 80.2189H54.356V76.9316H57.644V80.2189Z" fill="white"/>
<path d="M78.4655 12.9242V29.8149L91.9784 21.37L78.4655 12.9242ZM81.7535 18.8561L85.7748 21.37L81.7535 23.8831V18.8561Z" fill="white"/>
<path d="M18.7399 58.3011H22.0271V61.5892H18.7399V58.3011Z" fill="white"/>
<path d="M41.3147 10.0822H56.658V13.3702H41.3147V10.0822Z" fill="white"/>
<path d="M59.9452 10.0822H66.3018V13.3702H59.9452V10.0822Z" fill="white"/>
<path d="M14.3563 24.9862H17.6436V28.2743H14.3563V24.9862Z" fill="white"/>
<path d="M20.9316 24.9862H25.3152V28.2743H20.9316V24.9862Z" fill="white"/>
<path d="M43.9098 44.1533L46.1537 41.7505L48.5565 43.9944L46.3126 46.3972L43.9098 44.1533Z" fill="white"/>
<path d="M48.3976 39.3485L53.1152 34.2976L55.5172 36.5415L50.8004 41.5924L48.3976 39.3485Z" fill="white"/>
<path d="M80.5479 46.6852H91.5067V49.9724H80.5479V46.6852Z" fill="white"/>
<path d="M94.7948 46.6852H98.082V49.9724H94.7948V46.6852Z" fill="white"/>
</g>
<defs>
<clipPath id="clip0_248_424">
<rect width="112" height="112" fill="white"/>
</clipPath>
</defs>
</svg>
