<svg width="522" height="118" viewBox="0 0 522 118" fill="none" xmlns="http://www.w3.org/2000/svg">
<g clip-path="url(#clip0_198_1282)">
<path d="M302.106 46.7784C300.704 46.8575 299.467 46.3826 298.331 47.2749C298.094 47.4619 297.612 47.2749 297.259 47.39C296.896 47.5319 296.543 47.6977 296.202 47.8865C295.979 48.0071 295.735 48.0852 295.483 48.1167C293.822 48.1167 292.161 48.1167 290.492 48.1167C290.221 48.0572 289.965 47.9448 289.737 47.7858C289.534 47.6503 289.32 47.5324 289.097 47.4332C288.268 47.2544 287.453 47.0139 286.659 46.7136C286.181 46.3884 285.77 45.9729 285.451 45.4904C285.178 45.1594 284.502 45.1666 284.674 44.4542C284.797 43.9577 284.487 43.2957 285.35 43.1446C285.473 43.1446 285.523 42.6985 285.638 42.3747C286.465 42.3747 287.299 42.3747 288.126 42.3747C288.536 42.3747 289.083 42.2452 289.234 42.936C289.234 43.0655 289.687 43.1734 289.953 43.1734C291.391 43.1734 292.829 43.1734 294.268 43.1734C294.488 43.1524 294.702 43.0914 294.901 42.9935C295.306 42.7905 295.724 42.6127 296.152 42.461C296.806 42.3027 297.418 42.3963 298.065 41.8206C298.712 41.245 299.827 41.1515 300.762 41.0435C302.2 40.8708 302.61 40.5614 302.675 39.0431C302.675 38.4819 302.675 37.9063 302.775 37.3522C302.862 37.0654 302.988 36.7919 303.149 36.5391C303.283 36.2893 303.385 36.0232 303.451 35.7476C303.516 35.287 303.451 34.8193 303.509 34.3516C303.725 31.9987 303.696 29.581 304.271 27.3144C304.559 26.1847 304.53 24.8535 305.105 23.9612C305.681 23.069 305.882 21.9249 306.544 20.9751C306.95 20.8899 307.37 20.8981 307.772 20.999C308.175 21.1 308.549 21.291 308.867 21.5578C309.185 21.8246 309.438 22.1601 309.607 22.539C309.777 22.918 309.858 23.3305 309.844 23.7454C309.765 25.7601 309.844 27.9404 309.125 29.7249C308.406 31.5094 308.78 33.2435 308.464 34.9633C308.392 35.3446 308.104 35.6828 308.003 36.0642C307.86 36.647 307.788 37.2514 307.658 37.9926C308.593 37.9206 309.319 38.3236 310.139 37.5609C310.743 36.9996 311.908 37.0644 312.592 36.5463C313.275 36.0282 313.965 35.8771 314.598 35.3878C315.231 34.8985 316.123 34.4524 316.755 33.8551C317.681 32.9676 318.553 32.0257 319.366 31.0345C319.941 30.3653 320.416 29.5954 321.114 28.6528C321.545 29.4299 321.833 29.9911 322.149 30.4948C322.431 30.9077 322.773 31.2764 323.163 31.5886C323.882 32.1426 323.969 33.9343 323.314 34.5459C323.264 34.5891 323.163 34.6179 323.163 34.6611C323.026 35.7332 322.207 36.2513 321.452 36.8197C320.998 37.1723 320.56 37.5393 320.121 37.9278L317.899 39.8418C317.805 39.921 317.741 40.0721 317.64 40.1153C316.346 40.6262 314.893 40.914 313.8 41.7055C313.113 42.1035 312.356 42.365 311.57 42.4754C310.942 42.7575 310.342 43.0996 309.78 43.4972C308.96 43.9361 308.111 44.3247 307.112 44.814C307.112 45.476 307.155 46.2531 307.112 47.0518C307.112 47.5123 307.385 48.1887 306.522 48.2823C306.457 48.2823 306.378 48.4981 306.371 48.6132C306.371 50.5704 306.371 52.5204 306.371 54.7583C306.82 54.5189 307.289 54.319 307.773 54.161C308.349 54.0387 308.946 54.0531 309.535 53.9739C310.125 53.8948 310.6 54.1466 310.88 53.4271C310.945 53.2544 311.477 53.204 311.786 53.204C313.821 53.204 315.849 53.204 317.885 53.204H319.064C319.61 51.9088 320.078 50.7359 320.589 49.6062C321.099 48.4765 321.574 47.5123 322.063 46.4546C322.329 45.9709 322.748 45.5892 323.254 45.3691C323.76 45.1491 324.325 45.1032 324.86 45.2385C325.234 45.404 325.457 45.8933 325.774 46.2171C325.992 46.4158 326.22 46.6031 326.457 46.7784C326.737 46.9942 327.233 47.2029 327.241 47.4332C327.198 47.9283 327.079 48.4137 326.888 48.8723C326.888 48.9515 326.701 48.9802 326.673 49.0593C326.14 50.628 325.587 52.1966 325.112 53.7796C325.047 54.2306 325.047 54.6886 325.112 55.1396C325.953 55.4562 326.73 55.6937 327.471 56.0318C327.823 56.2347 328.143 56.4895 328.42 56.7874C329.039 57.3559 329.628 57.9531 330.247 58.5287C330.452 58.7559 330.696 58.9458 330.966 59.09C331.98 59.5001 332.289 60.5291 332.915 61.2486C333.325 61.7379 333.771 62.1912 334.202 62.6877C334.297 62.7723 334.371 62.8784 334.418 62.9971C334.662 64.0549 334.892 65.1127 335.137 66.1776C335.137 66.3071 335.137 66.5158 335.18 66.5662C336.439 67.4008 335.662 68.6673 335.849 69.725C335.935 70.2202 335.935 70.7266 335.849 71.2217C335.604 72.5385 334.914 73.7689 335.13 75.1649C334.346 75.5822 334.835 76.5176 334.475 76.9565C333.655 77.9351 333.907 79.0721 333.648 80.1298C333.342 80.8345 332.966 81.507 332.526 82.1374C331.994 83.2239 331.541 84.3536 331.009 85.4473C330.839 85.9207 330.54 86.3369 330.146 86.6489C329.074 87.275 329.312 88.8076 328.125 89.3545C327.737 89.5488 327.651 90.3187 327.356 90.7936C326.895 91.5131 326.349 92.1535 325.917 92.8587C325.659 93.2473 325.572 93.7582 325.285 94.1107C324.485 95.2413 323.485 96.2167 322.336 96.989C321.897 97.2552 321.725 97.946 321.351 98.572C320.43 98.572 319.402 98.572 318.374 98.572C317.892 98.5236 317.446 98.2979 317.122 97.9388C315.907 96.9171 315.734 95.737 315.813 94.341C315.907 92.8012 316.008 92.5493 317.575 92.794C319.301 93.0674 319.884 91.8586 320.898 90.9448C321.775 90.146 321.905 88.9947 322.811 88.2248C323.587 87.5556 323.918 86.3611 324.465 85.4113C324.587 85.2099 324.788 85.0587 324.918 84.8573C325.227 84.3823 325.515 83.8931 325.81 83.4181C326.041 82.9312 326.339 82.4785 326.694 82.0726C327.414 81.3239 327.88 80.3671 328.025 79.3383C328.104 78.9929 328.521 78.7338 328.657 78.3813C328.944 77.6781 329.184 76.957 329.377 76.2226C329.592 75.3807 329.103 74.3518 330.096 73.7185C330.218 73.6394 330.182 73.2724 330.182 73.0422C330.182 70.4805 330.232 67.9189 330.182 65.3573C330.182 64.8248 330.34 64.2132 329.571 63.8463C329.247 63.6952 329.312 62.8749 329.003 62.5367C327.936 61.348 326.792 60.2303 325.579 59.1907C324.871 58.7437 324.107 58.3905 323.307 58.1401C322.811 59.0252 322.415 59.7448 322.012 60.4571C321.38 61.5581 320.783 62.6806 320.1 63.7455C319.503 64.6665 318.783 65.5012 318.151 66.4007C317.618 67.1706 317.18 68.0125 316.619 68.7608C315.972 69.6243 314.972 70.3294 314.612 71.2792C314.253 72.2291 313.318 72.8335 313.541 73.9992C313.609 74.7599 313.624 75.5246 313.584 76.2874C313.642 77.2228 313.03 77.82 312.599 78.5396C312.354 79.0627 312.222 79.6314 312.21 80.209C312.081 81.8208 311.376 82.6122 309.758 82.6122C308.874 82.6122 307.982 82.785 307.097 82.1374C306.68 81.8279 305.659 82.1373 305.019 82.3892C303.71 82.9289 303.092 84.3967 301.689 84.9508C300.97 85.2314 300.625 86.3108 299.942 86.7713C299.108 87.3326 298.683 88.4263 297.418 88.4766C296.806 88.4766 296.231 89.1242 295.613 89.4192C294.771 89.815 294.102 90.5561 293.081 90.5921C292.628 90.5921 292.06 90.477 291.851 91.1678C291.808 91.2901 291.377 91.3477 291.132 91.3549C290.032 91.3549 288.932 91.398 287.839 91.3549C287.49 91.2649 287.159 91.1165 286.861 90.9159C286.659 90.8152 286.436 90.6137 286.249 90.6425C285.235 90.8152 284.746 90.11 284.149 89.5128C283.552 88.9155 282.869 88.3543 282.215 87.7787C282.215 87.7787 282.143 87.7786 282.136 87.7283C281.708 86.888 281.401 85.9918 281.222 85.066C281.107 82.7418 281.179 80.4104 281.222 78.0791C281.222 77.7337 281.56 77.3595 281.747 77.0573C281.747 77.0069 281.913 76.9781 281.906 76.9637C281.683 75.9636 282.524 75.3591 282.891 74.6324C283.258 73.9056 283.135 72.9918 284.034 72.5097C284.365 72.337 284.387 71.6246 284.61 71.1857C284.905 70.5502 285.254 69.9412 285.652 69.3652C286.127 68.7248 286.731 68.178 287.249 67.5663C287.515 67.2497 287.673 66.8468 287.968 66.523C289.205 65.2278 290.435 63.9254 291.744 62.7093C292.466 62.1441 293.22 61.6204 294.002 61.1407C294.332 60.9033 294.599 60.5867 294.922 60.3276C295.735 59.6656 296.526 58.9533 297.396 58.3776C297.927 58.0299 298.529 57.8061 299.158 57.7228C300.15 57.5933 300.222 56.809 300.647 56.1686C302.013 54.089 301.071 51.8081 301.459 49.6926C301.605 49.1871 301.778 48.6899 301.977 48.2031C302.049 47.7312 302.092 47.2555 302.106 46.7784ZM300.546 62.3711C300.068 62.5365 299.604 62.7386 299.158 62.9756C298.755 63.2346 298.475 63.7455 298.058 63.8822C296.914 64.2492 296.245 65.1486 295.469 65.9401C294.929 66.487 294.376 67.0267 293.8 67.5376C293.13 68.0206 292.502 68.5598 291.923 69.1494C290.945 70.3654 290.082 71.675 288.608 71.9341C288.256 73.5243 288.248 75.1936 287.501 76.4097C286.971 77.3238 286.617 78.3294 286.458 79.3742C286.212 81.4545 286.178 83.5544 286.357 85.6415C286.39 85.9145 286.489 86.1752 286.646 86.401C286.802 86.6268 287.012 86.8107 287.256 86.9368C288.896 87.2894 290.377 86.6058 291.837 85.9222C292.254 85.7207 292.901 85.7063 293.103 85.3969C293.398 84.9611 293.802 84.6107 294.276 84.3808C294.749 84.151 295.275 84.0497 295.8 84.0874C296.461 83.4326 296.936 82.9289 297.446 82.454C297.734 82.1877 298.115 82.015 298.381 81.7344C299 81.0796 299.561 80.3816 300.165 79.7268C300.453 79.405 300.771 79.1111 301.114 78.849C302.243 77.9783 303.156 76.8918 302.617 75.4455C302.189 74.1887 301.986 72.8658 302.02 71.5383C302.02 71.4736 302.02 71.3728 301.977 71.3512C300.862 70.8475 301.459 69.8185 301.258 69.0342C301.143 68.5593 301.128 68.0628 300.999 67.5951C300.87 67.1274 300.567 66.7964 300.546 66.3863C300.51 65.1342 300.546 63.875 300.546 62.3711ZM305.731 63.875H305.767C305.666 64.936 305.68 66.0048 305.81 67.0626C306.141 68.5018 306.932 69.8761 307.054 71.4232C307.054 71.5383 307.471 71.7542 307.5 71.7182C307.864 71.3861 308.199 71.0225 308.5 70.6317C309.003 69.9625 309.456 69.2501 309.938 68.5881C310.096 68.3794 310.528 68.3147 310.592 68.106C311.067 66.5949 312.347 65.602 313.045 64.1988C313.606 63.0619 314.483 62.0402 314.979 60.8169C315.2 60.3187 315.524 59.8725 315.928 59.5073C316.468 58.9605 316.777 57.5573 316.281 57.104C315.785 56.6507 315.137 56.809 314.67 57.3703C314.594 57.435 314.497 57.4707 314.397 57.471C312.851 57.6149 311.304 57.507 309.773 58.0754C308.938 58.392 307.989 58.1618 307.176 58.9317C306.249 59.8095 305.479 60.5938 305.688 61.9826C305.745 62.6117 305.76 63.244 305.731 63.875Z" fill="#333333"/>
<path d="M26.4359 68.8328C26.0548 69.0702 25.6736 69.3149 25.2853 69.5523C24.8969 69.7898 24.5661 70.1639 24.1562 70.1495C23.0343 70.1495 22.2577 70.8691 21.2796 71.2145C20.6144 71.5379 19.9811 71.9234 19.3883 72.3658C18.7842 72.7111 18.1226 72.963 17.5472 73.3443C16.7058 73.8984 15.5408 73.7113 14.8289 74.6467C14.5556 75.0065 13.9227 75.0929 13.4409 75.2944C12.6858 75.5526 11.9503 75.8653 11.2403 76.2298C10.6027 76.6688 10.0122 77.1728 9.47841 77.7337C9.11884 78.0719 8.85276 78.7051 8.46442 78.777C6.93263 79.0433 6.52991 80.7558 5.17072 81.2091C5.02689 81.2595 4.99813 81.6624 4.89026 81.9862C4.26523 82.0258 3.63831 82.0258 3.01328 81.9862C2.72562 81.9862 2.48111 81.6552 2.20065 81.5041C1.92018 81.353 1.69005 81.317 1.4815 81.1731C1.00686 80.8709 0.359632 80.6407 0.129505 80.1945C-0.258835 79.475 0.35244 78.9065 0.848652 78.4101C1.51746 77.6905 2.22941 77.0717 2.91979 76.4097C2.97013 76.3665 2.9989 76.2945 3.04924 76.2657C4.03447 75.7477 5.20668 75.4239 5.96179 74.6684C6.71689 73.9128 7.96821 73.6394 8.80242 72.7615C9.63663 71.8837 10.7873 71.6678 11.8156 71.1497C12.4557 70.8187 13.1029 70.4805 13.7573 70.1711C15.0063 69.4319 16.3237 68.8151 17.6911 68.3291C18.4102 68.142 18.928 67.4584 19.5896 67.0842C19.9701 66.9142 20.3758 66.8073 20.7906 66.7676C21.5097 66.6237 22.157 66.4438 22.3008 65.494C20.9848 65.4149 20.1434 64.8608 19.978 63.5296C19.8773 63.1728 19.6428 62.8687 19.3235 62.6806C18.7111 62.2047 18.2369 61.5737 17.95 60.8529C17.5408 60.176 17.0584 59.5462 16.5117 58.9748C15.8407 58.2535 15.3005 57.4208 14.9152 56.514C14.6563 55.8592 14.7713 54.8302 13.8077 54.5064C13.743 54.5064 13.707 54.3409 13.6926 54.2545C13.4769 53.2472 13.2899 52.2326 13.0454 51.2324C12.9591 50.887 12.6642 50.592 12.5779 50.2538C12.4189 49.7322 12.3532 49.1865 12.3838 48.642C12.3838 48.4621 13.0454 48.2031 13.369 48.2462C14.5196 48.3973 15.6487 48.6636 16.7849 48.9011C16.91 48.935 17.0177 49.0146 17.087 49.1241C17.4439 49.6173 17.7544 50.1424 18.0147 50.6927C18.3023 51.4123 18.4102 52.1319 18.6763 52.8514C18.9855 53.6861 19.3955 54.492 19.7334 55.3051C19.8244 55.5278 19.9301 55.7441 20.0499 55.9527C20.4814 56.7154 20.9272 57.4637 21.3515 58.2337C21.5773 58.8005 21.8643 59.341 22.2073 59.8455C22.984 60.7234 23.1854 61.9682 24.2497 62.7237C24.6524 62.9972 24.5661 63.8319 25.1486 64.2924C25.7311 64.7529 26.7379 65.0119 27.2126 64.5442C27.4334 64.2987 27.7249 64.1278 28.0468 64.0549C29.6073 63.9973 31.1751 63.9901 32.7356 64.0045C33.0898 64.0098 33.4366 64.1064 33.7424 64.2852C34.6773 64.868 35.6122 65.4652 35.2454 66.854C35.1448 67.2353 35.1376 67.4728 34.6917 67.7318C34.4617 67.9129 34.2738 68.1419 34.141 68.4028C34.0081 68.6637 33.9335 68.9503 33.9222 69.2429C33.9222 70.1999 33.0089 70.5021 32.6925 71.2001C32.6565 71.2792 32.5271 71.3152 32.4911 71.3944C32.1747 72.1139 31.887 72.9198 31.5634 73.6754C31.4915 73.8193 31.2038 73.8912 31.1679 74.0351C31.0526 74.4445 31.0016 74.8693 31.0169 75.2944C31.9014 75.5822 31.5922 76.2945 31.5706 76.8054C31.5706 77.6401 31.5706 78.2949 32.4048 78.8274C33.0283 79.3462 33.5948 79.9299 34.0948 80.5687C34.7421 81.2163 35.4324 81.8208 36.0868 82.4684C37.0649 83.4326 37.9998 84.4471 39.0138 85.3466C39.4182 85.6934 39.8986 85.9399 40.4161 86.0661C41.725 86.4187 43.0626 86.6778 44.3858 86.9872C44.6329 87.0516 44.8736 87.1383 45.105 87.2462C45.424 87.4415 45.7674 87.5939 46.1261 87.6995C48.5569 87.973 51.0092 88.1241 53.4327 88.4766C54.1518 88.5918 54.871 89.2393 55.5542 89.6207C56.6832 90.2323 55.662 90.6928 55.36 90.9591C55.1717 91.067 54.9585 91.1238 54.7415 91.1238C54.5245 91.1238 54.3113 91.067 54.1231 90.9591C53.6988 90.5489 53.519 90.4266 53.1522 90.9591C53.0667 91.0507 52.9631 91.1237 52.848 91.1732C52.7328 91.2228 52.6087 91.2478 52.4834 91.2469C50.254 91.2469 48.0247 91.2469 45.7953 91.2469C44.8748 90.0524 43.1057 91.0814 42.1996 89.8797C42.1493 89.8222 42.0126 89.8294 41.9191 89.8078C40.7829 89.556 39.6322 89.3617 38.5248 89.0307C37.8795 88.7876 37.2643 88.4713 36.6909 88.088C36.0725 87.7283 35.4684 87.3685 34.8859 86.9296C34.5766 86.7137 34.3249 86.4115 34.0301 86.21C33.0664 85.4905 32.1028 84.7709 31.1535 84.0154C30.2042 83.2598 30.2546 83.3318 29.593 83.4829C29.5558 83.5681 29.5292 83.6575 29.5138 83.7491C29.2789 86.5506 29.0392 89.3497 28.7947 92.1464C28.7947 92.2471 28.7947 92.3838 28.7947 92.4414C27.5218 93.8157 28.2769 95.5067 28.0756 97.0466C28.0191 97.8103 28.0023 98.5764 28.0252 99.3419C28.0252 99.8672 28.1906 100.436 27.5146 100.781C27.3204 100.889 27.3204 101.457 27.3204 101.81C27.3204 106.636 27.3204 111.462 27.3204 116.287V117.878C26.3999 117.878 25.3356 118.194 24.7603 117.799C24.0411 117.309 22.5453 117.079 22.9912 115.582C23.0278 115.487 23.0278 115.382 22.9912 115.287C21.6751 113.805 22.5237 112.006 22.272 110.366C22.0635 108.926 21.4954 107.322 21.7974 105.947C22.4518 102.976 21.668 99.8888 22.4662 97.0753C23.1062 94.8087 22.8186 92.6069 23.1494 90.3979C23.2932 89.4409 23.5234 88.4983 23.6528 87.5197C23.6789 87.0729 23.662 86.6247 23.6025 86.1812L23.3292 86.0733C22.984 86.6346 22.6748 87.2174 22.2792 87.7427C21.8118 88.3831 21.5601 89.1458 21.1502 89.8078C20.6506 90.6108 20.0955 91.3778 19.4889 92.1032C18.6116 93.1826 18.2376 94.6216 17.1229 95.557C16.9791 95.6722 16.7706 95.8449 16.7778 95.9816C16.8497 97.4208 15.6055 98.1403 14.9152 99.1189C14.2248 100.097 13.707 101.134 13.067 102.119C12.6355 102.789 12.1177 103.415 11.6287 104.062C11.3841 104.363 11.1606 104.68 10.9599 105.012C10.4421 105.976 10.0034 106.984 9.45684 107.89C9.05412 108.61 8.51476 109.2 8.01855 109.855C7.76558 110.162 7.54168 110.492 7.34974 110.84C7.00455 111.56 6.77442 112.373 6.40046 113.107C6.02651 113.841 5.55906 114.345 5.22826 115.014C5.09048 115.386 5.03646 115.784 5.07004 116.18C5.07004 116.813 4.73204 117.129 4.15673 117.036C3.05697 116.876 1.97049 116.636 0.906182 116.316C0.187035 116.086 -0.0359007 114.964 0.352439 114.302C0.478749 114.121 0.555601 113.91 0.575375 113.69C0.629164 112.44 1.1412 111.254 2.01367 110.358C2.37504 109.967 2.62356 109.484 2.73282 108.962C2.84069 107.523 4.08481 106.566 4.32932 105.17C4.39405 104.825 4.81115 104.537 5.04847 104.228C5.68851 103.429 6.3717 102.659 6.95421 101.832C7.27213 101.338 7.51452 100.8 7.67335 100.234C7.97814 99.4511 8.52163 98.7839 9.22671 98.3273C9.5719 98.0467 9.53594 97.3416 9.8308 96.9458C10.4349 96.1183 11.2691 95.4635 11.5568 94.3986C11.7006 93.9309 12.3478 93.679 12.6858 93.2113C12.9159 92.9235 12.9303 92.4342 13.1892 92.2111C14.1025 91.4052 14.3902 90.2467 15.0015 89.2825C15.397 88.6637 16.0298 88.2032 16.4398 87.5916C16.7418 87.1599 16.7778 86.5482 17.0654 86.1093C17.7846 85.0659 18.5828 84.1161 19.2588 83.0656C19.5379 82.4529 19.778 81.8232 19.978 81.1803C20.1937 80.7342 20.5317 80.3456 20.7762 79.9067C21.2312 78.96 21.7353 78.0377 22.2864 77.1436C22.8494 76.4407 23.4674 75.7839 24.1346 75.1793C24.185 75.1361 24.2569 75.1001 24.2785 75.0497C24.5877 74.2942 24.7171 73.3588 25.2493 72.8407C25.7815 72.3226 25.4003 71.1857 26.4071 70.7756C26.6876 70.6676 26.5869 69.6314 26.6588 69.027L26.4359 68.8328Z" fill="#333333"/>
<path d="M172.603 60.0687V58.6296C173.185 58.0539 173.617 57.6366 174.041 57.1905C174.084 57.1473 174.091 57.0177 174.12 57.0177C175.263 56.917 175.831 55.924 176.5 55.2692C177.342 54.4345 178.78 54.5497 179.291 53.3552C179.291 53.3048 179.398 53.2617 179.456 53.2617C179.728 53.2345 179.991 53.1522 180.229 53.0199C180.468 52.8875 180.677 52.7078 180.844 52.4917C181.275 52.0744 182.117 52.1176 182.635 51.7722C183.505 51.1678 184.519 51.0526 185.454 50.6784C185.698 50.5999 185.938 50.5086 186.173 50.405C186.452 50.2127 186.743 50.0373 187.043 49.8797C187.436 49.7504 187.84 49.6613 188.251 49.6135C188.675 49.5488 189.085 49.6927 189.38 49.0955C189.675 48.4982 191.538 48.7572 191.933 49.2897C191.984 49.3617 192.005 49.4984 192.077 49.52C192.861 49.8438 193.652 50.146 194.436 50.4554C195.04 50.6928 195.63 50.9663 195.551 51.7578C195.356 53.6934 195.191 55.6362 194.896 57.5574C194.81 58.2119 194.482 58.8103 193.976 59.234C193.069 59.8168 193.256 60.817 192.89 61.5725C192.523 62.3281 191.969 63.2419 191.502 64.0622C191.128 64.7098 191.387 66.4223 192.106 66.7389C192.825 67.0556 193.113 67.7607 193.429 68.4587C193.807 69.1222 194.24 69.7528 194.723 70.3439C194.993 70.7159 195.233 71.1081 195.443 71.5168C195.72 72.2588 196.049 72.9802 196.428 73.6755C197.018 74.5749 197.327 75.6327 198.348 76.2947C199.197 76.8487 199.736 77.8417 200.505 78.5181C201.074 79.0146 201.426 79.7917 202.404 79.8925C202.749 79.8925 203.231 80.4393 203.749 80.6624C205.187 81.2956 206.827 81.5258 208.064 82.6196C208.416 82.9362 208.783 83.2384 209.279 83.6557V84.6919C207.575 84.6919 205.921 84.7638 204.245 84.6919C203.416 84.5939 202.604 84.3783 201.836 84.0515C201.403 83.8537 200.991 83.6126 200.606 83.3319C199.775 82.9434 198.99 82.4605 198.269 81.8928C197.248 80.8782 195.615 80.7055 194.925 79.2017C194.623 78.5397 193.666 78.2015 193.206 77.5683C192.487 76.5897 191.962 75.4672 191.308 74.4382C190.898 73.7978 190.401 73.2222 189.97 72.6033C189.881 72.4066 189.811 72.2017 189.761 71.9917C189.57 71.4966 189.344 71.0157 189.085 70.5526C189.035 70.4734 188.575 70.5526 188.366 70.6893C188.167 70.8583 188.011 71.0731 187.913 71.3154C187.561 72.0349 187.237 72.7545 186.892 73.4237C186.634 74.0426 186.326 74.6394 185.971 75.2081C185.36 76.0644 185.166 77.1293 184.274 77.8849C183.699 78.3742 183.591 79.3959 183.224 80.1515C183.095 80.4177 182.685 80.5544 182.591 80.8135C182.189 81.9216 181.412 82.8282 181.009 83.9651C180.83 84.4688 180.822 85.4978 179.83 85.7496C179.557 85.8216 179.442 86.5555 179.269 86.9944C178.989 87.714 178.298 88.0234 177.831 88.5199C177.363 89.0164 177.248 89.959 176.946 90.6786C176.799 90.9536 176.625 91.2139 176.428 91.4557C176.356 91.5493 176.241 91.6284 176.205 91.7364C175.997 92.3048 175.796 92.8733 175.609 93.4417C175.314 94.3771 175.048 95.3198 174.724 96.248C174.508 96.8668 172.603 97.277 171.998 96.8812C171.394 96.4855 170.97 95.5572 169.999 95.5428C169.913 95.5428 169.762 95.2334 169.755 95.0607C169.719 93.9454 169.46 92.8228 170.215 91.7651C170.682 91.1175 170.747 90.1821 171.229 89.5489C171.862 88.6185 172.36 87.6036 172.71 86.534C173.207 85.6158 173.818 84.7646 174.53 84.0011C174.576 83.9175 174.617 83.831 174.652 83.7421C175.163 82.7635 175.508 81.6266 176.241 80.8638C176.869 80.2497 177.343 79.495 177.622 78.662C177.838 78.0216 178.521 77.5395 178.981 76.9711C179.056 76.865 179.101 76.7407 179.111 76.6113C179.244 75.5995 179.722 74.6646 180.463 73.9633C180.736 73.7115 180.714 73.1718 180.894 72.7904C181.448 71.6607 182.002 70.5382 182.613 69.4373C182.973 68.7897 183.476 68.2284 183.857 67.588C184.116 67.1491 184.274 66.6526 184.49 66.1489C184.813 65.3683 185.181 64.6067 185.59 63.8679C186.007 63.1484 185.885 62.1914 186.748 61.7524C186.806 61.7182 186.849 61.6647 186.87 61.6013C187.367 60.3997 187.654 59.0397 188.431 58.0611C188.992 57.3415 188.949 56.5141 189.488 55.9024C189.697 55.6434 189.661 55.1829 189.761 54.7296C188.927 54.7296 188.165 54.305 187.726 55.2764C187.676 55.3844 187.388 55.3915 187.208 55.4419C186.253 55.6328 185.359 56.0553 184.605 56.6724C183.771 57.3919 182.591 57.7445 181.592 58.3058C181.326 58.4497 181.196 58.8454 180.93 59.0253C179.327 59.9248 178.054 61.2488 176.687 62.4072C176.371 62.6735 175.839 62.9757 175.386 62.2345C175.098 61.774 174.386 61.5798 173.89 61.2344C173.394 60.889 173.106 60.5004 172.603 60.0687Z" fill="#333333"/>
<path d="M149.331 58.4281C148.943 58.1729 148.477 58.0653 148.016 58.1247C147.556 58.1841 147.132 58.4066 146.821 58.7519C146.732 58.8404 146.624 58.907 146.505 58.9462C145.594 59.1113 144.696 59.3372 143.815 59.6226C143.037 60.0224 142.28 60.4644 141.55 60.9465C141.118 61.1768 140.622 61.2991 140.169 61.5006C139.385 61.846 138.601 62.2201 137.839 62.5727C137.077 62.9253 136.494 63.2923 135.811 63.6593C135.646 63.7528 135.459 63.8103 135.286 63.9039C134.373 64.3716 133.431 64.7961 132.56 65.343C131.867 65.8079 131.206 66.32 130.583 66.8757C130.433 66.9985 130.325 67.1643 130.274 67.3506C130.094 68.3148 129.274 68.5954 128.576 69.0703C127.879 69.5452 127.102 69.8546 127.138 70.9484C127.166 72.1051 126.734 73.2256 125.937 74.064C125.817 74.299 125.772 74.5652 125.808 74.8267C125.808 76.1579 125.808 77.4891 125.808 78.8203C125.808 79.3384 125.736 79.8636 125.7 80.3242C124.887 80.7559 124.592 80.0219 124.125 79.8708C123.32 79.5122 122.588 79.0072 121.967 78.3813C121.556 78.1426 121.223 77.7902 121.007 77.3664C120.792 76.9426 120.703 76.4655 120.752 75.9925C120.874 75.0426 120.752 74.0641 120.81 73.1142C120.81 72.5818 120.651 71.9414 121.392 71.6751C121.457 71.6751 121.478 71.5096 121.5 71.4088C121.708 70.4662 121.881 69.5164 122.14 68.581C122.293 68.1632 122.486 67.7608 122.715 67.3794C122.791 67.2738 122.845 67.1538 122.874 67.0268C122.874 65.7676 124.031 64.9185 124.226 63.8391C124.463 62.5296 125.664 61.9107 125.973 60.6443C126.131 59.9751 126.994 59.3131 127.296 58.4857C127.339 58.3633 127.613 58.2626 127.785 58.2554C128.636 58.1185 129.502 58.1185 130.353 58.2554C130.993 58.4569 131.59 58.867 132.258 59.1261C133.236 59.5002 133.697 59.5362 134.416 58.7015C134.584 58.4984 134.802 58.3423 135.049 58.2482C135.768 57.9891 136.882 57.9819 137.134 57.5286C137.803 56.2622 139.407 57.3487 140.011 56.0895C140.176 55.7513 140.996 55.7585 141.514 55.5858C142.549 55.2476 143.578 54.8663 144.628 54.5497C146.326 54.0044 148.119 53.8229 149.892 54.0172C151.138 54.253 152.293 54.8367 153.222 55.701C154.243 56.5429 153.682 57.8164 154.451 58.6367C154.552 58.7375 154.487 59.0253 154.451 59.2196C154.286 60.2485 154.135 61.2775 153.926 62.2921C153.788 62.6207 153.624 62.9382 153.437 63.2419C153.32 63.5695 153.231 63.9065 153.171 64.2493C153.006 64.9689 153.43 65.8323 152.452 66.408C152.049 66.6598 151.999 67.4801 151.812 68.0557C151.503 69.0056 151.452 70.1497 150.863 70.862C150.144 71.7687 150.553 72.9559 149.669 73.8338C149.043 74.4454 149.173 75.7838 148.605 76.5249C148.144 77.1294 148.238 77.964 147.504 78.4965C146.943 78.9282 146.979 80.1371 146.785 81.0005C146.684 81.4107 146.929 82.0007 146.195 82.0511C146.145 82.0511 146.088 82.1375 146.066 82.195C145.75 83.0369 145.448 83.886 145.11 84.7207C144.97 85.0302 144.799 85.3244 144.599 85.5985C143.88 86.6922 143.556 87.9946 142.981 89.11C142.571 89.9159 142.794 91.1247 141.737 91.614C141.65 91.614 141.622 91.8443 141.593 91.9738C141.363 93.2066 141.123 94.4395 140.874 95.6723C140.874 95.8018 140.874 96.0249 140.831 96.0537C139.63 96.6149 140.327 97.7302 140.111 98.5649C139.99 99.3915 139.725 100.19 139.328 100.925C139.069 101.256 138.048 101.198 137.465 101.026C136.882 100.853 136.487 100.206 135.926 99.9393C135.458 99.7703 135.058 99.4535 134.785 99.0369C134.513 98.6202 134.383 98.1263 134.416 97.6295C134.416 97.5647 134.416 97.4712 134.416 97.4352C135.315 96.6077 134.768 95.2766 135.3 94.5066C135.933 93.6216 135.631 92.6718 136.02 91.9234C136.408 91.1751 136.163 90.0526 137.12 89.5417C137.206 89.4913 137.242 89.3114 137.278 89.1891C137.508 88.2968 137.465 87.1456 137.997 86.5843C138.716 85.8647 138.278 84.5624 139.342 84.0803C139.443 84.0371 139.457 83.7996 139.5 83.6485C139.73 82.9289 139.759 81.9791 140.219 81.4395C141.104 80.4249 141.125 79.1297 141.658 78.0719C141.988 77.4459 142.068 76.5393 142.909 76.0428C143.362 75.7694 143.427 74.8052 143.628 74.136C143.829 73.4668 143.563 72.848 144.347 72.2723C144.879 71.8694 144.858 70.7685 145.131 69.9985C145.268 69.6028 145.519 69.279 145.692 68.876C145.788 68.6703 145.856 68.4524 145.893 68.2284C146.001 67.6528 145.793 67.0268 146.613 66.6526C146.951 66.5015 147.001 65.7316 147.173 65.2135C147.497 64.2709 147.828 63.3354 148.116 62.3856C148.569 61.1336 148.928 59.8312 149.331 58.4281Z" fill="#333333"/>
<path d="M242.331 79.6046L242.424 79.7125C243.295 80.4968 244.114 80.7127 245.164 79.8564C245.56 79.5398 246.394 79.7988 247.027 79.7341C247.473 79.6909 248.163 80.0507 248.214 79.144C248.214 79.0865 248.422 79.0217 248.544 78.9858C249.465 78.7555 250.4 78.5828 251.299 78.2662C251.92 78.0184 252.515 77.7099 253.075 77.3451C253.735 77.0109 254.361 76.6133 254.945 76.1579C255.851 75.3736 256.98 75.1145 258.001 74.6108C258.893 74.1719 259.49 73.1718 260.36 72.6609C260.863 72.3659 261.64 72.5529 262.438 72.517C262.541 73.552 262.519 74.5956 262.374 75.6254C262.06 76.3668 261.566 77.0175 260.935 77.5179C260.252 78.2374 259.497 78.7771 258.72 79.3959C258.657 79.468 258.585 79.531 258.505 79.583C257.304 80.1299 256.095 80.6407 254.909 81.2164C254.269 81.533 253.679 81.9359 253.053 82.3029C252.822 82.3935 252.58 82.4587 252.334 82.4972C251.781 82.6483 251.141 82.3605 250.702 83.1304C250.536 83.4254 249.587 83.2599 248.997 83.3247C248.609 83.3247 248.091 83.1664 248.027 83.8572C248.027 83.9507 247.653 84.073 247.459 84.073C245.927 84.073 244.388 84.1666 242.863 84.073C242.169 83.9412 241.512 83.6614 240.936 83.2527C240.352 82.8823 239.797 82.4686 239.275 82.0151C238.666 81.5141 238.175 80.8852 237.836 80.173C236.822 78.1367 237.34 76.0643 237.333 74.0208C237.417 72.8721 237.644 71.7385 238.009 70.6461C238.066 70.423 238.476 70.3079 238.606 70.0777C238.673 69.9065 238.7 69.7223 238.685 69.5391C238.671 69.3558 238.614 69.1784 238.521 69.0202C238.427 68.862 238.299 68.7272 238.145 68.6262C237.992 68.5252 237.817 68.4605 237.635 68.4371C236.233 68.286 235.478 67.2786 234.528 66.4583C233.636 65.5265 232.843 64.504 232.162 63.4074C231.345 62.3131 230.894 60.9884 230.875 59.6225C230.894 59.0438 230.711 58.4765 230.357 58.0179C229.969 57.5142 230.156 56.5788 230.106 55.7945C230.106 55.2404 230.221 54.7079 229.545 54.2762C228.869 53.8444 229.386 52.2902 229.854 51.7074C230.451 50.9879 231.04 50.3906 232.047 50.4194C232.824 50.4194 233.241 50.995 233.759 51.4699C234.802 52.4485 234.658 53.938 235.262 54.9454C236.125 56.3845 235.679 57.7517 235.945 59.126C236.146 60.155 236.103 61.3422 236.628 62.1697C237.297 63.2203 237.657 64.5802 238.886 65.2206C239.001 65.2851 239.129 65.3242 239.26 65.3353C239.392 65.3465 239.524 65.3295 239.649 65.2854C240.368 64.8537 241.396 64.9328 241.633 63.6233C241.784 62.731 242.734 61.9754 243.331 61.1695C243.331 61.1264 243.503 61.1264 243.503 61.1048C243.503 59.9175 244.683 59.421 245.107 58.4712C245.215 58.2266 245.618 58.133 245.79 57.9028C246.315 57.1832 246.739 56.4061 247.3 55.7441C247.861 55.0821 248.487 54.5208 249.084 53.9164C249.177 53.8301 249.379 53.7509 249.371 53.679C249.285 52.4413 250.673 52.1967 251.04 51.1749C251.277 50.5057 252.478 50.2323 252.831 49.5559C253.276 48.6708 254.111 48.75 254.715 48.5197C255.319 48.2895 256.045 48.75 256.692 48.9875C256.973 49.0954 257.174 49.412 257.412 49.6494C257.742 50.002 257.412 51.3476 257.045 51.7218C256.412 52.3406 255.88 53.0601 255.268 53.6933C254.71 54.273 254.116 54.8184 253.492 55.3268C252.773 55.888 252.291 56.6364 251.673 57.2264C250.896 57.9459 251.004 59.3851 249.76 59.6657C249.706 59.6959 249.661 59.7397 249.63 59.7928C249.598 59.8458 249.581 59.9062 249.58 59.9679C249.781 60.9105 248.861 61.1911 248.508 61.81C247.933 62.8461 247.3 63.8463 246.682 64.8537C246.416 65.2926 246.214 65.8539 245.819 66.0985C244.87 66.6814 245.1 67.8974 244.481 68.4946C243.683 69.2142 243.827 70.2144 243.474 71.0562C243.33 71.4073 243.21 71.7679 243.115 72.1356C242.949 72.812 243.417 73.697 242.432 74.1216C242.324 74.1647 242.345 74.5533 242.345 74.7835C242.331 76.3306 242.331 77.9496 242.331 79.6046Z" fill="#333333"/>
<path d="M484.072 45.2996C483.504 45.2996 483.116 45.1773 482.965 45.2996C482.246 45.9544 481.383 45.5803 480.628 45.7961C479.813 46.0551 479.025 46.3925 478.276 46.8035C477.557 47.1561 477.248 48.0771 476.27 48.1203C475.953 48.1203 475.673 48.624 475.327 48.7391C474.45 49.0269 473.817 48.4729 473.249 47.926C472.866 47.506 472.517 47.0561 472.206 46.5804C471.487 45.6162 471.717 44.8031 472.803 44.321C473.4 44.0548 473.932 43.6015 474.508 43.3137C475.288 43.0131 476.029 42.6193 476.715 42.1408C477.435 41.4212 478.427 41.7163 479.204 40.9463C479.98 40.1764 481.728 40.1188 482.634 39.3129C483.54 38.507 484.684 38.9316 485.439 38.14C485.547 38.0321 485.805 38.0537 486 38.0249C486.683 37.917 487.438 38.1184 487.941 37.3557C488.013 37.2334 488.308 37.219 488.502 37.219C489.768 37.219 491.026 37.219 492.292 37.219L492.163 37.4852C492.616 37.881 493.249 38.2048 493.479 38.6869C493.766 39.2985 494.04 40.2987 493.745 40.7161C492.796 42.0401 491.551 43.1554 490.473 44.393C489.919 45.019 489.617 45.976 488.948 46.3646C487.826 47.0194 488.078 48.5232 486.927 49.1133C486.582 49.286 486.481 49.9551 486.287 50.4085C485.978 51.128 485.877 52.1354 485.338 52.5671C484.475 53.2867 484.684 54.2221 484.331 55.0208C483.878 56.0426 483.612 57.1795 483.08 58.1437C482.361 59.4893 482.771 60.8996 482.569 62.2667C482.433 63.2309 482.943 63.9505 483.245 64.7564C483.288 64.8715 483.411 65.0371 483.49 65.0371C484.608 65.0187 485.723 64.92 486.827 64.742C487.681 64.4911 488.505 64.1486 489.286 63.7203C489.653 63.5663 489.99 63.3469 490.278 63.0727C491.12 62.1804 491.782 61.0435 492.76 60.3671C493.773 59.5628 494.667 58.6179 495.413 57.5609C495.773 57.1219 496.384 56.8989 496.794 56.4959C497.095 56.1568 497.338 55.7702 497.513 55.3518C497.88 54.5891 498.153 53.7832 498.542 53.0277C498.881 52.3619 499.281 51.7285 499.735 51.1352C499.996 50.7262 500.371 50.4033 500.814 50.207C501.296 50.0703 501.95 50.207 501.957 50.9266C501.957 52.56 502.015 54.1933 501.878 55.8123C501.835 56.352 501.267 56.8413 500.958 57.3666C500.792 57.6472 500.526 57.9782 500.562 58.2516C500.692 59.1943 499.937 59.5684 499.476 60.1225C499.153 60.5038 498.577 60.7629 498.434 61.1874C498.01 62.2956 497.257 63.2474 496.276 63.9145C495.232 64.8682 494.248 65.8846 493.328 66.9583C492.492 67.7956 491.458 68.4071 490.322 68.7356C490.228 68.7356 490.077 68.7356 490.041 68.7931C489.157 70.1747 487.797 69.3184 486.668 69.5127C486.239 69.5702 485.803 69.5702 485.374 69.5127C484.806 69.4551 484.281 69.6494 483.756 68.9442C483.375 68.4262 482.318 68.4333 481.541 68.1599C481.269 68.0564 481.024 67.8943 480.822 67.685C480.244 67.1548 479.701 66.5876 479.196 65.9869C478.751 65.4256 478.477 64.7349 478.053 64.152C476.73 62.2956 477.6 60.2088 477.413 58.2372C477.413 57.9854 477.657 57.6904 477.801 57.4241C477.904 57.2781 477.996 57.1241 478.075 56.9636C478.585 55.5245 478.851 53.9271 479.657 52.6463C480.275 51.6749 480.433 50.5812 481.009 49.6529C481.951 48.293 482.936 46.9474 484.072 45.2996Z" fill="#333333"/>
<path d="M430 51.0062C430 51.5674 430.194 52.2366 429.964 52.6755C428.604 55.3019 429.733 58.1801 429.086 60.8137C428.482 63.3106 428.741 65.793 428.561 68.2755C428.504 68.9951 428.346 69.8369 429.065 70.4773C429.244 70.6284 429.137 71.1106 429.137 71.4416C429.137 72.5425 429.137 73.6434 429.137 74.7371C429.137 76.0827 428.77 76.4856 427.461 76.5504C427.194 76.5442 426.928 76.5563 426.663 76.5864C425.224 76.8598 424.39 76.1906 423.563 75.0465C422.944 74.1109 422.667 72.9898 422.779 71.8733C422.779 70.3046 422.779 68.7432 422.866 67.1818C422.866 66.3831 422.671 65.5268 423.434 64.8648C423.614 64.7065 423.52 64.2316 423.527 63.9006C423.57 62.2672 423.276 60.5403 423.729 59.0292C424.218 57.3886 424.067 55.7912 424.218 54.1794C424.218 53.8196 424.218 53.4598 424.218 52.7978C423.68 53.0717 423.109 53.2772 422.52 53.4095C421.472 53.5673 420.405 53.5479 419.363 53.3519C418.637 53.2031 417.982 52.8156 417.501 52.251C417.279 51.9796 417.13 51.6564 417.067 51.3116C417.004 50.9668 417.03 50.6116 417.141 50.2794C417.213 49.9052 417.954 49.6174 418.428 49.3656C419.45 48.8403 420.672 48.8043 421.65 48.4086C422.379 48.1059 423.132 47.8652 423.901 47.689C424.389 47.5441 424.817 47.2462 425.122 46.8395C425.428 46.4327 425.595 45.9384 425.598 45.4296C425.545 44.8985 425.545 44.3633 425.598 43.8322C425.656 43.1126 425.411 42.3931 426.202 41.875C426.44 41.7167 426.361 41.0835 426.447 40.551C427.49 40.7813 428.54 40.1624 429.496 41.3713C430.172 42.2276 431.121 42.8104 430.625 44.4222C431.553 44.1488 432.171 43.9833 432.783 43.7746C433.477 43.6231 434.13 43.321 434.696 42.8896C434.844 42.7705 435.018 42.6881 435.205 42.6493C435.391 42.6104 435.584 42.6161 435.767 42.6659C435.951 42.7157 436.12 42.8081 436.262 42.9358C436.403 43.0634 436.512 43.2226 436.58 43.4004C436.774 43.825 437.63 43.9185 438.126 44.2567C438.363 44.5369 438.513 44.8802 438.558 45.2445C438.602 45.6088 438.54 45.9782 438.378 46.3075C437.842 47.0407 437.086 47.5829 436.22 47.8545C435.531 48.1937 434.886 48.6166 434.3 49.1137C434.109 49.2186 433.903 49.2938 433.689 49.3368C432.954 49.5273 432.233 49.7677 431.531 50.0563C431.072 50.3421 430.65 50.6828 430.273 51.0709L430 51.0062Z" fill="#333333"/>
<path d="M388.296 67.6582C389.073 67.3128 389.886 67.9748 390.598 66.9386C391 66.3414 392.187 66.2191 393.05 65.996C393.955 65.7274 394.818 65.3299 395.61 64.8159C396.128 64.3482 398.487 64.6936 398.99 65.1325C399.493 65.5715 399.99 65.8521 399.788 66.4061C399.325 66.799 398.885 67.2195 398.472 67.6654C397.712 68.4777 396.804 69.1371 395.797 69.6082C395.15 69.968 394.632 70.5652 393.999 70.9825C393.547 71.2512 393.064 71.4639 392.561 71.6157C391.669 72.0147 390.739 72.3209 389.785 72.5296C389.334 72.5654 388.896 72.6984 388.501 72.9194C388.107 73.1405 387.764 73.4444 387.498 73.8104C386.578 74.9545 386.959 76.372 386.117 77.4081C385.613 77.7156 385.133 78.0596 384.679 78.4371C382.924 80.0849 380.781 79.9338 378.66 79.7107C378.011 79.5393 377.401 79.2463 376.862 78.8473C376.179 78.4587 375.258 78.1781 374.92 77.588C374.453 76.7605 373.007 76.9476 373.115 75.674C373.115 75.6021 372.878 75.5373 372.849 75.4366C372.698 74.9976 372.36 74.4364 372.511 74.1198C372.903 73.5539 373.335 73.0176 373.805 72.5152C374.453 71.5726 375.567 71.6373 376.438 71.184C376.783 71.0041 377.157 70.8314 377.466 70.6443C377.545 70.6012 377.631 70.4716 377.689 70.486C379.127 70.7954 380.285 69.6801 381.651 69.5722C381.868 69.594 382.087 69.5661 382.292 69.4907C382.497 69.4154 382.681 69.2945 382.832 69.1371C382.983 68.9798 383.097 68.7901 383.164 68.5825C383.231 68.3749 383.25 68.1548 383.219 67.9388C383.219 66.9386 383.219 65.9385 383.269 64.9455C383.305 64.2835 383.068 63.5064 383.845 63.053C383.967 62.9811 383.945 62.6213 383.953 62.391C383.953 61.6715 383.953 60.9951 384.01 60.2971C384.212 58.0809 384.125 55.7711 384.78 53.6916C385.068 52.5245 385.294 51.3427 385.456 50.1514C385.578 49.5685 387.124 49.3455 387.534 49.9067C388.081 50.6263 388.9 51.0724 389.246 52.0654C389.531 52.6439 389.705 53.2715 389.756 53.9147C389.756 54.0442 389.756 54.2456 389.72 54.3032C388.483 55.2674 389.195 56.6202 389.044 57.7931C388.908 58.8364 389.008 59.9158 388.965 60.9807C388.965 61.5348 389.202 62.2112 388.397 62.5062C388.311 62.5062 388.282 62.8084 388.282 62.9595C388.296 64.4418 388.296 65.9312 388.296 67.6582Z" fill="#333333"/>
<path d="M360.918 46.4456C362.091 43.5673 361.112 43.3731 364.298 40.9122C364.805 41.6068 365.413 42.2206 366.103 42.7326C366.657 43.0205 367.499 42.7758 368.21 42.7326C368.21 42.7326 368.254 42.5887 368.297 42.5671C369.16 42.1714 370.03 41.79 370.735 41.4734C371.159 40.7539 371.454 40.0343 371.885 39.4659C372.13 39.1133 374.41 39.4227 374.762 39.7105C375.238 40.1443 375.764 40.5188 376.33 40.8258C376.955 41.1496 376.811 41.4734 376.524 41.9267C376.378 42.2412 376.255 42.5659 376.157 42.8982C375.978 43.4744 375.653 43.9948 375.215 44.4093C374.777 44.8239 374.239 45.1187 373.654 45.2655C373.338 45.3087 373.115 45.8195 372.784 45.985C372.123 46.2729 371.389 46.4096 370.72 46.7046C370.389 46.8485 370.159 47.2227 369.843 47.4242C368.98 47.9782 368.052 48.4531 367.196 48.9712C366.096 49.6404 364.651 50.3168 364.651 52.0293C363.651 52.7489 364.234 54.0513 363.745 54.8356C362.587 56.692 362.5 58.6708 362.479 60.7215C362.401 61.1566 362.224 61.5678 361.961 61.9232C361.623 62.5708 361.846 63.5494 361.961 64.3769C362.011 64.7079 362.421 64.9885 362.723 65.6001C363.399 65.3349 364.031 64.9712 364.6 64.5208C365.212 63.8732 365.816 64.0099 366.535 64.0747C366.93 65.5138 366.204 66.514 365.535 67.5789C365.4 67.8245 365.321 68.0975 365.305 68.3776C365.306 68.541 365.274 68.7029 365.211 68.8537C365.149 69.0045 365.056 69.141 364.939 69.2552C364.822 69.3694 364.684 69.4588 364.532 69.5182C364.38 69.5776 364.217 69.6057 364.054 69.6009C363.227 69.6009 362.393 69.6009 361.566 69.6009C361.098 69.6302 360.632 69.5101 360.237 69.258C359.841 69.0058 359.536 68.6346 359.365 68.1977C358.831 67.1656 358.351 66.1065 357.927 65.0245C357.377 63.232 357.276 61.3319 357.632 59.4911C357.855 58.052 357.991 56.6129 358.178 55.1738C358.222 54.7996 358.732 54.4974 358.826 54.1088C358.884 53.5731 358.884 53.0327 358.826 52.497C358.56 52.497 358.243 52.4323 358.207 52.497C357.747 53.3821 356.891 53.0799 356.186 53.2166C355.482 53.3533 354.978 53.4684 354.367 53.5836C354.243 53.6086 354.116 53.6086 353.993 53.5836C353.274 53.4756 352.598 53.3029 351.893 53.2454C350.764 53.1518 350.253 52.6913 350.217 51.5688C350.217 50.9428 350.217 50.324 350.217 49.5541C351.397 49.5541 352.425 49.5972 353.446 49.5541C353.799 49.4653 354.131 49.3089 354.424 49.0935C354.496 49.0504 354.561 48.8848 354.604 48.892C355.705 49.0863 356.539 48.4028 357.416 47.9782C358.135 47.6328 358.998 47.6184 359.574 46.8701C359.782 46.5535 360.444 46.5751 360.918 46.4456Z" fill="#333333"/>
<path d="M78.4446 104.595C78.6459 103.659 78.5812 102.436 79.1637 101.659C79.7462 100.882 79.6671 100.292 79.926 99.6227C80.2613 98.9549 80.6334 98.3063 81.0407 97.6799C81.5944 96.6078 82.0547 95.4853 82.6444 94.4347C82.9896 93.8087 83.5721 93.3194 83.9604 92.715C84.3488 92.1105 84.5142 91.5637 84.8018 90.988C85.198 89.9311 85.7246 88.928 86.3696 88.0018C86.7217 87.5872 86.9685 87.0934 87.0887 86.5627C87.175 86.2749 87.6209 86.1022 87.8079 85.8432C88.527 84.6847 89.1239 83.4687 89.843 82.3246C90.2458 81.677 90.8067 81.1229 91.2813 80.5113C91.3589 80.3651 91.3985 80.2018 91.3964 80.0364C91.5808 78.8851 92.1334 77.8246 92.9713 77.0142C93.597 76.3594 94.3161 75.791 94.9993 75.1937C95.6825 74.5965 97.1568 74.9203 97.8759 75.0714C99.0409 75.3377 99.1344 76.5105 99.8895 77.0502C100.062 77.1725 99.8895 77.9425 99.7169 78.3094C99.4114 78.7751 99.0544 79.2047 98.6526 79.5903C98.3649 79.9285 98.142 80.389 97.7752 80.5761C96.8188 81.0654 96.7037 82.0151 96.3369 82.8354C96.1168 83.3317 95.8314 83.7963 95.4883 84.217C94.8986 84.9797 94.237 85.6921 93.6617 86.4692C93.4819 86.7138 93.5538 87.124 93.41 87.4118C93.0792 88.045 92.6909 88.635 92.3169 89.2611C92.1227 89.6208 92.0077 90.0238 91.8351 90.398C91.4899 91.1607 90.8211 91.6644 90.519 92.5567C90.1307 93.6792 89.167 94.593 88.5126 95.6363C88.2034 96.1328 88.0739 96.7516 87.7935 97.2625C87.4051 97.9317 86.8873 98.5362 86.5062 99.2126C86.1751 99.8054 85.9098 100.433 85.7151 101.083C85.6313 101.591 85.3985 102.062 85.0463 102.436C84.5613 103.096 84.2812 103.885 84.2409 104.703C84.2232 105.137 84.0537 105.552 83.7619 105.874C83.4702 106.196 83.0747 106.405 82.6444 106.466C82.4214 106.516 82.2489 106.825 82.0331 106.854C81.6064 106.919 81.1725 106.919 80.7458 106.854C80.4654 106.804 80.2352 106.502 79.962 106.458C78.7466 106.185 78.4158 105.832 78.4446 104.595Z" fill="#333333"/>
<path d="M460.153 58.6767C460.153 59.4466 460.197 60.1158 460.153 60.8354C460.153 61.0944 459.866 61.3247 459.729 61.5549C459.454 62.1555 459.139 62.7372 458.787 63.2962C458.169 64.1381 457.471 64.9224 456.788 65.7139C456.248 66.34 455.781 67.189 455.091 67.4984C453.933 68.0093 453.228 69.1678 451.89 69.434C451.171 69.5779 450.653 70.3479 449.97 70.6933C449.402 70.9883 448.705 71.0171 448.115 71.2833C447.525 71.5495 447.058 71.2833 446.468 71.1322C445.409 70.8081 444.506 70.1065 443.929 69.1606C443.52 68.5706 443.8 67.3833 444.001 66.5126C444.203 65.642 445.059 65.6348 445.77 65.7931C447.007 66.0449 448.065 65.4693 449.086 65.0231C449.805 64.7137 450.287 63.9078 450.869 63.3178C450.956 63.2315 451.006 63.1019 451.099 63.0444C452.011 62.5942 452.889 62.0771 453.724 61.4973C454.774 60.6339 455.666 59.5761 456.658 58.6191C457.651 57.6621 458.334 57.7053 459.621 58.5184C459.789 58.5992 459.969 58.6526 460.153 58.6767Z" fill="#333333"/>
<path d="M452.976 50.3443V52.8843C452.574 52.9203 452.257 52.9778 451.934 52.9778C450.74 53.0594 449.592 53.4704 448.618 54.1651C447.806 54.6544 446.914 54.8847 446.259 55.7265C445.668 56.3144 445.039 56.8625 444.375 57.3672C443.742 57.9644 443.21 58.6695 442.57 59.2667C441.993 59.7722 441.383 60.2385 440.744 60.6627C440.6 60.7634 440.362 60.7275 440.168 60.7634C439.363 60.9145 438.593 60.6627 437.766 61.4183C436.939 62.1738 435.674 62.0443 434.667 62.3033C434.54 62.1559 434.449 61.9816 434.401 61.7937C434.352 61.6057 434.347 61.4091 434.386 61.2188C434.424 61.0286 434.506 60.8497 434.625 60.696C434.743 60.5422 434.896 60.4176 435.07 60.3317C435.773 59.8945 436.286 59.2087 436.508 58.4105C436.727 57.9512 437.013 57.5269 437.356 57.1512C437.597 56.797 437.856 56.4559 438.133 56.1295C439.104 55.0502 440.096 53.9708 441.089 52.9203C441.923 52.028 442.779 51.1502 443.635 50.2651C443.704 50.1677 443.798 50.0906 443.908 50.0421C444.685 49.7902 445.483 49.5816 446.259 49.3225C446.745 49.0675 447.256 48.8648 447.784 48.7181C448.755 48.6317 449.711 48.5526 450.582 49.3513C451.121 49.8406 452.013 49.9629 452.976 50.3443Z" fill="#333333"/>
<path d="M73.3459 92.8011C73.4609 94.6 72.4541 95.6794 70.9295 95.4419C70.4295 95.3491 69.9601 95.134 69.5632 94.8158C68.4341 93.8948 66.9023 93.5423 66.0609 92.1823C65.6222 91.4628 64.7161 91.0166 64.299 90.2899C63.6638 89.0577 63.1019 87.7891 62.6162 86.4906C62.5371 86.3107 62.6162 85.9941 62.4867 85.9293C61.5231 85.3393 61.9114 84.3751 61.7676 83.5548C61.6382 82.8352 61.3721 82.1517 61.2354 81.4393C61.1116 81.0288 61.12 80.5897 61.2594 80.1842C61.3988 79.7787 61.6621 79.4274 62.0121 79.1799C62.6582 79.3254 63.2909 79.5252 63.9035 79.7771C64.4369 80.0677 64.9342 80.4203 65.3849 80.8277C65.8923 81.2705 66.2873 81.8276 66.5374 82.4532C66.7875 83.0787 66.8854 83.7547 66.8232 84.4255C66.8232 85.4688 67.6934 86.0589 68.1249 86.872C68.4629 87.534 68.6426 88.2751 68.9878 88.9299C69.6135 90.1244 70.0737 91.4483 71.6199 91.8801C72.2264 92.1247 72.805 92.4335 73.3459 92.8011Z" fill="#333333"/>
<path d="M398.817 50.9067H395.322C395.157 49.3165 395.006 47.7479 394.805 46.1864C394.717 45.8549 394.568 45.5426 394.366 45.2654C394.308 45.1646 394.136 45.1071 394.114 45.0063C393.891 44.0637 393.654 43.1283 393.489 42.1785C393.381 41.5597 393.654 40.8329 392.834 40.4875C392.748 40.4875 392.683 40.2501 392.69 40.1349C392.721 39.9625 392.715 39.7855 392.672 39.6158C392.628 39.4461 392.549 39.2876 392.439 39.1512C392.33 39.0147 392.192 38.9035 392.035 38.8249C391.879 38.7463 391.707 38.7023 391.532 38.6958C391 38.5879 390.547 38.0626 389.871 37.6021L390.367 36.9833C390.703 36.5079 391.175 36.1454 391.72 35.9437C392.266 35.742 392.86 35.7106 393.424 35.8536C393.948 36.0567 394.434 36.3461 394.862 36.7098C395.517 37.1344 396.178 37.5517 396.789 38.0338C397.032 38.2672 397.215 38.5561 397.322 38.8757C397.717 39.8471 398.098 40.8329 398.429 41.8259C398.911 43.6194 399.127 45.4741 399.069 47.3305C399.072 47.5266 399.149 47.7142 399.285 47.8558C400.054 48.4602 400.004 48.9783 399.285 49.6115C398.99 49.8633 398.983 50.403 398.817 50.9067Z" fill="#333333"/>
<path d="M504.158 29.5054C504.158 28.5699 504.158 27.6417 504.158 26.7135C504.143 26.4185 504.205 26.1247 504.34 25.8618C504.474 25.5989 504.676 25.3763 504.924 25.2163C505.172 25.0564 505.458 24.9649 505.753 24.9511C506.048 24.9372 506.341 25.0016 506.603 25.1377C507.248 25.614 507.849 26.1461 508.401 26.7279C509.602 27.6849 509.12 29.0089 509.185 30.189C509.208 30.6042 509.316 31.0102 509.503 31.3816C509.69 31.753 509.951 32.0819 510.271 32.3476C510.773 32.9365 511.067 33.6754 511.105 34.4487C511.173 35.0429 511.022 35.6415 510.681 36.1325C510.346 36.597 509.873 36.9437 509.329 37.1233C508.785 37.3029 508.199 37.3062 507.653 37.1326C506.899 36.8408 506.231 36.3631 505.711 35.7439C505.181 35.0504 504.735 34.2968 504.381 33.4989C504.259 33.2256 504.205 32.9269 504.223 32.6282C504.223 31.5993 504.223 30.5703 504.223 29.5413L504.158 29.5054Z" fill="#333333"/>
<path d="M74.892 78.446C76.6651 78.0888 78.5075 78.4098 80.0555 79.3454L81.3931 84.627L85.5282 86.2172C85.1759 87.0519 84.9242 87.6563 84.579 88.455C83.4283 88.3974 82.026 88.5989 80.8178 88.2176C79.032 87.693 77.4775 86.5765 76.4094 85.0515C74.5828 82.2021 74.5828 80.986 74.892 78.446Z" fill="#333333"/>
<path d="M520.972 33.4485C520.52 33.3497 520.086 33.1823 519.684 32.952C518.85 32.29 517.944 31.6568 517.721 30.4695C517.593 30.0978 517.417 29.7446 517.196 29.419C517.121 29.3216 517.062 29.2121 517.024 29.0952C516.784 27.728 516.544 26.3609 516.304 24.9937C516.225 24.4612 516.441 23.8208 515.715 23.5546C515.636 23.5546 515.593 23.3316 515.593 23.2092C515.593 22.2162 515.593 21.2305 515.593 20.2087C516.844 19.9209 518.081 19.8345 518.929 20.7124C519.778 21.5902 520.742 22.3458 520.583 23.7633C520.519 24.2886 520.454 24.9218 521.166 25.2024C521.223 25.2024 521.245 25.3751 521.259 25.4686C521.49 27.3755 521.756 29.2751 521.979 31.1819C522.051 32.0598 522.086 33.0096 520.972 33.4485Z" fill="#333333"/>
</g>
<defs>
<clipPath id="clip0_198_1282">
<rect width="522" height="118" fill="white"/>
</clipPath>
</defs>
</svg>
