<svg width="173" height="90" viewBox="0 0 173 90" fill="none" xmlns="http://www.w3.org/2000/svg">
<g clip-path="url(#clip0_198_1181)">
<path d="M7.65462 13.8329C12.5096 13.6564 15.3633 16.8873 15.0613 21.0917C14.8185 24.4403 13.5993 27.3342 12.3262 30.3405C11.4005 32.7126 10.8 35.1972 10.5407 37.7277C9.63983 44.8849 8.96009 52.0689 8.13474 59.2368C7.89947 60.6657 7.58979 62.0815 7.20691 63.4787C7.16915 63.6445 7.03966 63.8103 7.05585 63.9654C7.49819 68.202 7.95672 72.4386 8.47459 77.2689C11.4577 73.1714 14.2521 69.1809 17.2136 65.3081C19.981 61.6867 22.8778 58.1562 25.7962 54.6525C30.3059 49.2445 34.6646 43.692 39.4981 38.605C43.2742 34.5984 47.5897 31.0573 51.9053 27.5536C54.6781 25.2962 60.3908 27.361 61.2971 31.1001C62.0577 34.24 62.1008 37.594 62.0954 40.857C62.0954 43.5851 62.0523 46.495 61.1406 49.0038C59.4629 53.6201 60.2667 58.2418 60.2721 62.8582C60.2721 65.169 60.941 67.4852 61.4319 70.6145C63.2822 68.8493 64.9005 67.5708 66.1898 66.0195C70.4083 60.9752 74.6699 55.9523 78.597 50.6941C82.9665 44.81 86.9207 38.6745 91.1985 32.753C93.5774 29.4579 96.3663 26.457 98.7507 23.1619C100.31 21.0222 101.378 18.492 102.818 16.2347C104.863 13.0252 106.966 9.81567 109.2 6.75594C110.662 4.73394 112.377 2.88847 114.055 1.00021C115.948 -1.16621 117.475 0.802278 118.548 1.82397C119.881 3.08638 120.96 4.79277 119.417 6.91105C115.495 12.2602 111.757 17.786 107.862 23.1726C105.488 26.457 102.85 29.5595 100.52 32.876C95.5734 39.9048 90.8532 47.0941 85.8418 54.0694C82.4379 58.8035 78.6834 63.2807 75.1068 67.8864C73.1433 70.4165 71.3793 73.1126 69.2485 75.4983C64.1831 81.1738 63.1096 78.7506 58.5782 74.5515C54.6457 70.9033 53.4319 65.9928 53.3996 61.0127C53.3672 55.5619 54.1764 50.1003 54.6079 44.6442C54.945 41.4449 54.9794 38.2213 54.7105 35.0156C53.6963 35.925 52.639 36.7809 51.6788 37.7437C46.6889 42.7185 41.5696 47.5809 36.817 52.7749C33.8555 55.9844 31.8218 60.114 28.7254 63.163C25.9796 65.8376 24.7173 69.2932 22.4786 72.2032C18.5515 77.2903 15.2608 82.8534 11.7545 88.2507C11.4756 88.7189 11.0947 89.1193 10.6397 89.4227C10.1847 89.7261 9.66696 89.9248 9.12453 90.0042C8.5821 90.0837 8.02868 90.042 7.50462 89.882C6.98056 89.7221 6.49918 89.448 6.09569 89.0798C3.44701 86.7316 2.21708 83.7628 1.24068 80.3553C-0.61501 73.7705 0.210343 67.1482 0.366782 60.5954C0.501644 55.0269 1.94196 49.4906 2.78888 43.9381C2.95072 42.8683 2.98844 41.7984 3.15027 40.7607C3.803 36.6097 4.34787 32.4374 5.20019 28.3238C5.82055 25.3016 7.02352 22.3916 7.63849 19.3693C7.94597 17.5452 7.65462 15.6409 7.65462 13.8329Z" fill="#333333"/>
<path d="M115.468 61.7562C114.843 64.6019 116.666 67.8435 119.385 68.0735C125.523 68.6085 131.662 68.908 137.726 67.0037C142.505 65.4792 147.468 64.4949 152.194 62.8527C157.21 61.1089 162.049 58.8676 166.969 56.8563C167.546 56.6209 168.15 56.4658 168.744 56.2679C170.438 55.733 171.916 55.6955 172.779 57.6373C173.642 59.579 172.142 60.574 171.058 61.2319C166.527 63.9974 161.839 66.5116 157.211 69.122C157.139 69.1741 157.061 69.2172 156.979 69.2503C153.909 70.0634 150.834 70.8551 147.77 71.6789C144.987 72.4385 142.235 73.3318 139.436 74.0379C133.653 75.4982 127.757 75.9368 121.925 74.6584C115.538 73.2623 108.849 65.5059 107.787 59.1458C107.528 57.5998 106.875 55.84 105.801 54.7701C104 52.9514 105.591 51.8869 106.589 51.6141C108.051 51.2183 107.997 50.3998 108.25 49.3781C109.297 45.2165 112.248 42.3065 115.306 39.6212C120.253 35.2777 125.874 31.8061 132.596 31.5119C135.093 31.4049 137.931 33.1166 140.148 34.6144C141.949 35.9163 143.318 37.7208 144.08 39.7977C145.105 42.7291 143.39 45.1469 141.383 47.3936C135.795 53.5558 128.647 57.4073 121.235 60.8147C119.509 61.5743 117.383 61.4406 115.468 61.7562ZM137.451 38.5781L136.722 37.5083C134.689 38.0111 132.547 38.2679 130.632 39.0649C123.938 41.8572 118.905 46.5538 115.398 52.8551C115.307 53.0424 115.263 53.2485 115.27 53.4561C115.277 53.6637 115.334 53.8667 115.436 54.048C115.604 54.1742 115.8 54.2577 116.008 54.2913C116.216 54.3248 116.429 54.3074 116.628 54.2405C117.588 53.8126 118.441 53.1707 119.401 52.7214C125.276 50.0893 130.667 46.5044 135.352 42.1139C136.318 41.226 136.766 39.7817 137.451 38.5781Z" fill="#333333"/>
</g>
<defs>
<clipPath id="clip0_198_1181">
<rect width="173" height="90" fill="white"/>
</clipPath>
</defs>
</svg>
