<svg width="198" height="30" viewBox="0 0 198 30" fill="none" xmlns="http://www.w3.org/2000/svg">
<g clip-path="url(#clip0_198_1301)">
<path d="M163.576 9.92369C163.546 9.75783 163.595 9.56859 163.394 9.44011C163.326 9.39806 163.358 9.2065 163.344 9.071L163.274 9.09671C163.207 8.97931 163.152 8.85568 163.11 8.7276C163.091 8.5922 163.084 8.45541 163.089 8.31879C163.089 8.2674 163.089 8.19731 163.072 8.16928C162.732 7.83054 162.95 7.40071 162.885 7.01759C162.873 6.84725 162.873 6.67632 162.885 6.50599C162.885 6.37283 162.908 6.22799 162.728 6.16491C162.69 6.15323 162.671 6.04812 162.669 5.98504C162.669 5.37766 162.669 4.76793 162.669 4.19559C162.763 4.09981 162.833 4.01572 162.915 3.94797C162.96 3.91519 163.014 3.89723 163.07 3.89658C163.234 3.89658 163.398 3.89658 163.56 3.89658C163.816 3.88257 163.935 4.04141 164.073 4.22363C164.22 4.37874 164.382 4.5174 164.559 4.63712V5.99672L164.981 5.97569L164.95 5.90327C165.059 5.85019 165.161 5.78682 165.258 5.71405C165.461 5.53183 165.816 5.61593 165.961 5.32159C165.966 5.31076 165.974 5.30135 165.984 5.29406C165.994 5.28677 166.005 5.28179 166.017 5.27954C166.197 5.27552 166.37 5.21041 166.507 5.095C166.61 4.99922 166.852 5.05527 167.049 5.04359C167.07 4.97585 167.091 4.90577 167.117 4.82634L167.351 4.79597V2.74022C167.616 2.77759 167.661 2.46924 167.935 2.46924C168.209 2.46924 168.284 2.71453 168.449 2.73088L168.777 3.39899L169 3.44104C169 3.63961 169 3.8265 169 4.01572C169 4.39651 169.133 4.532 169.515 4.53901L170.601 4.55302C170.753 4.55302 170.878 4.58339 170.859 4.78663L171.29 4.83335L171.339 5.04593L171.393 4.99687L171.862 5.46409L171.815 5.52016L172.05 5.55987V6.87275C171.595 7.10636 171.848 7.48948 171.78 7.80719L172.045 7.87027V8.28374L171.982 8.23936C171.833 8.39968 171.705 8.57781 171.6 8.76965C171.539 8.92383 171.485 9.00326 171.321 9.03363C171.114 9.07334 170.981 9.30228 170.737 9.26724C170.711 9.26724 170.674 9.38872 170.638 9.4588C170.46 9.52187 170.223 9.40975 170.087 9.65971C170.052 9.72279 169.853 9.69475 169.75 9.74615L169.194 10.2577C169.194 10.9142 169.194 11.6594 169.194 12.421C169.194 12.5308 169.107 12.6359 169.093 12.7457C169.075 12.8876 169.075 13.0313 169.093 13.1732C169.128 13.2639 169.176 13.349 169.236 13.4255H169.452L169.487 13.2596L170.369 12.9045L170.399 12.7644C170.69 12.6709 170.974 12.5892 171.248 12.484C171.297 12.4653 171.314 12.3625 171.361 12.2691C171.572 12.1956 171.776 12.1026 171.97 11.9911C172.024 11.9561 171.991 11.6477 171.944 11.6337C171.771 11.5776 171.787 11.4819 171.82 11.3837C171.916 11.2513 172.052 11.1531 172.208 11.1039C172.365 11.0547 172.533 11.057 172.688 11.1104L172.742 11.3066C172.924 11.3534 173.168 11.2693 173.21 11.5613C173.21 11.5893 173.349 11.5986 173.433 11.6197L173.468 11.9794L173.886 12.3182C174.015 12.5051 173.745 12.8788 174.16 13.0003C174.153 13.1492 174.192 13.2966 174.273 13.4221C174.354 13.5477 174.472 13.6452 174.61 13.7011C174.704 13.8974 174.8 14.1053 174.922 14.3646L175.02 14.3879L175.335 15.0607C175.446 15.0999 175.545 15.1661 175.624 15.2535C175.702 15.3408 175.758 15.4464 175.785 15.5606C175.799 15.6307 175.888 15.6868 175.942 15.7499C175.975 15.7978 176.011 15.8438 176.05 15.8877C176.169 15.9975 176.284 16.1704 176.418 16.2008C176.873 16.3012 176.941 16.2311 176.952 15.7756C176.946 15.6382 176.954 15.5005 176.974 15.3644C177.01 15.2501 177.06 15.1404 177.121 15.0374L177.196 15.0631C177.217 14.8692 177.17 14.6145 177.276 14.4931C177.387 14.327 177.447 14.132 177.447 13.9324L177.637 13.8833C177.648 13.8683 177.657 13.8518 177.663 13.8343C177.696 13.6684 177.644 13.4886 177.836 13.3671C177.902 13.325 177.862 13.1335 177.9 13.026C177.943 12.9062 178.013 12.7976 178.104 12.7083C178.125 12.5599 178.179 12.4181 178.262 12.2935C178.346 12.1689 178.457 12.0647 178.587 11.9888C178.587 11.9467 178.601 11.865 178.615 11.7809C178.641 11.6173 178.568 11.4164 178.8 11.3137C178.835 11.2996 178.823 11.1711 178.889 11.1244C178.952 11.024 179.02 10.9259 179.081 10.8254C179.138 10.7472 179.185 10.6625 179.222 10.5731C179.262 10.4371 179.295 10.2991 179.32 10.1596C179.515 10.183 179.522 10.0288 179.571 9.87929C179.637 9.73376 179.722 9.59717 179.822 9.47282C179.876 9.39105 179.942 9.31863 179.998 9.23921C180.057 9.14291 180.128 9.05424 180.209 8.97523C180.303 8.83039 180.209 8.62482 180.444 8.50801C180.514 8.47297 180.486 8.23702 180.502 8.09686C180.619 8.05322 180.723 7.98122 180.805 7.8874C180.887 7.79359 180.944 7.68091 180.971 7.55956C180.985 7.47079 181.074 7.3937 181.102 7.35165C181.217 7.17177 181.311 7.03861 181.391 6.88443C181.408 6.82838 181.417 6.77014 181.417 6.71156C181.438 6.58541 181.388 6.42189 181.597 6.4032C181.616 6.4032 181.637 6.37283 181.646 6.34947C181.726 6.15558 181.803 5.95935 181.881 5.76545C181.895 5.73508 181.939 5.7164 181.972 5.69537C182.005 5.67435 182.082 5.65799 182.097 5.62295C182.197 5.36365 182.289 5.09966 182.366 4.88006C182.593 4.5846 182.761 4.24831 182.861 3.88957C183.145 3.88957 183.044 3.62559 183.095 3.42235L183.299 3.37796C183.4 3.16304 183.499 2.95514 183.62 2.70051C183.764 2.70051 183.796 2.54399 183.803 2.36411C183.803 2.30804 183.881 2.25664 183.904 2.19591C183.958 2.06275 184.003 1.92492 184.064 1.75906L184.186 1.72635L184.533 0.833978L184.631 0.80827C184.744 0.551301 184.837 0.341061 184.919 0.14483L185.245 -0.0327148L185.843 0.130814C185.939 0.247618 186.052 0.394794 186.181 0.527951C186.181 0.527951 186.354 0.460195 186.359 0.41581C186.387 0.121463 186.551 0.0677374 186.8 0.128476L186.774 0.193879C186.862 0.274207 186.961 0.34042 187.069 0.390116C187.29 0.422821 187.386 0.584012 187.508 0.726513C187.527 0.75221 187.534 0.798928 187.559 0.810608C187.766 0.89938 187.974 0.981149 188.183 1.06525L188.134 1.12599L188.603 1.59321L188.624 1.57217L188.912 1.98567L188.926 1.97399C188.995 2.05567 189.068 2.13365 189.144 2.2076C189.344 2.38514 189.552 2.551 189.749 2.72854C189.796 2.77056 189.828 2.82616 189.841 2.88739C189.844 2.96433 189.875 3.03744 189.929 3.09295C189.982 3.14847 190.054 3.18253 190.131 3.18874C190.178 3.18874 190.251 3.20978 190.267 3.24248C190.354 3.44467 190.462 3.63662 190.591 3.81481L191.097 4.28203L191.538 4.7329L191.494 4.78429L191.693 4.81466L191.651 4.85905L192.131 5.32626L192.16 5.29589C192.248 5.43112 192.347 5.55852 192.457 5.67668C192.597 5.78815 192.744 5.89113 192.896 5.98504C193.027 6.07849 193.154 6.1766 193.287 6.2607C193.44 6.38685 193.594 6.51066 193.756 6.64148C193.852 6.72325 193.991 6.798 194.026 6.90546C194.113 7.13907 194.326 7.08533 194.45 7.18812L195.048 7.76748L195.517 8.21366V8.22534L195.831 8.53371C196.087 8.53371 196.3 8.72059 196.516 9.00092C196.649 9.01888 196.778 9.06584 196.891 9.1385C197.004 9.21116 197.1 9.30773 197.172 9.42142C197.297 9.56625 197.407 9.71343 197.547 9.85126C197.657 9.96588 197.774 10.0736 197.897 10.1736C198.054 10.2998 198.026 10.7273 197.916 10.8745C197.695 11.1875 197.393 11.0497 197.123 11.073C197.029 11.073 196.889 11.0964 196.889 10.9165C196.889 10.8792 196.755 10.8488 196.722 10.781L196.274 10.3302L195.805 9.86295L195.74 9.91668L195.698 9.69707L195.662 9.73679L195.163 9.30461L195.179 9.28593C195.041 9.16913 194.854 9.08035 194.778 8.93318C194.76 8.88488 194.728 8.84277 194.687 8.81176C194.645 8.78075 194.596 8.7621 194.544 8.75797C194.45 8.74162 194.31 8.78134 194.298 8.59912C194.298 8.56642 194.16 8.54072 194.127 8.52904L193.805 8.09686C193.44 7.83288 193.137 7.47312 192.687 7.33529L192.725 7.27455C192.638 7.21615 192.551 7.1601 192.469 7.09702C192.387 7.0343 192.308 6.96641 192.235 6.89378C192.124 6.77931 192.042 6.59476 191.911 6.55271C191.611 6.45226 191.503 6.19529 191.334 5.98504C191.287 5.9243 191.262 5.84721 191.205 5.80516L190.736 5.33794C190.531 5.22108 190.379 5.02932 190.312 4.80298L190.115 4.77261L190.148 4.73757L189.564 4.12084L189.095 3.65362L187.728 2.25197L187.759 2.22861L187.398 2.04407L187.128 2.17021C187.083 2.03939 187.039 1.90858 186.999 1.79644C186.946 1.72125 186.885 1.65228 186.816 1.59087C186.749 1.53886 186.667 1.5087 186.582 1.50443C186.544 1.50957 186.508 1.5229 186.476 1.54349C186.444 1.56407 186.417 1.59142 186.397 1.62358C186.366 1.71178 186.348 1.80375 186.343 1.89689C186.169 2.02164 186.008 2.16243 185.862 2.31739C185.739 2.50145 185.632 2.69521 185.541 2.89673C185.402 2.89673 185.395 3.04624 185.372 3.20276C185.372 3.26817 185.288 3.31957 185.255 3.38264C185.211 3.4488 185.182 3.52376 185.17 3.60223C185.17 3.75408 185.126 3.85453 184.971 3.83584C184.917 3.9947 184.868 4.13953 184.816 4.28437C184.765 4.4292 184.711 4.5647 184.643 4.75158L184.493 4.78897L184.171 5.48979C184.171 5.48979 184.05 5.51549 184.043 5.55987C183.999 5.82333 183.915 6.07858 183.794 6.31676C183.724 6.44758 183.754 6.62279 183.56 6.61345C183.445 6.84706 183.344 7.05262 183.243 7.26054H183.222C183.163 7.35632 183.067 7.44743 183.053 7.55022C183.03 7.71375 182.891 7.74177 182.819 7.83288C182.691 8.04412 182.588 8.26903 182.511 8.50333C182.379 8.55789 182.268 8.65408 182.196 8.77724C182.124 8.9004 182.094 9.04377 182.111 9.18548L181.937 9.22285C181.874 9.38404 181.82 9.5242 181.764 9.66436L181.585 10.0942L181.417 10.1339L181.468 10.176C181.367 10.3321 181.28 10.4971 181.208 10.6689C181.177 10.7934 181.165 10.9216 181.17 11.0497L181.098 11.024C181.035 11.1443 180.981 11.2683 180.934 11.3954C180.905 11.4959 180.959 11.629 180.779 11.629C180.76 11.629 180.741 11.7271 180.723 11.7785C180.685 11.893 180.723 12.0542 180.526 12.0589C180.514 12.0621 180.503 12.068 180.494 12.0761C180.485 12.0842 180.478 12.0943 180.474 12.1056C180.387 12.3883 180.303 12.6709 180.211 12.984C179.932 12.984 180.017 13.2433 179.958 13.4161C179.726 13.6838 179.565 14.005 179.489 14.3506L179.297 14.3879C179.298 14.4312 179.293 14.4743 179.283 14.5164C179.23 14.621 179.183 14.7287 179.142 14.8388C179.107 14.9743 179.1 15.1191 179.077 15.257C179.053 15.3948 179.126 15.5583 178.896 15.591C178.861 15.591 178.83 15.7522 178.828 15.841C178.828 16.2778 178.828 16.7147 178.828 17.1515C178.828 17.2567 178.87 17.4038 178.683 17.4295C178.662 17.4295 178.643 17.5136 178.636 17.5603C178.617 17.7075 178.61 17.8687 178.401 17.857C178.193 17.8453 178.003 18.0252 177.886 17.7239C177.846 17.6234 177.729 17.5533 177.651 17.4669L177.684 17.3992H176.512C176.394 17.3992 176.263 17.4249 176.247 17.2403C176.247 17.2123 176.148 17.1655 176.104 17.1749C175.869 17.2216 175.797 16.9716 175.616 16.9132C175.583 16.9132 175.583 16.7918 175.525 16.7684L175.056 16.3433C174.882 16.1587 174.73 15.9998 174.587 15.841L174.132 15.3738L174.181 15.3177L173.972 15.2756C173.959 15.127 173.91 14.9838 173.828 14.8588C173.746 14.7337 173.635 14.6306 173.504 14.5585C173.489 14.444 173.473 14.3015 173.457 14.159C173.31 14.1145 173.183 14.0198 173.1 13.8916C173.016 13.7634 172.981 13.6099 172.999 13.4582C172.793 13.4295 172.583 13.4342 172.378 13.4722C172.228 13.5306 172.127 13.7221 172.019 13.8693C171.874 13.9417 171.67 13.8693 171.562 14.1029C171.529 14.166 171.328 14.1403 171.178 14.159C171.161 14.2267 171.142 14.2968 171.126 14.3669L170.47 14.4183C170.444 14.5608 170.423 14.6846 170.399 14.8248L170.017 14.8692C169.94 15.0004 169.833 15.1113 169.704 15.1926C169.575 15.2739 169.428 15.3232 169.276 15.3364L169.304 15.4041L168.985 15.5747C168.916 15.6186 168.844 15.6576 168.77 15.6915C168.67 15.7261 168.567 15.7527 168.463 15.7709C168.32 15.7989 168.111 15.7078 168.104 15.9741C168.104 15.9783 168.103 15.9824 168.101 15.9861C168.099 15.9898 168.096 15.9929 168.092 15.9952L167.4 16.3222C167.34 16.4389 167.248 16.5369 167.136 16.606C167.024 16.6751 166.895 16.7127 166.763 16.7147C166.446 17.016 166.207 17.3524 165.743 17.4622L165.684 17.6701C165.553 17.6561 165.307 17.6701 165.295 17.6211C165.218 17.3431 164.995 17.4505 164.826 17.3875C164.81 17.0978 164.561 17.1539 164.357 17.1282C164.338 16.995 164.32 16.8712 164.299 16.731L164.078 16.6726L164.099 16.2592C164.428 16.2405 164.732 16.1774 164.84 15.7919C165 15.7429 165.213 15.8083 165.326 15.5793C165.356 15.5209 165.56 15.549 165.708 15.5349L165.731 15.3013C165.928 15.0677 166.284 15.1612 166.47 14.8738C166.578 14.708 166.868 14.6613 167.046 14.5772C167.137 14.5038 167.224 14.4258 167.307 14.3435C167.34 14.2988 167.359 14.245 167.361 14.1894C167.37 13.1848 167.377 12.1819 167.382 11.1805C167.375 11.0857 167.363 10.9913 167.347 10.8978C167.14 10.8978 166.936 10.8815 166.732 10.8651C166.617 10.8651 166.498 10.8651 166.458 10.6969C166.458 10.6432 166.32 10.6128 166.223 10.5568C166.218 10.4183 166.176 10.2836 166.102 10.1664C166.028 10.0491 165.924 9.95332 165.801 9.88865C165.778 9.87463 165.78 9.76248 165.801 9.75781C166.005 9.6924 166.092 9.4004 166.381 9.47749C166.524 9.51487 166.683 9.47749 166.669 9.2579C166.838 9.18782 167.07 9.29761 167.159 9.04531C167.173 9.0056 167.335 9.00794 167.429 9.01028C167.583 9.01028 167.64 8.94719 167.64 8.79535C167.64 8.23001 167.64 7.66468 167.651 7.09935C167.658 6.92839 167.649 6.75719 167.626 6.58776C167.626 6.54571 167.513 6.51767 167.452 6.48263C167.361 6.71624 167.136 6.62046 166.971 6.67185L167.007 6.73025L166.202 7.16476L166.231 7.18812C166.078 7.34697 165.923 7.50349 165.762 7.65533C165.669 7.78315 165.584 7.91572 165.506 8.05247C165.48 8.13395 165.47 8.21952 165.476 8.30477C165.464 8.41924 165.494 8.55473 165.311 8.56641C165.286 8.56641 165.248 8.62948 165.248 8.66219C165.248 8.8958 165.248 9.12941 165.248 9.38171C165.248 9.39806 165.248 9.42376 165.248 9.43077C165.637 9.66438 165.433 10.0382 165.471 10.3512C165.489 10.4619 165.53 10.5677 165.591 10.662C165.652 10.7564 165.732 10.8375 165.825 10.9002C165.858 10.9247 165.887 10.9538 165.912 10.9866C166.001 11.1641 166.076 11.3487 166.174 11.5169C166.205 11.5706 166.301 11.5846 166.385 11.6267V12.0402H165.086L164.531 11.2015C164.413 11.0754 164.348 11.0006 164.277 10.9305C164.249 10.9043 164.217 10.8829 164.181 10.8675C164.146 10.8511 164.078 10.8558 164.066 10.8324C163.971 10.636 163.893 10.4321 163.832 10.2227C163.783 10.0054 163.802 10.0008 163.576 9.92369ZM169.215 5.99672C169.215 6.49664 169.215 6.95685 169.215 7.41473C169.215 7.57825 169.335 7.59927 169.45 7.57124C169.532 7.54323 169.602 7.48583 169.644 7.41005C169.672 7.33514 169.686 7.25613 169.686 7.17644L169.752 7.22083C169.878 7.06579 169.995 6.90439 170.104 6.73726C170.167 6.63213 170.104 6.45226 170.305 6.43357C170.317 6.43357 170.348 6.29107 170.32 6.26538C170.165 6.1182 170.031 5.93599 169.759 6.0014C169.578 6.01895 169.396 6.01738 169.215 5.99672Z" fill="white"/>
<path d="M161.982 19.7282C161.635 19.7282 161.748 19.9969 161.652 20.1721C161.31 20.1919 160.968 20.1919 160.627 20.1721C160.448 20.1229 160.28 20.0439 160.128 19.9385L159.715 19.546L159.216 19.0087L159.166 19.0531C159.061 18.7728 158.958 18.4948 158.847 18.2074C159.265 18.107 159.427 18.2074 159.623 18.4995C159.684 18.5929 159.877 18.6022 160.01 18.649V18.5695C160.091 18.5043 160.166 18.4316 160.233 18.3523C160.277 18.2824 160.301 18.2014 160.301 18.1187C160.315 17.4412 160.317 16.7637 160.339 16.0886C160.339 15.9811 160.43 15.8784 160.472 15.7709C160.495 15.7182 160.508 15.6622 160.512 15.605C160.524 15.3831 160.524 15.1589 160.536 14.9369C160.536 14.8154 160.514 14.68 160.69 14.6239C160.735 14.6099 160.761 14.4791 160.763 14.3903C160.782 13.8577 160.784 13.3274 160.81 12.7971C160.81 12.706 160.897 12.6172 160.939 12.5261C160.978 12.4667 161.004 12.3999 161.016 12.3298C161.016 11.6781 161.016 11.0263 161.016 10.3745C161.016 10.3068 160.932 10.2414 160.89 10.1713C160.643 9.79052 160.261 9.99843 159.938 9.96339C159.715 9.93882 159.49 9.93882 159.267 9.96339C159.145 9.99604 159.026 10.0407 158.913 10.0966C158.843 10.1212 158.769 10.1346 158.695 10.1363C158.301 10.1363 157.905 10.1363 157.495 10.1363V10.5895L157.872 10.6315L158.442 11.1735V12.428L159.063 12.7247C159.086 12.7339 159.106 12.7483 159.122 12.7667C159.185 12.8742 159.244 12.9816 159.321 13.1218L159.15 13.1989L159.199 13.2456C159.061 13.3881 158.927 13.5329 158.786 13.6684C158.683 13.7689 158.529 13.8389 158.472 13.9558C158.383 14.1496 158.238 14.0772 158.102 14.1029C157.966 14.1286 157.736 14.1029 157.736 14.3576L157.57 14.3716C157.487 14.4523 157.409 14.5373 157.335 14.6262C157.301 14.6697 157.281 14.7228 157.279 14.7781C157.279 16.3728 157.279 17.9676 157.279 19.5624C157.279 19.5951 157.279 19.6465 157.279 19.6628C157.612 19.9548 157.429 20.345 157.466 20.6884C157.479 20.9218 157.479 21.1557 157.466 21.3892C157.169 21.3892 156.887 21.3892 156.608 21.3892C156.329 21.3892 156.06 21.3892 155.905 21.0808C155.828 20.9453 155.926 20.6813 155.584 20.6463C155.584 20.1277 155.584 19.6138 155.584 19.1022C155.561 18.9916 155.523 18.8847 155.471 18.7845C155.444 18.715 155.428 18.6417 155.424 18.5672C155.424 17.8127 155.424 17.0581 155.424 16.3035V15.7826H153.987L154.015 15.8597C153.913 15.923 153.805 15.9755 153.692 16.0162C153.53 16.0559 153.328 15.9648 153.223 16.1914C153.211 16.2194 153.11 16.2148 153.052 16.2171C152.817 16.2171 152.571 16.2171 152.329 16.2171C152.218 16.2014 152.113 16.1606 152.02 16.0978C151.927 16.0351 151.85 15.952 151.795 15.855C151.66 15.7201 151.539 15.5731 151.431 15.4158C151.286 15.1658 151.652 15.0911 151.666 14.8598C151.792 14.8582 151.918 14.8497 152.043 14.8341C152.165 14.8154 152.308 14.8715 152.383 14.68C152.409 14.6146 152.632 14.6239 152.784 14.5959L152.848 14.3949L153.305 14.3599C153.305 14.159 153.305 13.9581 153.305 13.7572C153.305 13.4652 153.305 13.1732 153.279 12.8835C153.279 12.741 153.328 12.5658 153.094 12.5191C153.054 12.5191 153.04 12.3766 153.007 12.2855H152.604L152.564 12.47C152.416 12.5266 152.272 12.5922 152.132 12.6663C152.022 12.7399 151.927 12.8344 151.853 12.9442C151.701 13.019 151.462 12.9232 151.399 13.1965C151.399 13.2176 151.286 13.2176 151.286 13.2176L150.728 13.8039C150.458 14.2127 150.104 14.0843 149.832 14.18C149.749 14.2577 149.671 14.3404 149.598 14.4276C149.56 14.4823 149.539 14.5461 149.535 14.6122C149.535 14.9439 149.535 15.278 149.535 15.6121C149.535 15.6518 149.535 15.7219 149.565 15.7289C149.835 15.8153 149.739 16.0442 149.762 16.2218C149.8 16.4974 149.743 16.7731 149.947 17.0371C150.053 17.1749 149.978 17.4505 149.987 17.6655C149.987 17.7729 149.971 17.8991 150.142 17.8991C150.172 17.8991 150.203 17.9995 150.222 18.0579C150.29 18.2565 150.151 18.5111 150.416 18.6676C150.477 18.705 150.449 18.9012 150.463 19.0134L150.531 18.9854C150.59 19.1045 150.648 19.219 150.709 19.3428C150.753 19.4124 150.791 19.4851 150.824 19.56C150.864 19.6776 150.891 19.7989 150.906 19.9221C150.923 20.0763 150.906 20.2422 151.141 20.2258V21.1603H150.259L150.287 21.1065C150.193 21.0419 150.094 20.9841 149.992 20.9336C149.877 20.8893 149.783 20.8636 149.757 20.7C149.757 20.6159 149.619 20.5482 149.551 20.4664C149.483 20.3847 149.375 20.2328 149.281 20.1254C149.223 20.0513 149.14 20 149.047 19.9805C148.963 19.6278 148.878 19.2797 148.791 18.9223C148.791 18.8919 148.754 18.8452 148.735 18.8452C148.522 18.8452 148.578 18.6676 148.548 18.5462C148.52 18.4649 148.483 18.3867 148.44 18.3126C148.406 18.259 148.382 18.1996 148.369 18.1374C148.351 17.9575 148.348 17.7776 148.339 17.5977C148.339 17.5487 148.339 17.4646 148.318 17.4529C147.98 17.287 148.144 16.9857 148.102 16.7287C148.085 16.5735 148.077 16.4175 148.076 16.2615L147.842 16.1914C147.852 16.0086 147.852 15.8253 147.842 15.6424C147.818 15.4322 147.945 15.1752 147.68 15.021C147.65 15.0047 147.659 14.9089 147.659 14.8505C147.659 14.5164 147.64 14.1824 147.628 13.8483C147.628 13.7899 147.628 13.6871 147.605 13.6778C147.253 13.5656 147.427 13.2689 147.371 13.054C147.347 12.9372 147.371 12.8204 147.371 12.6943C147.346 12.6224 147.312 12.5541 147.27 12.4911C147.237 12.436 147.213 12.3761 147.199 12.3135C147.183 12.1009 147.188 11.886 147.171 11.6711C147.157 11.5239 147.225 11.3347 146.991 11.2763C146.965 11.2763 146.946 11.1875 146.944 11.1384C146.944 10.8254 146.944 10.51 146.944 10.1666C147.349 10.1497 147.756 10.1552 148.161 10.183C148.301 10.197 148.419 10.3886 148.55 10.496C148.618 10.5544 148.693 10.6082 148.763 10.6642L148.855 10.6362C148.855 11.1571 148.838 11.6781 148.855 12.1967C148.889 12.369 148.957 12.5327 149.056 12.6779C149.07 12.7083 149.192 12.7223 149.22 12.6943C149.351 12.5814 149.464 12.45 149.556 12.3042L150.177 11.9958V11.9724C150.283 11.9164 150.388 11.8159 150.494 11.8159C150.728 11.8159 150.81 11.6314 150.909 11.5169C150.963 11.4334 151.046 11.3734 151.143 11.3487C151.263 11.3253 151.377 11.3324 151.445 11.1455C151.49 11.024 151.732 10.9586 151.896 10.8908C152.06 10.8231 152.273 10.9422 152.395 10.6572C152.463 10.5007 152.773 10.447 153.005 10.3278C153.148 9.62701 152.93 9.41442 152.132 9.53356C152.132 9.65036 152.114 9.76717 152.104 9.91668C152.165 9.93303 152.247 9.93302 152.268 9.96573C152.283 9.99401 152.29 10.0252 152.29 10.0568C152.29 10.0885 152.283 10.1197 152.268 10.148C152.192 10.2204 152.128 10.3048 152.079 10.3979C151.917 10.3979 151.753 10.3979 151.591 10.3979C151.544 10.3979 151.457 10.3746 151.455 10.3535C151.422 10.1012 151.22 10.1994 151.077 10.155C151.005 10.1316 150.944 10.0849 150.873 10.0545L150.557 9.92834L150.05 9.41208L149.603 8.94486L149.549 8.99392C149.471 8.84442 149.574 8.6038 149.314 8.52671C149.284 8.52671 149.284 8.38888 149.27 8.30945L149.061 8.27441C149.061 8.23469 149.049 8.20199 149.042 8.17162C149.012 8.03613 149.101 7.85158 148.873 7.79785C148.852 7.79785 148.852 7.68805 148.841 7.63198C148.815 7.50817 148.862 7.34464 148.66 7.31894C148.645 7.31159 148.632 7.30039 148.622 7.28645C148.613 7.2725 148.607 7.25632 148.606 7.23952C148.627 6.79333 148.276 6.42422 148.351 5.96402C148.369 5.85656 148.39 5.71406 148.203 5.69304C148.175 5.69304 148.133 5.61828 148.13 5.57623C148.111 5.32393 148.102 5.0693 148.088 4.81233C148.294 4.75626 148.533 4.85672 148.623 4.59975C148.623 4.58106 148.752 4.57873 148.754 4.58573C148.836 4.88475 149.096 4.75626 149.237 4.85437L149.783 5.36364C149.832 5.48512 149.924 5.70237 150.039 5.97569C150.097 5.99205 150.219 6.05278 150.254 5.84487C150.257 5.82863 150.264 5.81319 150.273 5.79952C150.282 5.78584 150.294 5.77425 150.308 5.76545C150.517 5.67201 150.728 5.59024 150.937 5.49446C151.009 5.45459 151.075 5.40507 151.134 5.34729C151.157 5.3286 151.162 5.27721 151.185 5.2702C151.467 5.1791 151.753 5.09499 152.055 5.00155C152.123 4.82167 152.123 4.82167 152.524 4.76794L152.498 4.70254C152.603 4.6401 152.714 4.58768 152.829 4.54601C152.931 4.53219 153.033 4.52672 153.136 4.52966C153.284 4.54239 153.432 4.49622 153.546 4.40117C153.659 4.30072 153.905 4.34745 154.09 4.32409C154.222 4.3054 154.395 4.36614 154.435 4.14889C154.435 4.11852 154.55 4.09048 154.611 4.09048C155.08 4.09048 155.549 4.09048 156.048 4.09048L156.071 4.26569L156.517 4.4409C156.648 4.48459 156.774 4.54339 156.892 4.6161C156.983 4.68852 157.073 4.76328 157.164 4.83336C157.208 4.89321 157.23 4.9669 157.224 5.04106C157.218 5.11522 157.186 5.18492 157.134 5.2375C157.074 5.28309 157.03 5.34474 157.005 5.41504C156.962 5.53885 157.03 5.6907 156.833 5.77013C156.765 5.79816 156.775 6.00373 156.749 6.15558L156.357 6.2093C156.287 6.37283 156.374 6.61812 156.123 6.69287C156.104 6.69287 156.09 6.81201 156.109 6.82369C156.25 6.94979 156.414 7.04809 156.592 7.11338C156.857 7.16945 156.765 7.34699 156.775 7.49182C156.784 7.63666 156.787 7.81887 156.54 7.81187C156.472 7.81187 156.404 7.82822 156.336 7.81187C156.076 7.79318 155.975 8.01043 155.821 8.14826C155.797 8.17162 155.783 8.23002 155.767 8.23002C155.417 8.216 155.225 8.64818 154.843 8.55006C154.794 8.53605 154.719 8.61781 154.655 8.65285C154.604 8.68537 154.549 8.71202 154.491 8.73228C154.357 8.76032 154.186 8.71826 154.161 8.93085C154.161 8.94953 154.104 8.9799 154.078 8.97523C153.821 8.91917 153.762 9.24155 153.539 9.25323C153.539 9.30929 153.539 9.41442 153.553 9.41909C153.954 9.52422 154.332 9.78352 154.775 9.6527C154.885 9.61766 154.974 9.52421 155.084 9.4845C155.195 9.44478 155.41 9.52188 155.438 9.28827C155.438 9.27426 155.478 9.25556 155.502 9.25089C155.884 9.17146 156.264 9.08269 156.648 9.01728C156.817 8.98925 156.995 9.01728 157.164 8.99159C157.264 8.95487 157.357 8.90284 157.441 8.8374C157.493 8.80186 157.552 8.77796 157.614 8.76732C157.895 8.7533 158.182 8.76732 158.465 8.74396C158.646 8.74396 158.859 8.82572 158.988 8.59679C159.009 8.55941 159.117 8.56408 159.185 8.56174C159.452 8.56174 159.72 8.54772 159.985 8.56174C160.121 8.56174 160.275 8.51269 160.357 8.69958C160.376 8.73929 160.498 8.74396 160.573 8.7463C160.779 8.7463 160.983 8.7463 161.192 8.7463C161.22 8.84442 161.237 8.90749 161.255 8.97991C161.288 8.97991 161.321 8.9799 161.351 9.00093C161.483 9.0383 161.673 8.94252 161.72 9.17613C161.72 9.21117 161.853 9.22052 161.881 9.2836L162.35 9.76483C162.456 9.88163 162.336 10.1152 162.585 10.1947C162.606 10.1947 162.606 10.2881 162.606 10.3395C162.606 10.6292 162.627 10.9212 162.639 11.2109C162.639 11.372 162.622 11.5145 162.798 11.6547C162.887 11.7271 162.798 12.0355 162.765 12.2341C162.751 12.3182 162.646 12.3906 162.643 12.4677C162.622 13.0143 162.622 13.5633 162.601 14.1029C162.576 14.1982 162.537 14.2895 162.486 14.3739C162.459 14.433 162.442 14.4962 162.435 14.5608C162.421 14.8435 162.418 15.1262 162.404 15.4088C162.404 15.5513 162.449 15.7195 162.233 15.7849C162.193 15.7849 162.179 15.9368 162.177 16.0185C162.163 16.696 162.16 17.3735 162.139 18.0509C162.139 18.1514 162.055 18.2472 162.02 18.3499C161.992 18.4194 161.975 18.4927 161.97 18.5672C161.982 18.962 161.982 19.3288 161.982 19.7282ZM152.102 8.11088L152.805 7.82588C152.822 7.82588 152.824 7.77916 152.843 7.76514C152.913 7.7044 152.977 7.61096 153.059 7.59461C153.17 7.56742 153.274 7.51769 153.364 7.44855C153.455 7.37941 153.531 7.29235 153.586 7.1928L154.508 6.25836C154.557 6.18708 154.618 6.12335 154.686 6.06914C154.719 6.03877 154.754 5.98972 154.791 5.98738C154.995 5.98738 154.944 5.86357 154.913 5.73976C154.585 5.73976 154.268 5.73976 153.952 5.73976C153.893 5.73976 153.788 5.78181 153.783 5.81218C153.76 5.98972 153.635 5.9687 153.518 5.97337C153.45 5.97337 153.331 5.97337 153.324 6.0014C153.241 6.27005 153 6.14857 152.855 6.23501C152.579 6.4493 152.265 6.608 151.928 6.70223L151.889 6.88443C151.808 6.90941 151.73 6.93985 151.654 6.97554C151.574 7.01759 151.511 7.09936 151.431 7.12038C151.314 7.18328 151.227 7.28982 151.188 7.41674C151.149 7.54366 151.163 7.68067 151.225 7.79785L151.424 7.86559C151.441 8.01043 151.457 8.13424 151.471 8.25571C151.9 8.36551 152.011 8.33281 152.102 8.11088ZM156.036 10.9025C155.79 10.8813 155.543 10.886 155.298 10.9165C155.162 10.9469 154.958 11.1151 154.953 11.2319C154.92 11.8276 154.953 12.4256 154.953 13.0237C154.952 13.0813 154.967 13.1381 154.998 13.1872C155.059 13.2713 155.134 13.346 155.244 13.4745C155.567 13.3834 155.617 13.0797 155.649 12.7737L156.304 12.7293C156.372 12.463 156.25 12.157 156.522 11.9678V10.6689H156.121L156.036 10.9025Z" fill="white"/>
<path d="M70.0148 7.85159C70.1672 7.41474 70.5283 7.71843 70.7838 7.54088C70.7838 7.45445 70.7838 7.32129 70.8026 7.19047C70.8214 6.98957 70.7276 6.76063 70.9503 6.60411C70.9878 6.57841 70.9738 6.4733 70.9761 6.40555C70.9878 6.08083 70.9925 5.75612 71.0042 5.42907C71.0042 5.28423 70.9597 5.10902 71.1824 5.05762C71.2082 5.05762 71.2293 4.97353 71.2317 4.9268C71.2481 4.74926 71.2528 4.56939 71.2645 4.38951C71.2645 4.27037 71.2246 4.1302 71.3981 4.06479C71.431 4.05311 71.438 3.94331 71.4427 3.8779C71.4427 3.67466 71.4427 3.46675 71.4614 3.26351C71.4614 3.13269 71.4427 2.98318 71.6514 2.95749C71.6936 2.95749 71.7217 2.82433 71.7662 2.72388H72.5892L72.5634 2.7776C72.6844 2.84411 72.8088 2.90416 72.9362 2.95749C73.037 2.99253 73.3465 3.27753 73.3489 3.39199C73.3489 3.8195 73.3489 4.24701 73.3489 4.67452C73.3489 4.70021 73.3489 4.7446 73.3348 4.74693C72.9995 4.84739 73.1543 5.13238 73.1003 5.33796C73.1001 5.50436 73.0503 5.66696 72.9573 5.80517C72.8471 5.93599 72.9081 6.20932 72.8917 6.45227C73.1261 6.45227 73.3418 6.45227 73.5528 6.45227C73.8878 6.44476 74.2229 6.45724 74.5563 6.48964C74.656 6.50049 74.7503 6.53977 74.8281 6.60276C74.9059 6.66575 74.9638 6.74977 74.9948 6.84473L75.4637 7.19982V7.46846C75.3822 7.56807 75.2953 7.66321 75.2034 7.75347C75.144 7.79316 75.0769 7.82019 75.0065 7.83289C74.8166 7.87961 74.5915 7.78384 74.4391 8.01745C74.3922 8.08987 74.1765 8.03847 74.0452 8.06884C73.9631 8.08987 73.8975 8.16695 73.8107 8.21134C73.7543 8.2512 73.6906 8.27978 73.6232 8.29545C73.3887 8.29545 73.1754 8.29545 73.0253 8.29545L72.7064 8.61781L72.6244 8.5781C72.6244 8.87479 72.6244 9.17381 72.6244 9.47049C72.6244 9.55459 72.5493 9.63403 72.5142 9.71813C72.4801 9.78216 72.4578 9.85181 72.4485 9.92371C72.4345 10.4119 72.4321 10.9002 72.411 11.3884C72.411 11.4678 72.3289 11.5426 72.2938 11.622C72.245 11.7028 72.2131 11.7926 72.2 11.886C72.1812 13.0681 72.1719 14.2525 72.1554 15.4345C72.1554 15.5724 72.1953 15.7335 71.9866 15.7849C71.9515 15.7849 71.9327 15.9158 71.9327 15.9882C71.9186 16.6633 71.9163 17.3408 71.8928 18.0182C71.8676 18.1432 71.8275 18.2648 71.7733 18.3803C71.7467 18.4683 71.7317 18.5594 71.7287 18.6513C71.7147 19.6722 71.7053 20.6907 71.6912 21.7116C71.6912 21.8634 71.7334 22.0433 71.513 22.1181C71.4732 22.1321 71.4661 22.2699 71.4638 22.3517C71.4638 23.3281 71.4474 24.3046 71.4333 25.2835C71.4333 25.482 71.5107 25.7109 71.2645 25.8488C71.2317 25.8675 71.241 25.9609 71.2293 26.0357C70.8964 26.0357 70.5635 26.0357 70.2305 26.0357C70.1742 26.0357 70.0992 25.9282 70.0781 25.8558C70.0383 25.711 69.9656 25.6012 69.8132 25.5918C69.6608 25.5825 69.6068 25.4937 69.5998 25.3582C69.5998 25.1713 69.574 24.9844 69.5764 24.7975C69.5764 24.0523 69.5951 23.3048 69.6186 22.5596C69.6186 22.4708 69.7053 22.3844 69.7452 22.2933C69.7882 22.2149 69.8168 22.1294 69.8296 22.041C69.846 21.6392 69.8296 21.235 69.8554 20.8332C69.8554 20.6814 69.8038 20.5038 69.9961 20.401C70.0148 20.401 69.9961 20.2585 69.9585 20.2095C69.9285 20.1779 69.9051 20.1408 69.8895 20.1002C69.874 20.0596 69.8667 20.0164 69.868 19.9729C69.8693 19.9295 69.8792 19.8868 69.8972 19.8472C69.9151 19.8076 69.9408 19.7719 69.9726 19.7422C70.0329 19.6434 70.06 19.5281 70.05 19.4129C70.05 18.7518 70.05 18.093 70.0711 17.4342C70.0964 17.3176 70.1434 17.2067 70.2094 17.1072L70.3079 17.1305C70.3079 16.2405 70.3079 15.3504 70.3079 14.4604C70.3079 13.2783 70.3188 12.0955 70.3407 10.9119C70.3407 10.8138 70.4204 10.718 70.4415 10.6175C70.4711 10.4127 70.5246 10.2119 70.601 10.0195C70.6658 9.91633 70.7177 9.80574 70.7557 9.6901C70.7803 9.55493 70.7803 9.41644 70.7557 9.28127C70.7557 9.20418 70.6736 9.08971 70.615 9.08037C70.5142 9.06402 70.3806 8.96823 70.2821 9.15045C70.2375 9.23221 70.0336 9.22988 69.8999 9.25791C69.7663 9.28595 69.6092 9.22753 69.5834 9.43778C69.5834 9.46348 69.4873 9.49151 69.4357 9.49618C69.2974 9.51254 69.159 9.50786 69.023 9.52188C68.8871 9.53589 68.7042 9.46114 68.6291 9.67139C68.6291 9.69475 68.5354 9.69241 68.4838 9.69708C68.315 9.7111 68.1438 9.72045 67.9516 9.73213C67.9516 9.96574 67.8038 9.96574 67.6444 9.96574C67.5999 9.96574 67.5577 9.96574 67.5155 9.96574L66.5518 10.1129C66.5518 10.9235 66.5518 11.6594 66.5518 12.3929C66.5518 12.4326 66.5706 12.5027 66.5893 12.5051C66.866 12.5518 66.798 12.7761 66.7792 12.9279C66.7488 13.1802 67.0442 13.2223 67.0606 13.4278C67.1263 13.3992 67.1904 13.3672 67.2529 13.332C67.2951 13.304 67.3208 13.2433 67.3654 13.2269C67.4099 13.2106 67.4334 13.2783 67.4662 13.3087L67.6632 13.4769C67.7494 13.6478 67.8223 13.8251 67.8812 14.0072C67.9089 14.1281 67.8897 14.255 67.8273 14.3623C67.7405 14.4791 67.696 14.5421 67.8273 14.6473C67.8625 14.673 67.8625 14.7851 67.839 14.8411C67.7875 14.9338 67.7262 15.0207 67.6561 15.1004C67.4639 15.1004 67.2318 15.1004 67.002 15.1004C66.8963 15.0778 66.8028 15.0171 66.7394 14.9299L66.0805 14.6286L66.1228 14.5912L65.4194 13.8273L65.3608 13.8693C65.3608 13.7432 65.3467 13.6147 65.3279 13.4885C65.3092 13.3624 65.3678 13.2316 65.1755 13.1802C65.1333 13.1802 65.1286 12.9816 65.1216 12.8742C65.1216 12.7036 65.1099 12.5401 64.8871 12.5308C64.8871 12.3228 64.8707 12.136 64.859 11.9467C64.859 11.8183 64.8965 11.6687 64.7113 11.6033C64.6808 11.6033 64.6785 11.4818 64.6785 11.4164C64.6785 11.1712 64.6785 10.9235 64.6785 10.6572C64.3877 10.6572 64.1392 10.6572 63.893 10.6572C63.8555 10.6572 63.7875 10.6806 63.7828 10.7016C63.743 10.9516 63.5484 10.8815 63.3983 10.8885C62.9528 10.9048 62.505 10.8885 62.0572 10.9142C61.9798 10.9142 61.9071 11.0006 61.8227 11.017C61.6961 11.0427 61.4921 11.1011 61.4499 11.0473C61.2975 10.8488 61.1029 10.9072 60.9177 10.8908C60.7817 10.8791 60.6434 10.8745 60.573 10.8698L60.0385 10.3512L59.9799 10.3956V9.9634H61.321C61.5085 9.9634 61.6985 9.96341 61.8884 9.94472C61.9376 9.94472 62.022 9.94472 62.0291 9.90968C62.0994 9.62 62.3339 9.73681 62.498 9.71111C62.6621 9.68542 62.9059 9.74614 63.1029 9.55225C63.2107 9.44946 63.4851 9.52889 63.6773 9.49618C63.8696 9.46348 64.1462 9.61766 64.2119 9.27659C64.5612 9.20651 64.4041 8.93086 64.4088 8.74397C64.4276 8.22303 64.4088 7.69974 64.4088 7.17645C64.4088 7.09236 64.505 7.01293 64.5565 6.94285C64.58 6.90313 64.6269 6.86575 64.6292 6.82604C64.6292 6.53169 64.6292 6.23969 64.9411 6.01777C65.1804 6.00171 65.4186 6.06228 65.621 6.19063C65.8842 6.38606 66.159 6.56548 66.444 6.72793C66.5026 6.76063 66.458 7.00126 66.444 7.14142C66.4299 7.21618 66.3338 7.28392 66.3314 7.35868C66.308 7.70948 66.308 8.06145 66.3314 8.41225C66.3314 8.53606 66.4744 8.66221 66.5776 8.75799C66.6034 8.78135 66.7323 8.68557 66.8121 8.65754C66.9092 8.63148 67.0079 8.61119 67.1075 8.5968C67.2505 8.56876 67.3982 8.5968 67.4967 8.41925C67.5366 8.34216 67.7593 8.36085 67.9 8.33282C68.0406 8.30479 68.1884 8.37487 68.2141 8.15995C68.2141 8.12958 68.329 8.09687 68.3923 8.0922C68.5635 8.07818 68.737 8.0922 68.9082 8.0665C69.0793 8.0408 69.2809 8.13893 69.3771 7.89831C69.3771 7.87495 69.4709 7.87494 69.5201 7.87494C69.7053 7.84924 69.8601 7.85159 70.0148 7.85159Z" fill="white"/>
<path d="M12.5719 14.5865C12.5218 14.6958 12.4622 14.8006 12.3937 14.8995C12.2249 15.1051 12.2483 15.3948 12.0092 15.6003C11.8825 15.7031 11.6528 15.834 11.6551 16.1096C11.6417 16.2002 11.6035 16.2854 11.5448 16.3558C11.4861 16.4262 11.4091 16.4793 11.3222 16.5091C11.2719 16.5265 11.226 16.5545 11.1876 16.5912C11.1491 16.6279 11.1191 16.6724 11.0994 16.7217C11.0432 16.9553 10.8181 17.0604 10.7032 17.2566C10.5883 17.4528 10.6798 17.8126 10.3328 17.9037C10.2343 17.9294 10.1804 18.1046 10.0983 18.2051C10.0401 18.2722 9.97827 18.3362 9.91307 18.3966C9.63172 18.5508 9.69033 18.9059 9.38788 19.0718C9.08542 19.2376 9.10887 19.2773 8.97757 19.289C8.88873 19.3611 8.80491 19.4392 8.7267 19.5226C8.68997 19.577 8.67188 19.6417 8.67512 19.7072C8.67512 20.7794 8.5743 21.8704 8.74545 22.9146C8.95178 24.2018 8.81345 25.4843 8.91661 26.7551C8.91661 26.8416 9.00805 26.9233 9.0526 27.0098C9.08812 27.0646 9.11279 27.1256 9.12528 27.1897C9.1417 27.3695 9.12528 27.5494 9.15107 27.7293C9.17687 27.9092 9.0737 28.1124 9.3152 28.2409C9.38085 28.2759 9.36443 28.4745 9.38319 28.582C9.52352 28.6356 9.64294 28.7325 9.72395 28.8586C9.80497 28.9847 9.84331 29.1334 9.83336 29.2828C10.1311 29.3038 10.0678 29.5164 10.0678 29.6472L9.76067 29.9369L9.79584 29.9953H8.90723C8.92365 29.778 8.77359 29.7617 8.61416 29.736C8.55784 29.7328 8.50349 29.7142 8.45707 29.6823C8.38204 29.6285 8.31639 29.5585 8.2484 29.5047C8.00312 29.3204 7.80632 29.0796 7.67484 28.803C7.54336 28.5263 7.48112 28.222 7.49343 27.9162L7.27773 27.8695C7.27012 27.8411 7.26464 27.8122 7.26132 27.783C7.24725 27.4396 7.23553 27.0986 7.22146 26.7551C7.22146 26.7038 7.23787 26.6313 7.22146 26.6056C6.95886 26.372 7.06672 26.0473 7.06203 25.7647C7.04092 24.5569 7.04561 23.3491 7.03623 22.139C7.03623 22.0059 7.08078 21.8517 6.8768 21.784C6.82757 21.7676 6.80881 21.6041 6.80646 21.506C6.7924 20.6323 6.79005 19.7586 6.77129 18.8849C6.74617 18.7688 6.70597 18.6565 6.65172 18.5508C6.62232 18.4631 6.6042 18.3721 6.59779 18.2798C6.58373 17.8336 6.58138 17.3874 6.55794 16.9436C6.55794 16.8572 6.46649 16.7754 6.42429 16.6913C6.3844 16.6237 6.35291 16.5515 6.33051 16.4764C6.29299 16.3012 6.36802 16.0909 6.15701 15.9741C6.14059 15.9741 6.13825 15.9274 6.13825 15.9017V14.3832C6.45946 14.3832 6.7666 14.3832 7.07609 14.3832C7.12767 14.3832 7.2238 14.4253 7.2238 14.444C7.21208 14.6916 7.50984 14.6776 7.57315 14.8481C7.5966 14.9182 7.67162 14.9673 7.7021 15.035C7.749 15.1495 7.7021 15.3223 7.91077 15.3293C7.92953 15.3293 7.95767 15.4111 7.96001 15.4578C7.97408 15.6214 7.96001 15.7849 7.99049 15.9437C8.0235 16.0455 8.06752 16.1434 8.12179 16.2357C8.15042 16.2942 8.16715 16.3577 8.17103 16.4226C8.17103 16.731 8.17103 17.037 8.17103 17.3571H8.61416L8.93771 16.703L9.00571 16.731C9.07564 16.6358 9.13168 16.5312 9.17218 16.4203C9.20328 16.3185 9.25544 16.2244 9.3253 16.1439C9.39517 16.0634 9.48118 15.9984 9.57779 15.9531C9.64558 15.6823 9.75051 15.4221 9.88963 15.1799C9.97169 15.0724 10.1241 14.9673 10.2085 14.8388C10.3351 14.6449 10.6165 14.5398 10.5696 14.2408C10.5696 14.2034 10.5696 14.1286 10.5977 14.1239C10.8322 14.0609 10.7431 13.8483 10.8322 13.7338C10.9588 13.5773 11.0549 13.3647 11.219 13.2666C11.4769 13.1288 11.4535 12.8578 11.5988 12.6686C11.6668 12.5751 11.6575 12.435 11.6997 12.3135C11.7445 12.1984 11.8123 12.0934 11.899 12.0051C11.9927 11.615 11.9927 11.615 12.1944 11.5659C12.2388 11.2002 12.3733 10.8511 12.5859 10.5497L12.661 10.5778V10.1503H11.0948L11.1205 10.2203C10.9932 10.2705 10.8708 10.3323 10.7548 10.4049C10.4969 10.5988 10.1217 10.4983 9.92245 10.6385C9.72316 10.7787 9.37381 10.7436 9.28706 10.8721C9.12059 11.1314 8.73842 10.9095 8.63995 11.2412C8.62588 11.2949 8.38907 11.2926 8.25543 11.3043C8.02097 11.323 8.02097 11.3183 7.93422 11.5379C7.7701 11.594 7.54736 11.4842 7.44185 11.7388C7.41841 11.7949 7.19567 11.7552 7.07375 11.7879C6.9534 11.8229 6.84323 11.8861 6.75254 11.9724C6.58607 12.0565 6.3563 11.9724 6.22969 12.206C6.20859 12.2457 6.08432 12.2317 6.00929 12.241C5.86158 12.2644 5.66464 12.192 5.63885 12.4443C5.63885 12.463 5.57085 12.4817 5.53334 12.4887C5.36216 12.4887 5.19634 12.5482 5.06442 12.6569C4.94484 12.7737 4.64942 12.727 4.52281 12.9395C4.16409 12.8765 3.9179 13.2129 3.56152 13.1872L3.51932 13.3834L2.60961 13.631C2.41735 13.6824 2.14069 13.5423 2.05863 13.8646C1.62253 13.8646 1.18643 13.8646 0.752678 13.8459C0.656549 13.8459 0.576834 13.6684 0.487739 13.5773C0.422589 13.5133 0.353692 13.4533 0.281412 13.3974C-0.0140085 13.1802 -0.044489 12.8905 0.0610185 12.5401L0.340028 12.505C0.382231 12.505 0.454912 12.505 0.459602 12.4817C0.558075 12.1336 0.846463 12.2948 1.05748 12.2481C1.17741 12.2356 1.29797 12.2301 1.41855 12.2317C1.46075 12.2317 1.52875 12.2317 1.54281 12.2177C1.72335 11.914 2.03987 12.1056 2.2462 11.9514C2.3677 11.8884 2.49298 11.8331 2.62133 11.7855C2.78311 11.7388 2.98709 11.8392 3.09025 11.5939C3.11605 11.5355 3.34582 11.5659 3.50056 11.5519L3.54042 11.3323L3.96011 11.3019C3.99293 11.087 4.15705 11.0683 4.34697 11.0683C4.41708 11.082 4.48971 11.0736 4.55482 11.0443C4.61992 11.015 4.67428 10.9662 4.71038 10.9048C4.75258 10.8324 4.9636 10.8557 5.09724 10.8347L5.06911 10.7716C5.16622 10.7112 5.26817 10.6589 5.37391 10.6151C5.49583 10.5754 5.62712 10.6151 5.72325 10.461C5.77249 10.3839 5.95771 10.3979 6.10777 10.3652C6.10777 10.1643 6.2461 10.1316 6.41491 10.1456C6.50884 10.1563 6.60389 10.1516 6.69627 10.1316C6.99403 10.0264 7.33869 10.0194 7.55674 9.74379C7.57536 9.72512 7.59895 9.71214 7.62473 9.7064C7.97173 9.62698 8.32812 9.55222 8.67043 9.47279C8.7684 9.43564 8.86197 9.38786 8.94944 9.3303L8.91661 9.24386C9.04557 9.24386 9.17217 9.24385 9.29878 9.22049C9.42539 9.19713 9.57545 9.2532 9.67627 9.078C9.71378 9.01258 9.91073 9.0523 10.0397 9.01959C10.2226 8.97054 10.4875 9.12472 10.5719 8.80468C10.5836 8.76496 10.7618 8.7743 10.8603 8.75561C10.9963 8.72992 11.1839 8.82337 11.2307 8.58742C11.2307 8.56873 11.3363 8.55939 11.3949 8.55705C11.5918 8.55705 11.7911 8.55704 11.9857 8.53135C12.0678 8.53135 12.1381 8.44259 12.2202 8.3982C12.3022 8.35382 12.3163 8.32344 12.3655 8.32111C12.5625 8.32111 12.7618 8.32111 12.9587 8.32111C12.9986 8.32111 13.0689 8.32111 13.076 8.35148C13.1533 8.60845 13.369 8.51967 13.5449 8.55471C13.6442 8.59313 13.7393 8.64167 13.8286 8.69955C13.8721 8.72142 13.9188 8.73639 13.9669 8.74394C14.1076 8.76963 14.2389 8.76029 14.2811 8.96587C14.3022 9.07099 14.4851 9.13639 14.5812 9.23217C14.6519 9.29268 14.7006 9.37482 14.7195 9.46578C14.7383 9.65267 14.7946 9.88861 14.7195 10.0218C14.3983 10.51 14.6679 11.0497 14.5202 11.4959C14.2719 11.7771 14.1092 12.1232 14.0513 12.4934L13.9904 12.4676C13.9164 12.5612 13.86 12.6672 13.8239 12.7807C13.7957 13.0143 13.6035 13.0727 13.4816 13.2105C13.3597 13.3484 13.1604 13.4908 13.151 13.7221C13.151 13.8296 13.151 13.9324 12.9986 13.93C12.9859 13.9302 12.9734 13.9332 12.962 13.9389C12.9506 13.9446 12.9407 13.9527 12.9329 13.9627C12.8415 14.18 12.7547 14.3996 12.6656 14.6169L12.5719 14.5865Z" fill="white"/>
<path d="M115.493 6.49197C115.702 6.41955 115.901 6.513 116.014 6.23734C116.077 6.07849 116.412 6.02709 116.626 5.91262C116.748 5.85189 116.872 5.79348 116.994 5.7304C117.236 5.61229 117.471 5.47966 117.697 5.33327C117.781 5.2574 117.873 5.19082 117.971 5.1347C118.075 5.09773 118.183 5.07723 118.293 5.07396C118.45 5.05995 118.614 5.07396 118.581 4.84036L119.024 4.80532L119.076 4.59039C119.217 4.59005 119.358 4.57834 119.498 4.55536C119.601 4.532 119.688 4.45024 119.791 4.42454C119.946 4.39193 120.102 4.36851 120.26 4.35445C120.368 4.34043 120.461 4.35445 120.518 4.20961C120.574 4.06477 121.479 4.07645 121.582 4.20961C121.685 4.34277 121.817 4.44323 121.946 4.56704C121.996 4.62645 122.05 4.68262 122.107 4.73523C122.177 4.77702 122.244 4.82388 122.307 4.8754C122.374 4.94546 122.436 5.01958 122.494 5.09733C122.53 5.15223 122.55 5.21627 122.55 5.28188C122.55 5.78647 122.55 6.2934 122.52 6.79566C122.485 7.03754 122.416 7.2734 122.316 7.49648C122.293 7.55722 122.192 7.58526 122.1 7.64833C122.016 7.82821 121.915 8.04313 121.788 8.31879L121.648 8.35384L121.702 8.39822C121.616 8.53427 121.538 8.67462 121.467 8.81872C121.44 8.88702 121.44 8.96299 121.467 9.03129C121.534 9.17183 121.619 9.30363 121.718 9.42375L122.171 9.90265C122.359 10.0139 122.497 10.1915 122.56 10.4002C122.579 10.482 122.665 10.5474 122.717 10.6338C122.769 10.7203 122.813 10.788 122.872 10.8815C123.176 10.996 123.106 11.3837 123.32 11.5823C123.424 11.6261 123.517 11.6933 123.591 11.7788C123.665 11.8644 123.718 11.9658 123.746 12.0752C123.77 12.1546 123.863 12.213 123.924 12.2831L124.206 12.6032C124.269 12.6756 124.335 12.7503 124.412 12.8368L124.759 13.2339C124.876 13.2619 125.08 13.1895 125.172 13.4675C125.212 13.5867 125.477 13.6287 125.641 13.7011C125.744 13.7473 125.84 13.8096 125.924 13.8857C126.274 13.958 126.593 14.1368 126.836 14.3973L127.27 14.4276C127.387 14.4276 127.516 14.4136 127.54 14.5912C127.54 14.6192 127.634 14.6496 127.685 14.6566C127.814 14.6706 127.943 14.6566 128.072 14.6776C128.201 14.6986 128.391 14.6543 128.541 14.8201C128.609 14.8995 128.818 14.8645 128.961 14.8762C129.104 14.8879 129.216 14.8925 129.355 14.8995L129.404 15.0981L129.437 15.0677C129.547 15.1658 129.671 15.2593 129.767 15.3644C129.802 15.3995 129.835 15.4976 129.821 15.5093C129.705 15.6167 129.578 15.7115 129.441 15.7919C129.326 15.8527 129.136 15.7919 129.12 16.0068C129.12 16.0255 129.017 16.0512 128.963 16.0512C128.714 16.0512 128.464 16.0512 128.215 16.0512C128.166 16.0512 128.081 16.0512 128.07 16.0209C127.924 15.7008 127.629 15.8527 127.399 15.8036C127.275 15.7779 127.146 15.827 127.047 15.6634C127.001 15.584 126.785 15.6027 126.625 15.5723L126.574 15.3878C126.398 15.3224 126.192 15.4205 126.081 15.1822C126.049 15.1144 125.809 15.1402 125.648 15.1215C125.629 15.0584 125.608 14.9883 125.603 14.965L124.708 14.6262L124.663 14.444C124.614 14.442 124.566 14.4365 124.518 14.4276C124.396 14.3973 124.236 14.4276 124.225 14.2221C124.225 14.1543 124.089 14.0936 124.016 14.0329C123.887 13.9231 123.753 13.8203 123.631 13.7081C123.582 13.6614 123.566 13.5773 123.512 13.5376C123.458 13.4979 123.385 13.5049 123.359 13.4512L122.912 12.984L122.888 13.0097L122.335 12.3906C122.096 12.1272 121.934 11.8042 121.866 11.4561C121.739 11.3891 121.631 11.2913 121.552 11.1716C121.473 11.052 121.425 10.9144 121.413 10.7717L121.123 10.5381L121.151 10.4913H120.78C120.717 10.6315 120.651 10.7694 120.595 10.9119C120.539 11.0544 120.501 11.1875 120.447 11.3557L120.286 11.4024L119.957 12.1032C119.812 12.1663 119.812 12.1663 119.77 12.5705L119.563 12.6172C119.514 12.8017 119.563 13.0073 119.348 13.1218C119.291 13.1498 119.313 13.3297 119.296 13.4559L119.113 13.5166C119.028 13.7948 118.926 14.0678 118.808 14.3342C118.736 14.479 118.555 14.5678 118.464 14.7103C118.406 14.8388 118.367 14.9749 118.349 15.1145C118.166 15.1285 118.131 15.278 118.126 15.4579C118.126 15.5957 118.161 15.7499 117.974 15.8293C117.929 15.8456 117.934 15.9811 117.915 16.0629L117.847 16.0325C117.786 16.1517 117.723 16.2661 117.667 16.3876C117.648 16.4297 117.667 16.5208 117.639 16.5278C117.418 16.6002 117.5 16.7894 117.46 16.9366C117.422 17.0561 117.357 17.1655 117.27 17.2566C117.167 17.4272 117.299 17.6725 117.036 17.8056C116.989 17.829 117.008 17.9808 116.994 18.0743C116.973 18.2121 117.036 18.371 116.816 18.4434C116.741 18.4667 116.729 18.677 116.684 18.8265C116.513 18.8265 116.326 18.9363 116.178 18.7027C116.133 18.6326 115.955 18.6466 115.84 18.6233L115.873 18.5485C115.77 18.4901 115.639 18.4551 115.575 18.3686C115.458 18.1911 115.221 18.0556 115.357 17.7776L115.106 17.6958V17.2099L115.341 17.1305C115.341 16.9646 115.341 16.7918 115.341 16.6236C115.341 16.4554 115.315 16.3316 115.496 16.2218C115.571 16.1774 115.549 15.9718 115.575 15.8176L115.725 15.7662C115.845 15.4579 115.96 15.1822 116.058 14.9066L116.105 14.9206C116.159 14.8154 116.211 14.7103 116.269 14.6052C116.319 14.5309 116.363 14.4528 116.401 14.3716C116.445 14.2384 116.469 14.1006 116.508 13.9394L116.698 13.8833C116.764 13.7222 116.621 13.4348 116.909 13.4418C117.02 13.1942 117.118 12.9746 117.184 12.8368C117.432 12.5588 117.622 12.2339 117.742 11.8813C117.803 11.7622 117.868 11.6477 117.925 11.5192C117.95 11.4702 117.953 11.4094 117.976 11.3604C118.028 11.2874 118.072 11.2091 118.107 11.1268C118.14 10.9796 118.129 10.8184 118.288 10.8581C118.384 10.7367 118.452 10.6572 118.511 10.5684C118.54 10.5184 118.562 10.464 118.574 10.4072C118.616 10.232 118.56 10.0615 118.808 9.92135C118.977 9.82324 119.012 9.49617 119.12 9.23687C119.284 9.25322 119.308 9.10605 119.32 8.94486C119.331 8.78367 119.294 8.63649 119.481 8.54772C119.526 8.52903 119.512 8.39354 119.528 8.31411C119.545 8.23469 119.528 8.10387 119.697 8.03846C119.781 8.00575 119.791 7.78149 119.842 7.61563L120.014 7.56656C120.014 7.51283 120.032 7.45444 120.037 7.39603C120.055 7.29017 120.096 7.18966 120.159 7.10193C120.221 7.01419 120.302 6.94147 120.396 6.88911C120.44 6.85404 120.47 6.80426 120.48 6.74893C120.506 6.57606 120.515 6.39853 120.534 6.20697H120.065L120 6.41255C119.969 6.41255 119.936 6.42422 119.906 6.43357C119.746 6.47328 119.552 6.37983 119.437 6.60644C119.406 6.67185 119.216 6.66251 119.102 6.68587L119.127 6.74427C119.012 6.80501 118.893 6.86106 118.783 6.92414C118.71 6.96152 118.644 7.01292 118.572 7.04796C118.498 7.08348 118.419 7.10788 118.337 7.12038C118.229 7.13673 118.103 7.10168 118.103 7.27689C118.101 7.28919 118.096 7.30085 118.088 7.31097C118.081 7.32109 118.072 7.32941 118.061 7.33529C117.79 7.4253 117.527 7.53702 117.275 7.66935C117.156 7.73009 117.029 7.78149 116.914 7.85157C116.824 7.91418 116.717 7.94775 116.607 7.94775C116.497 7.94775 116.39 7.91418 116.3 7.85157C116.236 7.81186 116.133 7.83054 116.093 7.77214C115.941 7.63197 115.791 7.49415 115.641 7.35165C115.603 7.3212 115.577 7.27934 115.566 7.2325C115.521 6.98955 115.51 6.73726 115.493 6.49197Z" fill="white"/>
<path d="M138.721 15.5373C138.524 15.605 138.524 15.605 138.487 15.9835C138.347 16.0385 138.229 16.1357 138.147 16.2614C138.066 16.3871 138.027 16.535 138.034 16.6843L137.959 16.6446C137.908 16.7437 137.851 16.8397 137.788 16.9319C137.664 17.0908 137.528 17.2426 137.394 17.3992C137.378 17.4155 137.336 17.3991 137.326 17.4272C137.092 17.9201 136.66 17.6211 136.316 17.6468C136.264 17.6468 136.203 17.5136 136.121 17.4132C136.095 17.4132 135.978 17.4132 135.959 17.3594C135.809 16.9973 135.225 16.8245 135.551 16.2101L136.152 15.9321C136.219 15.8782 136.282 15.8196 136.342 15.7569C136.372 15.7242 136.372 15.6657 136.386 15.619C136.419 15.4905 136.386 15.3434 136.597 15.299C136.698 15.278 136.78 15.0794 136.832 14.9486C136.883 14.8178 136.871 14.715 137.054 14.6262C137.181 14.5725 137.247 14.3365 137.305 14.159C137.364 13.9814 137.322 13.8506 137.554 13.909C137.589 13.7011 137.568 13.5236 137.744 13.3671C137.84 13.283 137.779 13.0236 137.788 12.8461C137.798 12.6686 137.765 12.4934 138.006 12.5214C138.088 12.192 138.175 11.8953 138.241 11.587C138.255 11.4426 138.261 11.2975 138.259 11.1524C138.259 11.0333 138.229 10.8838 138.428 10.8604C138.456 10.8604 138.492 10.7506 138.494 10.6922C138.494 10.4096 138.508 10.1269 138.494 9.84423C138.494 9.69005 138.571 9.48915 138.311 9.43542C138.285 9.43542 138.271 9.33031 138.266 9.27424C138.255 9.09436 138.266 8.91447 138.243 8.73459C138.22 8.55471 138.306 8.36549 138.067 8.26738C138.046 8.26738 138.046 8.17393 138.044 8.12254C138.044 7.95668 138.004 7.81419 137.809 7.82821C137.805 7.70435 137.754 7.58652 137.668 7.4976C137.581 7.40868 137.464 7.355 137.34 7.34697C137.281 7.34798 137.222 7.33433 137.169 7.30725C136.878 7.08999 136.881 7.08767 136.417 7.1414C136.417 7.25654 136.407 7.37147 136.386 7.48479C136.353 7.61328 136.285 7.73475 136.241 7.86324C136.22 7.92676 136.209 7.99284 136.208 8.05948C136.196 8.29308 136.191 8.52669 136.177 8.7603C136.177 8.87243 136.196 9.01492 136.006 9.01259C135.994 9.01526 135.983 9.02064 135.973 9.02833C135.963 9.03602 135.955 9.04581 135.95 9.05697C135.873 9.3046 135.788 9.5499 135.715 9.8022C135.68 9.9447 135.739 10.1222 135.502 10.1503C135.469 10.1503 135.451 10.2928 135.422 10.3839C134.998 10.5451 134.968 10.9165 134.977 11.3043L134.764 11.351C134.589 11.7723 134.32 12.1485 133.978 12.4513L133.53 12.9022L133.061 13.3694C132.988 13.4414 132.909 13.5085 132.827 13.5703C132.762 13.6022 132.694 13.6295 132.625 13.6521C132.524 13.6988 132.424 13.7525 132.323 13.8039L132.351 13.881C132.18 13.881 132.009 13.881 131.838 13.881C131.788 13.8839 131.738 13.8725 131.694 13.8483C131.563 13.7539 131.426 13.6673 131.284 13.589L130.829 13.1475C130.818 13.1358 130.797 13.1288 130.789 13.1171C130.7 12.9092 130.614 12.6989 130.52 12.491C130.475 12.3906 130.419 12.2948 130.37 12.1943L130.274 12.2224C130.274 12.0191 130.274 11.8136 130.274 11.6103C130.274 11.4935 130.257 11.3417 130.45 11.316C130.475 11.316 130.503 11.2202 130.508 11.1688C130.525 11.0146 130.508 10.8581 130.543 10.7016C130.562 10.5895 130.639 10.4867 130.665 10.3745C130.699 10.2204 130.724 10.0644 130.74 9.90731C130.752 9.79985 130.724 9.6737 130.895 9.6737C130.907 9.67161 130.919 9.66673 130.929 9.65945C130.939 9.65216 130.948 9.64267 130.954 9.63167C131.036 9.37937 131.12 9.12706 131.188 8.87477C131.223 8.75329 131.16 8.58042 131.376 8.57108C131.388 8.56918 131.399 8.56435 131.409 8.55702C131.419 8.54969 131.427 8.54009 131.432 8.52903C131.514 8.35149 131.589 8.16926 131.666 7.99172C131.698 7.94092 131.739 7.89589 131.786 7.85856C131.826 7.81651 131.873 7.77914 131.91 7.73709C132.03 7.58886 132.16 7.44912 132.299 7.31893L132.867 6.74892C133.031 6.5854 133.179 6.4429 133.336 6.3004C133.352 6.28171 133.362 6.249 133.38 6.23966C133.584 6.15789 133.784 6.07379 133.99 6.00605C134.196 5.9383 134.438 6.06211 134.52 5.77244C134.52 5.75141 134.616 5.74908 134.667 5.74908H137.059C137.04 5.99671 137.202 5.98269 137.359 5.99671C137.516 6.01073 137.73 5.90093 137.793 6.17192C137.793 6.19995 137.917 6.19995 137.941 6.26069C138.091 6.39618 138.248 6.527 138.391 6.6695C138.449 6.7279 138.477 6.81433 138.548 6.85171L139.078 7.38201C139.216 7.41237 139.38 7.63664 139.406 7.96836C139.42 8.13656 139.394 8.32345 139.64 8.32345C139.685 8.51501 139.589 8.74161 139.844 8.83272C139.863 8.83272 139.858 8.9285 139.858 8.97755C139.858 9.26022 139.858 9.54522 139.887 9.82555C139.919 10.0085 139.966 10.1889 140.025 10.3652C139.821 10.4633 139.891 10.7249 139.887 10.9609C139.875 11.5519 139.87 12.1429 139.849 12.734C139.849 12.8204 139.751 12.8975 139.72 12.9863C139.676 13.1171 139.65 13.2549 139.601 13.3811C139.315 13.7322 139.167 14.1745 139.183 14.6262C138.949 14.6052 138.949 14.764 138.925 14.9205C138.914 14.9953 138.834 15.056 138.806 15.1308C138.796 15.2499 138.771 15.3808 138.721 15.5373ZM132.909 8.3141L132.925 8.36316C132.782 8.50099 132.639 8.63415 132.501 8.77198C132.468 8.81449 132.441 8.86075 132.419 8.9098C132.391 8.95418 132.365 9.00091 132.335 9.0453C132.276 9.13173 132.206 9.21349 132.156 9.3046C132.131 9.35366 132.156 9.4658 132.126 9.4728C131.863 9.55223 131.969 9.76483 131.959 9.92368C131.945 10.1783 131.959 10.4353 131.959 10.6922V11.6757C132.283 11.3814 132.56 11.1338 132.827 10.8768C132.879 10.8254 132.881 10.7273 132.909 10.6432L133.127 10.5988C133.124 10.4483 133.168 10.3007 133.252 10.1755C133.336 10.0503 133.456 9.95347 133.596 9.89796C133.549 9.54287 133.793 9.36067 134.03 9.14808C134.058 9.03128 134.086 8.88645 134.133 8.74862C134.166 8.65518 134.248 8.57575 134.271 8.48231C134.291 8.34924 134.301 8.21497 134.302 8.08049L134.365 8.1132L134.531 7.90762C134.421 7.83521 134.313 7.75724 134.21 7.67402C134.183 7.64959 134.151 7.63122 134.116 7.62012C134.081 7.60902 134.044 7.60545 134.008 7.60965C133.972 7.61385 133.937 7.62572 133.905 7.64447C133.874 7.66322 133.847 7.68843 133.826 7.7184C133.704 7.85156 133.591 8.01976 133.378 8.04546C133.275 8.04546 133.181 8.15759 133.082 8.22067L133.113 8.28141L132.909 8.3141Z" fill="white"/>
<path d="M84.6546 18.9737C84.5094 18.8511 84.3723 18.7192 84.2443 18.5788C84.1123 18.4186 84.0005 18.2429 83.9114 18.0556C83.8692 17.9715 83.9114 17.8664 83.7613 17.8336C83.7097 17.822 83.6675 17.6865 83.6511 17.6C83.6206 17.4202 83.705 17.2052 83.4753 17.0861C83.4518 17.0861 83.4589 16.9903 83.4589 16.9389C83.4589 16.0302 83.4589 15.1238 83.4589 14.2151C83.4823 14.1008 83.5259 13.9916 83.5878 13.8927C83.6107 13.8499 83.625 13.8031 83.63 13.7548C83.63 12.8204 83.63 11.8696 83.63 10.8651L83.2314 11.1384C83.1997 11.2897 83.1493 11.4364 83.0814 11.5753C82.9834 11.6895 82.8697 11.7894 82.7438 11.872C82.5093 12.0098 82.596 12.3719 82.3006 12.5377C82.1764 12.6078 82.1388 12.8251 82.0662 12.9722C82.013 13.0741 81.9433 13.1665 81.8598 13.2456C81.759 13.3881 81.8903 13.6637 81.6254 13.6637C81.5152 13.8483 81.419 13.9908 81.344 14.145C81.3242 14.2212 81.3148 14.2998 81.3159 14.3786C81.2948 14.4907 81.3159 14.6332 81.1377 14.6379C81.1189 14.6379 81.0814 14.6706 81.0838 14.6823C81.1471 14.9649 80.8821 15.1238 80.8235 15.3644C80.7922 15.5244 80.7008 15.6664 80.5679 15.7615C80.3335 15.89 80.4249 16.0863 80.3898 16.2545C80.3546 16.4227 80.4531 16.6492 80.1717 16.7053C80.1459 16.7053 80.1318 16.8081 80.1295 16.8642C80.1295 17.044 80.1107 17.2239 80.1295 17.4038C80.1483 17.5837 80.0334 17.6818 79.8528 17.6841C79.5856 17.6841 79.3206 17.6841 79.1143 17.6841L78.8259 17.3711H78.8142C78.6688 17.2216 78.5211 17.0744 78.3804 16.9226C78.3412 16.8815 78.3158 16.8292 78.3077 16.7731C78.3077 16.5862 78.3077 16.3969 78.3077 16.2101C78.3077 16.161 78.3288 16.0769 78.3523 16.0722C78.5867 16.0255 78.5117 15.8269 78.5445 15.6844C78.5774 15.5419 78.5117 15.3714 78.7134 15.292C78.7509 15.278 78.7368 15.1495 78.7649 15.0817C78.8039 14.9811 78.8657 14.8907 78.9455 14.8178C79.0263 14.4554 79.1927 14.1175 79.4308 13.8319C79.5035 13.6567 79.548 13.3063 79.6958 13.2549C80.0123 13.1428 79.8294 12.7597 80.1154 12.6686C80.1647 12.6522 80.1553 12.435 80.1764 12.3135L80.3851 12.2481C80.3822 12.0975 80.4256 11.9497 80.5094 11.8245C80.5932 11.6992 80.7134 11.6025 80.854 11.5472C80.836 11.3936 80.8713 11.2384 80.954 11.1075C81.0368 10.9766 81.162 10.8779 81.3088 10.8277C81.3628 10.6969 81.262 10.4726 81.5199 10.4096C81.5527 10.4096 81.555 10.2717 81.5738 10.1876C81.888 10.1876 81.7754 9.92365 81.827 9.75779C81.9614 9.70769 82.08 9.62288 82.1707 9.51203C82.2613 9.40119 82.3207 9.26833 82.3428 9.12706C82.4085 9.03595 82.453 8.89345 82.5421 8.86074C82.7531 8.76263 82.6711 8.51968 82.7766 8.4239C82.9595 8.24635 83.079 8.02675 83.2455 7.84688C83.276 7.81183 83.3557 7.82352 83.3627 7.76278C83.4565 7.63196 83.5597 7.50815 83.6394 7.37032C83.6673 7.29573 83.6793 7.21617 83.6746 7.13671L83.7332 7.18344C83.852 7.02552 83.9812 6.87567 84.12 6.7349C84.248 6.62695 84.39 6.53661 84.5421 6.46626C84.603 6.43589 84.6945 6.46626 84.7765 6.46626C84.9089 6.45764 85.0399 6.49753 85.1448 6.57841C85.2498 6.6593 85.3214 6.7756 85.3463 6.90544C85.48 6.92778 85.6006 6.9991 85.6843 7.10541C85.768 7.21173 85.8088 7.34535 85.7988 7.48011C85.8106 7.60394 85.7821 7.72827 85.7175 7.83471C85.6529 7.94115 85.5556 8.02405 85.4401 8.07114C85.3514 8.15094 85.2676 8.23597 85.1892 8.32577C85.1623 8.38086 85.1396 8.43787 85.1212 8.49631C85.0673 8.60611 85.004 8.7089 84.943 8.81636L84.8656 8.78131L84.8398 9.01492L84.6194 9.0593C84.6194 9.15976 84.589 9.26022 84.5866 9.36067C84.5843 9.46112 84.5983 9.56391 84.6077 9.68305L84.8422 9.72041L84.8703 9.92832C85 9.94921 85.1181 10.015 85.2039 10.1142C85.2897 10.2133 85.3376 10.3394 85.3392 10.4703C85.3392 10.6502 85.3392 10.83 85.351 11.0099C85.351 11.1478 85.3181 11.3066 85.5221 11.365C85.5526 11.365 85.5714 11.4818 85.5714 11.5449C85.5714 11.9631 85.5714 12.3836 85.5714 12.8041C85.5714 12.8601 85.5596 12.9582 85.5362 12.9652C85.2853 13.0306 85.3557 13.2269 85.3557 13.3857C85.3557 14.7126 85.3557 16.0403 85.3557 17.3688C85.3557 17.4902 85.3228 17.6211 85.5057 17.6818C85.5573 17.6982 85.5995 17.8617 85.5831 17.9458C85.5338 18.1794 85.8175 18.1444 85.8644 18.3032C85.9348 18.2612 86.0075 18.2238 86.0755 18.177C86.2536 18.0509 86.7085 18.2121 86.7202 18.4293C86.739 18.7268 86.7319 19.0254 86.6991 19.3217C86.6837 19.3684 86.6567 19.4104 86.6206 19.4439C86.5845 19.4774 86.5406 19.5012 86.4928 19.5133C86.168 19.5493 85.8398 19.5407 85.5174 19.4876C85.3158 19.4385 85.1493 19.24 84.9196 19.1862C84.8258 19.1629 84.7507 19.0601 84.6687 18.9947L84.6546 18.9737Z" fill="white"/>
<path d="M192.192 14.0049C192.218 14.1123 192.143 14.3109 192.361 14.444C192.474 14.5118 192.31 14.972 192.244 15.1238C192.157 15.3317 191.848 15.3948 191.895 15.6938C191.895 15.7592 191.74 15.8504 191.677 15.9508C191.362 16.0723 191.233 16.2685 191.248 16.6726H192.811C192.966 16.4531 193.201 16.4928 193.423 16.4788C193.553 16.4745 193.68 16.5098 193.789 16.58C193.897 16.6502 193.982 16.7518 194.031 16.8712C194.042 16.9008 194.06 16.9278 194.082 16.9507C194.145 16.9927 194.213 17.0254 194.279 17.0604L194.045 17.1959C193.972 17.857 193.972 17.857 193.59 17.8967C193.606 18.1093 193.463 18.1304 193.297 18.1304C193.159 18.1256 193.021 18.1327 192.884 18.1514C192.798 18.1827 192.714 18.221 192.633 18.2659C192.567 18.2973 192.495 18.3163 192.422 18.3219C191.984 18.3219 191.545 18.3359 191.107 18.3476C190.978 18.3476 190.821 18.3196 190.786 18.5228C190.786 18.5532 190.675 18.5812 190.615 18.5836C190.272 18.5976 189.928 18.5836 189.583 18.6139C189.498 18.6139 189.419 18.6934 189.334 18.7284C189.269 18.7596 189.2 18.7808 189.128 18.7915C188.957 18.8078 188.783 18.7915 188.612 18.8242C188.534 18.8524 188.459 18.8918 188.392 18.941C188.334 18.9828 188.269 19.0144 188.2 19.0344C188.088 19.0432 187.983 19.0871 187.898 19.1598C187.814 19.2325 187.755 19.3302 187.731 19.4386C187.346 19.7586 186.971 19.8521 186.638 19.4386L186.186 18.9714L186.157 19.0041L185.923 18.7214L185.874 18.7635L185.592 17.9411C185.203 17.9178 185.506 17.4412 185.201 17.3361C185.145 17.3151 185.18 17.0768 185.145 16.9483C185.105 16.8334 185.054 16.7224 184.994 16.6166L184.915 16.6446C184.903 16.4741 184.898 16.3036 184.884 16.133C184.891 15.984 184.843 15.8375 184.748 15.7219C184.647 15.6097 184.704 15.3645 184.68 15.1776C184.664 15.0327 184.744 14.8365 184.495 14.7945C184.476 14.7945 184.453 14.722 184.453 14.6846C184.453 13.8133 184.453 12.9419 184.453 12.0355C184.734 12.0192 185.016 12.0192 185.297 12.0355C185.563 12.0838 185.825 12.1502 186.082 12.2341V13.4021H186.755L186.732 13.3297C186.853 13.2683 186.977 13.2145 187.105 13.1685C187.243 13.1265 187.447 13.2363 187.496 12.9887C187.496 12.9723 187.592 12.97 187.642 12.9676C187.838 12.9676 188.038 12.9676 188.235 12.9466C188.291 12.9466 188.387 12.9256 188.392 12.8999C188.436 12.6663 188.626 12.7177 188.758 12.7153C189.215 12.7153 189.67 12.7153 190.127 12.7153C190.183 12.7153 190.286 12.7317 190.289 12.7527C190.326 13.012 190.523 12.9233 190.685 12.9606C190.788 12.984 190.879 13.0634 190.983 13.0961C191.086 13.1288 191.255 13.1639 191.353 13.1872L192.192 14.0049ZM188.61 16.4811C188.765 16.3025 188.929 16.1325 189.102 15.9718C189.259 15.8246 189.362 15.6121 189.595 15.5303C189.595 15.4649 189.616 15.3995 189.625 15.3341L189.677 15.3738L190.132 14.8902L190.096 14.8598L190.331 14.8155C190.331 14.666 190.314 14.5351 190.305 14.3973C189.869 14.3973 189.466 14.3973 189.062 14.3973C189 14.4072 188.941 14.433 188.891 14.4721C188.804 14.5211 188.727 14.5865 188.638 14.6286C188.549 14.6706 188.453 14.6286 188.443 14.6589C188.366 14.9253 188.127 14.7898 187.974 14.8925C187.91 14.9849 187.82 15.0558 187.714 15.0958C187.604 15.1202 187.501 15.1708 187.415 15.2432C187.328 15.3155 187.26 15.4076 187.217 15.5116C187.067 15.6167 186.833 15.7265 186.816 15.8644C186.785 16.3029 186.779 16.7427 186.797 17.1819C187.032 17.1819 187.325 17.238 187.409 17.1352C187.569 16.9437 187.761 16.9927 187.937 16.932L187.895 16.8595L188.61 16.4811Z" fill="white"/>
<path d="M55.3586 15.848C55.4918 15.7502 55.6357 15.6678 55.7877 15.6027C55.923 15.5476 56.0745 15.5476 56.2097 15.6027C56.3106 15.6821 56.4981 15.7312 56.4817 15.9461C56.4583 16.2685 56.4817 16.5932 56.4817 16.9296C56.3453 16.9329 56.2098 16.9533 56.0784 16.9903C55.987 17.0301 55.926 17.1375 55.844 17.2052C55.7002 17.4305 55.4872 17.6034 55.2367 17.6982C54.9884 17.8001 54.7309 17.8783 54.4677 17.9318C54.4091 18.2775 53.9636 18.0369 53.8581 18.3242C53.8464 18.3523 53.7291 18.3499 53.6611 18.3499H52.7608L52.6741 18.5835C52.0551 18.5835 51.4267 18.5835 50.7984 18.5835C50.7515 18.5835 50.6671 18.5625 50.6647 18.5415C50.6296 18.2892 50.4303 18.3826 50.2849 18.3453C50.1395 18.3079 49.959 18.3967 49.9004 18.1771C49.9004 18.1514 49.7925 18.1467 49.7363 18.142C49.5698 18.142 49.4174 18.1163 49.3822 17.9388L48.9133 17.4856L48.3295 16.8782C48.2568 16.7427 48.1701 16.5909 48.095 16.4344C48.0705 16.3712 48.0601 16.3034 48.0646 16.2358C48.0646 15.7685 48.0646 15.327 48.0646 14.8715C48.0646 14.7944 48.149 14.722 48.1677 14.6379C48.2052 14.4767 48.2146 14.3085 48.2498 14.1473C48.265 14.0287 48.2516 13.9081 48.2109 13.7956C48.1701 13.6831 48.1031 13.5818 48.0153 13.5002C47.9778 13.4535 47.877 13.4558 47.8395 13.4021L47.4128 12.9349L47.3963 12.9512C47.3185 12.8692 47.2457 12.7826 47.1783 12.6919C47.1422 12.6255 47.1169 12.5537 47.1033 12.4794C47.1033 12.4303 47.1033 12.3509 47.0845 12.3298C46.9837 12.2551 46.85 12.2271 46.85 12.0495C46.8497 11.9177 46.8426 11.7859 46.8289 11.6547L46.6554 11.615C46.3848 10.9491 46.2958 10.2238 46.3975 9.51253C46.7938 9.51253 47.2017 9.38637 47.5698 9.7835C47.6063 9.88482 47.6687 9.97485 47.751 10.0445C47.8333 10.1142 47.9325 10.1612 48.0388 10.1807C48.0839 10.1996 48.1238 10.2289 48.1552 10.2663C48.1866 10.3037 48.2086 10.348 48.2193 10.3956C48.2498 10.7016 48.2427 11.0099 48.2592 11.33C48.2592 11.4725 48.2592 11.65 48.4772 11.6127C48.5358 11.8206 48.4772 12.0191 48.6601 12.1897C48.7609 12.2831 48.721 12.5284 48.7468 12.7293L49.0774 12.7597L49.8207 12.0191L49.8746 12.0612L49.9121 11.8439L49.9801 11.8767C50.0504 11.7883 50.1124 11.6937 50.1653 11.594C50.2521 11.3954 50.2661 11.1268 50.3998 10.9959C50.5711 10.8286 50.7316 10.6507 50.8804 10.4633C50.9062 10.4283 50.993 10.4423 51.0117 10.3932L51.4549 9.926C51.5279 9.79894 51.6324 9.69271 51.7584 9.61745C51.8845 9.54218 52.0278 9.50042 52.1747 9.49617L52.2309 9.28125H53.3587L53.3282 9.36068C53.4243 9.41909 53.5181 9.47748 53.6142 9.53121C53.6908 9.58003 53.7551 9.64566 53.8023 9.72307C53.8495 9.80048 53.8782 9.88762 53.8864 9.97781C53.8945 10.068 53.8818 10.1589 53.8493 10.2434C53.8168 10.328 53.7652 10.404 53.6987 10.4656C53.6253 10.5541 53.5471 10.6383 53.4642 10.7179L52.8851 11.3207C52.749 11.4673 52.6236 11.6234 52.5099 11.7879C52.4373 11.907 52.4841 12.1102 52.252 12.0962C52.2145 12.3602 51.9894 12.2995 51.8417 12.3298L51.5041 13.1872L51.4619 13.1638C51.408 13.2526 51.3658 13.3974 51.2954 13.4161C50.993 13.4862 51.1923 13.8833 50.864 13.9861C50.7116 14.0305 50.653 14.3879 50.5311 14.6472C50.3857 14.6332 50.3787 14.7897 50.3506 14.9439C50.3388 15.0117 50.2755 15.0677 50.2427 15.1331C50.209 15.1949 50.1815 15.2599 50.1606 15.327C50.1278 15.4438 50.1606 15.5957 49.9754 15.6144C49.9496 15.6144 49.9191 15.7125 49.9191 15.7639C49.9067 16.0638 49.9232 16.3642 49.9684 16.6609C50.0317 16.7474 50.0762 16.8665 50.1606 16.9132C50.306 16.995 50.3599 17.1982 50.5756 17.1889C50.9109 17.1749 51.2485 17.1889 51.5838 17.1889C51.7526 17.1889 51.9168 17.2286 52.0809 17.0417C52.184 16.9296 52.4888 17.009 52.6999 16.974C52.8129 16.9437 52.9142 16.8802 52.9906 16.7918C53.15 16.71 53.3329 16.7567 53.4947 16.5745C53.5908 16.4624 53.8839 16.5254 54.0902 16.5091L54.0668 16.4367L54.4677 16.2685C54.5826 16.2194 54.7021 16.161 54.81 16.112C54.871 16.0886 54.9413 16.0909 54.9999 16.0652C55.1242 15.9765 55.232 15.9134 55.3586 15.848Z" fill="white"/>
<path d="M33.4834 9.01027C33.8116 9.01027 34.0977 9.01027 34.379 9.01027C34.4916 9.01027 34.6768 8.96354 34.6838 9.18314C34.9183 9.15277 34.8902 9.46347 35.0801 9.50785C35.1059 9.50785 35.1199 9.59194 35.1317 9.63632C35.1668 9.76948 35.1317 9.93768 35.3497 9.9587C35.3778 9.9587 35.406 10.1082 35.406 10.1923C35.406 10.7903 35.406 11.3907 35.406 11.9911C35.406 12.4794 35.406 12.9676 35.406 13.4558C35.3888 13.5478 35.3912 13.6423 35.413 13.7332C35.4349 13.8241 35.4756 13.9095 35.5326 13.9838C35.5912 14.0468 35.5326 14.2338 35.5044 14.3622C35.4904 14.4347 35.3989 14.5375 35.4224 14.5655C35.5044 14.6753 35.6193 14.8388 35.7272 14.8411C36.311 14.8622 36.8995 14.8411 37.481 14.8411C37.5067 14.8411 37.5396 14.8411 37.5583 14.8411C38.0272 14.4954 38.5571 14.729 39.0518 14.6402C39.1831 14.6169 39.3262 14.6566 39.3871 14.4767C39.4012 14.437 39.5208 14.416 39.5911 14.4136C39.8748 14.4136 40.1608 14.3996 40.4445 14.3949C40.6063 14.3949 40.7681 14.3949 40.747 14.1403C40.9815 14.1403 41.1714 14.1403 41.3683 14.1403C41.502 14.1403 41.6684 14.194 41.7364 13.9978C41.7364 13.9791 41.795 13.9674 41.8279 13.9651C41.9135 13.9558 41.9996 13.9511 42.0858 13.9511H44.0623C44.0271 14.1333 44.21 14.3436 43.8817 14.472C43.7387 14.5281 43.6778 14.7897 43.5746 14.9533C43.5371 15.0093 43.4902 15.0817 43.4339 15.0958C43.1995 15.1542 42.965 15.1121 42.7305 15.285C42.5899 15.3878 42.3132 15.313 42.0998 15.32L41.7177 15.3411C41.6825 15.5583 41.5207 15.5747 41.3285 15.5747C41.1948 15.5747 41.0377 15.5443 40.951 15.7195C40.9346 15.7545 40.8267 15.7569 40.7611 15.7616C40.4774 15.7756 40.1937 15.7802 39.91 15.7966C39.774 15.7966 39.6052 15.7545 39.5606 15.9694C39.5606 15.9975 39.4621 16.0209 39.4082 16.0255C39.2535 16.0255 39.0987 16.0255 38.9393 16.0489C38.7799 16.0723 38.6626 15.9998 38.597 16.1914C38.5829 16.2288 38.4399 16.2334 38.3625 16.2358C37.9217 16.2358 37.4833 16.2358 37.0449 16.2638C36.9558 16.2638 36.8714 16.3549 36.7823 16.3993C36.7256 16.4399 36.6608 16.4678 36.5923 16.4811C36.3702 16.5032 36.1463 16.5032 35.9241 16.4811C35.678 16.4437 35.5654 16.6049 35.4341 16.7404C35.4013 16.7754 35.4341 16.8805 35.4341 16.9483C35.4859 17.0534 35.526 17.1639 35.5537 17.2777C35.5748 17.8687 35.5724 18.4597 35.5935 19.0508C35.5935 19.1372 35.678 19.2213 35.7225 19.3077C35.7626 19.3671 35.7927 19.4326 35.8116 19.5016C35.8327 19.6722 35.8304 19.845 35.8515 20.0132C35.865 20.0823 35.9004 20.1453 35.9523 20.1931C35.9824 20.2257 36.0053 20.2642 36.0194 20.3061C36.0336 20.3481 36.0388 20.3925 36.0346 20.4366C36.0304 20.4807 36.0169 20.5234 35.9951 20.5619C35.9732 20.6005 35.9434 20.634 35.9077 20.6603C35.8771 20.6843 35.8502 20.7126 35.828 20.7444C35.7905 20.7935 35.7577 20.8449 35.7248 20.8939C35.6756 20.8495 35.624 20.8051 35.5771 20.7584C35.5302 20.7117 35.5373 20.6977 35.5115 20.686C35.2442 20.5879 34.9746 20.4945 34.7612 20.4197L34.2407 19.9291C34.1422 19.8006 34.2806 19.539 33.9781 19.497C33.964 19.497 33.9476 19.4526 33.9476 19.4315C33.9875 18.9503 33.6405 18.5391 33.7132 18.0462C33.7413 17.7643 33.7413 17.4802 33.7132 17.1982C33.7132 17.1118 33.6311 17.0324 33.5959 16.9459C33.5479 16.8533 33.5169 16.7528 33.5045 16.6493C33.5045 15.6214 33.4904 14.5935 33.4881 13.5633C33.4881 12.1757 33.4881 10.7872 33.4881 9.39805L33.4834 9.01027Z" fill="white"/>
<path d="M96.7644 13.4371H97.789C97.8289 13.4371 97.9016 13.4371 97.9086 13.4138C98.0235 13.0961 98.2931 13.2386 98.4994 13.2175C98.6798 13.2072 98.8607 13.2072 99.0411 13.2175C99.1419 13.3227 99.2474 13.3811 99.2755 13.4652C99.3246 13.6078 99.3359 13.7607 99.3083 13.909C99.2517 14.0472 99.1859 14.1814 99.1114 14.3108L98.8277 14.5865L98.8605 14.6309C98.7503 14.6309 98.6378 14.6309 98.5276 14.6542C98.4174 14.6776 98.2814 14.6262 98.1759 14.7874C98.122 14.8715 97.8875 14.8294 97.7421 14.8691C97.6527 14.9057 97.5684 14.9536 97.4913 15.0116C97.449 15.0449 97.4014 15.071 97.3506 15.0887C97.1161 15.1378 96.8817 15.0887 96.6472 15.264C96.4971 15.3737 96.2134 15.2967 95.9907 15.3153C95.843 15.327 95.646 15.2569 95.6156 15.5092C95.6156 15.5303 95.5124 15.5513 95.4561 15.5513C94.8887 15.5513 94.3213 15.5513 93.7539 15.5513L93.7844 15.4859C93.6626 15.431 93.5443 15.3686 93.4304 15.299C93.2997 15.2139 93.1765 15.1177 93.0623 15.0116C92.9943 14.9389 92.9324 14.8607 92.877 14.778L92.8091 14.8061C92.8091 14.6869 92.8091 14.5724 92.8091 14.451C92.8091 14.2407 92.8958 14.1426 93.1068 14.1286C93.1701 14.1286 93.2264 14.0492 93.292 14.0165C93.3515 13.9802 93.4177 13.9564 93.4867 13.9464C93.8313 13.9464 94.176 13.9464 94.5206 13.9464C94.8653 13.9464 94.8934 13.923 94.9262 13.5773C94.9403 13.4278 94.8583 13.2175 95.1279 13.1825C95.1466 13.1825 95.1654 13.0774 95.1654 13.0213C95.1654 12.6265 95.1654 12.2317 95.1654 11.8369C95.1654 11.7808 95.1443 11.6827 95.1162 11.678C94.8817 11.622 94.9474 11.4445 94.9427 11.2856C94.9286 10.9352 94.9239 10.5848 94.9239 10.232C94.9239 10.0615 94.8395 9.96105 94.6894 9.98207C94.455 10.0148 94.1807 9.8746 93.9626 10.1479C93.8876 10.2414 93.618 10.1759 93.4398 10.1923C93.2616 10.2087 93.1115 10.1269 93.0506 10.3769C93.0506 10.4259 92.8161 10.4236 92.6778 10.447L92.6989 10.3488C92.5676 10.2928 92.4339 10.239 92.3073 10.176C92.1763 10.1183 92.0559 10.0394 91.9509 9.94235L91.4304 9.40272V8.8C91.5523 8.8 91.6649 8.78599 91.768 8.77431C91.9228 8.75796 92.0916 8.80234 92.2088 8.63181C92.2417 8.58509 92.3683 8.59443 92.4433 8.59443C92.7106 8.59443 92.9779 8.59443 93.2569 8.59443L93.3225 8.36082C93.347 8.3498 93.3732 8.34271 93.3999 8.3398C93.6344 8.3398 93.8805 8.32577 94.122 8.31175C94.2744 8.31175 94.4573 8.35849 94.523 8.13189C94.523 8.10385 94.6285 8.09217 94.6871 8.0875C94.884 8.07115 95.0833 8.06647 95.2803 8.05245C95.4327 8.05245 95.6038 8.08983 95.714 7.90762C95.7375 7.86557 95.8571 7.87258 95.9321 7.87025C96.2252 7.85857 96.5182 7.87024 96.809 7.8352C96.8981 7.8352 96.9731 7.73008 97.0645 7.69738C97.0941 7.68767 97.1252 7.68391 97.1562 7.68631C97.1872 7.68872 97.2174 7.69725 97.2451 7.71139C97.2967 7.73475 97.3389 7.83753 97.3693 7.83286C97.6226 7.77913 97.7632 7.96835 97.9344 8.08282C97.9836 8.11319 97.986 8.21598 98.0141 8.30242L98.2345 8.3398V9.01026C97.8547 9.01026 97.5733 9.34898 97.1794 9.26722C97.0505 9.48681 96.8043 9.4471 96.6214 9.53587C96.476 9.60596 96.2322 9.76949 96.3424 10.0405C96.3588 10.0779 96.3658 10.1479 96.3846 10.1503C96.6402 10.176 96.5581 10.3839 96.5839 10.5217C96.6097 10.6595 96.5534 10.8581 96.7386 10.9749C96.7855 11.0053 96.7761 11.1361 96.7785 11.2085C96.7785 11.8252 96.7785 12.442 96.7902 13.0587C96.7668 13.1802 96.7644 13.2993 96.7644 13.4371Z" fill="white"/>
<path d="M107.566 11.5426L107.96 11.7972C108.129 11.5776 108.302 11.3417 108.492 11.1151C108.551 11.0473 108.67 11.031 108.727 10.9609C108.827 10.8324 108.898 10.6782 108.994 10.5451C109.027 10.496 109.099 10.4773 109.151 10.4423L109.484 10.2087L109.953 9.74147C110.057 9.62238 110.192 9.53423 110.343 9.48682C110.494 9.4394 110.655 9.43456 110.809 9.47282C110.935 9.57948 111.028 9.71934 111.078 9.87635C111.127 10.0334 111.132 10.2012 111.09 10.3605C111.057 10.6488 110.917 10.9144 110.698 11.1057C110.684 11.1136 110.671 11.1258 110.663 11.1408C110.57 11.4234 110.48 11.7038 110.391 11.9818L109.932 12.3041L109.955 12.3205L109.517 12.7994L109.456 12.748C109.35 12.9606 109.245 13.1708 109.144 13.3764L108.675 13.8436C108.551 13.9628 108.422 14.0772 108.305 14.201C108.241 14.2918 108.161 14.3709 108.07 14.4347C107.972 14.694 107.883 14.9603 107.768 15.2149C107.742 15.271 107.575 15.2733 107.564 15.3224C107.533 15.4555 107.395 15.5279 107.374 15.6004C107.318 15.7872 107.2 15.7616 107.083 15.7639C106.849 15.7639 106.635 15.7639 106.413 15.7639C106.298 15.7639 106.166 15.7919 106.143 15.6074C106.143 15.577 106.009 15.563 105.974 15.5092L105.505 15.042L105.451 15.0771V14.701L105.496 14.729C105.559 14.6426 105.613 14.5491 105.683 14.4697C105.796 14.3436 105.918 14.2361 106.033 14.1076C106.071 14.067 106.103 14.0214 106.129 13.9721C106.211 13.8156 106.277 13.6497 106.363 13.5049C106.394 13.4558 106.497 13.4535 106.565 13.4301L106.917 12.7737L107.308 12.7106V12.0705C107.175 12.0776 107.042 12.0776 106.91 12.0705C106.781 12.0565 106.605 12.1126 106.588 11.879C106.588 11.8416 106.452 11.8159 106.354 11.7715L106.056 11.1081C105.965 11.0594 105.885 10.9929 105.821 10.9126C105.756 10.8323 105.709 10.7399 105.681 10.6409C105.636 10.5419 105.561 10.46 105.465 10.4072C105.36 10.2087 105.252 10.0101 105.149 9.81154L104.68 9.31863L104.471 8.97991C104.387 8.84675 104.323 8.63183 104.209 8.59912C103.993 8.53605 104.07 8.37719 104.012 8.26273C103.885 8.02912 103.845 7.72543 103.543 7.5619C103.543 7.45444 103.543 7.3283 103.543 7.19981C103.543 7.12272 103.557 7.04795 103.566 6.95451C103.911 6.93292 104.256 6.93839 104.6 6.97087C104.753 6.99656 104.879 7.20448 104.999 7.33763C105.101 7.38323 105.19 7.45201 105.261 7.53842C105.331 7.62483 105.38 7.72647 105.404 7.83522C105.447 7.94285 105.519 8.03611 105.613 8.10387C105.622 8.26209 105.673 8.4151 105.761 8.54727C105.848 8.67943 105.97 8.786 106.112 8.85609C106.155 8.99859 106.066 9.21818 106.312 9.29761C106.342 9.30929 106.338 9.42376 106.347 9.48917L106.413 9.4588C106.478 9.55925 106.546 9.66204 106.607 9.76483C106.68 9.87738 106.743 9.99622 106.795 10.1199C106.82 10.2569 106.897 10.379 107.01 10.461C107.119 10.5147 107.207 10.6002 107.265 10.7058C107.323 10.8115 107.347 10.9324 107.334 11.052C107.308 11.1665 107.301 11.33 107.493 11.3837C107.561 11.3697 107.559 11.5052 107.566 11.5426Z" fill="white"/>
<path d="M17.6221 19.8263C17.5213 19.8754 17.4228 19.9642 17.3196 19.9688C16.9515 19.9875 16.5811 19.9688 16.3584 19.9688L15.5284 19.5016C15.4369 19.4012 15.3314 19.3288 15.2939 19.2306C15.2601 19.1193 15.2536 19.0015 15.2751 18.8872C15.5237 18.5322 15.8918 18.6279 16.213 18.5789C16.2951 18.5789 16.363 18.4714 16.4475 18.4153L16.417 18.3429C16.553 18.3429 16.6889 18.3429 16.8249 18.3429C16.9609 18.3429 17.0828 18.371 17.179 18.2098C17.2165 18.1444 17.397 18.156 17.5142 18.1444C17.6315 18.1327 17.8144 18.121 17.7886 17.8757C18.0043 17.8757 18.2012 17.8874 18.3958 17.8757C18.5342 17.8757 18.6912 17.9247 18.7944 17.7238C18.8296 17.6561 19.064 17.6888 19.2071 17.6725C19.3102 17.6725 19.4415 17.6982 19.4626 17.5276C19.4626 17.4902 19.5822 17.4505 19.6478 17.4459C19.9409 17.4272 20.2317 17.4248 20.5247 17.4108C20.6584 17.4108 20.8319 17.4622 20.853 17.2333C20.853 17.2099 20.9514 17.1842 21.0054 17.1819C21.2984 17.1655 21.5915 17.1655 21.8823 17.1468C22.0323 17.1468 22.2175 17.2146 22.3066 16.9997C22.3066 16.9716 22.4192 16.9763 22.4778 16.974C22.7005 16.974 22.9233 16.974 23.1483 16.953C23.2656 16.953 23.4156 16.9903 23.4438 16.7917C23.4438 16.7614 23.554 16.731 23.6149 16.724C23.7931 16.703 24.0182 16.7614 24.1472 16.6726C24.5317 16.411 24.9584 16.5441 25.3617 16.474C25.3945 16.474 25.4508 16.474 25.4578 16.4484C25.5774 16.1353 25.8587 16.2825 26.0697 16.2334C26.2174 16.1984 26.4097 16.2965 26.48 16.0699C26.48 16.0559 26.5269 16.0489 26.5504 16.0489H27.3851C27.4018 16.3128 27.3971 16.5777 27.371 16.8408C27.3499 16.9623 27.2022 17.0744 27.1014 17.1655C27.027 17.2267 26.9487 17.2829 26.8669 17.3337L26.9021 17.4061C26.7662 17.4064 26.6306 17.4173 26.4964 17.4388C26.4042 17.4725 26.3179 17.5206 26.2409 17.5813C26.2057 17.6024 26.1776 17.6444 26.1424 17.6538C25.7391 17.7449 25.3335 17.8313 24.9021 17.9248L24.8294 18.1584C24.6231 18.1584 24.4004 18.1444 24.18 18.1584C24.0664 18.1878 23.9564 18.2293 23.8517 18.2822C23.7823 18.3113 23.7087 18.3294 23.6337 18.3359C23.4203 18.3359 23.2046 18.3359 22.9678 18.3359C22.9866 18.5905 22.8271 18.5952 22.67 18.5975C22.513 18.5999 22.3254 18.5975 22.1519 18.5975C21.9784 18.5975 21.8471 18.5508 21.7463 18.733C21.7228 18.7751 21.6056 18.7774 21.5306 18.7798C21.2961 18.7798 21.0804 18.7798 20.86 18.8055C20.7733 18.8171 20.6935 18.9012 20.6115 18.9526C20.5693 18.9783 20.5341 19.0227 20.4919 19.0274C20.2574 19.0671 19.9972 19.0274 19.7674 19.2213C19.6478 19.3194 19.3993 19.2517 19.2141 19.2844C19.132 19.2984 19.0593 19.3778 18.9796 19.4175C18.9055 19.4568 18.8268 19.4866 18.7452 19.5063C18.5764 19.5437 18.3818 19.4526 18.2551 19.6768C18.2176 19.7446 17.9972 19.7095 17.8613 19.7212L17.6268 19.7375L17.6221 19.8263Z" fill="white"/>
<path d="M191.738 8.0992C191.738 8.33281 191.738 8.56642 191.738 8.80002C191.742 8.92947 191.716 9.05814 191.663 9.17613C191.588 9.25556 191.52 9.33966 191.428 9.40974C191.389 9.44888 191.339 9.47502 191.285 9.4845C191.142 9.50319 190.994 9.50086 190.849 9.51488C190.704 9.5289 190.57 9.4775 190.497 9.65738C190.497 9.69008 190.375 9.69708 190.31 9.69941C190.075 9.69941 189.841 9.69941 189.606 9.72277C189.492 9.72277 189.353 9.72279 189.337 9.89099C189.332 9.90583 189.324 9.91932 189.313 9.93031C189.302 9.9413 189.288 9.94943 189.273 9.95404C188.912 9.94002 188.622 10.2344 188.242 10.1713C187.987 10.1513 187.73 10.1513 187.475 10.1713C187.475 10.4189 187.304 10.4049 187.138 10.4329C186.919 10.4633 186.669 10.3465 186.497 10.6222C186.465 10.6759 186.282 10.6222 186.174 10.6549C186.019 10.6899 185.867 10.7437 185.705 10.7927C185.567 10.7507 185.335 10.7483 185.236 10.6315C185.058 10.4399 184.648 10.4797 184.671 10.0872C184.671 10.0707 184.666 10.0546 184.659 10.04C184.651 10.0254 184.64 10.0128 184.626 10.0031C184.221 9.81389 184.195 9.47515 184.265 9.03363C184.535 9.03363 184.807 9.04765 185.077 9.03363C185.175 9.03363 185.267 8.93551 185.36 8.88178C185.395 8.86309 185.428 8.81404 185.459 8.81638C185.984 8.87011 186.434 8.47064 186.971 8.58277C187.088 8.60613 187.257 8.61782 187.288 8.41224C187.288 8.38654 187.386 8.36083 187.44 8.35616C187.644 8.33981 187.85 8.33514 188.057 8.32579C188.209 8.32579 188.392 8.38187 188.453 8.14826C188.453 8.11789 188.575 8.10621 188.64 8.10388C188.983 8.08986 189.327 8.08751 189.67 8.06649C189.738 8.06649 189.799 7.99407 189.864 7.96136C189.925 7.92431 189.993 7.8997 190.064 7.88895C190.434 7.87493 190.804 7.86559 191.173 7.86793C191.295 7.86793 191.459 7.83055 191.484 8.0408C191.491 8.0408 191.62 8.05481 191.738 8.0992Z" fill="white"/>
<path d="M147.884 2.68882C148.274 2.72714 148.668 2.72008 149.056 2.66779C149.38 2.58603 149.771 2.58602 150.032 2.32672L150.008 2.25897C150.189 2.25897 150.367 2.24496 150.547 2.23328C150.686 2.23328 150.819 2.24496 150.93 2.08844C150.981 2.01369 151.183 2.04172 151.314 2.02537C151.445 2.00901 151.6 2.05807 151.666 1.8525C151.685 1.79643 151.9 1.80344 152.015 1.77774C152.13 1.75204 152.36 1.84081 152.395 1.58618C152.395 1.56048 152.496 1.53947 152.552 1.53479C152.733 1.52078 152.913 1.53479 153.091 1.49975C153.166 1.4783 153.238 1.44769 153.305 1.40864C153.369 1.37392 153.439 1.34949 153.511 1.33622C153.727 1.31987 153.942 1.33622 154.156 1.31052C154.275 1.31052 154.423 1.33855 154.456 1.147C154.456 1.11663 154.566 1.08159 154.627 1.07925C155.028 1.07925 155.431 1.07925 155.856 1.07925C155.835 1.31286 155.996 1.30118 156.146 1.34089C156.221 1.35958 156.327 1.44601 156.334 1.51142C156.355 1.74503 156.334 1.96462 156.334 2.21225C156.177 2.2212 156.02 2.23992 155.865 2.26831C155.776 2.3075 155.693 2.35774 155.617 2.41783C155.567 2.45398 155.512 2.4809 155.452 2.49726C155.291 2.51361 155.124 2.49726 154.965 2.52763C154.869 2.54398 154.784 2.62574 154.69 2.65377C154.553 2.68546 154.413 2.70886 154.273 2.72385C154.137 2.74254 153.971 2.69114 153.921 2.89438C153.921 2.91307 153.886 2.93177 153.863 2.93644C153.464 3.02054 153.068 3.10231 152.669 3.17005C152.545 3.19575 152.383 3.13501 152.346 3.34058C152.346 3.37562 152.219 3.38963 152.149 3.40832C151.959 3.45972 151.715 3.31488 151.577 3.59755C151.546 3.65595 151.319 3.62324 151.181 3.62792H150.728L150.662 3.88022H148.763L147.877 3.33124L147.884 2.68882Z" fill="white"/>
</g>
<defs>
<clipPath id="clip0_198_1301">
<rect width="198" height="30" fill="white"/>
</clipPath>
</defs>
</svg>
