<svg width="515" height="73" viewBox="0 0 515 73" fill="none" xmlns="http://www.w3.org/2000/svg">
<path d="M204.465 45.5756C204.465 44.6115 204.465 43.654 204.465 42.6966C204.408 42.3719 204.307 42.0566 204.164 41.7593C203.792 41.9508 203.439 42.1748 203.106 42.4288C202.725 42.8052 202.365 43.2031 202.029 43.6206C201.968 43.6875 201.861 43.7411 201.834 43.8214C201.632 44.5027 201.396 45.1731 201.125 45.83C200.803 46.4088 200.443 46.9658 200.047 47.4972C199.973 47.611 199.886 47.7115 199.826 47.8253L198.902 49.5795C198.782 49.8071 198.661 50.0348 198.521 50.249C198.079 50.9186 197.637 51.5881 197.182 52.2576C197.014 52.5054 196.827 52.7464 196.653 52.9874C196.104 53.7239 195.575 54.4671 195.013 55.1902C194.812 55.4514 194.497 55.6254 194.303 55.8932C193.781 56.6297 190.608 57.4733 189.952 56.9176C189.552 56.4696 189.223 55.964 188.974 55.4179C188.593 54.7952 188.204 54.1658 187.85 53.5297C187.768 53.3583 187.727 53.1706 187.729 52.9808C187.729 52.0233 187.729 51.0591 187.675 50.1017C187.675 49.9075 187.441 49.5728 187.301 49.5661C186.962 49.5382 186.624 49.6204 186.337 49.8004C185.919 50.1471 185.541 50.5402 185.212 50.9721C184.957 51.2801 184.583 51.6416 184.576 51.9898C184.536 53.1079 183.237 53.2285 182.969 54.1859C182.882 54.5073 182.213 54.6345 181.845 54.909C181.602 55.1381 181.378 55.3867 181.175 55.6522C180.686 56.1678 180.204 56.6766 179.702 57.1787C179.555 57.3194 179.334 57.393 179.187 57.5403C178.357 58.404 177.178 58.2634 176.168 58.6183C176.034 58.6651 175.846 58.5781 175.692 58.5513C175.401 58.4426 175.093 58.3881 174.782 58.3906C173.737 58.6049 173.075 57.9019 172.332 57.4399C171.782 57.0594 171.257 56.6458 170.758 56.2012C170.705 56.1544 170.591 56.1477 170.571 56.1008C170.189 55.3572 169.89 54.5735 169.681 53.7641C169.413 52.0099 169.265 50.2356 169.172 48.468C169.258 47.9015 169.408 47.3466 169.62 46.8143C169.654 46.6335 169.52 46.2586 169.393 46.2251C169.078 46.1447 168.583 46.0711 168.409 46.2251C167.866 46.7674 167.518 47.5642 166.942 48.0261C165.958 48.8765 165.691 50.2088 164.566 51.0324C163.896 51.4944 162.946 52.0635 162.886 53.3021C162.886 53.8712 162.002 54.4136 161.486 54.9358C161.145 55.284 160.737 55.5585 160.389 55.8932C159.773 56.4757 159.137 57.0582 158.574 57.6876C158.213 58.096 157.985 58.6183 157.657 59.0602C157.329 59.502 156.988 59.8435 156.666 60.2251C156.111 60.8478 155.542 61.4571 154.986 62.0664C154.986 62.1066 154.946 62.1735 154.912 62.1869C154.203 62.4815 153.5 62.7895 152.79 63.064C152.319 63.3317 151.797 63.4961 151.257 63.5461C150.31 63.4328 149.376 63.2219 148.472 62.9167C148.181 62.7737 147.946 62.5383 147.803 62.2472C147.274 61.2897 146.363 60.667 146.116 59.3882C145.948 58.5245 145.339 57.5202 145.714 56.7502C146.072 56.0691 146.274 55.3165 146.303 54.5475C146.303 54.1792 146.303 53.811 146.303 53.4427C146.304 52.9441 146.404 52.4505 146.597 51.9907C146.79 51.5309 147.072 51.1142 147.428 50.7646C147.48 50.7128 147.517 50.6481 147.535 50.5771C147.769 49.7134 147.943 48.8296 148.258 47.9927C148.536 47.3662 148.865 46.7638 149.242 46.1916C149.309 46.0778 149.43 45.9907 149.49 45.8769C149.778 45.3547 150.052 44.8257 150.34 44.3035C150.503 44.0042 150.682 43.7137 150.876 43.4331C151.177 43.0046 151.505 42.5828 151.826 42.161C151.933 42.0204 152.148 41.8731 152.134 41.7458C152.061 40.9156 152.864 40.7415 153.212 40.226C153.56 39.7104 153.922 39.1146 154.31 38.5856C154.564 38.2442 154.892 37.9562 155.173 37.6349C155.756 36.9653 156.291 36.2958 156.914 35.7133C157.537 35.1308 158.186 34.7559 158.715 34.18C159.471 33.3565 160.623 33.2561 161.393 32.6602C161.873 32.2371 162.443 31.9282 163.06 31.7566C163.677 31.585 164.324 31.5551 164.954 31.6693C166.011 31.8064 166.972 32.3519 167.632 33.1891C168.042 33.6138 168.49 33.9993 168.971 34.3407C169.284 34.6667 169.51 35.0666 169.627 35.5033C169.744 35.94 169.749 36.3992 169.64 36.8381C169.506 37.7554 170.035 37.7219 170.658 37.5947C170.725 37.5947 170.825 37.5947 170.852 37.5143C171.14 36.9118 171.374 36.2757 171.709 35.6999C171.876 35.3986 172.191 35.0303 172.479 34.9902C172.983 34.882 173.508 34.9218 173.99 35.1048C174.472 35.2877 174.891 35.6059 175.197 36.0213C175.799 36.7846 176.603 37.4273 176.181 38.2977C175.759 39.1681 176.121 40.3064 175.09 40.8889C175.023 40.929 174.996 41.0562 174.983 41.1432C174.755 42.8372 174.802 44.6249 174.226 46.1849C173.801 47.5448 173.602 48.9652 173.637 50.3896C173.597 51.4207 173.637 52.4585 173.637 53.4896C173.624 53.6893 173.657 53.8894 173.735 54.0738C173.813 54.2583 173.932 54.4221 174.084 54.5522C174.237 54.6822 174.417 54.7749 174.611 54.8229C174.806 54.8709 175.008 54.8729 175.204 54.8287C175.592 54.7483 176.181 54.4269 176.221 54.1591C176.315 53.523 176.763 53.6972 177.085 53.5231C177.51 53.2661 177.909 52.9678 178.276 52.6326C178.678 52.3045 179.08 51.963 179.455 51.6149C179.682 51.3939 179.87 51.1261 180.084 50.8918C180.586 50.336 181.088 49.7736 181.61 49.238C181.972 48.8631 182.414 48.5685 182.742 48.1601C183.07 47.7516 183.357 47.216 183.692 46.7607C184.027 46.3054 184.362 45.9908 184.65 45.5756C184.961 44.9651 185.348 44.3959 185.801 43.8817C186.403 43.3996 186.035 42.4556 186.919 42.1007C187.301 41.9467 187.408 41.1566 187.682 40.6813C188.05 40.0519 188.472 39.456 188.84 38.8267C188.921 38.6123 188.966 38.3861 188.974 38.1571C189.061 37.7219 188.974 37.1796 189.255 36.8783C189.608 36.4707 190.091 36.1979 190.622 36.1063C191.153 36.0148 191.699 36.1101 192.167 36.3761C192.891 36.7511 193.901 37.4273 193.734 38.6726C193.66 39.2551 193.774 39.8644 193.687 40.4402C193.614 40.8955 193.319 41.3039 193.205 41.7793C193.091 42.2547 193.152 42.7234 192.991 43.1184C192.188 45.2341 192.422 47.4437 192.355 49.6331C192.338 49.9512 192.358 50.2703 192.415 50.5838C192.415 50.7043 192.77 50.8717 192.783 50.8583C193.111 50.4967 193.453 50.1151 193.714 49.7268C194.096 49.2246 194.464 48.7024 194.839 48.2002C195.077 47.941 195.301 47.6682 195.508 47.3834C195.849 46.8009 196.097 46.1715 196.465 45.6091C196.81 45.1404 197.184 44.6932 197.583 44.27C198.065 43.6808 198.588 43.1184 199.016 42.489C199.444 41.8597 199.9 40.9893 200.355 40.2595C200.773 39.5696 201.248 38.9156 201.774 38.3044C202.296 37.742 202.993 37.3403 203.515 36.7712C204.037 36.2021 204.606 35.3584 205.162 34.6554C205.295 34.4813 205.483 34.2336 205.657 34.2269C206.392 34.1734 207.131 34.1734 207.866 34.2269C208.536 34.2805 209.694 35.6396 209.694 36.2958C209.694 37.4273 209.921 38.6325 209.613 39.6837C208.649 42.9711 209.312 46.292 209.165 49.5929C209.142 49.7742 209.161 49.9583 209.22 50.1312C209.279 50.3041 209.377 50.4611 209.506 50.5903C209.636 50.7195 209.793 50.8175 209.966 50.8767C210.138 50.9359 210.323 50.9548 210.504 50.932C211.172 50.9795 211.844 50.9795 212.512 50.932C213.553 50.8977 214.539 50.4608 215.264 49.7134C215.321 49.6709 215.387 49.6433 215.458 49.6331C216.211 49.4708 216.95 49.2469 217.667 48.9635C218.253 48.6106 218.8 48.1977 219.3 47.7315C219.374 47.6723 219.455 47.6228 219.541 47.5843C220.241 47.3878 220.927 47.1485 221.597 46.8678C222.181 46.5435 222.743 46.1788 223.277 45.7765C223.317 45.7765 223.344 45.6961 223.384 45.6827C224.13 45.4656 224.845 45.1552 225.513 44.7588C225.941 44.4374 226.631 44.3035 226.705 43.4197C226.751 42.7502 227.434 42.1945 227.789 41.5584C228.07 41.0629 228.238 40.5072 228.519 40.0117C228.894 39.3422 229.336 38.7664 229.737 38.137C230.045 37.6483 230.3 37.1126 230.648 36.6574C231.109 36.0695 231.603 35.5084 232.127 34.9768C232.682 34.3715 233.27 33.797 233.888 33.2561C234.397 32.8276 235.106 32.5866 235.515 32.0978C236.017 31.4885 236.914 31.7965 237.382 30.993C237.644 30.5377 238.594 30.3904 239.264 30.3235C240.02 30.1997 240.791 30.1997 241.546 30.3235C242.437 30.4842 243.367 30.5779 244.017 31.4684C244.472 32.0978 245.309 32.4326 245.844 33.0218C246.222 33.4428 246.456 33.9725 246.514 34.5349C246.567 35.2513 246.895 36.1217 246.025 36.644C245.823 36.7753 245.594 36.8599 245.356 36.8917C244.686 36.9385 244.017 36.8917 243.347 36.9653C243.027 37.0234 242.729 37.1721 242.49 37.3938C242.115 37.7286 241.399 37.6349 241.319 37.1528C241.212 36.5502 240.79 35.8137 241.854 35.5057C242.136 35.4254 242.283 34.8362 242.524 34.5282C242.181 34.3831 241.817 34.2949 241.446 34.2671C240.884 34.3207 240.067 33.8721 239.859 34.8831C239.859 34.8831 239.772 34.9232 239.732 34.9433C238.985 35.0868 238.255 35.3113 237.556 35.6129C236.957 36.0337 236.414 36.5311 235.943 37.0925C235.583 37.4527 235.243 37.8327 234.926 38.2308C234.537 38.7329 234.196 39.2752 233.808 39.7841C233.52 40.1657 233.192 40.5206 232.87 40.8822C232.81 40.9491 232.656 40.9491 232.629 41.0094C232.402 41.5986 232.208 42.2011 231.96 42.7836C231.81 43.0642 231.642 43.3349 231.458 43.5938C231.369 43.7267 231.303 43.8739 231.264 44.029C231.016 45.0734 231.063 46.3322 230.467 47.1089C229.617 48.2337 230.072 49.3853 229.838 50.4967C229.637 51.4475 230.045 51.8358 231.016 51.6751C231.625 51.5613 232.422 51.9764 232.77 51.0725C232.77 51.0056 232.991 50.9989 233.111 50.9788C234.197 50.8787 235.218 50.4219 236.017 49.6799C236.433 49.2995 236.962 49.0645 237.523 49.0103C238.44 48.9367 238.755 48.2605 239.27 47.7181C239.711 47.3907 240.19 47.1186 240.696 46.908C241.366 46.5264 241.948 46.1045 242.584 45.7028C243.381 45.2007 244.197 44.7387 244.974 44.203C245.349 43.9022 245.702 43.5756 246.032 43.2255C246.144 43.1209 246.268 43.0288 246.4 42.951C246.919 42.6671 247.422 42.3542 247.906 42.0137C248.482 41.5517 248.87 40.9022 249.741 40.7683C249.957 40.6707 250.145 40.5201 250.288 40.3306C250.43 40.141 250.523 39.9185 250.557 39.6837C250.651 37.4474 250.604 35.2044 250.651 32.9882C250.651 32.6669 250.946 32.3589 251.079 32.0308C251.183 31.8207 251.248 31.5941 251.274 31.3613C251.314 30.4507 251.274 29.5401 251.354 28.6295C251.541 26.3933 251.414 24.0432 252.117 21.9743C252.592 20.575 252.244 19.1623 252.787 17.9571C253.456 16.4305 253.115 14.8973 253.342 13.3841C253.342 13.19 253.577 13.0159 253.704 12.8418C253.831 12.6677 253.958 12.6141 253.978 12.4802C254.206 10.8198 254.4 9.13254 254.648 7.48548C254.648 7.25783 254.936 7.07036 255.076 6.81593C255.19 6.68368 255.268 6.52472 255.304 6.35395C255.344 5.59067 255.304 4.82741 255.377 4.06413C255.418 3.54859 255.123 2.92589 255.933 2.57103C256.161 2.4706 256.12 1.56003 256.053 1.03109C255.946 0.133911 256.361 0.0334746 257.131 -0.0200886C258.162 -0.0870426 258.644 0.575817 259.327 1.12484C260.847 2.33671 260.284 4.07082 259.896 5.14208C259.508 6.21335 259.769 7.48545 259.227 8.38264C258.557 9.54094 258.946 10.6859 258.738 11.8174C258.617 12.4467 258.879 13.1096 258.169 13.672C257.854 13.9198 258.069 14.7901 257.995 15.3726C257.787 17.0532 257.995 18.9413 257.225 20.3607C256.455 21.7802 257.091 23.1326 256.556 24.3311C255.806 26.0451 256.248 27.7926 256.02 29.5133C256.02 29.6807 255.98 29.9619 255.906 29.982C255.056 30.2097 255.351 30.8926 255.351 31.4081C255.351 36.3806 255.351 41.3553 255.351 46.3322C255.351 46.7942 255.17 47.4235 255.973 47.5173C256.033 47.5173 256.067 47.8119 256.107 47.9659C256.301 48.6823 256.469 49.3987 256.703 50.1017C256.743 50.2155 257.058 50.2825 257.252 50.3026C257.868 50.3695 258.51 50.1486 258.986 50.8583C259.253 51.26 259.494 53.0276 259.126 53.4092C258.758 53.7909 258.397 54.5341 257.921 54.6479C257.084 54.8332 256.214 54.8171 255.384 54.601C254.695 54.3573 254.067 53.9666 253.543 53.4561C253.233 53.0687 252.961 52.6516 252.733 52.2108C252.438 51.8023 252.064 51.4676 251.782 51.0391C251.113 49.9276 250.403 48.7961 250.691 47.3901C250.731 47.1959 250.992 47.0553 251.053 46.8544C251.083 46.6323 251.083 46.407 251.053 46.1849C250.631 46.3389 250.544 44.8458 249.874 45.9841C249.667 46.3389 249.091 46.4929 248.669 46.7071C248.141 46.9816 247.592 47.216 247.069 47.4972C246.899 47.6118 246.751 47.7571 246.634 47.9257C246.127 48.7432 245.343 49.3514 244.425 49.6397C244.137 49.7134 243.923 50.0816 243.642 50.2557C243.24 50.5035 242.698 50.6039 242.417 50.9253C241.687 51.789 240.234 51.5948 239.739 52.8736C239.618 53.2017 238.922 53.349 238.474 53.5431C237.725 53.7665 236.997 54.0532 236.298 54.4002C235.18 55.0697 233.841 54.601 232.823 55.0697C232.167 55.4751 231.394 55.6472 230.628 55.5585C229.879 55.3148 229.158 54.9916 228.479 54.5943C228.358 54.5341 228.251 54.4203 228.124 54.4002C227.714 54.3327 227.335 54.137 227.043 53.8411C226.751 53.5452 226.559 53.1643 226.497 52.7531C226.443 52.5369 226.341 52.3354 226.2 52.1629C226.059 51.9905 225.882 51.8513 225.68 51.7555C224.931 51.5546 225.151 51.0257 225.111 50.5972C225.071 50.1687 225.145 49.5594 225.111 49.0505C225.07 48.79 224.996 48.5359 224.89 48.294C224.532 48.4217 224.181 48.5692 223.839 48.7359C223.578 48.8765 223.391 49.1577 223.123 49.2782C222.219 49.6866 222.032 50.9654 220.767 51.0391C220.191 51.0391 219.655 51.7086 219.106 52.1304C219.066 52.1589 219.024 52.1835 218.979 52.2041C217.841 52.6928 216.683 53.1481 215.558 53.6838C214.922 53.9851 214.38 54.6479 213.744 54.7282C212.611 54.7915 211.475 54.7511 210.35 54.6077C210.143 54.5562 209.941 54.4845 209.747 54.3935C209.205 54.2462 208.542 54.5943 208.188 53.7239C208.034 53.3356 207.264 53.2084 206.795 52.9339C206.67 52.8372 206.571 52.7105 206.507 52.5656C206.186 52.0367 205.838 51.5011 205.557 50.9587C205.383 50.6374 205.269 50.2892 205.101 49.9477C204.934 49.6063 204.726 49.3451 204.559 49.0304C204.47 48.8743 204.415 48.7007 204.398 48.5216C204.398 48.0328 204.398 47.5374 204.398 47.0419V45.5689L204.465 45.5756ZM150.173 56.5226H150.206C150.206 57.1922 150.206 57.9018 150.206 58.5915C150.248 58.9 150.315 59.2045 150.407 59.5021C150.567 59.3399 150.74 59.1899 150.922 59.0535C151.036 58.9798 151.217 59.0535 151.344 58.9597C151.871 58.7912 152.368 58.5404 152.817 58.2165C153.399 57.6742 153.808 56.9444 154.357 56.3619C154.906 55.7794 155.696 55.0697 156.365 54.4202C156.64 54.1591 156.894 53.8712 157.148 53.59C157.403 53.3088 157.818 52.8602 158.139 52.4719C158.527 51.9697 158.855 51.414 159.271 50.9386C159.686 50.4632 160.308 49.9008 160.837 49.3987C161.065 49.1777 161.386 49.0237 161.507 48.7291C161.788 48.2538 161.942 47.7048 162.223 47.2294C162.343 47.0218 162.725 46.975 162.892 46.7741C163.394 46.0242 163.809 45.2208 164.312 44.4776C164.559 44.116 164.981 43.8683 165.242 43.5335C165.503 43.1987 166.132 42.6564 166.099 42.2547C165.967 41.7025 165.626 41.2227 165.148 40.9156C164.673 40.5809 163.903 39.4025 164.291 39.1012C165.008 38.5454 164.8 37.8491 164.84 37.1863C164.84 36.8917 164.727 36.336 164.619 36.3226C164.073 36.2282 163.512 36.2603 162.979 36.4163C162.316 36.7616 161.68 37.1579 161.078 37.6014C160.616 37.8826 159.873 38.0165 159.706 38.4049C159.331 39.2953 158.106 39.456 158.032 40.5876C158.032 40.929 157.523 41.2571 157.262 41.5651C157.001 41.873 156.593 42.4154 156.312 42.8573C156.198 43.0313 156.191 43.2724 156.077 43.4465C155.702 44.0089 155.294 44.5512 154.906 45.1003C154.822 45.256 154.719 45.4001 154.598 45.5288C154.116 45.9305 153.44 46.1514 153.42 46.9549C153.42 47.129 153.192 47.2896 153.105 47.4704C152.742 48.118 152.422 48.789 152.148 49.479C151.86 50.3026 151.692 51.1663 151.478 52.0099C151.478 52.0769 151.398 52.1237 151.364 52.1907C150.937 52.8394 150.582 53.5332 150.307 54.2596C150.178 55.0066 150.133 55.7656 150.173 56.5226Z" fill="white"/>
<path d="M44.0769 22.2622C44.0769 27.2101 44.0769 32.1647 44.0769 37.1126C44.0769 38.0835 44.3647 38.358 45.2685 38.2442C45.8777 38.1705 46.5605 38.3714 47.1095 38.1772C49.0375 37.4675 51.086 37.9161 52.9873 37.4675C53.7706 37.28 54.5739 36.8649 55.3906 36.9921C55.8726 37.0658 56.2877 37.5545 56.7295 37.8558C56.6291 37.963 56.5488 38.1237 56.4216 38.1638C55.4107 38.4584 54.3731 38.666 53.3823 39.0275C52.6641 39.3432 51.9685 39.7079 51.3003 40.1189C51.2153 40.168 51.1224 40.2019 51.0258 40.2193C49.4593 40.4537 47.8861 40.6411 46.3396 40.9491C45.6098 41.1328 44.9058 41.4072 44.2442 41.766C44.1036 41.8396 44.1036 42.2681 44.1036 42.5292C44.1036 46.6938 43.7154 50.9252 44.3513 54.9961C44.82 58.009 44.6392 60.9818 44.9405 63.9545C45.0743 65.2132 45.3087 66.4653 45.4961 67.724C45.5697 68.2329 45.3354 68.4404 44.8266 68.3936C44.5053 68.3936 44.1572 68.3936 43.8626 68.3936C43.2922 68.3219 42.757 68.0787 42.3279 67.6961C41.8987 67.3135 41.5958 66.8096 41.4593 66.251C41.3043 65.763 41.1002 65.2919 40.8501 64.845C40.7925 64.6586 40.7654 64.4642 40.7698 64.2692C40.8325 63.1888 40.8079 62.1051 40.6961 61.0286C39.6786 55.5652 40.348 50.0549 40.0869 44.5713C40.0869 44.3973 40.0869 44.2299 40.0869 44.0558C40.0869 42.2212 39.6049 41.7526 37.8375 42.3284C37.2527 42.6185 36.6375 42.843 36.0032 42.9979C34.9857 43.1117 33.6869 43.0983 33.051 43.7009C31.9798 44.7253 30.8819 44.1026 29.8242 44.3035C28.425 44.5713 26.8116 44.4039 25.6535 45.0668C24.6292 45.6426 23.6116 45.2543 22.7882 45.6828C21.1748 46.5264 19.4811 46.0845 17.8476 46.3523C17.4367 46.4952 17.098 46.7932 16.9037 47.1825C16.5355 47.8521 16.3414 48.5618 15.9866 49.1912C15.6317 49.7894 15.2451 50.3683 14.8284 50.9253C14.5582 51.2169 14.3428 51.5548 14.1924 51.9229C13.9544 52.6786 13.4686 53.3321 12.8134 53.7775C12.492 54.0654 12.4251 54.6211 12.2242 55.0496C11.9357 55.7138 11.6117 56.362 11.2535 56.9913C10.9122 57.4844 10.5411 57.9562 10.1422 58.404C10.1021 58.4576 10.0284 58.4911 10.0083 58.5513C9.76065 59.2209 9.56651 59.8904 9.27864 60.5599C8.99078 61.2295 8.60919 61.7986 8.25438 62.4146C8.25438 62.4748 8.14058 62.5083 8.1138 62.5686C7.85636 63.3194 7.56143 64.0568 7.23012 64.7781C6.88126 65.3694 6.49439 65.9375 6.07195 66.4787C6.03253 66.5655 6.00766 66.6583 5.99832 66.7532C5.80082 67.6584 5.555 68.5524 5.26192 69.4314C4.94283 70.0576 4.5781 70.6596 4.17071 71.2324C4.07412 71.4056 4.03212 71.604 4.05021 71.8016C4.15732 72.7657 3.65522 73.0603 2.78493 73C2.32301 73 1.8477 73 1.38577 72.9665C1.20593 72.9667 1.02791 72.9305 0.862335 72.8603C0.696759 72.7901 0.547028 72.6873 0.422066 72.5579C0.297105 72.4286 0.199486 72.2753 0.135023 72.1074C0.0705606 71.9395 0.0405726 71.7603 0.0468671 71.5806C-0.0200783 70.4758 0.046872 69.4448 1.26528 68.9024C1.29875 68.9024 1.31214 68.8154 1.32553 68.7685C1.50799 68.0335 1.73149 67.3092 1.99498 66.5992C2.30962 65.8426 2.75147 65.1396 3.13306 64.4098C3.2067 64.2692 3.23347 64.1018 3.31381 63.9612C3.48786 63.6666 3.6887 63.3787 3.86276 63.0841C3.94979 62.9301 3.97656 62.736 4.06359 62.5887C4.40501 62.0262 4.73305 61.4772 5.11464 60.9282C5.1615 60.8479 5.27531 60.801 5.30208 60.7273C5.523 60.0042 5.56318 59.1338 6.00502 58.6049C6.38708 58.1026 6.68547 57.5419 6.88869 56.9444C6.99737 56.7138 7.12036 56.4902 7.2569 56.2749L8.40166 54.2663C8.46191 54.1658 8.5891 54.0721 8.58241 53.9851C8.52885 53.0544 9.30543 52.6929 9.80752 52.1438C9.80752 52.1438 9.84768 52.1438 9.86106 52.097C10.1556 51.4274 10.41 50.6641 10.7648 49.9879C11.1196 49.3117 11.5682 48.7961 11.9163 48.1734C12.2042 47.6579 12.3715 47.0754 12.6527 46.5666C12.7933 46.3188 13.1481 46.1916 13.282 45.9439C13.7841 44.9998 14.1991 44.0156 14.7213 43.0849C15.0774 42.5412 15.4641 42.0181 15.8795 41.5182C15.9464 41.4312 15.9531 41.2973 16.0133 41.1968C16.3815 40.6143 16.7565 40.0385 17.1313 39.4627C17.1313 39.4627 17.2385 39.4627 17.2518 39.3958C17.5464 38.6794 17.7941 37.9429 18.1355 37.2532C18.4769 36.5636 18.8853 36.028 19.2468 35.4053C19.5213 34.93 19.7489 34.4278 20.0234 33.9524C20.3916 33.323 20.7932 32.7071 21.1748 32.0777C21.2351 31.984 21.2686 31.8701 21.3288 31.7697C21.6301 31.2341 21.9313 30.7052 22.2393 30.1762C22.3732 29.9352 22.5271 29.7008 22.661 29.4531C23.0024 28.8237 23.3305 28.1743 23.6719 27.5516C24.0133 26.9289 24.6895 26.5941 24.8434 25.7104C24.9974 24.8266 25.774 24.2106 26.2828 23.4674C26.3363 23.3938 26.4836 23.3737 26.5171 23.3C26.8317 22.597 27.0861 21.8605 27.4543 21.1843C27.8053 20.6205 28.1852 20.0752 28.5924 19.5506C28.9137 19.0752 29.1815 18.5731 29.5095 18.1044C29.8376 17.6357 30.2392 17.167 30.6141 16.6984C30.8308 16.4746 31.0279 16.2327 31.2033 15.9752C31.5581 15.3057 31.8325 14.6362 32.2007 13.9666C32.4929 13.5153 32.8173 13.0857 33.1715 12.6811C33.225 12.6075 33.3589 12.5807 33.3857 12.507C33.6468 11.8375 33.8476 11.168 34.1489 10.4984C34.3468 10.1673 34.5979 9.871 34.892 9.62131C35.3673 9.11916 35.8694 8.63708 36.3514 8.14162C36.4883 8.00674 36.6116 7.85875 36.7196 7.69974C37.0878 7.15071 37.389 6.56819 37.8242 6.04595C38.3483 5.50017 38.8443 4.92809 39.3103 4.33193C39.4411 4.09401 39.6244 3.88915 39.8465 3.73296C40.0685 3.57677 40.3232 3.4734 40.5913 3.43076C40.8594 3.38812 41.1336 3.40735 41.3931 3.48695C41.6526 3.56655 41.8905 3.70443 42.0886 3.89005C42.493 4.20695 42.9204 4.49338 43.3672 4.74704C43.4074 4.74704 43.4677 4.79391 43.4743 4.83408C43.7776 5.57871 43.9824 6.35976 44.0836 7.15741C44.1036 12.2593 44.0769 17.2608 44.0769 22.2622ZM40.0601 24.532H40.1003C40.1003 20.2 40.1003 15.8279 40.0534 11.5295C40.0534 11.101 39.4509 10.6792 39.1229 10.264C39.1229 10.264 38.9087 10.331 38.8953 10.3913C38.7748 10.9202 38.2258 11.2684 38.0986 11.6031C37.697 12.4467 36.512 12.7749 36.6191 13.893C36.6191 13.9399 36.5321 14.0001 36.4986 14.0537L35.3873 15.6874C35.1932 15.9753 34.825 16.2632 34.8384 16.531C34.8719 17.4081 34.0953 17.629 33.707 18.158C33.3187 18.6869 33.0376 19.2426 32.6827 19.7916C32.6024 19.9255 32.5288 20.0661 32.4618 20.2067L31.3773 22.289C31.2635 22.5033 31.1698 22.7309 31.0426 22.9586C30.6866 23.454 30.3646 23.973 30.0786 24.5119C29.784 25.1814 29.6167 25.9112 29.4091 26.6076C29.4091 26.6879 29.2953 26.7482 29.2284 26.8084C28.7937 27.1115 28.4 27.4693 28.0568 27.873C27.5614 28.6296 26.6644 29.0514 26.497 30.1293C26.3966 30.7989 25.7003 31.3747 25.3188 32.0241C25.0644 32.466 24.9305 32.9816 24.6493 33.4168C24.2811 34.0394 23.6384 34.5751 23.4778 35.2312C23.1473 36.2249 22.6785 37.167 22.0853 38.0299C21.9514 38.271 21.5297 38.3647 21.4158 38.6057C21.1079 39.3891 20.9138 40.2059 20.6393 41.0027C20.5215 41.2161 20.3776 41.4141 20.2108 41.5919C20.1094 41.7023 20.0359 41.8355 19.9966 41.9802C19.9966 42.0739 20.1305 42.2078 20.2309 42.2748C20.6728 42.5426 21.0409 43.1854 21.6435 42.3418C21.8242 42.094 22.5807 42.2614 23.0694 42.228C23.5581 42.1945 24.1405 42.315 24.4083 42.0672C25.4527 41.2236 26.825 41.853 27.9497 41.0361C28.7129 40.4871 29.9581 40.929 31.0493 40.4202C32.261 39.8444 33.7271 40.6411 35.1263 39.6837C36.0033 39.0744 37.4158 39.215 38.594 39.0543C38.7969 39.0437 38.9955 38.9917 39.1777 38.9016C39.3598 38.8115 39.5216 38.6852 39.6533 38.5304C39.7849 38.3756 39.8835 38.1955 39.9431 38.0012C40.0027 37.8069 40.022 37.6026 39.9999 37.4005C40.0668 33.1021 40.0601 28.817 40.0601 24.532Z" fill="white"/>
<path d="M503.713 23.916C503.713 24.5052 503.713 25.1011 503.713 25.6903C503.679 26.1723 503.867 26.6879 503.144 27.0293C502.756 27.1967 502.648 27.9466 502.347 28.3684C502.047 28.7519 501.72 29.1143 501.37 29.4531C500.794 30.0891 500.225 30.7319 499.636 31.3546C499.409 31.5538 499.168 31.7351 498.913 31.8969C498.19 32.4526 497.46 33.0083 496.751 33.5774C496.57 33.7083 496.428 33.8868 496.342 34.093C496.259 34.4701 496.071 34.816 495.8 35.0908C495.528 35.3656 495.185 35.5582 494.809 35.6463C494.564 35.7215 494.337 35.8482 494.144 36.0179C493.951 36.1876 493.797 36.3965 493.691 36.6305C493.53 37.1729 493.296 37.9696 494.267 38.2642C494.474 38.3245 494.655 38.6994 494.709 38.9338C494.903 39.8577 496.315 39.1079 496.376 40.1724C496.376 40.1724 496.456 40.226 496.503 40.2327C498.725 40.6679 501.015 41.3307 503.197 40.7081C504.295 40.3934 505.38 40.5072 506.417 40.1992C507.32 39.862 508.202 39.4753 509.062 39.0409C509.323 38.9818 509.59 38.9503 509.858 38.9472C510.334 38.8601 511.003 39.1815 511.151 38.3647C511.151 38.3647 511.224 38.291 511.271 38.2843C512.342 38.0701 513.42 37.8424 514.498 37.6683C514.652 37.6683 515 37.9227 514.993 38.05C514.954 38.3779 514.854 38.6957 514.699 38.9873C514.612 39.1815 514.364 39.3221 514.344 39.5029C514.33 39.8716 514.18 40.222 513.923 40.4866C513.665 40.7511 513.319 40.9111 512.951 40.9357C512.319 41.138 511.719 41.4312 511.171 41.8061C510.501 42.1677 509.879 42.556 509.256 42.9644C508.633 43.3728 508.185 43.7679 507.636 44.1495C507.509 44.2142 507.37 44.2485 507.228 44.2499C506.685 44.2499 506.143 44.2499 505.601 44.3169C503.679 44.4776 501.758 44.7387 499.83 44.7855C498.913 44.8411 498.002 44.6068 497.226 44.116C496.416 43.5 495.492 43.3126 494.682 42.8506C494.053 42.3694 493.484 41.8141 492.988 41.1968C492.841 41.0495 492.613 40.9826 492.459 40.842C491.951 40.3398 491.489 39.7841 490.94 39.3221C490.667 39.0872 490.322 38.9526 489.962 38.9405C489.621 38.9405 489.065 39.1279 488.985 39.3623C488.866 39.7474 488.655 40.0974 488.369 40.3812C488.082 40.665 487.731 40.8738 487.345 40.9892C486.675 41.2705 486.22 42.094 485.658 42.6564C485.336 42.9778 484.941 43.2322 484.647 43.5737C484.024 44.2901 483.054 44.4843 482.404 44.973C481.42 45.7095 480.289 45.7095 479.318 46.2318C478.709 46.5598 478.14 46.9615 477.517 47.2561C477.182 47.372 476.833 47.4463 476.479 47.4771C475.356 47.7688 474.216 47.9924 473.065 48.1466C471.59 48.2393 470.111 48.255 468.633 48.1935C468.439 48.1935 468.252 47.9592 468.064 47.832C467.877 47.7048 467.817 47.5909 467.669 47.5574C466.535 47.2943 465.521 46.6577 464.791 45.7497C464.69 45.6292 464.403 45.6827 464.262 45.5823C464.016 45.3981 463.791 45.187 463.592 44.9529C463.177 44.4708 462.782 43.9754 462.374 43.4866C462.3 43.3996 462.16 43.3527 462.126 43.259C461.98 42.5347 461.734 41.834 461.397 41.1767C460.058 39.4092 460.975 37.4541 460.787 35.5995C460.741 35.1241 461.142 34.6019 461.336 34.1064C461.369 34.0396 461.396 33.9701 461.417 33.8988C461.638 32.8209 461.845 31.7295 462.086 30.6515C462.126 30.4775 462.334 30.3369 462.481 30.1963C462.628 30.0557 462.722 30.1226 462.722 30.0757C462.756 29.4665 463.278 28.9978 463.392 28.576C463.713 27.3976 464.516 26.8419 465.306 26.0987C466.008 25.4386 466.892 25.0048 467.844 24.8533C467.91 24.8533 468.031 24.8533 468.051 24.8065C468.567 23.608 469.102 24.07 469.658 24.8065C469.698 24.86 469.845 24.8466 469.946 24.8399C470.936 24.8399 471.452 25.5497 472.182 26.0183C473.346 26.7615 472.657 27.5583 472.777 28.3082C472.777 28.4488 472.463 28.7835 472.262 28.8103C471.651 28.8796 471.035 28.902 470.421 28.8773C469.954 28.8082 469.477 28.8897 469.059 29.1101C468.641 29.3304 468.305 29.678 468.098 30.1025C467.576 31.1202 466.873 32.0442 466.27 33.0217C466.19 33.1556 466.27 33.3632 466.21 33.5306C466.076 34.0863 466.471 34.7224 465.614 35.1776C465.166 35.4187 464.992 36.3962 464.945 37.0658C464.798 38.114 464.798 39.1777 464.945 40.226C465.2 40.9438 465.558 41.6205 466.009 42.2346C466.049 42.3149 466.143 42.3953 466.136 42.4756C466.076 43.2992 466.766 43.2456 467.214 43.6005C468.821 44.8592 470.561 43.9218 472.195 44.1696C472.389 44.1696 472.617 43.8884 472.864 43.7545C473.048 43.6403 473.25 43.5566 473.46 43.5067C474.545 43.2791 475.823 43.346 476.674 42.7836C477.711 42.1141 478.889 42.027 479.92 41.4981C480.523 41.1901 481.072 40.775 481.648 40.4068C481.681 40.4068 481.715 40.3331 481.755 40.3197C482.505 40.0785 483.232 39.7668 483.924 39.389C484.045 39.2152 484.12 39.0128 484.14 38.8015C484.16 38.5903 484.125 38.3774 484.038 38.1839C483.368 37.4675 483.549 36.8448 484.038 36.1753C484.526 35.5057 485.249 35.7066 485.818 35.4588C486.648 35.0906 487.666 34.7425 488.115 34.0662C488.354 33.7715 488.514 33.4207 488.579 33.047C488.645 32.6732 488.614 32.2889 488.489 31.9304C488.202 31.2608 488.563 30.2632 488.65 29.4196C488.737 28.576 488.764 27.9198 488.905 27.1833C489.022 26.8071 489.186 26.4472 489.393 26.1121C489.456 25.9852 489.508 25.853 489.547 25.717C489.734 24.8112 489.973 23.917 490.264 23.0389C490.567 22.4691 490.933 21.9346 491.355 21.4454C491.425 21.3474 491.473 21.2355 491.495 21.1173C491.495 20.2804 492.225 20.046 492.761 19.6376C493.084 19.4236 493.351 19.1341 493.537 18.794C493.912 17.937 494.923 17.9169 495.371 17.4549C496.429 16.3167 497.594 17.0867 498.665 16.859C498.853 16.8189 499.201 16.859 499.234 16.9193C499.556 17.783 500.419 18.0441 501.015 18.6065C501.376 18.9547 501.731 19.3096 502.086 19.6711C502.334 19.9255 502.555 20.2067 502.816 20.4545C503.86 21.3918 503.733 22.6639 503.713 23.916ZM493.356 28.6362L493.544 28.7634C493.548 29.0327 493.572 29.3013 493.618 29.5669C493.694 29.7777 493.793 29.9797 493.912 30.1695C494.046 30.0088 494.193 29.8548 494.307 29.6874C494.567 29.2011 494.867 28.7375 495.204 28.3014C495.76 27.7323 496.409 27.257 497.018 26.7414C497.514 26.3129 498.023 25.8978 498.498 25.4425C498.67 25.2338 498.822 25.0096 498.953 24.773C499.094 24.5654 499.315 24.398 499.388 24.1771C499.526 23.7412 499.62 23.2926 499.669 22.838C499.683 22.7377 499.674 22.6356 499.643 22.5394C499.611 22.4431 499.559 22.3552 499.489 22.2823C498.417 21.6998 496.516 22.5367 496.228 23.6749C496.198 23.8159 496.141 23.9499 496.061 24.0699C495.633 24.6859 494.836 25.0676 494.896 25.9849C494.896 26.0652 494.809 26.1455 494.762 26.2259L493.356 28.6362Z" fill="white"/>
<path d="M308.159 32.9012C306.608 32.9806 305.054 32.9627 303.506 32.8477C302.555 32.7272 301.672 32.1045 300.761 31.7027C300.647 31.6559 300.52 31.5755 300.427 31.6023C299.583 31.8299 299.476 30.8524 298.88 30.665C298.649 30.5708 298.438 30.4346 298.258 30.2632C298.013 30.0976 297.788 29.9044 297.588 29.6874C297.2 29.192 296.852 28.6697 296.49 28.1609C296.384 28.025 296.288 27.8818 296.202 27.7324C295.769 26.9896 295.382 26.2204 295.044 25.4292C294.892 24.9189 294.86 24.3804 294.95 23.8557C295.068 23.0361 295.236 22.2245 295.453 21.4253C295.54 21.2201 295.676 21.0388 295.848 20.8963C295.908 20.8294 296.068 20.8227 296.089 20.7624C296.323 20.1465 296.497 19.5171 296.758 18.9212C297.053 18.2083 297.414 17.5247 297.836 16.8791C298.307 16.2225 298.843 15.6147 299.436 15.0647C300.025 14.5023 300.708 14.0537 301.31 13.518C301.531 13.3239 301.611 12.9824 301.826 12.7748C302.636 11.9647 303.452 11.1612 304.309 10.4047C304.752 10.078 305.212 9.77625 305.688 9.5008C305.99 9.29324 306.251 9.03212 306.545 8.83126C307.34 8.2376 308.143 7.64391 308.955 7.05026C309.009 7.01008 309.083 6.93646 309.136 6.94985C309.993 7.18419 310.201 6.22001 310.83 6.03254C311.131 5.92245 311.413 5.76667 311.667 5.5706C312.283 5.16218 312.885 4.73367 313.494 4.31186C313.568 4.25829 313.615 4.15785 313.688 4.13107C314.371 3.92877 315.042 3.68733 315.697 3.40795C316.144 3.13118 316.557 2.80314 316.929 2.43045C316.929 2.43045 316.929 2.32329 316.996 2.3099C317.776 1.96633 318.581 1.6843 319.406 1.46631C320.767 1.14512 322.158 0.967812 323.556 0.937347C324.299 0.937347 325.029 1.60688 325.772 1.93496C325.981 2.04798 326.207 2.12496 326.442 2.16262C327.827 2.31661 328.45 3.09996 328.283 4.44573C328.283 4.57964 328.202 4.80062 328.129 4.81401C326.736 5.08852 325.33 5.34961 323.924 5.57726C323.811 5.57726 323.543 5.39649 323.543 5.29606C323.577 5.10935 323.665 4.9369 323.797 4.80061C323.917 4.67418 324.047 4.55773 324.185 4.45244C324.038 4.352 323.898 4.16453 323.75 4.15784C322.721 4.08749 321.687 4.08749 320.657 4.15784C320.249 4.2047 319.894 4.69347 319.493 4.95459C318.823 5.35631 318.194 5.73126 317.551 6.13299C317.318 6.28895 317.094 6.45888 316.882 6.64185C316.815 6.69541 316.781 6.82261 316.708 6.8427C315.978 7.07704 315.221 7.23773 314.525 7.51224C314.123 7.7512 313.75 8.0366 313.414 8.36257C313.18 8.53665 312.912 8.66386 312.671 8.82455L310.12 10.572C310.04 10.6256 309.98 10.7528 309.913 10.7595C308.761 10.8064 308.406 11.9045 307.637 12.4334C306.867 12.9623 306.827 14.0336 305.709 14.3148C305.073 14.4822 304.658 15.4597 304.122 16.0489C303.955 16.2364 303.687 16.3368 303.526 16.531C302.857 17.2876 302.187 18.0374 301.612 18.8476C301.237 19.3631 301.123 20.1331 300.668 20.508C300.045 21.0102 300.5 22.1015 299.536 22.3024C299.536 22.3024 299.463 22.3761 299.456 22.4229C299.094 23.762 298.619 25.1011 298.867 26.487C299.054 27.5516 300.239 28.5358 301.109 28.9442C303.466 30.0691 305.936 29.192 308.326 29.5468C308.755 29.6658 309.172 29.825 309.571 30.0222C309.786 30.1049 310.011 30.1546 310.241 30.1695C311.72 30.1695 313.206 30.1695 314.679 30.2364C317.283 30.4038 319.888 30.5779 322.472 30.906C323.342 31.0198 324.152 31.6291 324.989 32.0107C325.684 32.2589 326.356 32.5681 326.997 32.9347C327.667 33.3833 328.108 34.1332 328.785 34.5215C329.782 35.0973 329.454 36.2288 329.996 36.9988C330.284 37.3938 329.963 38.2375 329.876 38.8735C329.876 39.0409 329.621 39.2083 329.635 39.3556C329.755 40.4268 328.858 40.9491 328.47 41.7258C328.082 42.5025 327.385 43.0648 327.031 43.8281C326.541 44.7713 325.856 45.5998 325.022 46.2585C324.248 47.0558 323.53 47.9059 322.873 48.8028C322.676 48.9488 322.446 49.0453 322.204 49.084C321.166 49.4322 321.019 50.9052 319.754 50.9922C319.593 50.9922 319.513 51.481 319.312 51.6617C318.509 52.2643 317.565 52.6058 316.875 53.4628C316.319 54.1324 315.309 54.4738 314.525 54.9894C314.244 55.1702 314.037 55.4781 313.755 55.6589C313.039 56.1075 312.303 56.536 311.553 56.9176C311.004 57.1921 310.401 57.3595 309.839 57.5872C309.522 57.7531 309.216 57.9387 308.922 58.1429C308.862 58.1831 308.828 58.2768 308.775 58.2835C307.469 58.5178 306.258 59.3012 304.858 58.953C303.977 58.7747 303.106 58.5512 302.247 58.2835C301.973 58.1831 301.859 57.6876 301.578 57.5002C300.594 56.8306 300.681 55.8397 300.815 54.8822C300.862 54.5475 301.37 54.273 301.397 53.9449C301.429 53.4603 301.555 52.9868 301.77 52.5513C301.985 52.1159 302.284 51.7271 302.649 51.4073C303.145 50.9386 303.238 50.0682 303.606 49.3987C303.904 48.9916 304.235 48.6108 304.597 48.2605C304.805 48.0127 304.959 47.7115 305.173 47.4771C305.521 47.0888 305.903 46.7272 306.271 46.359C306.271 46.3255 306.345 46.2652 306.378 46.2652C306.411 46.2652 306.673 46.2652 306.719 46.3054C306.974 46.6536 307.201 47.0218 307.436 47.3767C306.519 47.7717 306.987 48.6154 306.853 49.2514C306.599 50.4365 306.438 51.635 306.184 52.8134C306.11 53.1481 305.702 53.3958 305.575 53.7373C305.528 53.8511 305.829 54.2194 306.037 54.293C307.021 54.6345 307.57 53.8779 308.219 53.3691C308.389 53.1962 308.609 53.0814 308.848 53.041C309.261 53.0352 309.667 52.927 310.028 52.726C310.389 52.525 310.694 52.2375 310.917 51.8894C310.917 51.8559 310.964 51.8023 311.004 51.7823C311.988 51.2935 313.012 50.8315 313.956 50.3093C314.26 50.0756 314.548 49.8229 314.82 49.5527C315.114 49.3317 315.489 49.1844 315.764 48.9769C316.18 48.7306 316.563 48.4313 316.902 48.0864C317.482 47.2485 318.253 46.5601 319.151 46.0778C319.769 45.6703 320.324 45.174 320.798 44.6048C321.468 44.0089 322.137 43.4331 322.713 42.797C323.015 42.4216 323.283 42.0206 323.516 41.5986C323.784 41.1835 324.025 40.7549 324.319 40.3599C324.701 39.8577 325.31 39.4426 325.484 38.8869C325.839 37.742 326.596 36.6373 326.154 35.345C326.123 35.2694 326.075 35.2014 326.015 35.1459C325.955 35.0904 325.883 35.0487 325.806 35.0237C324.273 34.8831 322.94 33.785 321.293 34.1466C320.965 34.2135 320.55 33.8319 320.169 33.6779C319.97 33.5885 319.757 33.5341 319.539 33.5172C318.703 33.477 317.866 33.5172 317.029 33.4369C314.077 33.236 311.124 33.0151 308.172 32.7673L308.159 32.9012Z" fill="white"/>
<path d="M410.016 32.4526C409.973 32.8442 409.973 33.2394 410.016 33.631C410.244 34.5684 409.548 35.017 409.066 35.5794C408.584 36.1418 407.867 36.8515 407.325 37.5278C406.783 38.204 406.482 38.8668 405.946 39.4493C405.352 39.9754 404.731 40.4693 404.085 40.929C403.101 41.7526 402.177 42.6364 401.173 43.4331C400.503 43.9821 399.687 44.3972 398.977 44.9195C398.875 45.0067 398.793 45.1157 398.739 45.2386C398.684 45.3614 398.658 45.4949 398.662 45.6292C398.701 45.7518 398.771 45.8624 398.864 45.9503C398.958 46.0382 399.073 46.1006 399.198 46.1313C400.156 46.205 401.118 46.205 402.077 46.1313C402.838 46.124 403.584 45.9162 404.239 45.5288C405.123 44.8592 406.18 44.7253 407.097 44.2633C407.904 43.7604 408.66 43.1795 409.354 42.5292C409.427 42.469 409.487 42.3752 409.568 42.3418C410.237 42.094 410.907 41.8999 411.576 41.5986C412.124 41.3042 412.65 40.9708 413.149 40.6009C413.966 40.0752 414.755 39.5076 415.512 38.9003C415.947 38.429 416.346 37.9254 416.704 37.3938C416.999 37.0457 417.374 36.7243 417.655 36.4096C417.956 36.7779 418.431 37.0792 418.525 37.5144C418.61 38.1961 418.628 38.8846 418.579 39.5699C418.579 39.8733 418.491 40.1703 418.324 40.4239C418.158 40.6775 417.92 40.8764 417.641 40.996C417.28 41.2236 417.039 41.6655 416.691 41.9132C415.934 42.4957 415.66 43.3661 415.238 44.1562C415.05 44.4218 414.79 44.6284 414.488 44.7521C413.819 45.0869 413.149 45.3614 412.54 45.6895C412.132 45.8231 411.763 46.0527 411.462 46.359C411.001 47.0234 410.3 47.4839 409.507 47.6445C408.912 47.8387 408.456 48.4546 407.941 48.8831C407.907 48.8831 407.881 48.9635 407.847 48.9769C407.071 49.2045 406.294 49.3987 405.531 49.6464C405.183 49.7926 404.843 49.958 404.513 50.1419C404.324 50.2372 404.116 50.292 403.904 50.3026C402.793 50.3026 401.688 50.3428 400.557 50.3026C400.309 50.3026 400.075 50.0482 399.841 49.9009C399.733 49.8406 399.653 49.7268 399.546 49.7C398.649 49.4523 397.732 49.2581 396.868 48.9568C396.565 48.7953 396.317 48.5455 396.159 48.2404C395.636 47.5337 394.862 47.0545 393.996 46.9013C393.086 46.5709 392.224 46.1206 391.432 45.5622C391.108 45.28 390.82 44.9584 390.575 44.6048C390.481 44.4855 390.36 44.3912 390.221 44.3303C389.886 44.2231 389.263 44.1897 389.243 44.0558C389.065 43.3164 389.065 42.5455 389.243 41.8061C389.404 41.3843 390.22 41.0361 390.776 40.9759C391.579 40.8888 392.048 40.7951 391.934 39.8243C391.857 39.0867 391.871 38.3424 391.974 37.6081C392.115 36.5368 392.035 35.2045 392.644 34.4814C393.374 33.6043 393.032 32.3924 393.896 31.7295C394.759 31.0667 394.826 30.1092 395.308 29.3192C395.816 28.6746 396.398 28.0924 397.042 27.5851C397.317 27.3106 397.558 27.0026 397.852 26.7481C398.09 26.5721 398.338 26.4111 398.595 26.2661C398.796 26.1255 398.997 25.9782 399.191 25.8175C399.251 25.7639 399.258 25.6032 399.325 25.5831C400.035 25.3488 400.758 25.1546 401.461 24.9136C401.862 24.7663 402.231 24.3914 402.625 24.3713C403.266 24.3711 403.904 24.4475 404.527 24.5989C404.734 24.6391 404.908 24.8667 405.109 24.8801C405.443 24.9106 405.764 25.0296 406.037 25.225C406.31 25.4203 406.526 25.685 406.662 25.9916C406.816 26.2728 407.171 26.4469 407.425 26.6611L409.072 28.1676C409.126 28.2145 409.193 28.2546 409.22 28.3149C409.715 29.5468 410.318 30.7587 410.043 32.158C410.033 32.256 410.033 32.3547 410.043 32.4526H410.016ZM406.261 30.444C406.113 29.8084 405.777 29.2321 405.297 28.7903C405.173 28.6175 405.009 28.4767 404.82 28.3796C404.631 28.2825 404.421 28.2318 404.209 28.2318C403.996 28.2318 403.787 28.2825 403.597 28.3796C403.408 28.4767 403.245 28.6175 403.121 28.7903C402.893 29.0525 402.627 29.2783 402.331 29.4598C401.775 29.7879 401.046 29.9285 400.637 30.3771C399.896 31.2207 399.237 32.1332 398.669 33.1021C398.17 33.935 397.722 34.7981 397.33 35.6865C397.176 36.028 397.25 36.731 397.089 36.7712C396.319 36.9653 396.607 37.5612 396.48 38.0031C396.383 38.3834 396.243 38.7517 396.065 39.1012C395.969 39.2167 395.909 39.3577 395.891 39.5068C395.874 39.656 395.9 39.8071 395.966 39.9417C396.033 40.0763 396.137 40.1887 396.266 40.2653C396.395 40.3419 396.544 40.3795 396.694 40.3733C396.968 40.4001 397.243 40.3418 397.483 40.2065C397.723 40.0711 397.915 39.8652 398.033 39.6167C398.591 39.0186 399.205 38.4759 399.867 37.9964C400.43 37.4742 400.952 36.9118 401.481 36.3494C401.658 36.105 401.848 35.8703 402.05 35.6464C402.639 35.1241 403.509 34.7558 403.817 34.1131C404.232 33.2427 405.37 32.9548 405.41 31.8032C405.471 31.3211 405.979 30.8725 406.261 30.4172V30.444Z" fill="white"/>
<path d="M441.367 30.9863C441.367 31.9505 441.367 32.9079 441.367 33.872C441.367 34.3407 441.112 34.9031 441.902 35.2111C442.11 35.2915 442.07 36.1619 442.083 36.664C442.083 37.3336 442.337 37.4943 442.98 37.7621C445.517 38.8133 448.121 38.1237 450.685 38.2107C451.99 38.3247 453.299 38.0645 454.461 37.4608C455.532 36.7912 456.53 37.0256 457.561 36.8783C457.708 36.8783 458.029 37.1997 458.076 37.4139C458.134 37.8287 458.146 38.2487 458.11 38.666C458.11 39.5899 457.494 40.005 456.771 40.3465C456.048 40.688 455.432 41.0964 454.762 41.478C454.707 41.525 454.643 41.5613 454.575 41.5852C453.444 41.8195 452.218 41.8597 451.194 42.3351C449.782 43.0046 448.362 42.9309 446.91 42.951C446.25 42.9677 445.604 42.7626 445.075 42.3685C444.406 41.9065 443.402 41.9467 442.639 41.5785C441.973 41.1941 441.365 40.7186 440.831 40.1657C440.44 39.8213 440.097 39.4248 439.813 38.9873C439.439 38.4249 438.662 38.1638 438.642 37.2934C438.642 36.9653 438.207 36.6239 437.972 36.3159C437.728 36.0132 437.535 35.6714 437.403 35.3049C437.142 33.9658 436.962 32.6267 436.734 31.2876C436.717 31.2128 436.685 31.1423 436.639 31.0811C436.592 31.0199 436.534 30.9693 436.466 30.9328C436.398 30.9194 436.328 30.9228 436.261 30.9426C436.195 30.9625 436.134 30.9982 436.085 31.0466C435.415 32.0442 434.217 32.5731 433.976 33.9189C433.902 34.334 433.233 34.642 432.858 35.0237C432.744 35.1442 432.737 35.3584 432.637 35.5057C432.309 36.0079 431.968 36.5033 431.626 36.9988C431.586 37.0591 431.479 37.0792 431.459 37.1394C431.144 38.2843 430.408 39.3489 430.789 40.621C430.977 41.2906 431.231 41.9601 431.358 42.6297C431.405 42.8975 431.157 43.4599 431.044 43.4599C430.509 43.5192 429.968 43.4264 429.484 43.192C428.955 42.8372 427.683 42.8439 427.301 43.3594C426.712 44.1562 426.351 45.281 424.925 44.9262C424.583 44.872 424.257 44.7424 423.971 44.5467C423.685 44.351 423.446 44.0941 423.271 43.7946C423.102 43.557 422.914 43.3331 422.709 43.1251C422.294 42.5962 421.879 42.0539 421.491 41.5048C421.437 41.3665 421.42 41.2163 421.444 41.0696C421.444 39.3958 421.39 37.7219 421.484 36.0481C421.462 35.0614 421.668 34.083 422.086 33.1891C423.459 30.9194 422.414 28.5024 422.756 26.1924C422.829 25.6501 422.917 25.3823 423.492 25.4225C423.957 25.4826 424.427 25.4826 424.891 25.4225C425.855 25.2216 426.391 26.092 426.632 26.5339C427.301 27.7324 427.83 29.0916 426.9 30.511C426.672 30.8524 426.793 31.4216 426.786 31.8902C426.786 33.1423 426.752 34.401 426.786 35.6531C426.786 35.8405 426.973 36.028 427.08 36.2087C427.174 36.048 427.255 35.874 427.362 35.7133C427.469 35.5526 427.716 35.2044 427.904 34.9634C427.957 34.8898 428.078 34.8496 428.098 34.776C428.332 34.0528 428.493 33.3029 428.768 32.6066C428.979 32.1712 429.277 31.7838 429.644 31.4684C430.12 31.0399 429.872 30.1695 430.736 29.9284C431.037 29.8414 431.137 29.1317 431.405 28.7367C431.653 28.3246 431.945 27.9407 432.275 27.5918C432.635 27.257 433.02 26.9504 433.427 26.6745C433.908 26.2257 434.443 25.8388 435.02 25.5229C436.1 25.0013 437.298 24.7705 438.495 24.8534C439.291 24.9471 439.901 25.0609 440.188 25.9447C440.289 26.2393 440.764 26.4 441.012 26.6678C441.231 26.8728 441.379 27.1427 441.434 27.4378C441.48 28.5961 441.434 29.7544 441.434 30.906L441.367 30.9863Z" fill="white"/>
<path d="M102.975 57.2725C102.975 59.1204 102.975 60.6202 102.975 62.1735C102.975 62.8431 102.701 63.1176 102.038 63.0707C101.592 63.0436 101.145 63.0436 100.699 63.0707C99.9629 63.1242 99.6081 62.9234 99.4943 62.0664C99.4072 61.3968 98.7177 60.8746 98.5302 60.2185C98.4136 59.617 98.4136 58.9987 98.5302 58.3973C98.5637 58.1295 98.8784 57.8884 98.8851 57.634C98.9453 55.5651 98.885 53.4896 99.0056 51.4274C99.1127 49.613 99.1127 47.6981 99.7286 46.0711C100 45.1653 100.18 44.2344 100.264 43.2925C100.418 42.402 99.983 42.2078 99.2064 42.2212C96.8901 42.2614 94.5738 42.2748 92.2575 42.2748C91.193 42.2748 90.1286 42.3685 89.5462 41.0495C89.4257 40.7817 88.8767 40.5741 88.8767 40.0318C88.8686 39.8099 88.9054 39.5887 88.9849 39.3814C89.0645 39.1741 89.1851 38.9851 89.3396 38.8256C89.494 38.6661 89.6791 38.5395 89.8837 38.4534C90.0884 38.3673 90.3083 38.3234 90.5303 38.3245C93.3888 38.3245 96.2474 38.3245 99.1127 38.2642C100.693 38.2642 100.974 37.8625 101.074 36.2556C101.195 34.3943 101.027 32.3321 101.79 30.7453C102.554 29.1585 101.971 27.7324 102.406 26.3129C102.471 26.145 102.572 25.9931 102.701 25.8682C102.831 25.7433 102.986 25.6483 103.156 25.5898C103.645 25.5296 104.14 25.5296 104.629 25.5898C105.566 25.5898 105.908 26.4201 106.457 26.9289C107.16 27.5984 107.093 28.3416 106.457 29.0714C106.377 29.2499 106.347 29.4465 106.37 29.6405C106.37 30.598 106.37 31.5688 106.262 32.5196C106.155 33.4703 105.774 34.4546 105.653 35.4388C105.636 35.6384 105.663 35.8395 105.733 36.0271C105.804 36.2148 105.915 36.3843 106.06 36.5231C106.204 36.6619 106.378 36.7664 106.568 36.8291C106.759 36.8917 106.961 36.9108 107.16 36.885C108.311 36.731 109.71 36.8381 110.54 36.2154C111.625 35.412 112.689 35.8137 113.727 35.5459C114.537 35.3383 115.648 35.4321 116.117 34.9232C117.074 33.872 118.205 34.5282 119.183 34.2068C120.16 33.8854 121.004 33.4502 121.928 33.1155C122.069 33.0539 122.222 33.0222 122.376 33.0222C122.531 33.0222 122.683 33.0539 122.825 33.1155C122.918 33.2367 122.986 33.3761 123.023 33.5248C123.06 33.6735 123.065 33.8282 123.039 33.9792C123.039 34.0997 122.637 34.1599 122.436 34.2804C121.928 34.5884 121.432 34.9031 120.937 35.2312C120.843 35.2982 120.81 35.4588 120.716 35.499C120.006 35.8003 119.263 36.0146 118.587 36.3694C118.022 36.7206 117.479 37.1051 116.96 37.521C116.826 37.6081 116.632 37.5947 116.498 37.675C115.916 38.0098 115.36 38.3915 114.771 38.7128C114.493 38.8418 114.198 38.9297 113.894 38.9739C112.756 39.2016 111.303 39.0543 110.547 39.7172C109.576 40.5608 108.666 40.1256 107.755 40.3264C106.887 40.5014 106.028 40.725 105.185 40.996C105.017 41.0495 105.051 41.6052 104.944 41.9132C104.836 42.2212 104.595 42.71 104.448 43.1117C104.366 43.3374 104.318 43.5746 104.308 43.8147C104.308 44.9998 104.348 46.1916 104.241 47.3633C104.1 48.9166 104.241 50.711 103.518 51.9563C102.527 53.8377 103.484 55.7325 102.975 57.2725Z" fill="white"/>
<path d="M349.116 54.9291C348.582 55.0203 348.036 55.0203 347.503 54.9291C346.431 54.514 345.106 54.7416 344.262 53.7105C344.189 53.6235 343.974 53.6369 343.834 53.6436C343.064 53.6905 342.776 53.1013 342.395 52.6058C342.207 52.3581 341.872 52.2242 341.672 51.9831C341.223 51.4542 340.848 50.865 340.386 50.3428C339.677 49.546 339.523 47.0754 340.132 46.1113C340.23 45.8876 340.28 45.6458 340.279 45.4016C340.346 44.9262 340.132 44.3838 340.821 44.116C340.982 44.0491 340.975 43.4933 341.009 43.1586C341.018 42.6217 341.135 42.092 341.352 41.6009C341.569 41.1099 341.883 40.6674 342.274 40.2997C342.515 40.0068 342.708 39.6766 342.843 39.3221C343.298 38.3799 343.812 37.4674 344.383 36.5904C344.909 36.0042 345.494 35.4746 346.13 35.0103L347.683 33.6712C347.939 33.4312 348.209 33.2076 348.493 33.0017C348.982 32.6937 349.518 32.4459 349.993 32.1179C350.468 31.7898 350.756 31.2542 351.205 31.1671C352.031 31.0533 352.869 31.0533 353.695 31.1671C353.949 31.1671 354.137 31.6559 354.405 31.7295C355.382 31.9973 355.583 33.0686 356.292 33.5507C356.634 33.8051 356.4 34.8898 356.025 35.0639C355.722 35.244 355.449 35.4698 355.215 35.7334C354.699 36.3446 354.145 36.9215 353.554 37.4608C353.371 37.5254 353.174 37.5457 352.981 37.5201C352.788 37.4945 352.604 37.4237 352.443 37.3135C351.908 36.9252 351.492 36.6841 351.037 37.3671C350.977 37.4608 350.863 37.588 350.776 37.588C349.571 37.6282 349.21 38.7262 348.467 39.3422C347.723 39.9582 347.583 40.8956 347 41.5048C346.39 42.2607 345.881 43.0936 345.487 43.9821C345.092 44.6517 345.333 45.5422 344.912 45.9908C343.774 47.1625 344.463 48.4948 344.349 49.7469C344.349 49.941 344.677 50.316 344.898 50.3561C346.133 50.6425 347.389 50.8239 348.654 50.8985C349.605 50.8985 350.769 50.8248 351.452 50.2892C352.135 49.7536 352.918 49.9477 353.407 49.5728C354.077 49.0773 354.746 49.2447 355.362 48.9903C355.973 48.6476 356.544 48.2365 357.062 47.765C357.133 47.7052 357.215 47.6597 357.303 47.6311C358.009 47.4471 358.704 47.2235 359.385 46.9616C359.955 46.6337 360.503 46.2692 361.025 45.8702C361.139 45.7966 361.3 45.7966 361.414 45.7296C361.989 45.3815 362.565 45.0601 363.134 44.665C363.228 44.6048 363.302 44.4441 363.382 44.4508C364.292 44.4508 364.567 43.4733 365.243 43.259C366.147 42.9778 366.582 42.0672 367.345 41.8262C368.503 41.4513 369.086 40.6344 369.862 39.8779C370.164 39.5833 371.087 39.8778 371.717 39.9917C371.965 40.0903 372.192 40.2358 372.386 40.4202C372.614 40.5742 373.022 40.7415 373.022 40.9022C373.022 41.0629 372.728 41.4178 372.614 41.6923C372.299 42.4756 370.84 42.1543 370.994 43.3728V43.4398C369.969 43.4398 369.876 44.424 369.38 44.9931C368.855 45.6209 368.287 46.2115 367.68 46.7607C367.265 47.1223 366.709 47.3097 366.274 47.6512C365.864 48.0101 365.479 48.3972 365.123 48.8095C365.062 48.8698 365.056 49.0171 364.989 49.0439C364.319 49.2849 363.65 49.4724 362.98 49.7134C362.605 49.903 362.249 50.1272 361.916 50.3829C361.354 50.7713 360.818 51.1931 360.236 51.5345C359.762 51.8077 359.262 52.032 358.743 52.2041C357.805 52.5188 356.52 52.4987 355.991 53.128C355.322 53.9717 353.949 53.0142 353.648 54.273C353.648 54.273 353.514 54.3198 353.447 54.3332L349.102 55.0898L349.116 54.9291Z" fill="white"/>
<path d="M62.1655 59.3213C62.1655 58.3371 62.1253 57.3529 62.1655 56.3686C62.1655 55.8196 61.891 55.1032 62.7412 54.8153C62.835 54.7818 62.835 54.4069 62.8416 54.1926C62.8751 52.7598 62.6341 51.2667 62.9755 49.921C63.4843 47.9123 62.9755 45.7631 63.645 43.942C64.1337 42.5627 63.7722 41.1634 64.3145 39.9984C64.8567 38.8334 64.5287 37.8558 64.8567 36.8649C65.1662 36.1595 65.5452 35.4866 65.9881 34.8563C66.0195 34.7921 66.0442 34.7247 66.0617 34.6554C66.1621 34.2939 66.2157 33.6511 66.363 33.6243C67.054 33.4467 67.7801 33.4582 68.4651 33.6578C68.7436 33.8276 68.9823 34.0554 69.1648 34.3258C69.3473 34.5962 69.4694 34.9027 69.5228 35.2245C69.6567 36.2757 69.9044 37.7286 69.3554 38.3781C68.4182 39.4761 69.2617 40.8621 68.2977 41.8798C67.9295 42.2681 68.2375 43.259 68.137 43.962C68.0077 44.5659 67.8468 45.1626 67.655 45.7497C67.6395 45.8109 67.6368 45.8746 67.6472 45.9368C67.6575 45.9991 67.6807 46.0585 67.7153 46.1113C67.8857 46.313 68.0739 46.4989 68.2776 46.667C68.3513 46.7339 68.532 46.8143 68.5521 46.7875C68.9025 46.5068 69.1957 46.1613 69.4157 45.7698C69.6114 45.0928 70.066 44.5203 70.681 44.1763C71.3169 43.8014 71.6784 42.9778 72.1939 42.3819C72.3747 42.1811 72.6893 42.094 72.8968 41.9065C73.4871 41.4054 74.0398 40.8616 74.5504 40.2796C75.1529 39.5431 75.9897 39.2685 76.7395 38.7999C77.5485 38.3029 78.4108 37.8986 79.3102 37.5947C79.9328 37.3805 80.4215 36.818 81.0374 36.5837C81.6706 36.4353 82.3122 36.3258 82.9587 36.2556C83.416 36.1243 83.8634 35.961 84.2977 35.7669C84.3646 35.7669 84.4516 35.6597 84.4918 35.6798C85.0809 35.9343 85.9646 36.0614 86.1587 36.4966C86.3414 36.8036 86.4074 37.1661 86.3447 37.5177C86.282 37.8694 86.0948 38.1867 85.8173 38.4116C85.0913 39.0811 84.1824 39.5192 83.2064 39.6703C82.537 39.7841 82.0081 40.3867 81.3922 40.7215C80.7763 41.0563 80.0533 41.3375 79.3839 41.7124C78.968 41.9967 78.5762 42.3147 78.2123 42.6631C77.8885 42.9561 77.5488 43.231 77.1947 43.4867C76.465 43.9888 75.6885 44.4307 74.9789 44.9664C74.6979 45.1976 74.4927 45.5078 74.3897 45.8569C74.0349 47.0219 73.0508 47.5642 72.2475 48.3542C71.8123 48.8095 71.7052 49.5728 71.3906 50.1687C71.0759 50.7646 70.7211 51.2332 70.3663 51.7756C70.0451 52.2188 69.7756 52.6973 69.563 53.2017C69.4726 53.7308 69.2414 54.2258 68.8935 54.6345C68.4115 55.1099 68.4249 56.0607 68.1638 56.7838C68.0269 57.0663 67.8536 57.3296 67.6483 57.5671C67.5747 57.6742 67.4609 57.7814 67.4475 57.9019C67.2333 59.7498 67.0057 61.5977 66.845 63.4524C66.8545 63.6521 66.8222 63.8517 66.7503 64.0383C66.6784 64.2249 66.5684 64.3945 66.4273 64.5363C66.2862 64.678 66.1171 64.7888 65.9309 64.8616C65.7446 64.9343 65.5452 64.9674 65.3454 64.9588C64.5421 64.9588 63.6316 65.153 63.1027 64.383C62.7145 63.8072 61.8776 63.5126 62.0383 62.5083C62.1356 61.4532 62.149 60.392 62.0785 59.3347L62.1655 59.3213Z" fill="white"/>
<path d="M374.495 42.2681C374.451 41.5792 374.451 40.8882 374.495 40.1992C374.649 38.9539 374.495 37.434 375.164 36.5435C376.088 35.325 375.599 34.1466 375.794 32.9749C375.941 32.0911 376.517 31.589 377.233 31.6827C377.949 31.7764 378.525 32.3522 379.161 32.7138C380.312 33.3833 379.723 34.5082 379.79 35.4455C379.912 36.2261 379.891 37.0222 379.73 37.7956C378.933 40.3934 379.268 43.0448 379.101 45.6694C379.067 46.2184 378.371 46.6603 379.101 47.3031C379.348 47.5106 379.188 48.2471 379.154 48.7359C379.154 49.1108 378.137 49.4456 377.815 49.2046C377.742 49.1443 377.655 49.064 377.581 49.0707C376.543 49.1778 376.242 48.3074 375.787 47.7316C375.392 47.2495 374.997 46.7674 374.629 46.2586C374.509 46.0946 374.442 45.8988 374.435 45.6962C374.435 44.558 374.435 43.4264 374.435 42.2949L374.495 42.2681Z" fill="white"/>
<path d="M384.483 30.2364C383.919 30.2004 383.374 30.0161 382.904 29.7022C382.434 29.3883 382.055 28.956 381.805 28.4488C381.644 28.171 381.398 27.9527 381.102 27.8261C380.333 27.478 380.707 25.9715 379.415 26.1924C379.375 25.4827 378.364 25.5229 378.351 24.6056C378.351 24.0164 377.735 23.3737 377.273 22.8715C376.811 22.3693 376.162 20.2871 376.657 19.9121C376.907 19.7493 377.193 19.6517 377.49 19.6283C377.787 19.6049 378.086 19.6565 378.358 19.7782C379.332 20.5696 380.239 21.4408 381.069 22.3827C381.176 22.4899 381.069 22.7778 381.156 22.9518C381.243 23.1259 381.464 23.4339 381.605 23.6817C381.745 23.9294 381.785 24.1101 381.913 24.2976C382.207 24.7529 382.522 25.1948 382.836 25.6367C382.93 25.7639 383.044 25.8844 383.138 26.0116C383.687 26.7481 384.215 27.5047 384.791 28.2278C385.086 28.6028 385.541 28.8974 385.749 29.2924C385.956 29.6874 386.157 30.357 385.22 30.2766C384.979 30.223 384.731 30.2364 384.483 30.2364Z" fill="white"/>
</svg>
