<svg width="291" height="358" viewBox="0 0 291 358" fill="none" xmlns="http://www.w3.org/2000/svg">
<rect x="79" y="104" width="136" height="83" fill="#333333"/>
<g clip-path="url(#clip0_248_595)">
<path d="M129.625 130.718L130.657 125.154C131.16 122.385 132.546 120.873 133.728 120.873C134.634 120.873 134.936 121.488 134.936 122.359C134.933 122.832 134.891 123.304 134.811 123.769L133.525 130.718H137.15L138.509 123.436C138.624 122.733 138.691 122.022 138.71 121.308C138.71 119.155 137.578 117.899 135.565 117.899C134.708 117.896 133.864 118.109 133.108 118.521C132.352 118.932 131.708 119.528 131.233 120.256H131.183L131.435 118.179H128.215C128.064 119.281 127.863 120.666 127.563 122.255L126.002 130.717L129.625 130.718ZM150.217 127.333C149.143 127.866 147.962 128.138 146.768 128.128C146.326 128.165 145.882 128.096 145.471 127.926C145.06 127.757 144.694 127.493 144.401 127.154C144.162 126.77 144.032 126.326 144.024 125.872C148.958 126 152.004 124.845 152.004 121.641C152.004 119.309 150.217 117.898 147.724 117.898C143.268 117.898 140.55 121.872 140.55 125.694C140.55 128.951 142.362 130.976 145.887 130.976C147.466 131.004 149.032 130.671 150.468 130.002L150.217 127.333ZM148.606 121.667C148.606 122.796 147.196 123.205 144.377 123.178C144.494 122.474 144.846 121.832 145.373 121.36C145.901 120.889 146.571 120.616 147.272 120.589C148.103 120.59 148.606 121.027 148.606 121.667ZM153.616 118.181L156.511 124.23L151.174 130.718H155.353L156.812 128.538C157.366 127.667 157.719 127.027 158.071 126.436H158.146C158.373 127.179 158.574 127.794 158.927 128.718L159.707 130.718H163.683L160.816 124.257L166.001 118.181H161.848L160.488 120.155C159.959 120.925 159.632 121.488 159.179 122.155H159.104C158.926 121.668 158.701 121.053 158.323 120.053L157.593 118.179L153.616 118.181Z" fill="white"/>
</g>
<path d="M110.708 141.788C109.808 143.312 107.876 145.22 105.8 146.288C106.112 146.588 106.52 147.116 106.7 147.44C108.68 146.324 110.528 144.656 111.5 143.192C112.532 144.668 114.536 146.396 116.396 147.428C116.672 146.984 116.996 146.516 117.356 146.144C115.436 145.316 113.468 143.684 112.172 141.788H110.708ZM112.376 149.024H115.592V147.764H112.376V145.196H110.876V151.424H109.172V147.26H107.768V151.424H106.46V152.72H116.672V151.424H112.376V149.024ZM127.676 150.992H120.428V144.68H119.036V153.044H120.428V152.336H127.676V153.032H129.056V144.68H127.676V150.992ZM125.66 147.02H124.616V146.012H125.66V147.02ZM125.66 149.12H124.616V148.1H125.66V149.12ZM122.348 148.1H123.392V149.12H122.348V148.1ZM122.348 146.012H123.392V147.02H122.348V146.012ZM118.676 142.556V143.888H123.284V144.848H121.184V150.284H126.896V144.848H124.712V143.888H129.416V142.556H118.676ZM133.52 145.904C132.68 145.904 131.984 146.6 131.984 147.44C131.984 148.28 132.68 148.976 133.52 148.976C134.36 148.976 135.056 148.28 135.056 147.44C135.056 146.6 134.36 145.904 133.52 145.904ZM148.508 144.008C148.316 143.444 147.788 142.616 147.308 141.98L146.228 142.544C146.696 143.18 147.164 144.08 147.356 144.632L148.508 144.008ZM141.308 143.84C141.224 143.312 140.984 142.472 140.72 141.848L139.544 142.112C139.784 142.772 140 143.636 140.048 144.176L141.308 143.84ZM139.364 144.068C139.256 143.528 138.908 142.712 138.56 142.1L137.396 142.472C137.72 143.108 138.044 143.96 138.128 144.488L139.364 144.068ZM138.968 147.356H140.036V148.04H138.968V147.356ZM138.968 145.676H140.036V146.372H138.968V145.676ZM142.244 146.372H141.224V145.676H142.244V146.372ZM142.244 148.04H141.224V147.356H142.244V148.04ZM143.792 151.064V149.804H141.308V149.096H143.468V144.632H142.688C143.084 144.044 143.6 143.12 144.032 142.268L142.556 141.872C142.352 142.628 141.92 143.624 141.548 144.272L142.64 144.632H137.816V149.096H139.952V149.804H137.396V151.064H139.952V153.032H141.308V151.064H143.792ZM147.272 146.396C147.044 147.128 146.72 147.836 146.336 148.508C146.228 147.872 146.144 147.14 146.072 146.36L148.652 146.036L148.508 144.728L145.976 145.04C145.916 144.044 145.88 142.988 145.868 141.884H144.512C144.548 143.06 144.584 144.164 144.644 145.196L143.576 145.328L143.72 146.648L144.752 146.516C144.86 147.872 145.028 149.048 145.256 150.02C144.5 150.884 143.612 151.592 142.604 152.048C142.964 152.3 143.396 152.72 143.636 153.044C144.38 152.636 145.076 152.096 145.7 151.448C146.108 152.42 146.66 152.972 147.38 152.996C147.884 153.02 148.484 152.552 148.796 150.536C148.568 150.404 148.004 150.02 147.776 149.72C147.704 150.752 147.584 151.304 147.38 151.304C147.128 151.28 146.9 150.896 146.708 150.236C147.416 149.252 147.98 148.148 148.352 147.008L147.272 146.396ZM156.14 148.604C156.716 148.268 157.268 147.884 157.784 147.452C158.276 147.884 158.828 148.28 159.428 148.604H156.14ZM156.512 151.4V149.852H158.972V151.4H156.512ZM154.484 145.604C154.712 145.82 154.94 146.048 155.06 146.204C155.36 145.952 155.66 145.652 155.948 145.316C156.2 145.712 156.5 146.12 156.836 146.504C156.128 147.104 155.312 147.596 154.484 147.956V145.604ZM152.816 149.468V147.068H153.416V149.468H152.816ZM151.364 147.068H151.928V149.468H151.364V147.068ZM151.928 143.768V145.892H151.364V143.768H151.928ZM153.416 145.892H152.816V143.768H153.416V145.892ZM158.816 144.212C158.528 144.716 158.168 145.196 157.76 145.64C157.34 145.208 157.004 144.752 156.728 144.308L156.8 144.212H158.816ZM159.74 142.964L159.5 143.024H157.496C157.64 142.748 157.772 142.472 157.88 142.184L156.536 141.812C156.104 142.94 155.36 144.032 154.484 144.812V142.544H150.332V151.676H151.364V150.692H154.484V148.604C154.64 148.82 154.796 149.048 154.892 149.228L155.192 149.096V153.032H156.512V152.648H158.972V153.02H160.364V149.048L160.448 149.084C160.652 148.736 161.072 148.16 161.36 147.884C160.376 147.584 159.5 147.092 158.756 146.528C159.572 145.652 160.232 144.608 160.676 143.42L159.74 142.964ZM173.06 143.936H168.68V141.848H167.192V143.936H162.932V145.34H173.06V143.936ZM166.964 150.392C166.844 149.12 166.4 147.26 165.836 145.784L164.468 146.144C164.996 147.608 165.416 149.528 165.5 150.776L166.964 150.392ZM170.036 151.148C170.552 149.744 171.116 147.8 171.536 146.036L169.892 145.736C169.64 147.464 169.064 149.696 168.524 151.148H162.548V152.576H173.408V151.148H170.036ZM179.216 145.82H182.024C181.82 146.168 181.544 146.48 181.124 146.732C180.356 146.54 179.588 146.372 178.892 146.24L179.216 145.82ZM185.888 150.344V149.168H181.112V148.352H179.996C180.512 148.232 180.956 148.088 181.34 147.92C182.516 148.256 183.596 148.616 184.316 148.928L185.168 147.92C184.496 147.668 183.608 147.392 182.636 147.116C183.044 146.756 183.344 146.324 183.56 145.82H185.672V144.704H180.068C180.212 144.512 180.344 144.32 180.476 144.14L179.384 143.816H184.208V144.476H185.588V142.64H181.148V141.848H179.72V142.64H175.316V144.476H176.636V143.816H179.096C178.904 144.092 178.676 144.392 178.448 144.704H175.232V145.82H177.596C177.26 146.228 176.948 146.612 176.66 146.924L178.016 147.296L178.172 147.116C178.532 147.188 178.916 147.284 179.3 147.368C178.376 147.572 177.164 147.704 175.544 147.788C175.724 148.064 175.952 148.556 176.012 148.892C177.512 148.784 178.724 148.64 179.696 148.424V149.168H175.028V150.344H178.688C177.668 150.992 176.168 151.52 174.728 151.772C175.028 152.048 175.412 152.576 175.604 152.924C177.092 152.564 178.592 151.868 179.696 150.968V153.032H181.112V150.896C182.252 151.82 183.8 152.552 185.3 152.912C185.504 152.552 185.9 152 186.212 151.7C184.76 151.472 183.26 150.968 182.204 150.344H185.888ZM105.98 162.008L104.804 161.252C104.48 161.336 104.096 161.348 103.856 161.348H98.3124C97.9164 161.348 97.2324 161.288 96.8724 161.252V162.944C97.1844 162.92 97.7604 162.896 98.3004 162.896H103.892C103.736 163.916 103.28 165.284 102.488 166.28C101.516 167.492 100.16 168.536 97.7844 169.1L99.0924 170.528C101.228 169.844 102.824 168.656 103.916 167.216C104.912 165.884 105.44 164.024 105.716 162.848C105.776 162.596 105.872 162.248 105.98 162.008ZM116.785 164.012L115.897 163.208C115.705 163.268 115.189 163.292 114.925 163.292H109.357C108.961 163.292 108.481 163.256 108.109 163.196V164.744C108.553 164.696 108.961 164.672 109.357 164.672H114.565C114.277 165.176 113.521 166.028 112.837 166.496L114.037 167.336C114.889 166.676 116.005 165.164 116.425 164.492C116.497 164.372 116.677 164.144 116.785 164.012ZM112.669 165.272H111.013C111.061 165.524 111.097 165.836 111.097 166.124C111.097 167.636 110.845 168.704 109.489 169.628C109.129 169.88 108.829 170.024 108.517 170.144L109.789 171.164C112.597 169.616 112.597 167.516 112.669 165.272ZM120.863 160.496L119.987 161.816C120.779 162.26 122.027 163.076 122.699 163.544L123.599 162.212C122.975 161.78 121.655 160.928 120.863 160.496ZM118.631 169.016L119.531 170.6C120.599 170.408 122.315 169.808 123.539 169.112C125.507 167.984 127.199 166.46 128.315 164.804L127.391 163.172C126.431 164.888 124.763 166.532 122.723 167.672C121.415 168.392 119.975 168.788 118.631 169.016ZM119.015 163.232L118.139 164.564C118.943 164.984 120.191 165.8 120.875 166.268L121.751 164.924C121.139 164.492 119.819 163.664 119.015 163.232ZM137.912 160.688H136.1C136.148 161.024 136.172 161.408 136.172 161.888V164.168C136.172 166.04 136.016 166.94 135.188 167.84C134.468 168.62 133.496 169.076 132.308 169.352L133.556 170.672C134.432 170.396 135.68 169.808 136.472 168.944C137.36 167.96 137.864 166.844 137.864 164.264V161.888C137.864 161.408 137.888 161.024 137.912 160.688ZM132.344 160.784H130.616C130.652 161.06 130.664 161.48 130.664 161.708V165.752C130.664 166.112 130.616 166.58 130.604 166.808H132.344C132.32 166.532 132.308 166.064 132.308 165.764V161.708C132.308 161.324 132.32 161.06 132.344 160.784ZM141.68 160.796V162.344C142.052 162.32 142.556 162.296 142.976 162.296H147.788C148.208 162.296 148.676 162.32 149.084 162.344V160.796C148.676 160.856 148.196 160.88 147.788 160.88H142.964C142.568 160.88 142.076 160.856 141.68 160.796ZM140.288 163.868V165.44C140.624 165.416 141.08 165.392 141.44 165.392H144.74C144.692 166.4 144.488 167.3 143.996 168.044C143.516 168.74 142.676 169.436 141.824 169.76L143.228 170.78C144.296 170.24 145.22 169.304 145.64 168.476C146.072 167.636 146.336 166.628 146.408 165.392H149.3C149.636 165.392 150.092 165.404 150.392 165.428V163.868C150.08 163.916 149.552 163.94 149.3 163.94H141.44C141.068 163.94 140.648 163.904 140.288 163.868ZM152.266 164.444V166.328C152.71 166.292 153.514 166.268 154.198 166.268H160.642C161.146 166.268 161.758 166.316 162.046 166.328V164.444C161.734 164.468 161.206 164.516 160.642 164.516H154.198C153.574 164.516 152.698 164.48 152.266 164.444ZM166.705 160.496L165.829 161.816C166.621 162.26 167.869 163.076 168.541 163.544L169.441 162.212C168.817 161.78 167.497 160.928 166.705 160.496ZM164.473 169.016L165.373 170.6C166.441 170.408 168.157 169.808 169.381 169.112C171.349 167.984 173.041 166.46 174.157 164.804L173.233 163.172C172.273 164.888 170.605 166.532 168.565 167.672C167.257 168.392 165.817 168.788 164.473 169.016ZM164.857 163.232L163.981 164.564C164.785 164.984 166.033 165.8 166.717 166.268L167.593 164.924C166.981 164.492 165.661 163.664 164.857 163.232ZM176.228 163.22V164.672C176.516 164.648 177.272 164.624 177.716 164.624H181.676V166.076H177.848C177.392 166.076 176.852 166.064 176.54 166.04V167.456C176.816 167.444 177.392 167.432 177.848 167.432H181.676V169.028H177.14C176.708 169.028 176.3 169.004 176.096 168.98V170.456C176.3 170.444 176.792 170.42 177.128 170.42H181.676C181.676 170.6 181.676 170.792 181.664 170.9H183.176C183.176 170.684 183.164 170.276 183.164 170.084V164.06C183.164 163.808 183.164 163.412 183.176 163.256C182.984 163.268 182.54 163.28 182.252 163.28H177.716C177.272 163.28 176.54 163.256 176.228 163.22ZM187.333 160.88L186.205 162.08C187.081 162.692 188.581 164 189.205 164.672L190.429 163.424C189.733 162.692 188.173 161.444 187.333 160.88ZM185.833 168.872L186.841 170.456C188.533 170.168 190.081 169.496 191.293 168.764C193.225 167.6 194.821 165.944 195.733 164.324L194.797 162.632C194.041 164.252 192.481 166.088 190.429 167.3C189.265 167.996 187.705 168.608 185.833 168.872Z" fill="white"/>
<circle cx="43" cy="221" r="40" fill="white"/>
<circle cx="250" cy="221" r="40" fill="white"/>
<circle cx="147" cy="251" r="40" fill="white"/>
<path d="M2.14848 279H4.32048L5.29248 274.608C5.43648 273.912 5.55648 273.228 5.67648 272.544H5.72448C5.83248 273.228 5.96448 273.912 6.10848 274.608L7.10448 279H9.31248L10.9565 270.108H9.27648L8.56848 274.452C8.43648 275.376 8.30448 276.324 8.17248 277.284H8.11248C7.92048 276.324 7.74048 275.364 7.54848 274.452L6.52848 270.108H5.00448L3.97248 274.452C3.78048 275.376 3.58848 276.324 3.40848 277.284H3.36048C3.22848 276.324 3.08448 275.388 2.95248 274.452L2.24448 270.108H0.444484L2.14848 279ZM15.553 279.168C16.381 279.168 17.233 278.88 17.893 278.424L17.293 277.344C16.813 277.644 16.333 277.812 15.781 277.812C14.785 277.812 14.065 277.236 13.921 276.132H18.061C18.109 275.976 18.145 275.652 18.145 275.316C18.145 273.468 17.185 272.112 15.337 272.112C13.741 272.112 12.205 273.468 12.205 275.64C12.205 277.86 13.669 279.168 15.553 279.168ZM13.897 274.956C14.029 273.984 14.653 273.48 15.361 273.48C16.225 273.48 16.633 274.056 16.633 274.956H13.897ZM23.4496 279.168C24.9256 279.168 26.3056 277.836 26.3056 275.52C26.3056 273.468 25.3096 272.112 23.6536 272.112C22.9936 272.112 22.3216 272.436 21.7936 272.916L21.8416 271.836V269.424H20.0776V279H21.4576L21.6136 278.292H21.6616C22.2016 278.856 22.8496 279.168 23.4496 279.168ZM23.0536 277.716C22.6936 277.716 22.2616 277.584 21.8416 277.212V274.26C22.2976 273.792 22.7056 273.564 23.1616 273.564C24.0856 273.564 24.4936 274.272 24.4936 275.556C24.4936 277.02 23.8696 277.716 23.0536 277.716ZM29.2367 269.94V271.488C29.5967 271.464 30.1127 271.452 30.5207 271.452H34.4447C34.8647 271.452 35.3327 271.464 35.7407 271.488V269.94C35.3327 270 34.8527 270.036 34.4447 270.036H30.5207C30.1127 270.036 29.6207 270 29.2367 269.94ZM27.8447 273.012V274.584C28.1807 274.56 28.6487 274.536 28.9967 274.536H32.2967C32.2487 275.544 32.0447 276.444 31.5527 277.188C31.0727 277.896 30.2327 278.58 29.3807 278.904L30.7847 279.924C31.8527 279.384 32.7767 278.46 33.1967 277.62C33.6287 276.78 33.8927 275.772 33.9647 274.536H36.8567C37.1927 274.536 37.6487 274.548 37.9487 274.572V273.012C37.6367 273.06 37.1087 273.084 36.8567 273.084H28.9967C28.6247 273.084 28.2047 273.06 27.8447 273.012ZM36.4607 269.112L35.5007 269.508C35.8247 269.964 36.1967 270.684 36.4487 271.176L37.4087 270.756C37.1807 270.312 36.7607 269.556 36.4607 269.112ZM37.8767 268.572L36.9287 268.968C37.2527 269.424 37.6367 270.12 37.8887 270.624L38.8487 270.204C38.6327 269.784 38.1887 269.028 37.8767 268.572ZM49.0186 269.664L48.2146 269.928C48.4426 270.408 48.6586 271.068 48.8266 271.572L49.6546 271.308C49.5226 270.84 49.2466 270.144 49.0186 269.664ZM50.2546 269.28L49.4386 269.544C49.6906 270.012 49.9186 270.66 50.0866 271.176L50.9146 270.912C50.7586 270.456 50.4826 269.76 50.2546 269.28ZM47.9866 273.876V273.48H48.8866C49.5106 273.48 49.9306 273.492 50.1946 273.516V271.92C49.8706 271.98 49.5106 272.004 48.8746 272.004H47.9866V270.744C47.9866 270.264 48.0346 269.88 48.0706 269.628H46.3546C46.3906 269.868 46.4266 270.264 46.4266 270.744V272.004H43.5826V270.828C43.5826 270.348 43.6306 269.964 43.6546 269.736H41.9506C41.9866 270.108 42.0226 270.468 42.0226 270.816V272.004H41.0026C40.4026 272.004 39.9226 271.932 39.7066 271.896V273.528C39.9706 273.516 40.4026 273.48 41.0026 273.48H42.0226V275.112C42.0226 275.652 41.9866 276.132 41.9506 276.372H43.6306C43.6186 276.132 43.5826 275.652 43.5826 275.112V273.48H46.4266V273.936C46.4266 276.888 45.4066 277.92 43.0906 278.736L44.3746 279.948C47.2786 278.664 47.9866 276.852 47.9866 273.876ZM51.9464 274.332L52.7024 275.844C54.1784 275.412 55.7024 274.764 56.9384 274.116V277.956C56.9384 278.484 56.9024 279.24 56.8544 279.528H58.7504C58.6664 279.228 58.6424 278.484 58.6424 277.956V273.108C59.8064 272.34 60.9584 271.404 61.8704 270.504L60.5744 269.268C59.7944 270.216 58.4264 271.416 57.1904 272.184C55.8584 273 54.0944 273.78 51.9464 274.332ZM67.7605 270.912V272.232H64.6405C64.1605 272.232 63.6685 272.184 63.3085 272.148V273.804C63.6805 273.78 64.1605 273.744 64.6885 273.744H67.7485C67.6525 275.772 66.8485 277.5 64.4965 278.568L65.9845 279.672C68.5765 278.124 69.3325 276.156 69.4045 273.744H72.1045C72.5845 273.744 73.1725 273.78 73.4245 273.792V272.16C73.1725 272.184 72.6685 272.232 72.1165 272.232H69.4165V270.924C69.4165 270.54 69.4405 269.88 69.5125 269.508H67.6045C67.7125 269.88 67.7605 270.504 67.7605 270.912ZM75.0985 273.444V275.328C75.5425 275.292 76.3465 275.268 77.0305 275.268H83.4745C83.9785 275.268 84.5905 275.316 84.8785 275.328V273.444C84.5665 273.468 84.0385 273.516 83.4745 273.516H77.0305C76.4065 273.516 75.5305 273.48 75.0985 273.444Z" fill="#333333"/>
<path d="M210.846 270.48V272.148C211.182 272.124 211.83 272.1 212.334 272.1H217.722V277.068H212.19C211.65 277.068 211.11 277.032 210.69 276.996V278.712C211.086 278.676 211.77 278.64 212.238 278.64H217.71C217.71 278.868 217.71 279.072 217.698 279.264H219.438C219.414 278.904 219.39 278.268 219.39 277.848V271.632C219.39 271.284 219.414 270.804 219.426 270.528C219.222 270.54 218.718 270.552 218.37 270.552H212.322C211.914 270.552 211.29 270.528 210.846 270.48ZM230.555 270.48C230.555 270.096 230.867 269.784 231.239 269.784C231.623 269.784 231.935 270.096 231.935 270.48C231.935 270.864 231.623 271.176 231.239 271.176C230.867 271.176 230.555 270.864 230.555 270.48ZM229.811 270.48C229.811 270.84 229.943 271.176 230.159 271.428C229.751 271.668 229.391 271.836 229.007 271.98C227.939 272.436 226.271 272.964 224.855 273.312V271.044C224.855 270.708 224.891 270.156 224.951 269.796H223.175C223.235 270.156 223.271 270.78 223.271 271.044V277.584C223.271 278.616 223.871 279.192 224.915 279.384C225.431 279.468 226.151 279.516 226.931 279.516C228.251 279.516 230.075 279.432 231.203 279.264V277.512C230.219 277.776 228.275 277.932 227.027 277.932C226.487 277.932 225.995 277.908 225.635 277.86C225.095 277.752 224.855 277.62 224.855 277.104V274.884C226.415 274.5 228.347 273.9 229.559 273.42C229.955 273.276 230.495 273.048 230.963 272.856L230.471 271.692C230.687 271.836 230.951 271.92 231.239 271.92C232.031 271.92 232.679 271.272 232.679 270.48C232.679 269.688 232.031 269.04 231.239 269.04C230.447 269.04 229.811 269.688 229.811 270.48ZM234.3 273.444V275.328C234.744 275.292 235.548 275.268 236.232 275.268H242.676C243.18 275.268 243.792 275.316 244.08 275.328V273.444C243.768 273.468 243.24 273.516 242.676 273.516H236.232C235.608 273.516 234.732 273.48 234.3 273.444ZM247.426 269.796V271.344C247.774 271.32 248.29 271.308 248.674 271.308H253.27C253.702 271.308 254.266 271.32 254.59 271.344V269.796C254.254 269.844 253.666 269.856 253.294 269.856H248.674C248.266 269.856 247.762 269.844 247.426 269.796ZM255.598 273.276L254.53 272.616C254.362 272.688 254.038 272.736 253.654 272.736H247.714C247.342 272.736 246.826 272.7 246.322 272.664V274.224C246.826 274.176 247.426 274.164 247.714 274.164H253.51C253.294 274.836 252.922 275.58 252.274 276.24C251.362 277.176 249.922 277.968 248.122 278.34L249.31 279.696C250.846 279.264 252.382 278.448 253.594 277.104C254.494 276.108 255.01 274.944 255.37 273.78C255.418 273.648 255.514 273.432 255.598 273.276ZM257.306 274.332L258.062 275.844C259.538 275.412 261.062 274.764 262.298 274.116V277.956C262.298 278.484 262.262 279.24 262.214 279.528H264.11C264.026 279.228 264.002 278.484 264.002 277.956V273.108C265.166 272.34 266.318 271.404 267.23 270.504L265.934 269.268C265.154 270.216 263.786 271.416 262.55 272.184C261.218 273 259.454 273.78 257.306 274.332ZM274.171 269.496L272.431 268.956C272.323 269.364 272.071 269.916 271.879 270.204C271.279 271.248 270.163 272.892 268.063 274.2L269.359 275.196C270.571 274.356 271.687 273.204 272.527 272.088H275.959C275.779 272.832 275.263 273.876 274.639 274.74C273.883 274.236 273.127 273.744 272.491 273.384L271.423 274.476C272.035 274.86 272.827 275.4 273.607 275.976C272.611 276.972 271.279 277.944 269.203 278.58L270.595 279.792C272.467 279.084 273.835 278.064 274.891 276.948C275.383 277.344 275.827 277.716 276.151 278.016L277.291 276.66C276.943 276.372 276.475 276.024 275.959 275.652C276.811 274.452 277.411 273.168 277.735 272.196C277.843 271.896 277.999 271.572 278.131 271.344L276.907 270.588C276.643 270.672 276.235 270.72 275.863 270.72H273.427C273.571 270.456 273.871 269.916 274.171 269.496ZM280.036 273.444V275.328C280.48 275.292 281.284 275.268 281.968 275.268H288.412C288.916 275.268 289.528 275.316 289.816 275.328V273.444C289.504 273.468 288.976 273.516 288.412 273.516H281.968C281.344 273.516 280.468 273.48 280.036 273.444Z" fill="#333333"/>
<path d="M98.4307 307.56H100.603V306.552H98.4307V306.084H100.555V302.376H98.4307V301.908H100.735V302.844H101.827C101.743 304.992 101.455 306.708 100.519 308.004C99.8227 308.064 99.1147 308.124 98.4307 308.172V307.56ZM96.1987 305.196V304.656H97.1347V305.196H96.1987ZM99.3667 304.656V305.196H98.4307V304.656H99.3667ZM98.4307 303.804V303.276H99.3667V303.804H98.4307ZM96.1987 303.276H97.1347V303.804H96.1987V303.276ZM103.219 301.536C103.243 300.744 103.243 299.904 103.243 299.028H101.875C101.875 299.916 101.875 300.744 101.863 301.536H100.735V300.876H98.4307V300.288C99.2107 300.204 99.9547 300.096 100.591 299.964L99.9667 298.896C98.6467 299.184 96.5707 299.388 94.7947 299.484C94.9267 299.76 95.0587 300.204 95.1067 300.492C95.7547 300.48 96.4387 300.444 97.1347 300.396V300.876H94.7707V301.908H97.1347V302.376H95.0707V306.084H97.1347V306.552H95.0227V307.56H97.1347V308.28C96.2107 308.34 95.3707 308.4 94.6987 308.448L94.8667 309.648C96.1627 309.54 97.8907 309.36 99.6187 309.18C99.9307 309.444 100.279 309.84 100.459 310.128C102.475 308.532 103.027 306.06 103.183 302.844H104.263C104.191 306.72 104.071 308.184 103.819 308.508C103.711 308.664 103.591 308.712 103.411 308.712C103.183 308.712 102.727 308.7 102.199 308.652C102.439 309.048 102.595 309.624 102.619 310.02C103.195 310.032 103.747 310.044 104.107 309.972C104.503 309.888 104.779 309.768 105.055 309.372C105.439 308.82 105.535 307.08 105.643 302.172C105.643 302.004 105.655 301.536 105.655 301.536H103.219ZM116.419 307.992H109.171V301.68H107.779V310.044H109.171V309.336H116.419V310.032H117.799V301.68H116.419V307.992ZM114.403 304.02H113.359V303.012H114.403V304.02ZM114.403 306.12H113.359V305.1H114.403V306.12ZM111.091 305.1H112.135V306.12H111.091V305.1ZM111.091 303.012H112.135V304.02H111.091V303.012ZM107.419 299.556V300.888H112.027V301.848H109.927V307.284H115.639V301.848H113.455V300.888H118.159V299.556H107.419ZM128.559 300.204C128.559 299.82 128.871 299.508 129.255 299.508C129.627 299.508 129.939 299.82 129.939 300.204C129.939 300.576 129.627 300.888 129.255 300.888C128.871 300.888 128.559 300.576 128.559 300.204ZM127.815 300.204C127.815 300.288 127.827 300.36 127.839 300.432C127.587 300.468 127.323 300.48 127.155 300.48H121.599C121.203 300.48 120.519 300.432 120.171 300.384V302.076C120.471 302.052 121.047 302.028 121.599 302.028H127.179C127.023 303.06 126.567 304.416 125.775 305.412C124.803 306.636 123.447 307.68 121.071 308.232L122.379 309.672C124.515 308.976 126.123 307.788 127.203 306.348C128.211 305.016 128.727 303.156 129.003 301.98C129.039 301.872 129.063 301.752 129.099 301.62C129.147 301.632 129.207 301.632 129.255 301.632C130.035 301.632 130.683 300.984 130.683 300.204C130.683 299.412 130.035 298.764 129.255 298.764C128.463 298.764 127.815 299.412 127.815 300.204ZM132.423 300.492C132.447 300.828 132.447 301.32 132.447 301.656V307.524C132.447 308.1 132.411 309.144 132.411 309.204H134.067C134.067 309.168 134.067 308.892 134.055 308.556H139.839C139.839 308.904 139.827 309.18 139.827 309.204H141.483C141.483 309.156 141.459 308.004 141.459 307.536V301.656C141.459 301.296 141.459 300.852 141.483 300.492C141.051 300.516 140.595 300.516 140.295 300.516H133.695C133.371 300.516 132.915 300.504 132.423 300.492ZM134.055 302.04H139.851V307.02H134.055V302.04ZM153.008 299.148L152.06 299.532C152.324 299.916 152.612 300.444 152.84 300.9C152.576 300.972 152.228 301.008 151.904 301.008H149.456C149.6 300.744 149.912 300.204 150.2 299.784L148.46 299.244C148.352 299.652 148.1 300.204 147.92 300.492C147.308 301.536 146.192 303.18 144.092 304.476L145.388 305.484C146.6 304.644 147.716 303.492 148.556 302.376H151.988C151.808 303.12 151.292 304.152 150.68 305.028C149.912 304.512 149.156 304.02 148.52 303.66L147.452 304.752C148.064 305.148 148.856 305.688 149.636 306.252C148.652 307.26 147.32 308.232 145.244 308.868L146.636 310.08C148.508 309.372 149.864 308.352 150.92 307.236C151.412 307.632 151.856 308.004 152.18 308.304L153.332 306.948C152.972 306.66 152.504 306.312 151.988 305.94C152.852 304.74 153.452 303.456 153.764 302.484C153.872 302.184 154.028 301.86 154.16 301.62L153.284 301.08L153.956 300.792C153.74 300.348 153.308 299.58 153.008 299.148ZM154.424 298.596L153.476 298.992C153.812 299.448 154.196 300.144 154.448 300.648L155.396 300.228C155.18 299.808 154.736 299.052 154.424 298.596ZM162.231 299.64L160.479 299.064C160.371 299.472 160.119 300.024 159.939 300.324C159.339 301.356 158.295 302.904 156.195 304.188L157.539 305.184C158.715 304.38 159.759 303.324 160.563 302.28H163.935C163.743 303.18 163.047 304.62 162.231 305.556C161.187 306.744 159.855 307.788 157.395 308.52L158.811 309.792C161.067 308.904 162.519 307.8 163.659 306.408C164.739 305.064 165.423 303.468 165.747 302.4C165.843 302.1 166.011 301.764 166.143 301.536L164.919 300.78C164.643 300.864 164.247 300.924 163.875 300.924H161.463C161.475 300.9 161.487 300.888 161.499 300.864C161.643 300.6 161.955 300.06 162.231 299.64ZM170.453 299.496L169.577 300.816C170.369 301.26 171.617 302.076 172.289 302.544L173.189 301.212C172.565 300.78 171.245 299.928 170.453 299.496ZM168.221 308.016L169.121 309.6C170.189 309.408 171.905 308.808 173.129 308.112C175.097 306.984 176.789 305.46 177.905 303.804L176.981 302.172C176.021 303.888 174.353 305.532 172.313 306.672C171.005 307.392 169.565 307.788 168.221 308.016ZM168.605 302.232L167.729 303.564C168.533 303.984 169.781 304.8 170.465 305.268L171.341 303.924C170.729 303.492 169.409 302.664 168.605 302.232ZM179.976 302.22V303.672C180.264 303.648 181.02 303.624 181.464 303.624H185.424V305.076H181.596C181.14 305.076 180.6 305.064 180.288 305.04V306.456C180.564 306.444 181.14 306.432 181.596 306.432H185.424V308.028H180.888C180.456 308.028 180.048 308.004 179.844 307.98V309.456C180.048 309.444 180.54 309.42 180.876 309.42H185.424C185.424 309.6 185.424 309.792 185.412 309.9H186.924C186.924 309.684 186.912 309.276 186.912 309.084V303.06C186.912 302.808 186.912 302.412 186.924 302.256C186.732 302.268 186.288 302.28 186 302.28H181.464C181.02 302.28 180.288 302.256 179.976 302.22ZM191.082 299.88L189.954 301.08C190.83 301.692 192.33 303 192.954 303.672L194.178 302.424C193.482 301.692 191.922 300.444 191.082 299.88ZM189.582 307.872L190.59 309.456C192.282 309.168 193.83 308.496 195.042 307.764C196.974 306.6 198.57 304.944 199.482 303.324L198.546 301.632C197.79 303.252 196.23 305.088 194.178 306.3C193.014 306.996 191.454 307.608 189.582 307.872Z" fill="#333333"/>
<circle opacity="0.2" cx="250" cy="70" r="40" fill="#333333"/>
<circle opacity="0.2" cx="147" cy="40" r="40" fill="#333333"/>
<path d="M243.44 61.368C243.704 60.444 243.968 59.436 244.196 58.464H244.256C244.508 59.424 244.748 60.444 245.024 61.368L245.288 62.34H243.176L243.44 61.368ZM240.368 66H242.168L242.792 63.72H245.672L246.296 66H248.156L245.3 57.108H243.212L240.368 66ZM254.284 62.616C254.032 62.376 253.108 61.548 252.532 61.08C253.108 60.288 253.588 59.424 253.948 58.512L253.144 57.996L252.892 58.056H252.352V55.848H250.936V58.056H249.232V59.352H252.124C251.344 60.732 250.084 61.992 248.776 62.7C248.992 62.976 249.328 63.672 249.448 64.056C249.952 63.744 250.456 63.348 250.936 62.904V67.044H252.352V62.52C252.76 62.964 253.168 63.444 253.42 63.78L254.284 62.616ZM257.74 65.304V60.912H260.008V59.532H257.74V55.944H256.276V59.532H253.996V60.912H256.276V65.304H253.504V66.696H260.296V65.304H257.74Z" fill="#333333"/>
<path d="M139.44 31.368C139.704 30.444 139.968 29.436 140.196 28.464H140.256C140.508 29.424 140.748 30.444 141.024 31.368L141.288 32.34H139.176L139.44 31.368ZM136.368 36H138.168L138.792 33.72H141.672L142.296 36H144.156L141.3 27.108H139.212L136.368 36ZM150.284 32.616C150.032 32.376 149.108 31.548 148.532 31.08C149.108 30.288 149.588 29.424 149.948 28.512L149.144 27.996L148.892 28.056H148.352V25.848H146.936V28.056H145.232V29.352H148.124C147.344 30.732 146.084 31.992 144.776 32.7C144.992 32.976 145.328 33.672 145.448 34.056C145.952 33.744 146.456 33.348 146.936 32.904V37.044H148.352V32.52C148.76 32.964 149.168 33.444 149.42 33.78L150.284 32.616ZM153.74 35.304V30.912H156.008V29.532H153.74V25.944H152.276V29.532H149.996V30.912H152.276V35.304H149.504V36.696H156.296V35.304H153.74Z" fill="#333333"/>
<circle opacity="0.2" cx="43" cy="70" r="40" fill="#333333"/>
<path d="M36.4403 61.368C36.7043 60.444 36.9683 59.436 37.1963 58.464H37.2563C37.5083 59.424 37.7483 60.444 38.0243 61.368L38.2883 62.34H36.1763L36.4403 61.368ZM33.3683 66H35.1683L35.7923 63.72H38.6723L39.2963 66H41.1563L38.3003 57.108H36.2123L33.3683 66ZM47.2838 62.616C47.0318 62.376 46.1077 61.548 45.5318 61.08C46.1077 60.288 46.5878 59.424 46.9478 58.512L46.1438 57.996L45.8918 58.056H45.3517V55.848H43.9357V58.056H42.2317V59.352H45.1237C44.3437 60.732 43.0837 61.992 41.7757 62.7C41.9917 62.976 42.3277 63.672 42.4477 64.056C42.9517 63.744 43.4557 63.348 43.9357 62.904V67.044H45.3517V62.52C45.7598 62.964 46.1678 63.444 46.4198 63.78L47.2838 62.616ZM50.7397 65.304V60.912H53.0078V59.532H50.7397V55.944H49.2758V59.532H46.9958V60.912H49.2758V65.304H46.5038V66.696H53.2958V65.304H50.7397Z" fill="#333333"/>
<path d="M27.16 83.436H21.532V82.392H27.16V83.436ZM22.504 78.552H26.068V79.392H22.504V78.552ZM27.448 80.436V77.496H21.184V80.436H23.368C23.32 80.676 23.248 80.928 23.188 81.168H20.176V85.068H21.532V84.672H27.16V85.068H28.576V81.168H24.604C24.712 80.94 24.82 80.7 24.916 80.436H27.448ZM27.76 75.696C28.096 75.3 28.456 74.82 28.804 74.364L27.268 73.884C27.04 74.46 26.584 75.18 26.2 75.696H24.232L25.072 75.384C24.904 74.952 24.508 74.268 24.16 73.8L22.912 74.22C23.2 74.676 23.524 75.264 23.692 75.696H21.844L22.228 75.528C22.024 75.084 21.556 74.448 21.16 73.992L19.924 74.532C20.2 74.88 20.5 75.312 20.716 75.696H19.252V78.252H20.56V76.908H28.06V78.252H29.44V75.696H27.76ZM38.236 76.956C38.104 77.28 37.96 77.628 37.816 77.916H35.572L35.776 77.88C35.692 77.628 35.536 77.268 35.368 76.956H38.236ZM42.112 82.308V81.132H37.444V80.604H41.044V79.572H37.444V79.032H41.608V77.916H39.256C39.436 77.628 39.628 77.304 39.82 76.956H42.076V75.792H40.516C40.792 75.372 41.116 74.832 41.452 74.28L39.952 73.92C39.784 74.448 39.484 75.168 39.196 75.66L39.628 75.792H38.56V73.836H37.216V75.792H36.328V73.836H34.996V75.792H33.904L34.492 75.576C34.324 75.108 33.928 74.4 33.58 73.884L32.356 74.304C32.62 74.76 32.932 75.336 33.1 75.792H31.492V76.956H34L33.856 76.98C34.012 77.256 34.168 77.616 34.264 77.916H31.984V79.032H36.04V79.572H32.584V80.604H36.04V81.132H31.456V82.308H34.9C33.868 82.932 32.452 83.436 31.108 83.712C31.408 84 31.816 84.552 32.02 84.9C33.448 84.528 34.924 83.832 36.04 82.956V85.044H37.444V82.884C38.548 83.82 40 84.54 41.476 84.912C41.692 84.528 42.112 83.928 42.436 83.616C41.044 83.4 39.652 82.932 38.632 82.308H42.112ZM49.72 74.988H47.512V73.92H46.132V74.988H43.936V76.224H49.72V74.988ZM47.932 81.636V83.22H45.688V81.636H47.932ZM44.368 85.056H45.688V84.456H47.932V85.008H49.324V80.4H44.368V85.056ZM47.824 76.26C47.728 76.812 47.512 77.568 47.332 78.072L48.304 78.324H45.16L46.288 78.06C46.24 77.568 46.048 76.848 45.796 76.308L44.632 76.548C44.836 77.1 45.016 77.844 45.052 78.324H43.684V79.62H49.852V78.324H48.46C48.664 77.856 48.916 77.208 49.168 76.548L47.824 76.26ZM53.824 74.472L53.608 74.52H50.224V85.044H51.616V75.864H53.068C52.78 76.776 52.396 78 52.048 78.852C53.008 79.788 53.272 80.652 53.272 81.3C53.272 81.708 53.2 81.984 52.984 82.116C52.864 82.176 52.708 82.212 52.54 82.212C52.36 82.224 52.132 82.212 51.868 82.2C52.096 82.596 52.216 83.208 52.216 83.592C52.552 83.604 52.9 83.604 53.176 83.568C53.476 83.52 53.764 83.424 53.992 83.268C54.448 82.944 54.64 82.356 54.64 81.48C54.64 80.688 54.46 79.752 53.44 78.672C53.92 77.652 54.448 76.272 54.868 75.12L53.824 74.472ZM65.428 80.736C64.912 81.144 64.228 81.612 63.592 81.984C63.22 81.612 62.908 81.204 62.644 80.736H65.428ZM65.848 80.736H67.132V79.476H59.776V78.852H65.548V77.748H59.776V77.148H65.548V76.044H59.776V75.408H65.884V74.244H58.312V79.476H56.32V80.736H58.3V83.484C57.76 83.544 57.268 83.616 56.836 83.664L57.16 84.972C58.612 84.756 60.592 84.456 62.428 84.156L62.368 82.896C61.504 83.028 60.616 83.16 59.776 83.28V80.736H61.156C62.152 83.004 63.748 84.432 66.46 85.056C66.652 84.672 67.06 84.084 67.36 83.772C66.256 83.568 65.332 83.22 64.564 82.74C65.284 82.356 66.088 81.876 66.772 81.384L65.848 80.736Z" fill="#333333"/>
<path d="M235.552 73.92C234.088 74.352 231.652 74.676 229.516 74.82C229.66 75.12 229.84 75.636 229.888 75.96C232.072 75.84 234.652 75.552 236.5 75.036L235.552 73.92ZM235.192 79.044C235.684 78.336 236.308 77.22 236.824 76.2L235.468 75.708C235.168 76.62 234.556 77.844 234.088 78.6L235.192 79.044ZM233.728 78.096C233.704 77.496 233.464 76.608 233.176 75.912L231.988 76.14C232.252 76.86 232.456 77.784 232.468 78.348L233.728 78.096ZM231.628 78.456C231.52 77.844 231.172 76.908 230.812 76.212L229.684 76.5C230.02 77.244 230.32 78.204 230.416 78.804L231.628 78.456ZM229.288 78.864L228.316 79.14V77.412H229.408V76.104H228.316V73.848H227.02V76.104H225.76V77.412H227.02V79.488C226.48 79.62 225.976 79.752 225.568 79.836L225.88 81.204C226.228 81.108 226.624 81 227.02 80.88V83.532C227.02 83.688 226.96 83.736 226.816 83.736C226.672 83.748 226.252 83.748 225.82 83.724C225.988 84.108 226.144 84.696 226.18 85.044C226.972 85.056 227.476 85.008 227.848 84.78C228.208 84.552 228.316 84.192 228.316 83.532V80.496C228.7 80.388 229.084 80.268 229.468 80.148L229.288 78.864ZM236.728 81.036V79.8H233.836V78.588H232.492V79.8H229.672V81.036H231.736C231.064 82.02 229.996 82.92 228.904 83.412C229.216 83.676 229.624 84.192 229.852 84.528C230.836 83.976 231.784 83.076 232.492 82.056V84.96H233.836V82.116C234.484 83.064 235.3 83.928 236.128 84.468C236.344 84.132 236.752 83.64 237.064 83.388C236.104 82.884 235.144 81.984 234.52 81.036H236.728ZM244.6 80.196V78.72H247.132V80.196H244.6ZM240.868 80.196C240.892 79.752 240.904 79.32 240.904 78.936V78.72H243.16V80.196H240.868ZM243.16 75.996V77.388H240.904V75.996H243.16ZM247.132 77.388H244.6V75.996H247.132V77.388ZM248.548 74.64H239.488V78.924C239.488 80.604 239.38 82.74 238.072 84.18C238.396 84.348 238.972 84.84 239.2 85.104C240.064 84.168 240.496 82.848 240.712 81.54H243.16V84.888H244.6V81.54H247.132V83.34C247.132 83.556 247.048 83.628 246.82 83.628C246.604 83.628 245.812 83.64 245.14 83.604C245.32 83.976 245.548 84.588 245.596 84.972C246.676 84.984 247.408 84.96 247.9 84.72C248.38 84.504 248.548 84.12 248.548 83.352V74.64ZM259.624 77.676H256.612V75.924H259.624V77.676ZM259.624 80.82H256.612V79.008H259.624V80.82ZM261.052 74.604H255.244V82.14H261.052V74.604ZM254.788 78.9L253.612 79.2V77.436H254.872V76.116H253.612V73.848H252.22V76.116H250.732V77.436H252.22V79.536C251.62 79.68 251.044 79.812 250.576 79.908L250.948 81.276L252.22 80.94V83.436C252.22 83.604 252.16 83.664 251.992 83.664C251.836 83.664 251.332 83.664 250.864 83.652C251.032 84.012 251.224 84.576 251.26 84.948C252.1 84.948 252.688 84.912 253.084 84.684C253.48 84.48 253.612 84.132 253.612 83.436V80.58C254.068 80.46 254.512 80.328 254.956 80.208L254.788 78.9ZM254.416 83.316V84.648H261.784V83.316H254.416ZM271.936 74.196C271.648 75.132 271.096 76.368 270.628 77.196L271.876 77.628C272.392 76.872 273.004 75.732 273.532 74.664L271.936 74.196ZM266.8 77.004C266.536 76.236 265.948 75.132 265.324 74.304L264.016 74.82C264.604 75.66 265.192 76.824 265.42 77.58L266.8 77.004ZM269.512 73.824H267.94V77.976H264.304V79.404H271.804V80.508H264.712V81.888H271.804V83.136H264.028V84.552H271.804V85.044H273.328V77.976H269.512V73.824Z" fill="#333333"/>
<path d="M125.23 54H127.006V50.16H130.366V54H132.13V45.108H130.366V48.612H127.006V45.108H125.23V54ZM134.792 54H136.568V50.844H137.756C139.664 50.844 141.188 49.932 141.188 47.904C141.188 45.804 139.676 45.108 137.708 45.108H134.792V54ZM136.568 49.44V46.524H137.576C138.8 46.524 139.448 46.872 139.448 47.904C139.448 48.924 138.86 49.44 137.636 49.44H136.568ZM154.766 47.676H151.754V45.924H154.766V47.676ZM154.766 50.82H151.754V49.008H154.766V50.82ZM156.194 44.604H150.386V52.14H156.194V44.604ZM149.93 48.9L148.754 49.2V47.436H150.014V46.116H148.754V43.848H147.362V46.116H145.874V47.436H147.362V49.536C146.762 49.68 146.186 49.812 145.718 49.908L146.09 51.276L147.362 50.94V53.436C147.362 53.604 147.302 53.664 147.134 53.664C146.978 53.664 146.474 53.664 146.006 53.652C146.174 54.012 146.366 54.576 146.402 54.948C147.242 54.948 147.83 54.912 148.226 54.684C148.622 54.48 148.754 54.132 148.754 53.436V50.58C149.21 50.46 149.654 50.328 150.098 50.208L149.93 48.9ZM149.558 53.316V54.648H156.926V53.316H149.558ZM167.078 44.196C166.79 45.132 166.238 46.368 165.77 47.196L167.018 47.628C167.534 46.872 168.146 45.732 168.674 44.664L167.078 44.196ZM161.942 47.004C161.678 46.236 161.09 45.132 160.466 44.304L159.158 44.82C159.746 45.66 160.334 46.824 160.562 47.58L161.942 47.004ZM164.654 43.824H163.082V47.976H159.446V49.404H166.946V50.508H159.854V51.888H166.946V53.136H159.17V54.552H166.946V55.044H168.47V47.976H164.654V43.824Z" fill="#333333"/>
<path d="M232.139 344.27L232.419 345.306C233.497 345.292 235.079 345.25 236.493 345.11V347.658H232.279C231.859 347.658 231.369 347.63 231.047 347.602V348.764C231.383 348.736 231.859 348.708 232.307 348.708H236.465C236.297 351.214 235.135 352.782 232.923 353.804L234.029 354.574C236.437 353.174 237.459 351.326 237.613 348.708H241.519C241.869 348.708 242.289 348.736 242.597 348.764V347.602C242.303 347.63 241.799 347.658 241.491 347.658H237.627V344.97C238.635 344.816 239.713 344.606 240.413 344.424C240.609 344.368 240.889 344.298 241.197 344.214L240.455 343.248C239.769 343.542 238.117 343.878 236.843 344.06C235.331 344.256 233.203 344.312 232.139 344.27ZM244.983 347.938V349.31C245.417 349.268 246.159 349.24 246.929 349.24H254.615C255.245 349.24 255.833 349.296 256.113 349.31V347.938C255.805 347.966 255.301 348.008 254.601 348.008H246.929C246.145 348.008 245.403 347.966 244.983 347.938ZM264.411 343.556L263.011 343.276C262.969 343.64 262.913 343.976 262.745 344.62C262.353 345.992 260.925 350.472 260.141 352.404C259.889 352.418 259.651 352.432 259.441 352.446C259.035 352.46 258.559 352.474 258.139 352.46L258.349 353.762C258.755 353.706 259.161 353.636 259.511 353.608C261.387 353.44 266.077 352.922 268.233 352.642C268.555 353.328 268.821 353.972 269.003 354.476L270.179 353.944C269.591 352.502 268.065 349.688 267.071 348.246L266.021 348.722C266.539 349.394 267.169 350.486 267.729 351.592C266.189 351.802 263.501 352.096 261.443 352.292C262.143 350.472 263.529 346.174 263.935 344.858C264.117 344.27 264.271 343.906 264.411 343.556Z" fill="#333333"/>
<g clip-path="url(#clip1_248_595)">
<path d="M25.4445 355.743L26.4251 350.682C26.9032 348.163 28.2192 346.787 29.343 346.787C30.204 346.787 30.4909 347.347 30.4909 348.14C30.4878 348.57 30.4478 348.999 30.3714 349.422L29.1496 355.743H32.5941L33.8859 349.119C33.9946 348.479 34.0585 347.832 34.077 347.184C34.077 345.225 33.0006 344.082 31.0886 344.082C30.2742 344.079 29.4717 344.274 28.7534 344.648C28.035 345.022 27.4231 345.564 26.9726 346.226H26.9246L27.1637 344.337H24.1048C23.9611 345.34 23.7699 346.599 23.4846 348.045L22.0017 355.742L25.4445 355.743ZM45.0099 352.664C43.9894 353.149 42.8678 353.396 41.7329 353.387C41.3132 353.421 40.8913 353.358 40.5009 353.204C40.1105 353.05 39.7623 352.809 39.4843 352.501C39.2571 352.152 39.133 351.748 39.1257 351.335C43.814 351.452 46.7082 350.4 46.7082 347.486C46.7082 345.364 45.0099 344.081 42.6418 344.081C38.4079 344.081 35.8249 347.696 35.8249 351.173C35.8249 354.136 37.5469 355.978 40.8956 355.978C42.3964 356.004 43.8841 355.701 45.249 355.092L45.0099 352.664ZM43.4797 347.51C43.4797 348.537 42.14 348.909 39.4611 348.885C39.5726 348.244 39.9069 347.66 40.4079 347.231C40.9088 346.802 41.5459 346.554 42.2121 346.529C43.0015 346.53 43.4797 346.927 43.4797 347.51ZM48.2396 344.338L50.9906 349.841L45.9194 355.743H49.89L51.2771 353.761C51.8031 352.968 52.1381 352.386 52.473 351.848H52.5446C52.76 352.524 52.9511 353.084 53.286 353.924L54.0275 355.743H57.8053L55.0808 349.866L60.0082 344.338H56.0613L54.7695 346.135C54.2671 346.834 53.9564 347.347 53.5257 347.954H53.4541C53.2849 347.511 53.0712 346.951 52.7126 346.041L52.0191 344.337L48.2396 344.338ZM71.8484 353.761C71.0165 354.167 70.1001 354.383 69.1695 354.39C67.2801 354.39 66.299 353.2 66.299 351.382C66.299 348.723 68.1884 345.829 71.2044 345.829C71.8824 345.823 72.553 345.967 73.1661 346.249L73.7401 344.709C72.979 344.382 72.1557 344.215 71.324 344.22C67.1622 344.22 64.2438 347.765 64.2438 351.613C64.2438 354.015 65.703 355.975 68.6931 355.975C69.8463 355.987 70.9886 355.757 72.0418 355.298L71.8484 353.761ZM80.5552 344.198C76.8 344.198 74.1449 347.65 74.1449 351.359C74.1449 353.901 75.7716 356 78.6658 356C82.5405 356 85.0761 352.385 85.0761 348.908C85.0756 346.507 83.6885 344.198 80.5547 344.198H80.5552ZM80.3399 345.738C82.421 345.738 83.0429 347.58 83.0429 348.886C83.0429 351.522 81.273 354.461 78.9269 354.461C77.2286 354.461 76.2001 353.131 76.2001 351.289C76.1776 348.699 77.8522 345.738 80.3393 345.738H80.3399ZM88.4028 355.744L89.4792 350.076C89.9337 347.674 91.7278 345.808 93.1865 345.808C94.6451 345.808 94.9085 346.788 94.9085 347.744C94.9055 348.205 94.8574 348.666 94.7647 349.118L93.4729 355.742H95.3866L96.5109 349.958C96.989 347.439 98.6873 345.806 100.123 345.806C101.415 345.806 101.871 346.576 101.871 347.765C101.864 348.259 101.808 348.752 101.702 349.235L100.458 355.742H102.393L103.685 349.072C103.803 348.44 103.867 347.8 103.876 347.159C103.876 345.037 102.417 344.197 101.077 344.197C100.203 344.214 99.349 344.456 98.6013 344.898C97.8537 345.34 97.2392 345.967 96.8199 346.716C96.724 345.293 95.8873 344.197 94.1168 344.197C92.586 344.197 91.1284 345.013 90.0504 346.575H89.9788L90.2894 344.453H88.5415C88.422 345.388 88.2545 346.483 88.0155 347.742L86.4609 355.742L88.4028 355.744ZM107.73 355.744L108.806 350.076C109.261 347.674 111.055 345.808 112.513 345.808C113.972 345.808 114.235 346.788 114.235 347.744C114.232 348.205 114.184 348.666 114.092 349.118L112.8 355.742H114.713L115.838 349.958C116.316 347.439 118.014 345.806 119.45 345.806C120.742 345.806 121.198 346.576 121.198 347.765C121.191 348.259 121.135 348.752 121.029 349.235L119.785 355.742H121.722L123.012 349.072C123.13 348.44 123.194 347.8 123.203 347.159C123.203 345.037 121.744 344.197 120.405 344.197C119.531 344.214 118.676 344.456 117.929 344.898C117.181 345.34 116.567 345.967 116.147 346.716C116.051 345.293 115.215 344.197 113.444 344.197C111.913 344.197 110.456 345.013 109.378 346.575H109.306L109.617 344.453H107.869C107.749 345.388 107.582 346.483 107.343 347.742L105.788 355.742L107.73 355.744ZM134.302 344.453L133.179 350.239C132.701 352.734 130.859 354.367 129.424 354.367C128.06 354.367 127.558 353.574 127.558 352.408C127.567 351.85 127.64 351.295 127.773 350.752L128.992 344.453H127.006L125.763 350.844C125.631 351.466 125.559 352.098 125.547 352.733C125.547 355.298 127.102 355.998 128.585 355.998C129.413 355.952 130.217 355.712 130.929 355.297C131.641 354.883 132.24 354.308 132.675 353.619H132.723L132.413 355.742H134.207C134.326 354.807 134.494 353.712 134.733 352.453L136.287 344.453H134.302ZM139.564 355.742L140.617 350.261C141.143 347.462 143.154 345.807 144.564 345.807C145.927 345.807 146.382 346.647 146.382 347.79C146.374 348.276 146.317 348.761 146.213 349.236L144.946 355.743H146.932L148.223 349.166C148.347 348.567 148.419 347.958 148.439 347.347C148.439 344.968 146.884 344.198 145.497 344.198C144.625 344.216 143.772 344.453 143.022 344.887C142.272 345.32 141.649 345.935 141.215 346.672H141.167L141.454 344.457H139.684C139.54 345.391 139.397 346.486 139.134 347.745L137.577 355.743L139.564 355.742ZM152.337 355.742L154.561 344.453H152.575L150.351 355.742H152.337ZM154.085 342.517C154.262 342.522 154.438 342.491 154.603 342.427C154.767 342.362 154.917 342.266 155.042 342.144C155.167 342.022 155.266 341.876 155.332 341.716C155.397 341.556 155.429 341.384 155.425 341.211C155.438 341.055 155.417 340.897 155.364 340.749C155.311 340.6 155.226 340.465 155.116 340.35C155.005 340.236 154.871 340.145 154.722 340.085C154.574 340.024 154.414 339.995 154.253 339.998C154.078 339.999 153.905 340.033 153.744 340.099C153.583 340.165 153.437 340.261 153.314 340.383C153.192 340.504 153.095 340.649 153.031 340.807C152.966 340.965 152.934 341.134 152.937 341.305C152.923 341.459 152.942 341.615 152.994 341.762C153.045 341.909 153.127 342.044 153.235 342.159C153.343 342.273 153.474 342.364 153.62 342.426C153.766 342.488 153.924 342.52 154.083 342.519L154.085 342.517ZM163.605 353.759C162.773 354.166 161.857 354.381 160.926 354.389C159.037 354.389 158.056 353.199 158.056 351.38C158.056 348.721 159.945 345.827 162.961 345.827C163.639 345.821 164.31 345.965 164.923 346.247L165.497 344.708C164.736 344.381 163.912 344.214 163.081 344.218C158.919 344.218 156 347.763 156 351.612C156 354.014 157.46 355.973 160.449 355.973C161.602 355.986 162.745 355.755 163.798 355.297L163.605 353.759ZM175.11 355.742C175.095 353.988 175.264 352.238 175.613 350.519L176.785 344.641C175.776 344.346 174.728 344.197 173.675 344.198C168.628 344.198 165.662 348.35 165.662 352.268C165.662 354.412 166.954 356 168.989 356C170.639 356 172.218 355.16 173.486 352.828H173.534C173.396 353.795 173.308 354.767 173.27 355.742L175.11 355.742ZM173.888 349.306C173.314 352.314 171.351 354.413 169.702 354.413C168.172 354.413 167.717 353.177 167.717 351.918C167.741 348.792 170.181 345.737 173.171 345.737C173.638 345.733 174.105 345.788 174.558 345.902L173.888 349.306ZM181.208 341.912L180.705 344.454H179.055L178.744 345.97H180.419L179.271 351.684C179.117 352.382 179.037 353.093 179.032 353.806C179.032 354.949 179.702 355.999 181.471 355.999C181.99 356.013 182.508 355.942 183.002 355.789L183.098 354.273C182.79 354.322 182.478 354.346 182.165 354.343C182.016 354.363 181.864 354.349 181.721 354.302C181.578 354.256 181.448 354.177 181.341 354.073C181.235 353.969 181.154 353.843 181.106 353.703C181.059 353.564 181.044 353.416 181.065 353.27C181.079 352.659 181.151 352.05 181.28 351.451L182.357 345.97H185.131L185.443 344.454H182.668L183.266 341.422L181.208 341.912ZM187.546 355.743L189.771 344.453H187.786L185.56 355.743L187.546 355.743ZM189.294 342.519C189.471 342.523 189.648 342.492 189.812 342.428C189.977 342.364 190.126 342.268 190.251 342.145C190.377 342.023 190.475 341.878 190.541 341.717C190.607 341.557 190.638 341.385 190.634 341.212C190.647 341.056 190.627 340.898 190.573 340.75C190.52 340.601 190.435 340.466 190.325 340.351C190.214 340.237 190.08 340.147 189.932 340.086C189.783 340.025 189.623 339.996 189.462 339.999C189.287 340 189.114 340.034 188.953 340.1C188.792 340.166 188.646 340.262 188.523 340.384C188.401 340.506 188.305 340.65 188.24 340.808C188.175 340.966 188.143 341.135 188.146 341.306C188.133 341.46 188.152 341.616 188.203 341.763C188.255 341.91 188.337 342.045 188.445 342.159C188.553 342.273 188.684 342.364 188.83 342.426C188.976 342.488 189.133 342.52 189.293 342.519L189.294 342.519ZM197.618 344.198C193.863 344.198 191.208 347.649 191.208 351.358C191.208 353.9 192.835 355.999 195.729 355.999C199.604 355.999 202.139 352.385 202.139 348.907C202.137 346.507 200.75 344.198 197.617 344.198L197.618 344.198ZM197.403 345.737C199.484 345.737 200.106 347.579 200.106 348.886C200.106 351.521 198.336 354.46 195.99 354.46C194.292 354.46 193.263 353.131 193.263 351.288C193.24 348.699 194.914 345.738 197.401 345.738L197.403 345.737ZM205.512 355.743L206.564 350.262C207.09 347.463 209.102 345.809 210.511 345.809C211.875 345.809 212.329 346.649 212.329 347.792C212.321 348.278 212.265 348.762 212.16 349.238L210.892 355.745H212.878L214.169 349.168C214.293 348.568 214.365 347.96 214.385 347.348C214.385 344.97 212.83 344.2 211.443 344.2C210.571 344.218 209.719 344.455 208.968 344.888C208.218 345.322 207.596 345.937 207.161 346.674H207.113L207.4 344.458H205.63C205.486 345.393 205.343 346.488 205.08 347.747L203.525 355.747L205.512 355.743ZM215.845 355.207C216.701 355.737 217.701 356.005 218.715 355.976C221.155 355.976 223.14 354.647 223.14 352.268C223.14 351.008 222.255 350.029 220.964 349.306C219.935 348.746 219.385 348.233 219.385 347.417C219.385 346.437 220.246 345.712 221.442 345.712C222.145 345.714 222.837 345.891 223.451 346.225L224.001 344.756C223.26 344.366 222.427 344.173 221.585 344.196C219.145 344.196 217.399 345.712 217.399 347.694C217.399 348.837 218.141 349.838 219.48 350.563C220.676 351.216 221.083 351.753 221.083 352.639C221.083 353.642 220.222 354.481 218.884 354.481C218.008 354.453 217.153 354.213 216.396 353.782L215.845 355.207Z" fill="#333333"/>
</g>
<g clip-path="url(#clip2_248_595)">
<path d="M60.0645 204.601H58.4599V203.348H52.1977V201H33.8023V204.601H25.9355C24.3168 204.601 23 205.918 23 207.536V230.237C23 231.855 24.3168 233.172 25.9355 233.172H36.9334V236.695H35.1722C33.9854 236.695 33.0195 237.66 33.0195 238.847V241H52.9805V238.847C52.9805 237.66 52.0146 236.695 50.8278 236.695H49.0666V233.172H60.0645C61.6832 233.172 63 231.855 63 230.237V207.536C63 205.918 61.6832 204.601 60.0645 204.601ZM57.2856 204.523V212.742H49.0666V204.523H57.2856ZM44.9962 208.75V212.76L41.7802 210.013L37.1144 215.008L33.6833 211.644L26.9139 218.335V208.75H44.9962ZM41.8715 211.635L44.9962 214.304V218.534H35.428L41.8715 211.635ZM33.8212 218.534H28.3821L33.6866 213.292L36.313 215.867L33.8212 218.534ZM50.8278 237.869C51.3673 237.869 51.8062 238.308 51.8062 238.847V239.826H34.1938V238.847C34.1938 238.308 34.6327 237.869 35.1722 237.869H50.8278ZM38.1077 236.695V233.172H47.8923V236.695H38.1077ZM61.8257 230.237C61.8257 231.208 61.0356 231.998 60.0645 231.998H25.9355C24.9644 231.998 24.1743 231.208 24.1743 230.237V226.127H61.8257V230.237ZM61.8257 224.953H24.1743V207.536C24.1743 206.565 24.9644 205.775 25.9355 205.775H33.8023V207.575H25.7399V219.708H33.8023V221.822H32.0411V222.996H48.2448V221.822H34.9766V219.708H46.1702V207.575H34.9766V202.174H51.0234V203.348H47.8923V213.916H51.0234V215.09H49.4578V221.431H51.493V224.112L54.7935 221.431H60.3386V215.09H52.1977V213.916H58.4599V205.775H60.0645C61.0356 205.775 61.8257 206.565 61.8257 207.536V224.953ZM50.6321 220.256V216.264H59.1642V220.256H54.3766L52.6674 221.645V220.256H50.6321Z" fill="#333333"/>
<path d="M44.7611 227.301H41.2388V230.824H44.7611V227.301ZM43.5871 229.65H42.4128V228.476H43.5871V229.65Z" fill="#333333"/>
<path d="M51.0234 205.616V211.648L55.8495 208.632L51.0234 205.616ZM52.1978 207.734L53.6339 208.632L52.1978 209.53V207.734Z" fill="#333333"/>
<path d="M29.6929 221.822H30.8669V222.996H29.6929V221.822Z" fill="#333333"/>
<path d="M37.7554 204.601H43.2351V205.775H37.7554V204.601Z" fill="#333333"/>
<path d="M44.4089 204.601H46.6791V205.775H44.4089V204.601Z" fill="#333333"/>
<path d="M28.1272 209.924H29.3012V211.098H28.1272V209.924Z" fill="#333333"/>
<path d="M30.4756 209.924H32.0411V211.098H30.4756V209.924Z" fill="#333333"/>
<path d="M38.6821 216.769L39.4835 215.911L40.3417 216.712L39.5403 217.57L38.6821 216.769Z" fill="#333333"/>
<path d="M40.2849 215.053L41.9698 213.249L42.8276 214.051L41.1431 215.854L40.2849 215.053Z" fill="#333333"/>
<path d="M51.7671 217.673H55.681V218.847H51.7671V217.673Z" fill="#333333"/>
<path d="M56.8552 217.673H58.0292V218.847H56.8552V217.673Z" fill="#333333"/>
</g>
<g clip-path="url(#clip3_248_595)">
<path d="M165.185 245.591H134.944L164.208 239.318C164.562 239.242 164.771 238.952 164.677 238.669L163.58 235.393C163.534 235.257 163.423 235.141 163.271 235.071C163.119 235.001 162.938 234.982 162.768 235.018L128.643 242.333C128.29 242.409 128.08 242.699 128.175 242.982L129.194 246.025V265.905C129.194 266.509 129.808 267 130.563 267H164.478C165.233 267 165.847 266.509 165.847 265.905V246.121C165.847 245.828 165.551 245.591 165.185 245.591ZM164.523 246.651V248.798L161.838 246.651H164.523ZM155.725 246.651L158.64 248.983H156.274L153.359 246.651H155.725ZM151.486 246.651L154.401 248.983H152.035L149.12 246.651H151.486ZM147.246 246.651L150.161 248.983H147.795L144.881 246.651H147.246ZM143.007 246.651L145.922 248.983H143.556L140.641 246.651H143.007ZM138.768 246.651L141.682 248.983H139.316L136.402 246.651H138.768ZM137.443 248.983H135.077L132.162 246.651H134.528L137.443 248.983ZM133.203 248.983H130.519V246.835L133.203 248.983ZM163.226 238.431L160.633 238.987L162.531 236.357L163.226 238.431ZM160.884 236.519L158.823 239.375L156.538 239.865L158.599 237.009L160.884 236.519ZM156.789 237.397L154.728 240.253L152.443 240.743L154.504 237.887L156.789 237.397ZM152.694 238.275L150.633 241.131L148.348 241.62L150.409 238.765L152.694 238.275ZM148.599 239.153L146.538 242.008L144.253 242.498L146.314 239.642L148.599 239.153ZM144.504 240.03L142.443 242.886L140.158 243.376L142.219 240.52L144.504 240.03ZM140.409 240.908L138.348 243.764L136.063 244.254L138.124 241.398L140.409 240.908ZM136.314 241.786L134.253 244.642L131.968 245.132L134.029 242.276L136.314 241.786ZM129.626 243.22L132.219 242.664L130.321 245.294L129.626 243.22ZM164.523 265.905H164.523C164.523 265.924 164.503 265.94 164.478 265.94H130.563C130.539 265.94 130.519 265.924 130.519 265.905V250.042H160.239C160.605 250.042 160.902 249.805 160.902 249.512C160.902 249.366 160.827 249.234 160.707 249.138L157.599 246.651H159.965L162.901 249C162.615 249.058 162.403 249.265 162.403 249.513C162.403 249.805 162.7 250.042 163.066 250.042H164.523V265.905H164.523Z" fill="#333333"/>
<path d="M153.023 257.025L144.632 253.445C144.204 253.262 143.7 253.272 143.284 253.472C142.868 253.672 142.619 254.023 142.619 254.411V261.571C142.619 261.959 142.868 262.31 143.284 262.51C143.502 262.615 143.744 262.668 143.988 262.668C144.208 262.668 144.429 262.624 144.632 262.537C144.955 262.4 145.077 262.079 144.905 261.821C144.733 261.562 144.332 261.464 144.009 261.602C144.001 261.606 143.987 261.612 143.965 261.601C143.944 261.591 143.944 261.579 143.944 261.571V254.411C143.944 254.404 143.944 254.391 143.965 254.381C143.987 254.371 144.001 254.377 144.009 254.38L152.399 257.96C152.409 257.964 152.423 257.97 152.423 257.991C152.423 258.012 152.409 258.018 152.399 258.022L146.503 260.538C146.18 260.676 146.058 260.997 146.23 261.255C146.402 261.514 146.803 261.611 147.126 261.474L153.023 258.958C153.47 258.767 153.748 258.397 153.748 257.991C153.748 257.586 153.47 257.216 153.023 257.025Z" fill="#333333"/>
</g>
<path d="M232.695 230.812C233.019 230.812 233.281 230.602 233.281 230.344V206.281C233.281 206.092 233.474 205.938 233.711 205.938H241.1C241.423 205.938 241.685 205.728 241.685 205.469C241.685 205.21 241.423 205 241.1 205H233.711C232.828 205 232.109 205.575 232.109 206.281V230.344C232.109 230.602 232.372 230.812 232.695 230.812Z" fill="#333333"/>
<path d="M260.456 213.122L255.547 217.05V212.147C255.547 211.94 255.483 211.733 255.365 211.554C255.194 211.29 255.752 211.785 247.811 205.38C247.515 205.14 247.107 205 246.673 205H243.443C243.12 205 242.857 205.21 242.857 205.469C242.857 205.728 243.12 205.938 243.443 205.938H246.523V211.301C246.523 211.818 247.049 212.238 247.695 212.238H254.375V217.988L251.585 220.219C251.356 220.403 251.356 220.699 251.585 220.882C251.814 221.065 252.185 221.065 252.414 220.882L259.292 215.379L260.056 215.99L249.321 224.578L247.852 224.532L250.756 222.208C250.985 222.025 250.985 221.728 250.756 221.545C250.528 221.362 250.156 221.362 249.928 221.545C245.663 224.957 245.926 224.722 245.862 224.855L242.835 231.141C242.529 231.773 243.307 232.389 244.091 232.147C252.591 229.527 252.026 229.721 252.154 229.619L254.375 227.842V235.719C254.375 235.908 254.182 236.062 253.945 236.062H233.711C233.474 236.062 233.281 235.908 233.281 235.719V232.219C233.281 231.96 233.019 231.75 232.695 231.75C232.372 231.75 232.109 231.96 232.109 232.219V235.719C232.109 236.425 232.828 237 233.711 237H253.945C254.828 237 255.547 236.425 255.547 235.719V226.904L266.615 218.05C267.438 217.392 267.891 216.517 267.891 215.586C267.891 212.513 263.211 210.918 260.456 213.122ZM247.695 211.301V206.618C248.375 207.166 252.565 210.546 253.501 211.301L247.695 211.301ZM244.09 231.143L245.09 229.065L246.687 230.342L244.09 231.143ZM247.883 229.973L245.551 228.108L246.837 225.438L248.987 225.506L249.028 226.736C249.036 226.986 249.286 227.186 249.598 227.193L251.141 227.225L251.241 228.939L247.883 229.973ZM251.468 226.294L250.185 226.267L250.151 225.24L260.884 216.653L262.202 217.707L251.468 226.294ZM252.367 228.122L252.298 226.956L263.03 218.37L263.794 218.981L252.367 228.122ZM265.786 217.387L264.623 218.318L260.121 214.717L261.285 213.785C263.298 212.175 266.719 213.339 266.719 215.586C266.719 216.266 266.388 216.906 265.786 217.387Z" fill="#333333"/>
<path d="M235.508 231.26C235.184 231.26 234.922 231.47 234.922 231.729C234.922 231.988 235.184 232.198 235.508 232.198H240.781C241.105 232.198 241.367 231.988 241.367 231.729C241.367 231.47 241.105 231.26 240.781 231.26H235.508Z" fill="#333333"/>
<path d="M242.279 228.655C242.279 228.396 242.016 228.186 241.693 228.186H235.508C235.184 228.186 234.922 228.396 234.922 228.655C234.922 228.914 235.184 229.124 235.508 229.124H241.693C242.016 229.124 242.279 228.914 242.279 228.655Z" fill="#333333"/>
<path d="M243.906 225.581C243.906 225.322 243.644 225.112 243.32 225.112H235.508C235.184 225.112 234.922 225.322 234.922 225.581C234.922 225.84 235.184 226.05 235.508 226.05H243.32C243.644 226.05 243.906 225.84 243.906 225.581Z" fill="#333333"/>
<path d="M246.693 222.507C246.693 222.248 246.43 222.038 246.107 222.038H235.508C235.184 222.038 234.922 222.248 234.922 222.507C234.922 222.766 235.184 222.976 235.508 222.976H246.107C246.43 222.976 246.693 222.766 246.693 222.507Z" fill="#333333"/>
<path d="M250.339 219.433C250.339 219.174 250.076 218.964 249.753 218.964H235.508C235.184 218.964 234.922 219.174 234.922 219.433C234.922 219.692 235.184 219.902 235.508 219.902H249.753C250.076 219.902 250.339 219.692 250.339 219.433Z" fill="#333333"/>
<path d="M252.734 216.359C252.734 216.1 252.472 215.89 252.148 215.89H235.508C235.184 215.89 234.922 216.1 234.922 216.359C234.922 216.618 235.184 216.828 235.508 216.828H252.148C252.472 216.828 252.734 216.618 252.734 216.359Z" fill="#333333"/>
<path d="M245.599 212.816H235.508C235.184 212.816 234.922 213.026 234.922 213.285C234.922 213.544 235.184 213.754 235.508 213.754H245.599C245.923 213.754 246.185 213.544 246.185 213.285C246.185 213.026 245.923 212.816 245.599 212.816Z" fill="#333333"/>
<path d="M243.555 209.781H235.508C235.184 209.781 234.922 209.991 234.922 210.25C234.922 210.509 235.184 210.719 235.508 210.719H243.555C243.878 210.719 244.141 210.509 244.141 210.25C244.141 209.991 243.878 209.781 243.555 209.781Z" fill="#333333"/>
<defs>
<clipPath id="clip0_248_595">
<rect width="40" height="13" fill="white" transform="translate(126 118)"/>
</clipPath>
<clipPath id="clip1_248_595">
<rect width="202" height="16" fill="white" transform="translate(22 340)"/>
</clipPath>
<clipPath id="clip2_248_595">
<rect width="40" height="40" fill="white" transform="translate(23 201)"/>
</clipPath>
<clipPath id="clip3_248_595">
<rect width="40" height="32" fill="white" transform="translate(127 235)"/>
</clipPath>
</defs>
</svg>
