<svg width="436" height="369" viewBox="0 0 436 369" fill="none" xmlns="http://www.w3.org/2000/svg">
<rect x="126" y="104" width="185" height="83" fill="#333333"/>
<g clip-path="url(#clip0_248_593)">
<path d="M201.625 130.718L202.657 125.154C203.16 122.385 204.546 120.873 205.728 120.873C206.634 120.873 206.936 121.488 206.936 122.359C206.933 122.832 206.891 123.304 206.811 123.769L205.525 130.718H209.15L210.509 123.436C210.624 122.733 210.691 122.022 210.71 121.308C210.71 119.155 209.578 117.899 207.565 117.899C206.708 117.896 205.864 118.109 205.108 118.521C204.352 118.932 203.708 119.528 203.233 120.256H203.183L203.435 118.179H200.215C200.064 119.281 199.863 120.666 199.563 122.255L198.002 130.717L201.625 130.718ZM222.217 127.333C221.143 127.866 219.962 128.138 218.768 128.128C218.326 128.165 217.882 128.096 217.471 127.926C217.06 127.757 216.694 127.493 216.401 127.154C216.162 126.77 216.032 126.326 216.024 125.872C220.958 126 224.004 124.845 224.004 121.641C224.004 119.309 222.217 117.898 219.724 117.898C215.268 117.898 212.55 121.872 212.55 125.694C212.55 128.951 214.362 130.976 217.887 130.976C219.466 131.004 221.032 130.671 222.468 130.002L222.217 127.333ZM220.606 121.667C220.606 122.796 219.196 123.205 216.377 123.178C216.494 122.474 216.846 121.832 217.373 121.36C217.901 120.889 218.571 120.616 219.272 120.589C220.103 120.59 220.606 121.027 220.606 121.667ZM225.616 118.181L228.511 124.23L223.174 130.718H227.353L228.812 128.538C229.366 127.667 229.719 127.027 230.071 126.436H230.146C230.373 127.179 230.574 127.794 230.927 128.718L231.707 130.718H235.683L232.816 124.257L238.001 118.181H233.848L232.488 120.155C231.959 120.925 231.632 121.488 231.179 122.155H231.104C230.926 121.668 230.701 121.053 230.323 120.053L229.593 118.179L225.616 118.181Z" fill="white"/>
</g>
<path d="M182.708 141.788C181.808 143.312 179.876 145.22 177.8 146.288C178.112 146.588 178.52 147.116 178.7 147.44C180.68 146.324 182.528 144.656 183.5 143.192C184.532 144.668 186.536 146.396 188.396 147.428C188.672 146.984 188.996 146.516 189.356 146.144C187.436 145.316 185.468 143.684 184.172 141.788H182.708ZM184.376 149.024H187.592V147.764H184.376V145.196H182.876V151.424H181.172V147.26H179.768V151.424H178.46V152.72H188.672V151.424H184.376V149.024ZM199.676 150.992H192.428V144.68H191.036V153.044H192.428V152.336H199.676V153.032H201.056V144.68H199.676V150.992ZM197.66 147.02H196.616V146.012H197.66V147.02ZM197.66 149.12H196.616V148.1H197.66V149.12ZM194.348 148.1H195.392V149.12H194.348V148.1ZM194.348 146.012H195.392V147.02H194.348V146.012ZM190.676 142.556V143.888H195.284V144.848H193.184V150.284H198.896V144.848H196.712V143.888H201.416V142.556H190.676ZM205.52 145.904C204.68 145.904 203.984 146.6 203.984 147.44C203.984 148.28 204.68 148.976 205.52 148.976C206.36 148.976 207.056 148.28 207.056 147.44C207.056 146.6 206.36 145.904 205.52 145.904ZM220.508 144.008C220.316 143.444 219.788 142.616 219.308 141.98L218.228 142.544C218.696 143.18 219.164 144.08 219.356 144.632L220.508 144.008ZM213.308 143.84C213.224 143.312 212.984 142.472 212.72 141.848L211.544 142.112C211.784 142.772 212 143.636 212.048 144.176L213.308 143.84ZM211.364 144.068C211.256 143.528 210.908 142.712 210.56 142.1L209.396 142.472C209.72 143.108 210.044 143.96 210.128 144.488L211.364 144.068ZM210.968 147.356H212.036V148.04H210.968V147.356ZM210.968 145.676H212.036V146.372H210.968V145.676ZM214.244 146.372H213.224V145.676H214.244V146.372ZM214.244 148.04H213.224V147.356H214.244V148.04ZM215.792 151.064V149.804H213.308V149.096H215.468V144.632H214.688C215.084 144.044 215.6 143.12 216.032 142.268L214.556 141.872C214.352 142.628 213.92 143.624 213.548 144.272L214.64 144.632H209.816V149.096H211.952V149.804H209.396V151.064H211.952V153.032H213.308V151.064H215.792ZM219.272 146.396C219.044 147.128 218.72 147.836 218.336 148.508C218.228 147.872 218.144 147.14 218.072 146.36L220.652 146.036L220.508 144.728L217.976 145.04C217.916 144.044 217.88 142.988 217.868 141.884H216.512C216.548 143.06 216.584 144.164 216.644 145.196L215.576 145.328L215.72 146.648L216.752 146.516C216.86 147.872 217.028 149.048 217.256 150.02C216.5 150.884 215.612 151.592 214.604 152.048C214.964 152.3 215.396 152.72 215.636 153.044C216.38 152.636 217.076 152.096 217.7 151.448C218.108 152.42 218.66 152.972 219.38 152.996C219.884 153.02 220.484 152.552 220.796 150.536C220.568 150.404 220.004 150.02 219.776 149.72C219.704 150.752 219.584 151.304 219.38 151.304C219.128 151.28 218.9 150.896 218.708 150.236C219.416 149.252 219.98 148.148 220.352 147.008L219.272 146.396ZM228.14 148.604C228.716 148.268 229.268 147.884 229.784 147.452C230.276 147.884 230.828 148.28 231.428 148.604H228.14ZM228.512 151.4V149.852H230.972V151.4H228.512ZM226.484 145.604C226.712 145.82 226.94 146.048 227.06 146.204C227.36 145.952 227.66 145.652 227.948 145.316C228.2 145.712 228.5 146.12 228.836 146.504C228.128 147.104 227.312 147.596 226.484 147.956V145.604ZM224.816 149.468V147.068H225.416V149.468H224.816ZM223.364 147.068H223.928V149.468H223.364V147.068ZM223.928 143.768V145.892H223.364V143.768H223.928ZM225.416 145.892H224.816V143.768H225.416V145.892ZM230.816 144.212C230.528 144.716 230.168 145.196 229.76 145.64C229.34 145.208 229.004 144.752 228.728 144.308L228.8 144.212H230.816ZM231.74 142.964L231.5 143.024H229.496C229.64 142.748 229.772 142.472 229.88 142.184L228.536 141.812C228.104 142.94 227.36 144.032 226.484 144.812V142.544H222.332V151.676H223.364V150.692H226.484V148.604C226.64 148.82 226.796 149.048 226.892 149.228L227.192 149.096V153.032H228.512V152.648H230.972V153.02H232.364V149.048L232.448 149.084C232.652 148.736 233.072 148.16 233.36 147.884C232.376 147.584 231.5 147.092 230.756 146.528C231.572 145.652 232.232 144.608 232.676 143.42L231.74 142.964ZM245.06 143.936H240.68V141.848H239.192V143.936H234.932V145.34H245.06V143.936ZM238.964 150.392C238.844 149.12 238.4 147.26 237.836 145.784L236.468 146.144C236.996 147.608 237.416 149.528 237.5 150.776L238.964 150.392ZM242.036 151.148C242.552 149.744 243.116 147.8 243.536 146.036L241.892 145.736C241.64 147.464 241.064 149.696 240.524 151.148H234.548V152.576H245.408V151.148H242.036ZM251.216 145.82H254.024C253.82 146.168 253.544 146.48 253.124 146.732C252.356 146.54 251.588 146.372 250.892 146.24L251.216 145.82ZM257.888 150.344V149.168H253.112V148.352H251.996C252.512 148.232 252.956 148.088 253.34 147.92C254.516 148.256 255.596 148.616 256.316 148.928L257.168 147.92C256.496 147.668 255.608 147.392 254.636 147.116C255.044 146.756 255.344 146.324 255.56 145.82H257.672V144.704H252.068C252.212 144.512 252.344 144.32 252.476 144.14L251.384 143.816H256.208V144.476H257.588V142.64H253.148V141.848H251.72V142.64H247.316V144.476H248.636V143.816H251.096C250.904 144.092 250.676 144.392 250.448 144.704H247.232V145.82H249.596C249.26 146.228 248.948 146.612 248.66 146.924L250.016 147.296L250.172 147.116C250.532 147.188 250.916 147.284 251.3 147.368C250.376 147.572 249.164 147.704 247.544 147.788C247.724 148.064 247.952 148.556 248.012 148.892C249.512 148.784 250.724 148.64 251.696 148.424V149.168H247.028V150.344H250.688C249.668 150.992 248.168 151.52 246.728 151.772C247.028 152.048 247.412 152.576 247.604 152.924C249.092 152.564 250.592 151.868 251.696 150.968V153.032H253.112V150.896C254.252 151.82 255.8 152.552 257.3 152.912C257.504 152.552 257.9 152 258.212 151.7C256.76 151.472 255.26 150.968 254.204 150.344H257.888ZM177.98 162.008L176.804 161.252C176.48 161.336 176.096 161.348 175.856 161.348H170.312C169.916 161.348 169.232 161.288 168.872 161.252V162.944C169.184 162.92 169.76 162.896 170.3 162.896H175.892C175.736 163.916 175.28 165.284 174.488 166.28C173.516 167.492 172.16 168.536 169.784 169.1L171.092 170.528C173.228 169.844 174.824 168.656 175.916 167.216C176.912 165.884 177.44 164.024 177.716 162.848C177.776 162.596 177.872 162.248 177.98 162.008ZM188.785 164.012L187.897 163.208C187.705 163.268 187.189 163.292 186.925 163.292H181.357C180.961 163.292 180.481 163.256 180.109 163.196V164.744C180.553 164.696 180.961 164.672 181.357 164.672H186.565C186.277 165.176 185.521 166.028 184.837 166.496L186.037 167.336C186.889 166.676 188.005 165.164 188.425 164.492C188.497 164.372 188.677 164.144 188.785 164.012ZM184.669 165.272H183.013C183.061 165.524 183.097 165.836 183.097 166.124C183.097 167.636 182.845 168.704 181.489 169.628C181.129 169.88 180.829 170.024 180.517 170.144L181.789 171.164C184.597 169.616 184.597 167.516 184.669 165.272ZM192.863 160.496L191.987 161.816C192.779 162.26 194.027 163.076 194.699 163.544L195.599 162.212C194.975 161.78 193.655 160.928 192.863 160.496ZM190.631 169.016L191.531 170.6C192.599 170.408 194.315 169.808 195.539 169.112C197.507 167.984 199.199 166.46 200.315 164.804L199.391 163.172C198.431 164.888 196.763 166.532 194.723 167.672C193.415 168.392 191.975 168.788 190.631 169.016ZM191.015 163.232L190.139 164.564C190.943 164.984 192.191 165.8 192.875 166.268L193.751 164.924C193.139 164.492 191.819 163.664 191.015 163.232ZM209.912 160.688H208.1C208.148 161.024 208.172 161.408 208.172 161.888V164.168C208.172 166.04 208.016 166.94 207.188 167.84C206.468 168.62 205.496 169.076 204.308 169.352L205.556 170.672C206.432 170.396 207.68 169.808 208.472 168.944C209.36 167.96 209.864 166.844 209.864 164.264V161.888C209.864 161.408 209.888 161.024 209.912 160.688ZM204.344 160.784H202.616C202.652 161.06 202.664 161.48 202.664 161.708V165.752C202.664 166.112 202.616 166.58 202.604 166.808H204.344C204.32 166.532 204.308 166.064 204.308 165.764V161.708C204.308 161.324 204.32 161.06 204.344 160.784ZM213.68 160.796V162.344C214.052 162.32 214.556 162.296 214.976 162.296H219.788C220.208 162.296 220.676 162.32 221.084 162.344V160.796C220.676 160.856 220.196 160.88 219.788 160.88H214.964C214.568 160.88 214.076 160.856 213.68 160.796ZM212.288 163.868V165.44C212.624 165.416 213.08 165.392 213.44 165.392H216.74C216.692 166.4 216.488 167.3 215.996 168.044C215.516 168.74 214.676 169.436 213.824 169.76L215.228 170.78C216.296 170.24 217.22 169.304 217.64 168.476C218.072 167.636 218.336 166.628 218.408 165.392H221.3C221.636 165.392 222.092 165.404 222.392 165.428V163.868C222.08 163.916 221.552 163.94 221.3 163.94H213.44C213.068 163.94 212.648 163.904 212.288 163.868ZM224.266 164.444V166.328C224.71 166.292 225.514 166.268 226.198 166.268H232.642C233.146 166.268 233.758 166.316 234.046 166.328V164.444C233.734 164.468 233.206 164.516 232.642 164.516H226.198C225.574 164.516 224.698 164.48 224.266 164.444ZM238.705 160.496L237.829 161.816C238.621 162.26 239.869 163.076 240.541 163.544L241.441 162.212C240.817 161.78 239.497 160.928 238.705 160.496ZM236.473 169.016L237.373 170.6C238.441 170.408 240.157 169.808 241.381 169.112C243.349 167.984 245.041 166.46 246.157 164.804L245.233 163.172C244.273 164.888 242.605 166.532 240.565 167.672C239.257 168.392 237.817 168.788 236.473 169.016ZM236.857 163.232L235.981 164.564C236.785 164.984 238.033 165.8 238.717 166.268L239.593 164.924C238.981 164.492 237.661 163.664 236.857 163.232ZM248.228 163.22V164.672C248.516 164.648 249.272 164.624 249.716 164.624H253.676V166.076H249.848C249.392 166.076 248.852 166.064 248.54 166.04V167.456C248.816 167.444 249.392 167.432 249.848 167.432H253.676V169.028H249.14C248.708 169.028 248.3 169.004 248.096 168.98V170.456C248.3 170.444 248.792 170.42 249.128 170.42H253.676C253.676 170.6 253.676 170.792 253.664 170.9H255.176C255.176 170.684 255.164 170.276 255.164 170.084V164.06C255.164 163.808 255.164 163.412 255.176 163.256C254.984 163.268 254.54 163.28 254.252 163.28H249.716C249.272 163.28 248.54 163.256 248.228 163.22ZM259.333 160.88L258.205 162.08C259.081 162.692 260.581 164 261.205 164.672L262.429 163.424C261.733 162.692 260.173 161.444 259.333 160.88ZM257.833 168.872L258.841 170.456C260.533 170.168 262.081 169.496 263.293 168.764C265.225 167.6 266.821 165.944 267.733 164.324L266.797 162.632C266.041 164.252 264.481 166.088 262.429 167.3C261.265 167.996 259.705 168.608 257.833 168.872Z" fill="white"/>
<circle opacity="0.2" cx="43" cy="70" r="40" fill="#333333"/>
<circle cx="43" cy="221" r="40" fill="white"/>
<circle opacity="0.2" cx="395" cy="70" r="40" fill="#333333"/>
<circle cx="395" cy="221" r="40" fill="white"/>
<circle opacity="0.2" cx="219" cy="40" r="40" fill="#333333"/>
<circle cx="219" cy="251" r="40" fill="white"/>
<path d="M36.4403 61.368C36.7043 60.444 36.9683 59.436 37.1963 58.464H37.2563C37.5083 59.424 37.7483 60.444 38.0243 61.368L38.2883 62.34H36.1763L36.4403 61.368ZM33.3683 66H35.1683L35.7923 63.72H38.6723L39.2963 66H41.1563L38.3003 57.108H36.2123L33.3683 66ZM47.2838 62.616C47.0318 62.376 46.1077 61.548 45.5318 61.08C46.1077 60.288 46.5878 59.424 46.9478 58.512L46.1438 57.996L45.8918 58.056H45.3517V55.848H43.9357V58.056H42.2317V59.352H45.1237C44.3437 60.732 43.0837 61.992 41.7757 62.7C41.9917 62.976 42.3277 63.672 42.4477 64.056C42.9517 63.744 43.4557 63.348 43.9357 62.904V67.044H45.3517V62.52C45.7598 62.964 46.1678 63.444 46.4198 63.78L47.2838 62.616ZM50.7397 65.304V60.912H53.0078V59.532H50.7397V55.944H49.2758V59.532H46.9958V60.912H49.2758V65.304H46.5038V66.696H53.2958V65.304H50.7397Z" fill="#333333"/>
<path d="M237.185 245.591H206.944L236.208 239.318C236.562 239.242 236.771 238.951 236.677 238.669L235.58 235.393C235.534 235.257 235.423 235.141 235.271 235.071C235.119 235.001 234.938 234.982 234.768 235.018L200.643 242.333C200.29 242.409 200.08 242.699 200.175 242.982L201.194 246.025V265.905C201.194 266.509 201.808 267 202.563 267H236.478C237.233 267 237.847 266.509 237.847 265.905V246.121C237.847 245.828 237.551 245.591 237.185 245.591ZM236.523 246.651V248.798L233.838 246.651H236.523ZM227.725 246.651L230.64 248.982H228.274L225.359 246.651H227.725ZM223.486 246.651L226.401 248.982H224.035L221.12 246.651H223.486ZM219.246 246.651L222.161 248.982H219.795L216.881 246.651H219.246ZM215.007 246.651L217.922 248.982H215.556L212.641 246.651H215.007ZM210.768 246.651L213.682 248.982H211.316L208.402 246.651H210.768ZM209.443 248.982H207.077L204.162 246.651H206.528L209.443 248.982ZM205.203 248.982H202.519V246.835L205.203 248.982ZM235.226 238.431L232.633 238.987L234.531 236.357L235.226 238.431ZM232.884 236.519L230.823 239.375L228.538 239.865L230.599 237.009L232.884 236.519ZM228.789 237.397L226.728 240.253L224.443 240.743L226.504 237.887L228.789 237.397ZM224.694 238.275L222.633 241.131L220.348 241.62L222.409 238.765L224.694 238.275ZM220.599 239.153L218.538 242.008L216.253 242.498L218.314 239.642L220.599 239.153ZM216.504 240.03L214.443 242.886L212.158 243.376L214.219 240.52L216.504 240.03ZM212.409 240.908L210.348 243.764L208.063 244.254L210.124 241.398L212.409 240.908ZM208.314 241.786L206.253 244.642L203.968 245.132L206.029 242.276L208.314 241.786ZM201.626 243.22L204.219 242.664L202.321 245.294L201.626 243.22ZM236.523 265.905H236.523C236.523 265.924 236.503 265.94 236.478 265.94H202.563C202.539 265.94 202.519 265.924 202.519 265.905V250.042H232.239C232.605 250.042 232.902 249.805 232.902 249.512C232.902 249.366 232.827 249.234 232.707 249.138L229.599 246.651H231.965L234.901 249C234.615 249.058 234.403 249.265 234.403 249.512C234.403 249.805 234.7 250.042 235.066 250.042H236.523V265.905H236.523Z" fill="#333333"/>
<path d="M225.023 257.025L216.632 253.445C216.204 253.262 215.7 253.272 215.284 253.472C214.868 253.672 214.619 254.023 214.619 254.411V261.571C214.619 261.959 214.868 262.31 215.284 262.51C215.502 262.615 215.744 262.668 215.988 262.668C216.208 262.668 216.429 262.624 216.632 262.537C216.955 262.4 217.077 262.079 216.905 261.821C216.733 261.562 216.332 261.464 216.009 261.602C216.001 261.606 215.987 261.612 215.965 261.601C215.944 261.591 215.944 261.579 215.944 261.571V254.411C215.944 254.404 215.944 254.391 215.965 254.381C215.987 254.371 216.001 254.377 216.009 254.38L224.399 257.96C224.409 257.964 224.423 257.97 224.423 257.991C224.423 258.012 224.409 258.018 224.399 258.022L218.503 260.538C218.18 260.676 218.058 260.997 218.23 261.255C218.402 261.514 218.803 261.611 219.126 261.474L225.023 258.958C225.47 258.767 225.748 258.397 225.748 257.991C225.748 257.586 225.47 257.216 225.023 257.025Z" fill="#333333"/>
<path d="M377.695 230.812C378.019 230.812 378.281 230.602 378.281 230.344V206.281C378.281 206.092 378.474 205.938 378.711 205.938H386.1C386.423 205.938 386.685 205.728 386.685 205.469C386.685 205.21 386.423 205 386.1 205H378.711C377.828 205 377.109 205.575 377.109 206.281V230.344C377.109 230.602 377.372 230.812 377.695 230.812Z" fill="#333333"/>
<path d="M405.456 213.122L400.547 217.05V212.147C400.547 211.94 400.483 211.733 400.365 211.554C400.194 211.29 400.752 211.785 392.811 205.38C392.515 205.14 392.107 205 391.673 205H388.443C388.12 205 387.857 205.21 387.857 205.469C387.857 205.728 388.12 205.938 388.443 205.938H391.523V211.301C391.523 211.818 392.049 212.238 392.695 212.238H399.375V217.988L396.585 220.219C396.356 220.403 396.356 220.699 396.585 220.882C396.814 221.065 397.185 221.065 397.414 220.882L404.292 215.379L405.056 215.99L394.321 224.578L392.852 224.532L395.756 222.208C395.985 222.025 395.985 221.728 395.756 221.545C395.528 221.362 395.156 221.362 394.928 221.545C390.663 224.957 390.926 224.722 390.862 224.855L387.835 231.141C387.529 231.773 388.307 232.389 389.091 232.147C397.591 229.527 397.026 229.721 397.154 229.619L399.375 227.842V235.719C399.375 235.908 399.182 236.062 398.945 236.062H378.711C378.474 236.062 378.281 235.908 378.281 235.719V232.219C378.281 231.96 378.019 231.75 377.695 231.75C377.372 231.75 377.109 231.96 377.109 232.219V235.719C377.109 236.425 377.828 237 378.711 237H398.945C399.828 237 400.547 236.425 400.547 235.719V226.904L411.615 218.05C412.438 217.392 412.891 216.517 412.891 215.586C412.891 212.513 408.211 210.918 405.456 213.122ZM392.695 211.301V206.618C393.375 207.166 397.565 210.546 398.501 211.301L392.695 211.301ZM389.09 231.143L390.09 229.065L391.687 230.342L389.09 231.143ZM392.883 229.973L390.551 228.108L391.837 225.438L393.987 225.506L394.028 226.736C394.036 226.986 394.286 227.186 394.598 227.193L396.141 227.225L396.241 228.939L392.883 229.973ZM396.468 226.294L395.185 226.267L395.151 225.24L405.884 216.653L407.202 217.707L396.468 226.294ZM397.367 228.122L397.298 226.956L408.03 218.37L408.794 218.981L397.367 228.122ZM410.786 217.387L409.623 218.318L405.121 214.717L406.285 213.785C408.298 212.175 411.719 213.339 411.719 215.586C411.719 216.266 411.388 216.906 410.786 217.387Z" fill="#333333"/>
<path d="M380.508 231.26C380.184 231.26 379.922 231.47 379.922 231.729C379.922 231.988 380.184 232.198 380.508 232.198H385.781C386.105 232.198 386.367 231.988 386.367 231.729C386.367 231.47 386.105 231.26 385.781 231.26H380.508Z" fill="#333333"/>
<path d="M387.279 228.655C387.279 228.396 387.016 228.186 386.693 228.186H380.508C380.184 228.186 379.922 228.396 379.922 228.655C379.922 228.914 380.184 229.124 380.508 229.124H386.693C387.016 229.124 387.279 228.914 387.279 228.655Z" fill="#333333"/>
<path d="M388.906 225.581C388.906 225.322 388.644 225.112 388.32 225.112H380.508C380.184 225.112 379.922 225.322 379.922 225.581C379.922 225.84 380.184 226.05 380.508 226.05H388.32C388.644 226.05 388.906 225.84 388.906 225.581Z" fill="#333333"/>
<path d="M391.693 222.507C391.693 222.248 391.43 222.038 391.107 222.038H380.508C380.184 222.038 379.922 222.248 379.922 222.507C379.922 222.766 380.184 222.976 380.508 222.976H391.107C391.43 222.976 391.693 222.766 391.693 222.507Z" fill="#333333"/>
<path d="M395.339 219.433C395.339 219.174 395.076 218.964 394.753 218.964H380.508C380.184 218.964 379.922 219.174 379.922 219.433C379.922 219.692 380.184 219.902 380.508 219.902H394.753C395.076 219.902 395.339 219.692 395.339 219.433Z" fill="#333333"/>
<path d="M397.734 216.359C397.734 216.1 397.472 215.89 397.148 215.89H380.508C380.184 215.89 379.922 216.1 379.922 216.359C379.922 216.618 380.184 216.828 380.508 216.828H397.148C397.472 216.828 397.734 216.618 397.734 216.359Z" fill="#333333"/>
<path d="M390.599 212.816H380.508C380.184 212.816 379.922 213.026 379.922 213.285C379.922 213.544 380.184 213.754 380.508 213.754H390.599C390.923 213.754 391.185 213.544 391.185 213.285C391.185 213.026 390.923 212.816 390.599 212.816Z" fill="#333333"/>
<path d="M388.555 209.781H380.508C380.184 209.781 379.922 209.991 379.922 210.25C379.922 210.509 380.184 210.719 380.508 210.719H388.555C388.878 210.719 389.141 210.509 389.141 210.25C389.141 209.991 388.878 209.781 388.555 209.781Z" fill="#333333"/>
<path d="M2.14848 279H4.32048L5.29248 274.608C5.43648 273.912 5.55648 273.228 5.67648 272.544H5.72448C5.83248 273.228 5.96448 273.912 6.10848 274.608L7.10448 279H9.31248L10.9565 270.108H9.27648L8.56848 274.452C8.43648 275.376 8.30448 276.324 8.17248 277.284H8.11248C7.92048 276.324 7.74048 275.364 7.54848 274.452L6.52848 270.108H5.00448L3.97248 274.452C3.78048 275.376 3.58848 276.324 3.40848 277.284H3.36048C3.22848 276.324 3.08448 275.388 2.95248 274.452L2.24448 270.108H0.444484L2.14848 279ZM15.553 279.168C16.381 279.168 17.233 278.88 17.893 278.424L17.293 277.344C16.813 277.644 16.333 277.812 15.781 277.812C14.785 277.812 14.065 277.236 13.921 276.132H18.061C18.109 275.976 18.145 275.652 18.145 275.316C18.145 273.468 17.185 272.112 15.337 272.112C13.741 272.112 12.205 273.468 12.205 275.64C12.205 277.86 13.669 279.168 15.553 279.168ZM13.897 274.956C14.029 273.984 14.653 273.48 15.361 273.48C16.225 273.48 16.633 274.056 16.633 274.956H13.897ZM23.4496 279.168C24.9256 279.168 26.3056 277.836 26.3056 275.52C26.3056 273.468 25.3096 272.112 23.6536 272.112C22.9936 272.112 22.3216 272.436 21.7936 272.916L21.8416 271.836V269.424H20.0776V279H21.4576L21.6136 278.292H21.6616C22.2016 278.856 22.8496 279.168 23.4496 279.168ZM23.0536 277.716C22.6936 277.716 22.2616 277.584 21.8416 277.212V274.26C22.2976 273.792 22.7056 273.564 23.1616 273.564C24.0856 273.564 24.4936 274.272 24.4936 275.556C24.4936 277.02 23.8696 277.716 23.0536 277.716ZM29.2367 269.94V271.488C29.5967 271.464 30.1127 271.452 30.5207 271.452H34.4447C34.8647 271.452 35.3327 271.464 35.7407 271.488V269.94C35.3327 270 34.8527 270.036 34.4447 270.036H30.5207C30.1127 270.036 29.6207 270 29.2367 269.94ZM27.8447 273.012V274.584C28.1807 274.56 28.6487 274.536 28.9967 274.536H32.2967C32.2487 275.544 32.0447 276.444 31.5527 277.188C31.0727 277.896 30.2327 278.58 29.3807 278.904L30.7847 279.924C31.8527 279.384 32.7767 278.46 33.1967 277.62C33.6287 276.78 33.8927 275.772 33.9647 274.536H36.8567C37.1927 274.536 37.6487 274.548 37.9487 274.572V273.012C37.6367 273.06 37.1087 273.084 36.8567 273.084H28.9967C28.6247 273.084 28.2047 273.06 27.8447 273.012ZM36.4607 269.112L35.5007 269.508C35.8247 269.964 36.1967 270.684 36.4487 271.176L37.4087 270.756C37.1807 270.312 36.7607 269.556 36.4607 269.112ZM37.8767 268.572L36.9287 268.968C37.2527 269.424 37.6367 270.12 37.8887 270.624L38.8487 270.204C38.6327 269.784 38.1887 269.028 37.8767 268.572ZM49.0186 269.664L48.2146 269.928C48.4426 270.408 48.6586 271.068 48.8266 271.572L49.6546 271.308C49.5226 270.84 49.2466 270.144 49.0186 269.664ZM50.2546 269.28L49.4386 269.544C49.6906 270.012 49.9186 270.66 50.0866 271.176L50.9146 270.912C50.7586 270.456 50.4826 269.76 50.2546 269.28ZM47.9866 273.876V273.48H48.8866C49.5106 273.48 49.9306 273.492 50.1946 273.516V271.92C49.8706 271.98 49.5106 272.004 48.8746 272.004H47.9866V270.744C47.9866 270.264 48.0346 269.88 48.0706 269.628H46.3546C46.3906 269.868 46.4266 270.264 46.4266 270.744V272.004H43.5826V270.828C43.5826 270.348 43.6306 269.964 43.6546 269.736H41.9506C41.9866 270.108 42.0226 270.468 42.0226 270.816V272.004H41.0026C40.4026 272.004 39.9226 271.932 39.7066 271.896V273.528C39.9706 273.516 40.4026 273.48 41.0026 273.48H42.0226V275.112C42.0226 275.652 41.9866 276.132 41.9506 276.372H43.6306C43.6186 276.132 43.5826 275.652 43.5826 275.112V273.48H46.4266V273.936C46.4266 276.888 45.4066 277.92 43.0906 278.736L44.3746 279.948C47.2786 278.664 47.9866 276.852 47.9866 273.876ZM51.9464 274.332L52.7024 275.844C54.1784 275.412 55.7024 274.764 56.9384 274.116V277.956C56.9384 278.484 56.9024 279.24 56.8544 279.528H58.7504C58.6664 279.228 58.6424 278.484 58.6424 277.956V273.108C59.8064 272.34 60.9584 271.404 61.8704 270.504L60.5744 269.268C59.7944 270.216 58.4264 271.416 57.1904 272.184C55.8584 273 54.0944 273.78 51.9464 274.332ZM67.7605 270.912V272.232H64.6405C64.1605 272.232 63.6685 272.184 63.3085 272.148V273.804C63.6805 273.78 64.1605 273.744 64.6885 273.744H67.7485C67.6525 275.772 66.8485 277.5 64.4965 278.568L65.9845 279.672C68.5765 278.124 69.3325 276.156 69.4045 273.744H72.1045C72.5845 273.744 73.1725 273.78 73.4245 273.792V272.16C73.1725 272.184 72.6685 272.232 72.1165 272.232H69.4165V270.924C69.4165 270.54 69.4405 269.88 69.5125 269.508H67.6045C67.7125 269.88 67.7605 270.504 67.7605 270.912ZM75.0985 273.444V275.328C75.5425 275.292 76.3465 275.268 77.0305 275.268H83.4745C83.9785 275.268 84.5905 275.316 84.8785 275.328V273.444C84.5665 273.468 84.0385 273.516 83.4745 273.516H77.0305C76.4065 273.516 75.5305 273.48 75.0985 273.444Z" fill="#333333"/>
<path d="M388.44 61.368C388.704 60.444 388.968 59.436 389.196 58.464H389.256C389.508 59.424 389.748 60.444 390.024 61.368L390.288 62.34H388.176L388.44 61.368ZM385.368 66H387.168L387.792 63.72H390.672L391.296 66H393.156L390.3 57.108H388.212L385.368 66ZM399.284 62.616C399.032 62.376 398.108 61.548 397.532 61.08C398.108 60.288 398.588 59.424 398.948 58.512L398.144 57.996L397.892 58.056H397.352V55.848H395.936V58.056H394.232V59.352H397.124C396.344 60.732 395.084 61.992 393.776 62.7C393.992 62.976 394.328 63.672 394.448 64.056C394.952 63.744 395.456 63.348 395.936 62.904V67.044H397.352V62.52C397.76 62.964 398.168 63.444 398.42 63.78L399.284 62.616ZM402.74 65.304V60.912H405.008V59.532H402.74V55.944H401.276V59.532H398.996V60.912H401.276V65.304H398.504V66.696H405.296V65.304H402.74Z" fill="#333333"/>
<path d="M355.846 270.48V272.148C356.182 272.124 356.83 272.1 357.334 272.1H362.722V277.068H357.19C356.65 277.068 356.11 277.032 355.69 276.996V278.712C356.086 278.676 356.77 278.64 357.238 278.64H362.71C362.71 278.868 362.71 279.072 362.698 279.264H364.438C364.414 278.904 364.39 278.268 364.39 277.848V271.632C364.39 271.284 364.414 270.804 364.426 270.528C364.222 270.54 363.718 270.552 363.37 270.552H357.322C356.914 270.552 356.29 270.528 355.846 270.48ZM375.555 270.48C375.555 270.096 375.867 269.784 376.239 269.784C376.623 269.784 376.935 270.096 376.935 270.48C376.935 270.864 376.623 271.176 376.239 271.176C375.867 271.176 375.555 270.864 375.555 270.48ZM374.811 270.48C374.811 270.84 374.943 271.176 375.159 271.428C374.751 271.668 374.391 271.836 374.007 271.98C372.939 272.436 371.271 272.964 369.855 273.312V271.044C369.855 270.708 369.891 270.156 369.951 269.796H368.175C368.235 270.156 368.271 270.78 368.271 271.044V277.584C368.271 278.616 368.871 279.192 369.915 279.384C370.431 279.468 371.151 279.516 371.931 279.516C373.251 279.516 375.075 279.432 376.203 279.264V277.512C375.219 277.776 373.275 277.932 372.027 277.932C371.487 277.932 370.995 277.908 370.635 277.86C370.095 277.752 369.855 277.62 369.855 277.104V274.884C371.415 274.5 373.347 273.9 374.559 273.42C374.955 273.276 375.495 273.048 375.963 272.856L375.471 271.692C375.687 271.836 375.951 271.92 376.239 271.92C377.031 271.92 377.679 271.272 377.679 270.48C377.679 269.688 377.031 269.04 376.239 269.04C375.447 269.04 374.811 269.688 374.811 270.48ZM379.3 273.444V275.328C379.744 275.292 380.548 275.268 381.232 275.268H387.676C388.18 275.268 388.792 275.316 389.08 275.328V273.444C388.768 273.468 388.24 273.516 387.676 273.516H381.232C380.608 273.516 379.732 273.48 379.3 273.444ZM392.426 269.796V271.344C392.774 271.32 393.29 271.308 393.674 271.308H398.27C398.702 271.308 399.266 271.32 399.59 271.344V269.796C399.254 269.844 398.666 269.856 398.294 269.856H393.674C393.266 269.856 392.762 269.844 392.426 269.796ZM400.598 273.276L399.53 272.616C399.362 272.688 399.038 272.736 398.654 272.736H392.714C392.342 272.736 391.826 272.7 391.322 272.664V274.224C391.826 274.176 392.426 274.164 392.714 274.164H398.51C398.294 274.836 397.922 275.58 397.274 276.24C396.362 277.176 394.922 277.968 393.122 278.34L394.31 279.696C395.846 279.264 397.382 278.448 398.594 277.104C399.494 276.108 400.01 274.944 400.37 273.78C400.418 273.648 400.514 273.432 400.598 273.276ZM402.306 274.332L403.062 275.844C404.538 275.412 406.062 274.764 407.298 274.116V277.956C407.298 278.484 407.262 279.24 407.214 279.528H409.11C409.026 279.228 409.002 278.484 409.002 277.956V273.108C410.166 272.34 411.318 271.404 412.23 270.504L410.934 269.268C410.154 270.216 408.786 271.416 407.55 272.184C406.218 273 404.454 273.78 402.306 274.332ZM419.171 269.496L417.431 268.956C417.323 269.364 417.071 269.916 416.879 270.204C416.279 271.248 415.163 272.892 413.063 274.2L414.359 275.196C415.571 274.356 416.687 273.204 417.527 272.088H420.959C420.779 272.832 420.263 273.876 419.639 274.74C418.883 274.236 418.127 273.744 417.491 273.384L416.423 274.476C417.035 274.86 417.827 275.4 418.607 275.976C417.611 276.972 416.279 277.944 414.203 278.58L415.595 279.792C417.467 279.084 418.835 278.064 419.891 276.948C420.383 277.344 420.827 277.716 421.151 278.016L422.291 276.66C421.943 276.372 421.475 276.024 420.959 275.652C421.811 274.452 422.411 273.168 422.735 272.196C422.843 271.896 422.999 271.572 423.131 271.344L421.907 270.588C421.643 270.672 421.235 270.72 420.863 270.72H418.427C418.571 270.456 418.871 269.916 419.171 269.496ZM425.036 273.444V275.328C425.48 275.292 426.284 275.268 426.968 275.268H433.412C433.916 275.268 434.528 275.316 434.816 275.328V273.444C434.504 273.468 433.976 273.516 433.412 273.516H426.968C426.344 273.516 425.468 273.48 425.036 273.444Z" fill="#333333"/>
<path d="M212.44 31.368C212.704 30.444 212.968 29.436 213.196 28.464H213.256C213.508 29.424 213.748 30.444 214.024 31.368L214.288 32.34H212.176L212.44 31.368ZM209.368 36H211.168L211.792 33.72H214.672L215.296 36H217.156L214.3 27.108H212.212L209.368 36ZM223.284 32.616C223.032 32.376 222.108 31.548 221.532 31.08C222.108 30.288 222.588 29.424 222.948 28.512L222.144 27.996L221.892 28.056H221.352V25.848H219.936V28.056H218.232V29.352H221.124C220.344 30.732 219.084 31.992 217.776 32.7C217.992 32.976 218.328 33.672 218.448 34.056C218.952 33.744 219.456 33.348 219.936 32.904V37.044H221.352V32.52C221.76 32.964 222.168 33.444 222.42 33.78L223.284 32.616ZM226.74 35.304V30.912H229.008V29.532H226.74V25.944H225.276V29.532H222.996V30.912H225.276V35.304H222.504V36.696H229.296V35.304H226.74Z" fill="#333333"/>
<path d="M170.431 307.56H172.603V306.552H170.431V306.084H172.555V302.376H170.431V301.908H172.735V302.844H173.827C173.743 304.992 173.455 306.708 172.519 308.004C171.823 308.064 171.115 308.124 170.431 308.172V307.56ZM168.199 305.196V304.656H169.135V305.196H168.199ZM171.367 304.656V305.196H170.431V304.656H171.367ZM170.431 303.804V303.276H171.367V303.804H170.431ZM168.199 303.276H169.135V303.804H168.199V303.276ZM175.219 301.536C175.243 300.744 175.243 299.904 175.243 299.028H173.875C173.875 299.916 173.875 300.744 173.863 301.536H172.735V300.876H170.431V300.288C171.211 300.204 171.955 300.096 172.591 299.964L171.967 298.896C170.647 299.184 168.571 299.388 166.795 299.484C166.927 299.76 167.059 300.204 167.107 300.492C167.755 300.48 168.439 300.444 169.135 300.396V300.876H166.771V301.908H169.135V302.376H167.071V306.084H169.135V306.552H167.023V307.56H169.135V308.28C168.211 308.34 167.371 308.4 166.699 308.448L166.867 309.648C168.163 309.54 169.891 309.36 171.619 309.18C171.931 309.444 172.279 309.84 172.459 310.128C174.475 308.532 175.027 306.06 175.183 302.844H176.263C176.191 306.72 176.071 308.184 175.819 308.508C175.711 308.664 175.591 308.712 175.411 308.712C175.183 308.712 174.727 308.7 174.199 308.652C174.439 309.048 174.595 309.624 174.619 310.02C175.195 310.032 175.747 310.044 176.107 309.972C176.503 309.888 176.779 309.768 177.055 309.372C177.439 308.82 177.535 307.08 177.643 302.172C177.643 302.004 177.655 301.536 177.655 301.536H175.219ZM188.419 307.992H181.171V301.68H179.779V310.044H181.171V309.336H188.419V310.032H189.799V301.68H188.419V307.992ZM186.403 304.02H185.359V303.012H186.403V304.02ZM186.403 306.12H185.359V305.1H186.403V306.12ZM183.091 305.1H184.135V306.12H183.091V305.1ZM183.091 303.012H184.135V304.02H183.091V303.012ZM179.419 299.556V300.888H184.027V301.848H181.927V307.284H187.639V301.848H185.455V300.888H190.159V299.556H179.419ZM200.559 300.204C200.559 299.82 200.871 299.508 201.255 299.508C201.627 299.508 201.939 299.82 201.939 300.204C201.939 300.576 201.627 300.888 201.255 300.888C200.871 300.888 200.559 300.576 200.559 300.204ZM199.815 300.204C199.815 300.288 199.827 300.36 199.839 300.432C199.587 300.468 199.323 300.48 199.155 300.48H193.599C193.203 300.48 192.519 300.432 192.171 300.384V302.076C192.471 302.052 193.047 302.028 193.599 302.028H199.179C199.023 303.06 198.567 304.416 197.775 305.412C196.803 306.636 195.447 307.68 193.071 308.232L194.379 309.672C196.515 308.976 198.123 307.788 199.203 306.348C200.211 305.016 200.727 303.156 201.003 301.98C201.039 301.872 201.063 301.752 201.099 301.62C201.147 301.632 201.207 301.632 201.255 301.632C202.035 301.632 202.683 300.984 202.683 300.204C202.683 299.412 202.035 298.764 201.255 298.764C200.463 298.764 199.815 299.412 199.815 300.204ZM204.423 300.492C204.447 300.828 204.447 301.32 204.447 301.656V307.524C204.447 308.1 204.411 309.144 204.411 309.204H206.067C206.067 309.168 206.067 308.892 206.055 308.556H211.839C211.839 308.904 211.827 309.18 211.827 309.204H213.483C213.483 309.156 213.459 308.004 213.459 307.536V301.656C213.459 301.296 213.459 300.852 213.483 300.492C213.051 300.516 212.595 300.516 212.295 300.516H205.695C205.371 300.516 204.915 300.504 204.423 300.492ZM206.055 302.04H211.851V307.02H206.055V302.04ZM225.008 299.148L224.06 299.532C224.324 299.916 224.612 300.444 224.84 300.9C224.576 300.972 224.228 301.008 223.904 301.008H221.456C221.6 300.744 221.912 300.204 222.2 299.784L220.46 299.244C220.352 299.652 220.1 300.204 219.92 300.492C219.308 301.536 218.192 303.18 216.092 304.476L217.388 305.484C218.6 304.644 219.716 303.492 220.556 302.376H223.988C223.808 303.12 223.292 304.152 222.68 305.028C221.912 304.512 221.156 304.02 220.52 303.66L219.452 304.752C220.064 305.148 220.856 305.688 221.636 306.252C220.652 307.26 219.32 308.232 217.244 308.868L218.636 310.08C220.508 309.372 221.864 308.352 222.92 307.236C223.412 307.632 223.856 308.004 224.18 308.304L225.332 306.948C224.972 306.66 224.504 306.312 223.988 305.94C224.852 304.74 225.452 303.456 225.764 302.484C225.872 302.184 226.028 301.86 226.16 301.62L225.284 301.08L225.956 300.792C225.74 300.348 225.308 299.58 225.008 299.148ZM226.424 298.596L225.476 298.992C225.812 299.448 226.196 300.144 226.448 300.648L227.396 300.228C227.18 299.808 226.736 299.052 226.424 298.596ZM234.231 299.64L232.479 299.064C232.371 299.472 232.119 300.024 231.939 300.324C231.339 301.356 230.295 302.904 228.195 304.188L229.539 305.184C230.715 304.38 231.759 303.324 232.563 302.28H235.935C235.743 303.18 235.047 304.62 234.231 305.556C233.187 306.744 231.855 307.788 229.395 308.52L230.811 309.792C233.067 308.904 234.519 307.8 235.659 306.408C236.739 305.064 237.423 303.468 237.747 302.4C237.843 302.1 238.011 301.764 238.143 301.536L236.919 300.78C236.643 300.864 236.247 300.924 235.875 300.924H233.463C233.475 300.9 233.487 300.888 233.499 300.864C233.643 300.6 233.955 300.06 234.231 299.64ZM242.453 299.496L241.577 300.816C242.369 301.26 243.617 302.076 244.289 302.544L245.189 301.212C244.565 300.78 243.245 299.928 242.453 299.496ZM240.221 308.016L241.121 309.6C242.189 309.408 243.905 308.808 245.129 308.112C247.097 306.984 248.789 305.46 249.905 303.804L248.981 302.172C248.021 303.888 246.353 305.532 244.313 306.672C243.005 307.392 241.565 307.788 240.221 308.016ZM240.605 302.232L239.729 303.564C240.533 303.984 241.781 304.8 242.465 305.268L243.341 303.924C242.729 303.492 241.409 302.664 240.605 302.232ZM251.976 302.22V303.672C252.264 303.648 253.02 303.624 253.464 303.624H257.424V305.076H253.596C253.14 305.076 252.6 305.064 252.288 305.04V306.456C252.564 306.444 253.14 306.432 253.596 306.432H257.424V308.028H252.888C252.456 308.028 252.048 308.004 251.844 307.98V309.456C252.048 309.444 252.54 309.42 252.876 309.42H257.424C257.424 309.6 257.424 309.792 257.412 309.9H258.924C258.924 309.684 258.912 309.276 258.912 309.084V303.06C258.912 302.808 258.912 302.412 258.924 302.256C258.732 302.268 258.288 302.28 258 302.28H253.464C253.02 302.28 252.288 302.256 251.976 302.22ZM263.082 299.88L261.954 301.08C262.83 301.692 264.33 303 264.954 303.672L266.178 302.424C265.482 301.692 263.922 300.444 263.082 299.88ZM261.582 307.872L262.59 309.456C264.282 309.168 265.83 308.496 267.042 307.764C268.974 306.6 270.57 304.944 271.482 303.324L270.546 301.632C269.79 303.252 268.23 305.088 266.178 306.3C265.014 306.996 263.454 307.608 261.582 307.872Z" fill="#333333"/>
<path d="M27.16 83.436H21.532V82.392H27.16V83.436ZM22.504 78.552H26.068V79.392H22.504V78.552ZM27.448 80.436V77.496H21.184V80.436H23.368C23.32 80.676 23.248 80.928 23.188 81.168H20.176V85.068H21.532V84.672H27.16V85.068H28.576V81.168H24.604C24.712 80.94 24.82 80.7 24.916 80.436H27.448ZM27.76 75.696C28.096 75.3 28.456 74.82 28.804 74.364L27.268 73.884C27.04 74.46 26.584 75.18 26.2 75.696H24.232L25.072 75.384C24.904 74.952 24.508 74.268 24.16 73.8L22.912 74.22C23.2 74.676 23.524 75.264 23.692 75.696H21.844L22.228 75.528C22.024 75.084 21.556 74.448 21.16 73.992L19.924 74.532C20.2 74.88 20.5 75.312 20.716 75.696H19.252V78.252H20.56V76.908H28.06V78.252H29.44V75.696H27.76ZM38.236 76.956C38.104 77.28 37.96 77.628 37.816 77.916H35.572L35.776 77.88C35.692 77.628 35.536 77.268 35.368 76.956H38.236ZM42.112 82.308V81.132H37.444V80.604H41.044V79.572H37.444V79.032H41.608V77.916H39.256C39.436 77.628 39.628 77.304 39.82 76.956H42.076V75.792H40.516C40.792 75.372 41.116 74.832 41.452 74.28L39.952 73.92C39.784 74.448 39.484 75.168 39.196 75.66L39.628 75.792H38.56V73.836H37.216V75.792H36.328V73.836H34.996V75.792H33.904L34.492 75.576C34.324 75.108 33.928 74.4 33.58 73.884L32.356 74.304C32.62 74.76 32.932 75.336 33.1 75.792H31.492V76.956H34L33.856 76.98C34.012 77.256 34.168 77.616 34.264 77.916H31.984V79.032H36.04V79.572H32.584V80.604H36.04V81.132H31.456V82.308H34.9C33.868 82.932 32.452 83.436 31.108 83.712C31.408 84 31.816 84.552 32.02 84.9C33.448 84.528 34.924 83.832 36.04 82.956V85.044H37.444V82.884C38.548 83.82 40 84.54 41.476 84.912C41.692 84.528 42.112 83.928 42.436 83.616C41.044 83.4 39.652 82.932 38.632 82.308H42.112ZM49.72 74.988H47.512V73.92H46.132V74.988H43.936V76.224H49.72V74.988ZM47.932 81.636V83.22H45.688V81.636H47.932ZM44.368 85.056H45.688V84.456H47.932V85.008H49.324V80.4H44.368V85.056ZM47.824 76.26C47.728 76.812 47.512 77.568 47.332 78.072L48.304 78.324H45.16L46.288 78.06C46.24 77.568 46.048 76.848 45.796 76.308L44.632 76.548C44.836 77.1 45.016 77.844 45.052 78.324H43.684V79.62H49.852V78.324H48.46C48.664 77.856 48.916 77.208 49.168 76.548L47.824 76.26ZM53.824 74.472L53.608 74.52H50.224V85.044H51.616V75.864H53.068C52.78 76.776 52.396 78 52.048 78.852C53.008 79.788 53.272 80.652 53.272 81.3C53.272 81.708 53.2 81.984 52.984 82.116C52.864 82.176 52.708 82.212 52.54 82.212C52.36 82.224 52.132 82.212 51.868 82.2C52.096 82.596 52.216 83.208 52.216 83.592C52.552 83.604 52.9 83.604 53.176 83.568C53.476 83.52 53.764 83.424 53.992 83.268C54.448 82.944 54.64 82.356 54.64 81.48C54.64 80.688 54.46 79.752 53.44 78.672C53.92 77.652 54.448 76.272 54.868 75.12L53.824 74.472ZM65.428 80.736C64.912 81.144 64.228 81.612 63.592 81.984C63.22 81.612 62.908 81.204 62.644 80.736H65.428ZM65.848 80.736H67.132V79.476H59.776V78.852H65.548V77.748H59.776V77.148H65.548V76.044H59.776V75.408H65.884V74.244H58.312V79.476H56.32V80.736H58.3V83.484C57.76 83.544 57.268 83.616 56.836 83.664L57.16 84.972C58.612 84.756 60.592 84.456 62.428 84.156L62.368 82.896C61.504 83.028 60.616 83.16 59.776 83.28V80.736H61.156C62.152 83.004 63.748 84.432 66.46 85.056C66.652 84.672 67.06 84.084 67.36 83.772C66.256 83.568 65.332 83.22 64.564 82.74C65.284 82.356 66.088 81.876 66.772 81.384L65.848 80.736Z" fill="#333333"/>
<path d="M380.552 73.92C379.088 74.352 376.652 74.676 374.516 74.82C374.66 75.12 374.84 75.636 374.888 75.96C377.072 75.84 379.652 75.552 381.5 75.036L380.552 73.92ZM380.192 79.044C380.684 78.336 381.308 77.22 381.824 76.2L380.468 75.708C380.168 76.62 379.556 77.844 379.088 78.6L380.192 79.044ZM378.728 78.096C378.704 77.496 378.464 76.608 378.176 75.912L376.988 76.14C377.252 76.86 377.456 77.784 377.468 78.348L378.728 78.096ZM376.628 78.456C376.52 77.844 376.172 76.908 375.812 76.212L374.684 76.5C375.02 77.244 375.32 78.204 375.416 78.804L376.628 78.456ZM374.288 78.864L373.316 79.14V77.412H374.408V76.104H373.316V73.848H372.02V76.104H370.76V77.412H372.02V79.488C371.48 79.62 370.976 79.752 370.568 79.836L370.88 81.204C371.228 81.108 371.624 81 372.02 80.88V83.532C372.02 83.688 371.96 83.736 371.816 83.736C371.672 83.748 371.252 83.748 370.82 83.724C370.988 84.108 371.144 84.696 371.18 85.044C371.972 85.056 372.476 85.008 372.848 84.78C373.208 84.552 373.316 84.192 373.316 83.532V80.496C373.7 80.388 374.084 80.268 374.468 80.148L374.288 78.864ZM381.728 81.036V79.8H378.836V78.588H377.492V79.8H374.672V81.036H376.736C376.064 82.02 374.996 82.92 373.904 83.412C374.216 83.676 374.624 84.192 374.852 84.528C375.836 83.976 376.784 83.076 377.492 82.056V84.96H378.836V82.116C379.484 83.064 380.3 83.928 381.128 84.468C381.344 84.132 381.752 83.64 382.064 83.388C381.104 82.884 380.144 81.984 379.52 81.036H381.728ZM389.6 80.196V78.72H392.132V80.196H389.6ZM385.868 80.196C385.892 79.752 385.904 79.32 385.904 78.936V78.72H388.16V80.196H385.868ZM388.16 75.996V77.388H385.904V75.996H388.16ZM392.132 77.388H389.6V75.996H392.132V77.388ZM393.548 74.64H384.488V78.924C384.488 80.604 384.38 82.74 383.072 84.18C383.396 84.348 383.972 84.84 384.2 85.104C385.064 84.168 385.496 82.848 385.712 81.54H388.16V84.888H389.6V81.54H392.132V83.34C392.132 83.556 392.048 83.628 391.82 83.628C391.604 83.628 390.812 83.64 390.14 83.604C390.32 83.976 390.548 84.588 390.596 84.972C391.676 84.984 392.408 84.96 392.9 84.72C393.38 84.504 393.548 84.12 393.548 83.352V74.64ZM404.624 77.676H401.612V75.924H404.624V77.676ZM404.624 80.82H401.612V79.008H404.624V80.82ZM406.052 74.604H400.244V82.14H406.052V74.604ZM399.788 78.9L398.612 79.2V77.436H399.872V76.116H398.612V73.848H397.22V76.116H395.732V77.436H397.22V79.536C396.62 79.68 396.044 79.812 395.576 79.908L395.948 81.276L397.22 80.94V83.436C397.22 83.604 397.16 83.664 396.992 83.664C396.836 83.664 396.332 83.664 395.864 83.652C396.032 84.012 396.224 84.576 396.26 84.948C397.1 84.948 397.688 84.912 398.084 84.684C398.48 84.48 398.612 84.132 398.612 83.436V80.58C399.068 80.46 399.512 80.328 399.956 80.208L399.788 78.9ZM399.416 83.316V84.648H406.784V83.316H399.416ZM416.936 74.196C416.648 75.132 416.096 76.368 415.628 77.196L416.876 77.628C417.392 76.872 418.004 75.732 418.532 74.664L416.936 74.196ZM411.8 77.004C411.536 76.236 410.948 75.132 410.324 74.304L409.016 74.82C409.604 75.66 410.192 76.824 410.42 77.58L411.8 77.004ZM414.512 73.824H412.94V77.976H409.304V79.404H416.804V80.508H409.712V81.888H416.804V83.136H409.028V84.552H416.804V85.044H418.328V77.976H414.512V73.824Z" fill="#333333"/>
<path d="M197.23 54H199.006V50.16H202.366V54H204.13V45.108H202.366V48.612H199.006V45.108H197.23V54ZM206.792 54H208.568V50.844H209.756C211.664 50.844 213.188 49.932 213.188 47.904C213.188 45.804 211.676 45.108 209.708 45.108H206.792V54ZM208.568 49.44V46.524H209.576C210.8 46.524 211.448 46.872 211.448 47.904C211.448 48.924 210.86 49.44 209.636 49.44H208.568ZM226.766 47.676H223.754V45.924H226.766V47.676ZM226.766 50.82H223.754V49.008H226.766V50.82ZM228.194 44.604H222.386V52.14H228.194V44.604ZM221.93 48.9L220.754 49.2V47.436H222.014V46.116H220.754V43.848H219.362V46.116H217.874V47.436H219.362V49.536C218.762 49.68 218.186 49.812 217.718 49.908L218.09 51.276L219.362 50.94V53.436C219.362 53.604 219.302 53.664 219.134 53.664C218.978 53.664 218.474 53.664 218.006 53.652C218.174 54.012 218.366 54.576 218.402 54.948C219.242 54.948 219.83 54.912 220.226 54.684C220.622 54.48 220.754 54.132 220.754 53.436V50.58C221.21 50.46 221.654 50.328 222.098 50.208L221.93 48.9ZM221.558 53.316V54.648H228.926V53.316H221.558ZM239.078 44.196C238.79 45.132 238.238 46.368 237.77 47.196L239.018 47.628C239.534 46.872 240.146 45.732 240.674 44.664L239.078 44.196ZM233.942 47.004C233.678 46.236 233.09 45.132 232.466 44.304L231.158 44.82C231.746 45.66 232.334 46.824 232.562 47.58L233.942 47.004ZM236.654 43.824H235.082V47.976H231.446V49.404H238.946V50.508H231.854V51.888H238.946V53.136H231.17V54.552H238.946V55.044H240.47V47.976H236.654V43.824Z" fill="#333333"/>
<path d="M306.77 349.1L307.17 350.58C308.71 350.56 310.97 350.5 312.99 350.3V353.94H306.97C306.37 353.94 305.67 353.9 305.21 353.86V355.52C305.69 355.48 306.37 355.44 307.01 355.44H312.95C312.71 359.02 311.05 361.26 307.89 362.72L309.47 363.82C312.91 361.82 314.37 359.18 314.59 355.44H320.17C320.67 355.44 321.27 355.48 321.71 355.52V353.86C321.29 353.9 320.57 353.94 320.13 353.94H314.61V350.1C316.05 349.88 317.59 349.58 318.59 349.32C318.87 349.24 319.27 349.14 319.71 349.02L318.65 347.64C317.67 348.06 315.31 348.54 313.49 348.8C311.33 349.08 308.29 349.16 306.77 349.1ZM325.118 354.34V356.3C325.738 356.24 326.798 356.2 327.898 356.2H338.878C339.778 356.2 340.618 356.28 341.018 356.3V354.34C340.578 354.38 339.858 354.44 338.858 354.44H327.898C326.778 354.44 325.718 354.38 325.118 354.34ZM352.873 348.08L350.873 347.68C350.813 348.2 350.733 348.68 350.493 349.6C349.933 351.56 347.893 357.96 346.773 360.72C346.413 360.74 346.073 360.76 345.773 360.78C345.193 360.8 344.513 360.82 343.913 360.8L344.213 362.66C344.793 362.58 345.373 362.48 345.873 362.44C348.553 362.2 355.253 361.46 358.333 361.06C358.793 362.04 359.173 362.96 359.433 363.68L361.113 362.92C360.273 360.86 358.093 356.84 356.673 354.78L355.173 355.46C355.913 356.42 356.813 357.98 357.613 359.56C355.413 359.86 351.573 360.28 348.633 360.56C349.633 357.96 351.613 351.82 352.193 349.94C352.453 349.1 352.673 348.58 352.873 348.08Z" fill="#333333"/>
<g clip-path="url(#clip1_248_593)">
<path d="M78.8026 362.711L79.885 357.017C80.4129 354.183 81.8657 352.636 83.1063 352.636C84.0568 352.636 84.3736 353.265 84.3736 354.157C84.3702 354.641 84.326 355.124 84.2417 355.6L82.8928 362.711H86.6954L88.1215 355.259C88.2415 354.539 88.312 353.811 88.3325 353.081C88.3325 350.878 87.1442 349.592 85.0334 349.592C84.1343 349.589 83.2485 349.808 82.4554 350.229C81.6623 350.65 80.9868 351.26 80.4895 352.004H80.4365L80.7005 349.879H77.3236C77.1649 351.007 76.9539 352.424 76.6389 354.051L75.0018 362.71L78.8026 362.711ZM100.402 359.247C99.2754 359.792 98.0372 360.071 96.7843 360.061C96.3209 360.098 95.8552 360.028 95.4242 359.855C94.9932 359.681 94.6089 359.411 94.3019 359.064C94.0511 358.671 93.9141 358.217 93.906 357.752C99.0818 357.883 102.277 356.7 102.277 353.422C102.277 351.035 100.402 349.591 97.7877 349.591C93.1136 349.591 90.2621 353.658 90.2621 357.57C90.2621 360.903 92.1631 362.975 95.8599 362.975C97.5168 363.004 99.1591 362.663 100.666 361.978L100.402 359.247ZM98.7126 353.449C98.7126 354.604 97.2337 355.023 94.2764 354.995C94.3994 354.274 94.7685 353.617 95.3215 353.134C95.8745 352.652 96.5779 352.373 97.3134 352.345C98.1848 352.347 98.7126 352.793 98.7126 353.449ZM103.967 349.881L107.004 356.071L101.406 362.711H105.789L107.321 360.481C107.901 359.589 108.271 358.934 108.641 358.329H108.72C108.958 359.09 109.169 359.719 109.538 360.664L110.357 362.711H114.528L111.52 356.099L116.959 349.881H112.602L111.176 351.901C110.622 352.689 110.279 353.266 109.803 353.948H109.724C109.537 353.45 109.301 352.82 108.905 351.796L108.14 349.879L103.967 349.881ZM130.031 360.481C129.112 360.938 128.101 361.181 127.073 361.189C124.987 361.189 123.904 359.851 123.904 357.804C123.904 354.813 125.99 351.557 129.32 351.557C130.068 351.551 130.808 351.712 131.485 352.03L132.119 350.298C131.279 349.93 130.37 349.742 129.452 349.747C124.857 349.747 121.635 353.735 121.635 358.065C121.635 360.767 123.246 362.972 126.547 362.972C127.82 362.986 129.081 362.726 130.244 362.211L130.031 360.481ZM139.643 349.723C135.497 349.723 132.566 353.606 132.566 357.778C132.566 360.639 134.362 363 137.557 363C141.834 363 144.634 358.933 144.634 355.021C144.633 352.321 143.102 349.723 139.642 349.723H139.643ZM139.405 351.455C141.702 351.455 142.389 353.527 142.389 354.997C142.389 357.962 140.435 361.268 137.845 361.268C135.97 361.268 134.835 359.773 134.835 357.7C134.81 354.787 136.659 351.455 139.404 351.455H139.405ZM148.306 362.712L149.494 356.336C149.996 353.633 151.977 351.534 153.587 351.534C155.197 351.534 155.488 352.636 155.488 353.712C155.485 354.231 155.432 354.749 155.329 355.258L153.903 362.71H156.016L157.257 356.203C157.785 353.368 159.66 351.532 161.245 351.532C162.671 351.532 163.174 352.398 163.174 353.736C163.167 354.292 163.105 354.846 162.987 355.389L161.614 362.71H163.751L165.177 355.205C165.307 354.495 165.378 353.776 165.388 353.054C165.388 350.666 163.777 349.721 162.298 349.721C161.333 349.74 160.39 350.013 159.565 350.51C158.739 351.008 158.061 351.713 157.598 352.555C157.492 350.954 156.569 349.721 154.614 349.721C152.924 349.721 151.315 350.64 150.125 352.397H150.046L150.389 350.01H148.459C148.327 351.061 148.142 352.293 147.878 353.71L146.162 362.71L148.306 362.712ZM169.642 362.712L170.83 356.336C171.332 353.633 173.313 351.534 174.923 351.534C176.533 351.534 176.824 352.636 176.824 353.712C176.821 354.231 176.768 354.749 176.665 355.258L175.239 362.71H177.352L178.593 356.203C179.121 353.368 180.996 351.532 182.581 351.532C184.007 351.532 184.51 352.398 184.51 353.736C184.503 354.292 184.441 354.846 184.324 355.389L182.95 362.71H185.089L186.513 355.205C186.644 354.495 186.715 353.776 186.724 353.054C186.724 350.666 185.113 349.721 183.635 349.721C182.67 349.74 181.727 350.013 180.902 350.51C180.076 351.008 179.398 351.713 178.935 352.555C178.829 350.954 177.905 349.721 175.951 349.721C174.261 349.721 172.652 350.64 171.462 352.397H171.383L171.726 350.01H169.796C169.664 351.061 169.479 352.293 169.215 353.71L167.499 362.71L169.642 362.712ZM198.977 350.01L197.737 356.519C197.209 359.326 195.176 361.163 193.591 361.163C192.086 361.163 191.532 360.271 191.532 358.959C191.542 358.331 191.622 357.707 191.769 357.096L193.115 350.01H190.923L189.55 357.2C189.405 357.899 189.325 358.611 189.312 359.325C189.312 362.211 191.028 362.998 192.666 362.998C193.58 362.946 194.467 362.675 195.253 362.21C196.039 361.744 196.701 361.096 197.181 360.322H197.234L196.891 362.709H198.872C199.004 361.658 199.189 360.426 199.452 359.009L201.169 350.01H198.977ZM204.786 362.709L205.948 356.543C206.529 353.394 208.75 351.533 210.306 351.533C211.811 351.533 212.313 352.478 212.313 353.764C212.304 354.311 212.242 354.856 212.126 355.39L210.728 362.711H212.919L214.346 355.312C214.482 354.637 214.562 353.953 214.583 353.265C214.583 350.589 212.867 349.723 211.335 349.723C210.373 349.743 209.432 350.01 208.604 350.497C207.776 350.985 207.088 351.677 206.608 352.506H206.555L206.872 350.014H204.918C204.76 351.065 204.601 352.297 204.311 353.714L202.592 362.711L204.786 362.709ZM218.887 362.709L221.343 350.01H219.15L216.694 362.709H218.887ZM220.817 347.832C221.012 347.837 221.207 347.802 221.388 347.73C221.57 347.658 221.735 347.55 221.873 347.412C222.011 347.275 222.12 347.111 222.193 346.931C222.265 346.75 222.3 346.557 222.296 346.363C222.31 346.186 222.287 346.009 222.229 345.842C222.17 345.675 222.076 345.523 221.954 345.394C221.832 345.265 221.684 345.164 221.52 345.095C221.356 345.027 221.179 344.994 221.001 344.998C220.809 344.998 220.618 345.037 220.44 345.111C220.262 345.185 220.101 345.294 219.966 345.431C219.83 345.567 219.724 345.73 219.653 345.908C219.581 346.086 219.546 346.276 219.549 346.468C219.534 346.642 219.555 346.817 219.612 346.983C219.669 347.148 219.759 347.3 219.878 347.429C219.997 347.557 220.142 347.66 220.304 347.729C220.465 347.799 220.639 347.835 220.815 347.834L220.817 347.832ZM231.326 360.479C230.408 360.936 229.396 361.179 228.369 361.187C226.283 361.187 225.2 359.849 225.2 357.803C225.2 354.811 227.286 351.556 230.615 351.556C231.364 351.549 232.104 351.711 232.781 352.028L233.415 350.296C232.574 349.928 231.666 349.74 230.747 349.745C226.153 349.745 222.931 353.733 222.931 358.063C222.931 360.765 224.542 362.97 227.842 362.97C229.115 362.984 230.376 362.724 231.539 362.209L231.326 360.479ZM244.028 362.709C244.011 360.737 244.197 358.768 244.582 356.833L245.876 350.221C244.763 349.89 243.606 349.722 242.443 349.723C236.872 349.723 233.598 354.393 233.598 358.802C233.598 361.214 235.024 363 237.27 363C239.092 363 240.835 362.056 242.234 359.432H242.287C242.135 360.519 242.038 361.613 241.996 362.71L244.028 362.709ZM242.679 355.469C242.045 358.853 239.878 361.215 238.058 361.215C236.368 361.215 235.866 359.825 235.866 358.408C235.892 354.891 238.585 351.454 241.886 351.454C242.403 351.449 242.917 351.512 243.418 351.64L242.679 355.469ZM250.759 347.151L250.204 350.011H248.382L248.039 351.716H249.888L248.621 358.145C248.451 358.93 248.363 359.729 248.357 360.532C248.357 361.818 249.096 362.999 251.05 362.999C251.623 363.015 252.194 362.935 252.74 362.762L252.846 361.057C252.505 361.113 252.161 361.139 251.816 361.136C251.651 361.158 251.483 361.143 251.325 361.09C251.168 361.038 251.024 360.949 250.907 360.833C250.789 360.716 250.7 360.573 250.647 360.416C250.594 360.26 250.579 360.093 250.601 359.929C250.617 359.241 250.696 358.556 250.839 357.882L252.027 351.716H255.091L255.434 350.011H252.371L253.031 346.6L250.759 347.151ZM257.757 362.711L260.213 350.01H258.021L255.564 362.711L257.757 362.711ZM259.686 347.833C259.882 347.838 260.076 347.803 260.258 347.731C260.439 347.659 260.604 347.551 260.743 347.414C260.881 347.276 260.99 347.112 261.062 346.932C261.135 346.751 261.17 346.558 261.165 346.364C261.18 346.188 261.157 346.01 261.098 345.843C261.039 345.677 260.946 345.524 260.824 345.395C260.702 345.267 260.554 345.165 260.39 345.097C260.226 345.028 260.049 344.995 259.871 344.999C259.678 345 259.487 345.038 259.309 345.112C259.132 345.186 258.97 345.295 258.835 345.432C258.7 345.569 258.594 345.731 258.522 345.909C258.451 346.087 258.416 346.277 258.419 346.469C258.404 346.643 258.425 346.818 258.482 346.983C258.539 347.149 258.629 347.3 258.749 347.429C258.868 347.557 259.012 347.66 259.173 347.73C259.335 347.799 259.509 347.835 259.684 347.834L259.686 347.833ZM268.876 349.722C264.73 349.722 261.799 353.605 261.799 357.778C261.799 360.638 263.595 362.999 266.79 362.999C271.067 362.999 273.867 358.933 273.867 355.021C273.864 352.321 272.333 349.723 268.874 349.723L268.876 349.722ZM268.638 351.454C270.935 351.454 271.622 353.527 271.622 354.996C271.622 357.962 269.668 361.268 267.078 361.268C265.203 361.268 264.068 359.772 264.068 357.699C264.042 354.787 265.89 351.455 268.635 351.455L268.638 351.454ZM277.589 362.711L278.752 356.545C279.332 353.396 281.553 351.535 283.109 351.535C284.614 351.535 285.116 352.48 285.116 353.766C285.107 354.313 285.045 354.857 284.929 355.392L283.53 362.713H285.721L287.147 355.314C287.284 354.639 287.364 353.955 287.385 353.267C287.385 350.591 285.669 349.725 284.137 349.725C283.175 349.745 282.234 350.012 281.406 350.499C280.577 350.987 279.89 351.679 279.41 352.508H279.357L279.674 350.016H277.72C277.561 351.067 277.403 352.298 277.113 353.715L275.397 362.715L277.589 362.711ZM288.997 362.107C289.942 362.704 291.046 363.006 292.166 362.973C294.859 362.973 297.051 361.478 297.051 358.802C297.051 357.385 296.073 356.282 294.648 355.469C293.513 354.839 292.905 354.262 292.905 353.344C292.905 352.242 293.856 351.426 295.176 351.426C295.952 351.428 296.716 351.627 297.394 352.003L298.001 350.35C297.183 349.912 296.263 349.695 295.334 349.72C292.641 349.72 290.713 351.426 290.713 353.656C290.713 354.942 291.531 356.068 293.01 356.884C294.331 357.618 294.779 358.222 294.779 359.219C294.779 360.347 293.829 361.292 292.352 361.292C291.385 361.26 290.441 360.99 289.605 360.504L288.997 362.107Z" fill="#333333"/>
</g>
<g clip-path="url(#clip2_248_593)">
<path d="M60.0645 204.601H58.4599V203.348H52.1977V201H33.8023V204.601H25.9355C24.3168 204.601 23 205.918 23 207.536V230.237C23 231.855 24.3168 233.172 25.9355 233.172H36.9334V236.695H35.1722C33.9854 236.695 33.0195 237.66 33.0195 238.847V241H52.9805V238.847C52.9805 237.66 52.0146 236.695 50.8278 236.695H49.0666V233.172H60.0645C61.6832 233.172 63 231.855 63 230.237V207.536C63 205.918 61.6832 204.601 60.0645 204.601ZM57.2856 204.523V212.742H49.0666V204.523H57.2856ZM44.9962 208.75V212.76L41.7802 210.013L37.1144 215.008L33.6833 211.644L26.9139 218.335V208.75H44.9962ZM41.8715 211.635L44.9962 214.304V218.534H35.428L41.8715 211.635ZM33.8212 218.534H28.3821L33.6866 213.292L36.313 215.867L33.8212 218.534ZM50.8278 237.869C51.3673 237.869 51.8062 238.308 51.8062 238.847V239.826H34.1938V238.847C34.1938 238.308 34.6327 237.869 35.1722 237.869H50.8278ZM38.1077 236.695V233.172H47.8923V236.695H38.1077ZM61.8257 230.237C61.8257 231.208 61.0356 231.998 60.0645 231.998H25.9355C24.9644 231.998 24.1743 231.208 24.1743 230.237V226.127H61.8257V230.237ZM61.8257 224.953H24.1743V207.536C24.1743 206.565 24.9644 205.775 25.9355 205.775H33.8023V207.575H25.7399V219.708H33.8023V221.822H32.0411V222.996H48.2448V221.822H34.9766V219.708H46.1702V207.575H34.9766V202.174H51.0234V203.348H47.8923V213.916H51.0234V215.09H49.4578V221.431H51.493V224.112L54.7935 221.431H60.3386V215.09H52.1977V213.916H58.4599V205.775H60.0645C61.0356 205.775 61.8257 206.565 61.8257 207.536V224.953ZM50.6321 220.256V216.264H59.1642V220.256H54.3766L52.6674 221.645V220.256H50.6321Z" fill="#333333"/>
<path d="M44.7611 227.301H41.2388V230.824H44.7611V227.301ZM43.5871 229.65H42.4128V228.476H43.5871V229.65Z" fill="#333333"/>
<path d="M51.0234 205.616V211.648L55.8495 208.632L51.0234 205.616ZM52.1978 207.734L53.6339 208.632L52.1978 209.53V207.734Z" fill="#333333"/>
<path d="M29.6929 221.822H30.8669V222.996H29.6929V221.822Z" fill="#333333"/>
<path d="M37.7552 204.601H43.235V205.775H37.7552V204.601Z" fill="#333333"/>
<path d="M44.4089 204.601H46.6791V205.775H44.4089V204.601Z" fill="#333333"/>
<path d="M28.1272 209.924H29.3012V211.098H28.1272V209.924Z" fill="#333333"/>
<path d="M30.4756 209.924H32.0411V211.098H30.4756V209.924Z" fill="#333333"/>
<path d="M38.6821 216.769L39.4835 215.911L40.3417 216.712L39.5403 217.57L38.6821 216.769Z" fill="#333333"/>
<path d="M40.2849 215.053L41.9698 213.249L42.8276 214.051L41.1431 215.854L40.2849 215.053Z" fill="#333333"/>
<path d="M51.7671 217.673H55.681V218.847H51.7671V217.673Z" fill="#333333"/>
<path d="M56.8553 217.673H58.0294V218.847H56.8553V217.673Z" fill="#333333"/>
</g>
<defs>
<clipPath id="clip0_248_593">
<rect width="40" height="13" fill="white" transform="translate(198 118)"/>
</clipPath>
<clipPath id="clip1_248_593">
<rect width="223" height="18" fill="white" transform="translate(75 345)"/>
</clipPath>
<clipPath id="clip2_248_593">
<rect width="40" height="40" fill="white" transform="translate(23 201)"/>
</clipPath>
</defs>
</svg>
