<svg width="297" height="358" viewBox="0 0 297 358" fill="none" xmlns="http://www.w3.org/2000/svg">
<rect x="76" y="104" width="136" height="83" fill="#333333"/>
<g clip-path="url(#clip0_248_594)">
<path d="M126.625 130.718L127.657 125.154C128.16 122.385 129.546 120.873 130.728 120.873C131.634 120.873 131.936 121.488 131.936 122.359C131.933 122.832 131.891 123.304 131.811 123.769L130.525 130.718H134.15L135.509 123.436C135.624 122.733 135.691 122.022 135.71 121.308C135.71 119.155 134.578 117.899 132.565 117.899C131.708 117.896 130.864 118.11 130.108 118.521C129.352 118.932 128.708 119.528 128.233 120.256H128.183L128.435 118.179H125.215C125.064 119.281 124.863 120.666 124.563 122.255L123.002 130.717L126.625 130.718ZM147.217 127.333C146.143 127.866 144.962 128.138 143.768 128.128C143.326 128.165 142.882 128.096 142.471 127.927C142.06 127.757 141.694 127.493 141.401 127.154C141.162 126.77 141.032 126.326 141.024 125.872C145.958 126 149.004 124.845 149.004 121.641C149.004 119.309 147.217 117.898 144.724 117.898C140.268 117.898 137.55 121.872 137.55 125.694C137.55 128.951 139.362 130.976 142.887 130.976C144.466 131.004 146.032 130.671 147.468 130.002L147.217 127.333ZM145.606 121.667C145.606 122.796 144.196 123.206 141.377 123.178C141.494 122.474 141.846 121.832 142.373 121.36C142.901 120.889 143.571 120.616 144.272 120.589C145.103 120.59 145.606 121.027 145.606 121.667ZM150.616 118.181L153.511 124.23L148.174 130.718H152.353L153.812 128.538C154.366 127.667 154.719 127.028 155.071 126.436H155.146C155.373 127.179 155.574 127.794 155.927 128.718L156.707 130.718H160.683L157.816 124.257L163.001 118.181H158.848L157.488 120.155C156.959 120.925 156.632 121.489 156.179 122.155H156.104C155.926 121.668 155.701 121.053 155.323 120.053L154.593 118.179L150.616 118.181Z" fill="white"/>
</g>
<path d="M107.708 141.788C106.808 143.312 104.876 145.22 102.8 146.288C103.112 146.588 103.52 147.116 103.7 147.44C105.68 146.324 107.528 144.656 108.5 143.192C109.532 144.668 111.536 146.396 113.396 147.428C113.672 146.984 113.996 146.516 114.356 146.144C112.436 145.316 110.468 143.684 109.172 141.788H107.708ZM109.376 149.024H112.592V147.764H109.376V145.196H107.876V151.424H106.172V147.26H104.768V151.424H103.46V152.72H113.672V151.424H109.376V149.024ZM124.676 150.992H117.428V144.68H116.036V153.044H117.428V152.336H124.676V153.032H126.056V144.68H124.676V150.992ZM122.66 147.02H121.616V146.012H122.66V147.02ZM122.66 149.12H121.616V148.1H122.66V149.12ZM119.348 148.1H120.392V149.12H119.348V148.1ZM119.348 146.012H120.392V147.02H119.348V146.012ZM115.676 142.556V143.888H120.284V144.848H118.184V150.284H123.896V144.848H121.712V143.888H126.416V142.556H115.676ZM130.52 145.904C129.68 145.904 128.984 146.6 128.984 147.44C128.984 148.28 129.68 148.976 130.52 148.976C131.36 148.976 132.056 148.28 132.056 147.44C132.056 146.6 131.36 145.904 130.52 145.904ZM145.508 144.008C145.316 143.444 144.788 142.616 144.308 141.98L143.228 142.544C143.696 143.18 144.164 144.08 144.356 144.632L145.508 144.008ZM138.308 143.84C138.224 143.312 137.984 142.472 137.72 141.848L136.544 142.112C136.784 142.772 137 143.636 137.048 144.176L138.308 143.84ZM136.364 144.068C136.256 143.528 135.908 142.712 135.56 142.1L134.396 142.472C134.72 143.108 135.044 143.96 135.128 144.488L136.364 144.068ZM135.968 147.356H137.036V148.04H135.968V147.356ZM135.968 145.676H137.036V146.372H135.968V145.676ZM139.244 146.372H138.224V145.676H139.244V146.372ZM139.244 148.04H138.224V147.356H139.244V148.04ZM140.792 151.064V149.804H138.308V149.096H140.468V144.632H139.688C140.084 144.044 140.6 143.12 141.032 142.268L139.556 141.872C139.352 142.628 138.92 143.624 138.548 144.272L139.64 144.632H134.816V149.096H136.952V149.804H134.396V151.064H136.952V153.032H138.308V151.064H140.792ZM144.272 146.396C144.044 147.128 143.72 147.836 143.336 148.508C143.228 147.872 143.144 147.14 143.072 146.36L145.652 146.036L145.508 144.728L142.976 145.04C142.916 144.044 142.88 142.988 142.868 141.884H141.512C141.548 143.06 141.584 144.164 141.644 145.196L140.576 145.328L140.72 146.648L141.752 146.516C141.86 147.872 142.028 149.048 142.256 150.02C141.5 150.884 140.612 151.592 139.604 152.048C139.964 152.3 140.396 152.72 140.636 153.044C141.38 152.636 142.076 152.096 142.7 151.448C143.108 152.42 143.66 152.972 144.38 152.996C144.884 153.02 145.484 152.552 145.796 150.536C145.568 150.404 145.004 150.02 144.776 149.72C144.704 150.752 144.584 151.304 144.38 151.304C144.128 151.28 143.9 150.896 143.708 150.236C144.416 149.252 144.98 148.148 145.352 147.008L144.272 146.396ZM153.14 148.604C153.716 148.268 154.268 147.884 154.784 147.452C155.276 147.884 155.828 148.28 156.428 148.604H153.14ZM153.512 151.4V149.852H155.972V151.4H153.512ZM151.484 145.604C151.712 145.82 151.94 146.048 152.06 146.204C152.36 145.952 152.66 145.652 152.948 145.316C153.2 145.712 153.5 146.12 153.836 146.504C153.128 147.104 152.312 147.596 151.484 147.956V145.604ZM149.816 149.468V147.068H150.416V149.468H149.816ZM148.364 147.068H148.928V149.468H148.364V147.068ZM148.928 143.768V145.892H148.364V143.768H148.928ZM150.416 145.892H149.816V143.768H150.416V145.892ZM155.816 144.212C155.528 144.716 155.168 145.196 154.76 145.64C154.34 145.208 154.004 144.752 153.728 144.308L153.8 144.212H155.816ZM156.74 142.964L156.5 143.024H154.496C154.64 142.748 154.772 142.472 154.88 142.184L153.536 141.812C153.104 142.94 152.36 144.032 151.484 144.812V142.544H147.332V151.676H148.364V150.692H151.484V148.604C151.64 148.82 151.796 149.048 151.892 149.228L152.192 149.096V153.032H153.512V152.648H155.972V153.02H157.364V149.048L157.448 149.084C157.652 148.736 158.072 148.16 158.36 147.884C157.376 147.584 156.5 147.092 155.756 146.528C156.572 145.652 157.232 144.608 157.676 143.42L156.74 142.964ZM170.06 143.936H165.68V141.848H164.192V143.936H159.932V145.34H170.06V143.936ZM163.964 150.392C163.844 149.12 163.4 147.26 162.836 145.784L161.468 146.144C161.996 147.608 162.416 149.528 162.5 150.776L163.964 150.392ZM167.036 151.148C167.552 149.744 168.116 147.8 168.536 146.036L166.892 145.736C166.64 147.464 166.064 149.696 165.524 151.148H159.548V152.576H170.408V151.148H167.036ZM176.216 145.82H179.024C178.82 146.168 178.544 146.48 178.124 146.732C177.356 146.54 176.588 146.372 175.892 146.24L176.216 145.82ZM182.888 150.344V149.168H178.112V148.352H176.996C177.512 148.232 177.956 148.088 178.34 147.92C179.516 148.256 180.596 148.616 181.316 148.928L182.168 147.92C181.496 147.668 180.608 147.392 179.636 147.116C180.044 146.756 180.344 146.324 180.56 145.82H182.672V144.704H177.068C177.212 144.512 177.344 144.32 177.476 144.14L176.384 143.816H181.208V144.476H182.588V142.64H178.148V141.848H176.72V142.64H172.316V144.476H173.636V143.816H176.096C175.904 144.092 175.676 144.392 175.448 144.704H172.232V145.82H174.596C174.26 146.228 173.948 146.612 173.66 146.924L175.016 147.296L175.172 147.116C175.532 147.188 175.916 147.284 176.3 147.368C175.376 147.572 174.164 147.704 172.544 147.788C172.724 148.064 172.952 148.556 173.012 148.892C174.512 148.784 175.724 148.64 176.696 148.424V149.168H172.028V150.344H175.688C174.668 150.992 173.168 151.52 171.728 151.772C172.028 152.048 172.412 152.576 172.604 152.924C174.092 152.564 175.592 151.868 176.696 150.968V153.032H178.112V150.896C179.252 151.82 180.8 152.552 182.3 152.912C182.504 152.552 182.9 152 183.212 151.7C181.76 151.472 180.26 150.968 179.204 150.344H182.888ZM102.98 162.008L101.804 161.252C101.48 161.336 101.096 161.348 100.856 161.348H95.3124C94.9164 161.348 94.2324 161.288 93.8724 161.252V162.944C94.1844 162.92 94.7604 162.896 95.3004 162.896H100.892C100.736 163.916 100.28 165.284 99.4884 166.28C98.5164 167.492 97.1604 168.536 94.7844 169.1L96.0924 170.528C98.2284 169.844 99.8244 168.656 100.916 167.216C101.912 165.884 102.44 164.024 102.716 162.848C102.776 162.596 102.872 162.248 102.98 162.008ZM113.785 164.012L112.897 163.208C112.705 163.268 112.189 163.292 111.925 163.292H106.357C105.961 163.292 105.481 163.256 105.109 163.196V164.744C105.553 164.696 105.961 164.672 106.357 164.672H111.565C111.277 165.176 110.521 166.028 109.837 166.496L111.037 167.336C111.889 166.676 113.005 165.164 113.425 164.492C113.497 164.372 113.677 164.144 113.785 164.012ZM109.669 165.272H108.013C108.061 165.524 108.097 165.836 108.097 166.124C108.097 167.636 107.845 168.704 106.489 169.628C106.129 169.88 105.829 170.024 105.517 170.144L106.789 171.164C109.597 169.616 109.597 167.516 109.669 165.272ZM117.863 160.496L116.987 161.816C117.779 162.26 119.027 163.076 119.699 163.544L120.599 162.212C119.975 161.78 118.655 160.928 117.863 160.496ZM115.631 169.016L116.531 170.6C117.599 170.408 119.315 169.808 120.539 169.112C122.507 167.984 124.199 166.46 125.315 164.804L124.391 163.172C123.431 164.888 121.763 166.532 119.723 167.672C118.415 168.392 116.975 168.788 115.631 169.016ZM116.015 163.232L115.139 164.564C115.943 164.984 117.191 165.8 117.875 166.268L118.751 164.924C118.139 164.492 116.819 163.664 116.015 163.232ZM134.912 160.688H133.1C133.148 161.024 133.172 161.408 133.172 161.888V164.168C133.172 166.04 133.016 166.94 132.188 167.84C131.468 168.62 130.496 169.076 129.308 169.352L130.556 170.672C131.432 170.396 132.68 169.808 133.472 168.944C134.36 167.96 134.864 166.844 134.864 164.264V161.888C134.864 161.408 134.888 161.024 134.912 160.688ZM129.344 160.784H127.616C127.652 161.06 127.664 161.48 127.664 161.708V165.752C127.664 166.112 127.616 166.58 127.604 166.808H129.344C129.32 166.532 129.308 166.064 129.308 165.764V161.708C129.308 161.324 129.32 161.06 129.344 160.784ZM138.68 160.796V162.344C139.052 162.32 139.556 162.296 139.976 162.296H144.788C145.208 162.296 145.676 162.32 146.084 162.344V160.796C145.676 160.856 145.196 160.88 144.788 160.88H139.964C139.568 160.88 139.076 160.856 138.68 160.796ZM137.288 163.868V165.44C137.624 165.416 138.08 165.392 138.44 165.392H141.74C141.692 166.4 141.488 167.3 140.996 168.044C140.516 168.74 139.676 169.436 138.824 169.76L140.228 170.78C141.296 170.24 142.22 169.304 142.64 168.476C143.072 167.636 143.336 166.628 143.408 165.392H146.3C146.636 165.392 147.092 165.404 147.392 165.428V163.868C147.08 163.916 146.552 163.94 146.3 163.94H138.44C138.068 163.94 137.648 163.904 137.288 163.868ZM149.266 164.444V166.328C149.71 166.292 150.514 166.268 151.198 166.268H157.642C158.146 166.268 158.758 166.316 159.046 166.328V164.444C158.734 164.468 158.206 164.516 157.642 164.516H151.198C150.574 164.516 149.698 164.48 149.266 164.444ZM163.705 160.496L162.829 161.816C163.621 162.26 164.869 163.076 165.541 163.544L166.441 162.212C165.817 161.78 164.497 160.928 163.705 160.496ZM161.473 169.016L162.373 170.6C163.441 170.408 165.157 169.808 166.381 169.112C168.349 167.984 170.041 166.46 171.157 164.804L170.233 163.172C169.273 164.888 167.605 166.532 165.565 167.672C164.257 168.392 162.817 168.788 161.473 169.016ZM161.857 163.232L160.981 164.564C161.785 164.984 163.033 165.8 163.717 166.268L164.593 164.924C163.981 164.492 162.661 163.664 161.857 163.232ZM173.228 163.22V164.672C173.516 164.648 174.272 164.624 174.716 164.624H178.676V166.076H174.848C174.392 166.076 173.852 166.064 173.54 166.04V167.456C173.816 167.444 174.392 167.432 174.848 167.432H178.676V169.028H174.14C173.708 169.028 173.3 169.004 173.096 168.98V170.456C173.3 170.444 173.792 170.42 174.128 170.42H178.676C178.676 170.6 178.676 170.792 178.664 170.9H180.176C180.176 170.684 180.164 170.276 180.164 170.084V164.06C180.164 163.808 180.164 163.412 180.176 163.256C179.984 163.268 179.54 163.28 179.252 163.28H174.716C174.272 163.28 173.54 163.256 173.228 163.22ZM184.333 160.88L183.205 162.08C184.081 162.692 185.581 164 186.205 164.672L187.429 163.424C186.733 162.692 185.173 161.444 184.333 160.88ZM182.833 168.872L183.841 170.456C185.533 170.168 187.081 169.496 188.293 168.764C190.225 167.6 191.821 165.944 192.733 164.324L191.797 162.632C191.041 164.252 189.481 166.088 187.429 167.3C186.265 167.996 184.705 168.608 182.833 168.872Z" fill="white"/>
<circle cx="40" cy="221" r="40" fill="white"/>
<circle cx="247" cy="221" r="40" fill="white"/>
<circle cx="144" cy="251" r="40" fill="white"/>
<path d="M8.84306 279.168C10.8951 279.168 12.1071 277.932 12.1071 276.48C12.1071 275.196 11.3991 274.512 10.3191 274.068L9.15506 273.576C8.39906 273.276 7.77506 273.048 7.77506 272.412C7.77506 271.824 8.26706 271.476 9.04706 271.476C9.77906 271.476 10.3671 271.74 10.9311 272.208L11.8311 271.092C11.1111 270.36 10.0791 269.952 9.04706 269.952C7.24706 269.952 5.97506 271.068 5.97506 272.52C5.97506 273.816 6.87506 274.536 7.77506 274.908L8.96306 275.412C9.75506 275.748 10.2951 275.952 10.2951 276.612C10.2951 277.236 9.80306 277.632 8.87906 277.632C8.09906 277.632 7.25906 277.236 6.62306 276.648L5.60306 277.872C6.46706 278.7 7.65506 279.168 8.84306 279.168ZM14.1593 279H19.7393V277.512H15.9353V275.136H19.0553V273.648H15.9353V271.596H19.6073V270.108H14.1593V279ZM25.5502 279.168C27.9022 279.168 29.5222 277.404 29.5222 274.524C29.5222 271.644 27.9022 269.952 25.5502 269.952C23.1982 269.952 21.5782 271.632 21.5782 274.524C21.5782 277.404 23.1982 279.168 25.5502 279.168ZM25.5502 277.632C24.2302 277.632 23.3902 276.42 23.3902 274.524C23.3902 272.616 24.2302 271.476 25.5502 271.476C26.8702 271.476 27.7102 272.616 27.7102 274.524C27.7102 276.42 26.8702 277.632 25.5502 277.632ZM32.6057 269.796V271.344C32.9537 271.32 33.4697 271.308 33.8537 271.308H38.4497C38.8817 271.308 39.4457 271.32 39.7697 271.344V269.796C39.4337 269.844 38.8457 269.856 38.4737 269.856H33.8537C33.4457 269.856 32.9417 269.844 32.6057 269.796ZM40.7777 273.276L39.7097 272.616C39.5417 272.688 39.2177 272.736 38.8337 272.736H32.8937C32.5217 272.736 32.0057 272.7 31.5017 272.664V274.224C32.0057 274.176 32.6057 274.164 32.8937 274.164H38.6897C38.4737 274.836 38.1017 275.58 37.4537 276.24C36.5417 277.176 35.1017 277.968 33.3017 278.34L34.4897 279.696C36.0257 279.264 37.5617 278.448 38.7737 277.104C39.6737 276.108 40.1897 274.944 40.5497 273.78C40.5977 273.648 40.6937 273.432 40.7777 273.276ZM42.4857 274.332L43.2417 275.844C44.7177 275.412 46.2417 274.764 47.4777 274.116V277.956C47.4777 278.484 47.4417 279.24 47.3937 279.528H49.2897C49.2057 279.228 49.1817 278.484 49.1817 277.956V273.108C50.3457 272.34 51.4977 271.404 52.4097 270.504L51.1137 269.268C50.3337 270.216 48.9657 271.416 47.7297 272.184C46.3977 273 44.6337 273.78 42.4857 274.332ZM59.3505 269.496L57.6105 268.956C57.5025 269.364 57.2505 269.916 57.0585 270.204C56.4585 271.248 55.3425 272.892 53.2425 274.2L54.5385 275.196C55.7505 274.356 56.8665 273.204 57.7065 272.088H61.1385C60.9585 272.832 60.4425 273.876 59.8185 274.74C59.0625 274.236 58.3065 273.744 57.6705 273.384L56.6025 274.476C57.2145 274.86 58.0065 275.4 58.7865 275.976C57.7905 276.972 56.4585 277.944 54.3825 278.58L55.7745 279.792C57.6465 279.084 59.0145 278.064 60.0705 276.948C60.5625 277.344 61.0065 277.716 61.3305 278.016L62.4705 276.66C62.1225 276.372 61.6545 276.024 61.1385 275.652C61.9905 274.452 62.5905 273.168 62.9145 272.196C63.0225 271.896 63.1785 271.572 63.3105 271.344L62.0865 270.588C61.8225 270.672 61.4145 270.72 61.0425 270.72H58.6065C58.7505 270.456 59.0505 269.916 59.3505 269.496ZM65.2159 273.444V275.328C65.6599 275.292 66.4639 275.268 67.1479 275.268H73.5919C74.0959 275.268 74.7079 275.316 74.9959 275.328V273.444C74.6839 273.468 74.1559 273.516 73.5919 273.516H67.1479C66.5239 273.516 65.6479 273.48 65.2159 273.444Z" fill="#333333"/>
<path d="M199.106 279H200.882V275.844H202.07C203.978 275.844 205.502 274.932 205.502 272.904C205.502 270.804 203.99 270.108 202.022 270.108H199.106V279ZM200.882 274.44V271.524H201.89C203.114 271.524 203.762 271.872 203.762 272.904C203.762 273.924 203.174 274.44 201.95 274.44H200.882ZM207.59 279H209.366V275.64H210.602L212.426 279H214.406L212.33 275.364C213.35 274.968 214.022 274.14 214.022 272.808C214.022 270.768 212.546 270.108 210.686 270.108H207.59V279ZM209.366 274.236V271.524H210.518C211.658 271.524 212.294 271.848 212.294 272.808C212.294 273.756 211.658 274.236 210.518 274.236H209.366ZM216.603 270.624V272.268C216.903 272.244 217.419 272.22 217.743 272.22H220.059V277.116H217.011C216.639 277.116 216.207 277.08 215.835 277.02V278.76C216.231 278.712 216.651 278.7 217.011 278.7H224.919C225.195 278.7 225.699 278.712 226.047 278.76V277.02C225.735 277.068 225.351 277.116 224.919 277.116H221.739V272.22H224.271C224.619 272.22 225.039 272.244 225.399 272.268V270.624C225.051 270.66 224.631 270.696 224.271 270.696H217.743C217.407 270.696 216.915 270.66 216.603 270.624ZM228.097 273.444V275.328C228.541 275.292 229.345 275.268 230.029 275.268H236.473C236.977 275.268 237.589 275.316 237.877 275.328V273.444C237.565 273.468 237.037 273.516 236.473 273.516H230.029C229.405 273.516 228.529 273.48 228.097 273.444ZM247.752 269.784L246.744 270.204C247.176 270.816 247.452 271.332 247.8 272.088L248.844 271.644C248.568 271.092 248.088 270.288 247.752 269.784ZM249.396 269.208L248.376 269.628C248.82 270.228 249.12 270.696 249.504 271.452L250.524 270.996C250.236 270.468 249.768 269.688 249.396 269.208ZM242.532 269.556L241.668 270.876C242.46 271.32 243.708 272.124 244.38 272.592L245.268 271.272C244.644 270.828 243.324 269.988 242.532 269.556ZM240.312 278.076L241.212 279.648C242.268 279.456 243.996 278.856 245.22 278.172C247.176 277.032 248.88 275.52 249.984 273.852L249.06 272.22C248.112 273.936 246.432 275.58 244.392 276.72C243.096 277.44 241.656 277.848 240.312 278.076ZM240.684 272.292L239.82 273.612C240.624 274.044 241.872 274.848 242.556 275.328L243.432 273.984C242.82 273.552 241.5 272.724 240.684 272.292ZM252.91 272.496V274.008C253.174 273.984 253.606 273.96 253.858 273.96H255.73V277.824H253.282C252.982 277.824 252.61 277.788 252.298 277.752V279.324C252.622 279.276 252.994 279.264 253.282 279.264H259.918C260.122 279.264 260.566 279.276 260.83 279.324V277.752C260.578 277.776 260.242 277.824 259.918 277.824H257.302V273.96H259.354C259.63 273.96 259.99 273.984 260.29 274.008V272.496C260.002 272.532 259.642 272.556 259.354 272.556H253.858C253.594 272.556 253.174 272.544 252.91 272.496ZM264.665 269.88L263.537 271.08C264.413 271.692 265.913 273 266.537 273.672L267.761 272.424C267.065 271.692 265.505 270.444 264.665 269.88ZM263.165 277.872L264.173 279.456C265.865 279.168 267.413 278.496 268.625 277.764C270.557 276.6 272.153 274.944 273.065 273.324L272.129 271.632C271.373 273.252 269.813 275.088 267.761 276.3C266.597 276.996 265.037 277.608 263.165 277.872ZM277.269 269.496L276.393 270.816C277.185 271.26 278.433 272.076 279.105 272.544L280.005 271.212C279.381 270.78 278.061 269.928 277.269 269.496ZM275.037 278.016L275.937 279.6C277.005 279.408 278.721 278.808 279.945 278.112C281.913 276.984 283.605 275.46 284.721 273.804L283.797 272.172C282.837 273.888 281.169 275.532 279.129 276.672C277.821 277.392 276.381 277.788 275.037 278.016ZM275.421 272.232L274.545 273.564C275.349 273.984 276.597 274.8 277.281 275.268L278.157 273.924C277.545 273.492 276.225 272.664 275.421 272.232ZM286.301 273.444V275.328C286.745 275.292 287.549 275.268 288.233 275.268H294.677C295.181 275.268 295.793 275.316 296.081 275.328V273.444C295.769 273.468 295.241 273.516 294.677 273.516H288.233C287.609 273.516 286.733 273.48 286.301 273.444Z" fill="#333333"/>
<path d="M108.154 309H110.326L111.298 304.608C111.442 303.912 111.562 303.228 111.682 302.544H111.73C111.838 303.228 111.97 303.912 112.114 304.608L113.11 309H115.318L116.962 300.108H115.282L114.574 304.452C114.442 305.376 114.31 306.324 114.178 307.284H114.118C113.926 306.324 113.746 305.364 113.554 304.452L112.534 300.108H111.01L109.978 304.452C109.786 305.376 109.594 306.324 109.414 307.284H109.366C109.234 306.324 109.09 305.388 108.958 304.452L108.25 300.108H106.45L108.154 309ZM121.559 309.168C122.387 309.168 123.239 308.88 123.899 308.424L123.299 307.344C122.819 307.644 122.339 307.812 121.787 307.812C120.791 307.812 120.071 307.236 119.927 306.132H124.067C124.115 305.976 124.151 305.652 124.151 305.316C124.151 303.468 123.191 302.112 121.343 302.112C119.747 302.112 118.211 303.468 118.211 305.64C118.211 307.86 119.675 309.168 121.559 309.168ZM119.903 304.956C120.035 303.984 120.659 303.48 121.367 303.48C122.231 303.48 122.639 304.056 122.639 304.956H119.903ZM129.455 309.168C130.931 309.168 132.311 307.836 132.311 305.52C132.311 303.468 131.315 302.112 129.659 302.112C128.999 302.112 128.327 302.436 127.799 302.916L127.847 301.836V299.424H126.083V309H127.463L127.619 308.292H127.667C128.207 308.856 128.855 309.168 129.455 309.168ZM129.059 307.716C128.699 307.716 128.267 307.584 127.847 307.212V304.26C128.303 303.792 128.711 303.564 129.167 303.564C130.091 303.564 130.499 304.272 130.499 305.556C130.499 307.02 129.875 307.716 129.059 307.716ZM136.17 301.728H144.786V300.36H140.454V298.848H138.966V300.36H134.742V303.384C134.742 305.076 134.658 307.536 133.626 309.228C133.962 309.36 134.586 309.78 134.85 310.02C135.978 308.208 136.17 305.28 136.17 303.384V301.728ZM145.05 309.408C144.618 308.148 143.49 306.336 142.458 304.968L141.126 305.544C141.606 306.216 142.11 306.996 142.53 307.764C141.294 307.836 140.034 307.896 138.894 307.944C139.47 306.432 140.094 304.428 140.562 302.616L138.93 302.292C138.606 304.104 137.958 306.408 137.358 308.016C136.842 308.028 136.374 308.052 135.954 308.064L136.086 309.54C137.946 309.432 140.634 309.24 143.166 309.036C143.346 309.408 143.478 309.756 143.574 310.068L145.05 309.408ZM154.422 306.564V308.184H149.382V306.564H154.422ZM147.918 310.092H149.382V309.504H154.422V310.056H155.958V305.244H147.918V310.092ZM152.874 303.072V301.692H156.378V300.384H152.874V298.824H151.362V300.384H149.454C149.634 300 149.79 299.616 149.922 299.22L148.494 298.86C148.074 300.156 147.318 301.476 146.454 302.292C146.814 302.448 147.462 302.82 147.762 303.048C148.098 302.676 148.434 302.22 148.746 301.692H151.362V303.072H146.538V304.392H157.11V303.072H152.874ZM163.314 300.216H168.282V300.852H169.602V299.208H162.066V300.852H163.314V300.216ZM163.842 305.112V304.644H165.066V305.112H163.842ZM163.842 303.348H165.066V303.816H163.842V303.348ZM167.73 303.348V303.816H166.458V303.348H167.73ZM167.73 305.112H166.458V304.644H167.73V305.112ZM165.066 308.244H166.458V307.452H169.722V306.42H166.458V305.976H169.002V302.46H166.458V302.04H169.206V301.056H166.458V300.432H165.066V301.056H162.402V302.04H165.066V302.46H162.63V305.976H165.066V306.42H161.958V307.452H165.066V308.244ZM161.814 301.044C161.43 300.468 160.602 299.676 159.93 299.136L158.838 299.952C159.51 300.528 160.302 301.356 160.638 301.944L161.814 301.044ZM161.49 303.492H158.79V304.8H160.134V307.416C159.654 307.824 159.114 308.22 158.646 308.52L159.318 309.936C159.93 309.42 160.422 308.964 160.902 308.496C161.622 309.42 162.582 309.768 164.01 309.828C165.474 309.888 168.018 309.864 169.506 309.792C169.578 309.396 169.782 308.736 169.95 308.4C168.294 308.532 165.462 308.568 164.022 308.508C162.798 308.46 161.958 308.124 161.49 307.32V303.492ZM177.618 305.196V303.72H180.15V305.196H177.618ZM173.886 305.196C173.91 304.752 173.922 304.32 173.922 303.936V303.72H176.178V305.196H173.886ZM176.178 300.996V302.388H173.922V300.996H176.178ZM180.15 302.388H177.618V300.996H180.15V302.388ZM181.566 299.64H172.506V303.924C172.506 305.604 172.398 307.74 171.09 309.18C171.414 309.348 171.99 309.84 172.218 310.104C173.082 309.168 173.514 307.848 173.73 306.54H176.178V309.888H177.618V306.54H180.15V308.34C180.15 308.556 180.066 308.628 179.838 308.628C179.622 308.628 178.83 308.64 178.158 308.604C178.338 308.976 178.566 309.588 178.614 309.972C179.694 309.984 180.426 309.96 180.918 309.72C181.398 309.504 181.566 309.12 181.566 308.352V299.64Z" fill="#333333"/>
<circle opacity="0.2" cx="247" cy="70" r="40" fill="#333333"/>
<circle opacity="0.2" cx="144" cy="40" r="40" fill="#333333"/>
<path d="M240.44 61.368C240.704 60.444 240.968 59.436 241.196 58.464H241.256C241.508 59.424 241.748 60.444 242.024 61.368L242.288 62.34H240.176L240.44 61.368ZM237.368 66H239.168L239.792 63.72H242.672L243.296 66H245.156L242.3 57.108H240.212L237.368 66ZM251.284 62.616C251.032 62.376 250.108 61.548 249.532 61.08C250.108 60.288 250.588 59.424 250.948 58.512L250.144 57.996L249.892 58.056H249.352V55.848H247.936V58.056H246.232V59.352H249.124C248.344 60.732 247.084 61.992 245.776 62.7C245.992 62.976 246.328 63.672 246.448 64.056C246.952 63.744 247.456 63.348 247.936 62.904V67.044H249.352V62.52C249.76 62.964 250.168 63.444 250.42 63.78L251.284 62.616ZM254.74 65.304V60.912H257.008V59.532H254.74V55.944H253.276V59.532H250.996V60.912H253.276V65.304H250.504V66.696H257.296V65.304H254.74Z" fill="#333333"/>
<path d="M136.44 31.368C136.704 30.444 136.968 29.436 137.196 28.464H137.256C137.508 29.424 137.748 30.444 138.024 31.368L138.288 32.34H136.176L136.44 31.368ZM133.368 36H135.168L135.792 33.72H138.672L139.296 36H141.156L138.3 27.108H136.212L133.368 36ZM147.284 32.616C147.032 32.376 146.108 31.548 145.532 31.08C146.108 30.288 146.588 29.424 146.948 28.512L146.144 27.996L145.892 28.056H145.352V25.848H143.936V28.056H142.232V29.352H145.124C144.344 30.732 143.084 31.992 141.776 32.7C141.992 32.976 142.328 33.672 142.448 34.056C142.952 33.744 143.456 33.348 143.936 32.904V37.044H145.352V32.52C145.76 32.964 146.168 33.444 146.42 33.78L147.284 32.616ZM150.74 35.304V30.912H153.008V29.532H150.74V25.944H149.276V29.532H146.996V30.912H149.276V35.304H146.504V36.696H153.296V35.304H150.74Z" fill="#333333"/>
<circle opacity="0.2" cx="40" cy="70" r="40" fill="#333333"/>
<path d="M33.4403 61.368C33.7043 60.444 33.9683 59.436 34.1963 58.464H34.2563C34.5083 59.424 34.7483 60.444 35.0243 61.368L35.2883 62.34H33.1763L33.4403 61.368ZM30.3683 66H32.1683L32.7923 63.72H35.6723L36.2963 66H38.1563L35.3003 57.108H33.2123L30.3683 66ZM44.2838 62.616C44.0318 62.376 43.1077 61.548 42.5318 61.08C43.1077 60.288 43.5878 59.424 43.9478 58.512L43.1438 57.996L42.8918 58.056H42.3517V55.848H40.9357V58.056H39.2317V59.352H42.1237C41.3437 60.732 40.0837 61.992 38.7757 62.7C38.9917 62.976 39.3277 63.672 39.4477 64.056C39.9517 63.744 40.4557 63.348 40.9357 62.904V67.044H42.3517V62.52C42.7598 62.964 43.1678 63.444 43.4198 63.78L44.2838 62.616ZM47.7397 65.304V60.912H50.0078V59.532H47.7397V55.944H46.2758V59.532H43.9958V60.912H46.2758V65.304H43.5038V66.696H50.2958V65.304H47.7397Z" fill="#333333"/>
<path d="M19.528 75.312V75.924H17.644V75.312H19.528ZM17.644 77.508V76.86H19.528V77.508H17.644ZM20.872 78.54V74.292H16.252V85.044H17.644V78.54H20.872ZM20.68 81.18V80.28H21.796V81.18H20.68ZM24.364 82.344V81.18H23.044V80.28H24.172V79.152H18.376V80.28H19.468V81.18H18.208V82.344H19.42C19.3 82.956 18.964 83.736 18.196 84.216C18.472 84.408 18.904 84.78 19.108 85.032C20.128 84.336 20.524 83.172 20.644 82.344H21.796V84.816H23.044V82.344H24.364ZM23.02 77.532V76.86H24.964V77.532H23.02ZM24.964 75.312V75.924H23.02V75.312H24.964ZM26.368 74.292H21.664V78.564H24.964V83.364C24.964 83.532 24.904 83.604 24.712 83.604C24.532 83.616 23.944 83.616 23.404 83.592C23.596 83.964 23.788 84.612 23.836 85.008C24.748 85.008 25.372 84.972 25.804 84.732C26.236 84.504 26.368 84.108 26.368 83.376V74.292ZM34.444 80.592H32.968V79.236H34.444V80.592ZM37.024 79.236V78.852C37.48 79.2 37.972 79.5 38.5 79.752C38.716 79.368 39.148 78.804 39.484 78.528C38.8 78.252 38.176 77.88 37.612 77.424C38.14 77.052 38.716 76.584 39.208 76.128L38.164 75.384C37.828 75.792 37.3 76.284 36.808 76.68C36.628 76.476 36.448 76.272 36.28 76.056C36.772 75.696 37.324 75.228 37.816 74.784L36.736 74.016C36.46 74.352 36.064 74.772 35.668 75.132C35.428 74.724 35.236 74.292 35.068 73.848L33.784 74.208C34.312 75.624 35.032 76.872 35.968 77.88H31.624C32.464 77.016 33.148 75.948 33.568 74.688L32.62 74.244L32.368 74.292H29.236V75.516H31.684C31.468 75.9 31.216 76.26 30.928 76.596C30.592 76.308 30.136 75.96 29.776 75.708L28.876 76.452C29.272 76.752 29.752 77.16 30.064 77.472C29.452 78 28.768 78.42 28.072 78.708C28.348 78.972 28.744 79.464 28.936 79.788C29.488 79.524 30.028 79.212 30.532 78.84V79.236H31.54V80.592H28.972V81.9H31.348C31.048 82.704 30.328 83.448 28.672 83.952C28.972 84.216 29.404 84.768 29.584 85.092C31.804 84.348 32.596 83.16 32.86 81.9H34.444V83.208C34.444 84.54 34.768 84.96 36.064 84.96H37.372C38.428 84.96 38.8 84.48 38.944 82.896C38.536 82.812 37.96 82.572 37.66 82.332C37.612 83.46 37.552 83.7 37.24 83.7H36.316C35.98 83.7 35.932 83.628 35.932 83.196V81.9H38.488V80.592H35.932V79.236H37.024ZM49.624 77.676H46.612V75.924H49.624V77.676ZM49.624 80.82H46.612V79.008H49.624V80.82ZM51.052 74.604H45.244V82.14H51.052V74.604ZM44.788 78.9L43.612 79.2V77.436H44.872V76.116H43.612V73.848H42.22V76.116H40.732V77.436H42.22V79.536C41.62 79.68 41.044 79.812 40.576 79.908L40.948 81.276L42.22 80.94V83.436C42.22 83.604 42.16 83.664 41.992 83.664C41.836 83.664 41.332 83.664 40.864 83.652C41.032 84.012 41.224 84.576 41.26 84.948C42.1 84.948 42.688 84.912 43.084 84.684C43.48 84.48 43.612 84.132 43.612 83.436V80.58C44.068 80.46 44.512 80.328 44.956 80.208L44.788 78.9ZM44.416 83.316V84.648H51.784V83.316H44.416ZM61.936 74.196C61.648 75.132 61.096 76.368 60.628 77.196L61.876 77.628C62.392 76.872 63.004 75.732 63.532 74.664L61.936 74.196ZM56.8 77.004C56.536 76.236 55.948 75.132 55.324 74.304L54.016 74.82C54.604 75.66 55.192 76.824 55.42 77.58L56.8 77.004ZM59.512 73.824H57.94V77.976H54.304V79.404H61.804V80.508H54.712V81.888H61.804V83.136H54.028V84.552H61.804V85.044H63.328V77.976H59.512V73.824Z" fill="#333333"/>
<path d="M228.316 76.44L227.116 75.456C226.864 75.54 226.456 75.588 226 75.588H219.34C218.932 75.588 218.272 75.528 217.96 75.48V77.16C218.212 77.136 218.86 77.076 219.34 77.076H225.688C225.124 78.06 223.996 79.452 222.64 80.532C221.884 79.872 221.092 79.224 220.612 78.864L219.34 79.884C220.06 80.4 221.284 81.48 221.98 82.188C222.76 82.98 223.768 84.108 224.272 84.78L225.676 83.664C225.208 83.1 224.5 82.32 223.816 81.636C225.508 80.268 227.044 78.348 227.908 76.944C228.004 76.788 228.148 76.632 228.316 76.44ZM229.983 78.444V80.328C230.427 80.292 231.231 80.268 231.915 80.268H238.359C238.863 80.268 239.475 80.316 239.763 80.328V78.444C239.451 78.468 238.923 78.516 238.359 78.516H231.915C231.291 78.516 230.415 78.48 229.983 78.444ZM246.326 74.604L244.465 74.232C244.442 74.604 244.358 75.072 244.214 75.468C244.07 75.924 243.854 76.548 243.518 77.1C243.062 77.856 242.294 78.936 241.442 79.572L242.942 80.484C243.662 79.86 244.406 78.84 244.886 77.964H247.418C247.226 80.472 246.23 81.948 244.97 82.908C244.682 83.148 244.262 83.4 243.83 83.568L245.45 84.66C247.622 83.292 248.87 81.144 249.086 77.964H250.766C251.042 77.964 251.57 77.964 252.014 78.012V76.368C251.618 76.44 251.078 76.452 250.766 76.452H245.594C245.726 76.14 245.834 75.828 245.93 75.576C246.026 75.324 246.182 74.904 246.326 74.604ZM262.427 77.676H259.414V75.924H262.427V77.676ZM262.427 80.82H259.414V79.008H262.427V80.82ZM263.854 74.604H258.046V82.14H263.854V74.604ZM257.59 78.9L256.414 79.2V77.436H257.674V76.116H256.414V73.848H255.022V76.116H253.534V77.436H255.022V79.536C254.422 79.68 253.846 79.812 253.378 79.908L253.75 81.276L255.022 80.94V83.436C255.022 83.604 254.962 83.664 254.794 83.664C254.638 83.664 254.134 83.664 253.666 83.652C253.834 84.012 254.026 84.576 254.062 84.948C254.902 84.948 255.49 84.912 255.886 84.684C256.282 84.48 256.414 84.132 256.414 83.436V80.58C256.87 80.46 257.314 80.328 257.758 80.208L257.59 78.9ZM257.218 83.316V84.648H264.587V83.316H257.218ZM274.738 74.196C274.45 75.132 273.898 76.368 273.43 77.196L274.678 77.628C275.194 76.872 275.806 75.732 276.334 74.664L274.738 74.196ZM269.602 77.004C269.338 76.236 268.75 75.132 268.126 74.304L266.818 74.82C267.406 75.66 267.994 76.824 268.222 77.58L269.602 77.004ZM272.314 73.824H270.742V77.976H267.106V79.404H274.606V80.508H267.514V81.888H274.606V83.136H266.83V84.552H274.606V85.044H276.13V77.976H272.314V73.824Z" fill="#333333"/>
<path d="M128.16 53.436H122.532V52.392H128.16V53.436ZM123.504 48.552H127.068V49.392H123.504V48.552ZM128.448 50.436V47.496H122.184V50.436H124.368C124.32 50.676 124.248 50.928 124.188 51.168H121.176V55.068H122.532V54.672H128.16V55.068H129.576V51.168H125.604C125.712 50.94 125.82 50.7 125.916 50.436H128.448ZM128.76 45.696C129.096 45.3 129.456 44.82 129.804 44.364L128.268 43.884C128.04 44.46 127.584 45.18 127.2 45.696H125.232L126.072 45.384C125.904 44.952 125.508 44.268 125.16 43.8L123.912 44.22C124.2 44.676 124.524 45.264 124.692 45.696H122.844L123.228 45.528C123.024 45.084 122.556 44.448 122.16 43.992L120.924 44.532C121.2 44.88 121.5 45.312 121.716 45.696H120.252V48.252H121.56V46.908H129.06V48.252H130.44V45.696H128.76ZM139.236 46.956C139.104 47.28 138.96 47.628 138.816 47.916H136.572L136.776 47.88C136.692 47.628 136.536 47.268 136.368 46.956H139.236ZM143.112 52.308V51.132H138.444V50.604H142.044V49.572H138.444V49.032H142.608V47.916H140.256C140.436 47.628 140.628 47.304 140.82 46.956H143.076V45.792H141.516C141.792 45.372 142.116 44.832 142.452 44.28L140.952 43.92C140.784 44.448 140.484 45.168 140.196 45.66L140.628 45.792H139.56V43.836H138.216V45.792H137.328V43.836H135.996V45.792H134.904L135.492 45.576C135.324 45.108 134.928 44.4 134.58 43.884L133.356 44.304C133.62 44.76 133.932 45.336 134.1 45.792H132.492V46.956H135L134.856 46.98C135.012 47.256 135.168 47.616 135.264 47.916H132.984V49.032H137.04V49.572H133.584V50.604H137.04V51.132H132.456V52.308H135.9C134.868 52.932 133.452 53.436 132.108 53.712C132.408 54 132.816 54.552 133.02 54.9C134.448 54.528 135.924 53.832 137.04 52.956V55.044H138.444V52.884C139.548 53.82 141 54.54 142.476 54.912C142.692 54.528 143.112 53.928 143.436 53.616C142.044 53.4 140.652 52.932 139.632 52.308H143.112ZM153.624 47.676H150.612V45.924H153.624V47.676ZM153.624 50.82H150.612V49.008H153.624V50.82ZM155.052 44.604H149.244V52.14H155.052V44.604ZM148.788 48.9L147.612 49.2V47.436H148.872V46.116H147.612V43.848H146.22V46.116H144.732V47.436H146.22V49.536C145.62 49.68 145.044 49.812 144.576 49.908L144.948 51.276L146.22 50.94V53.436C146.22 53.604 146.16 53.664 145.992 53.664C145.836 53.664 145.332 53.664 144.864 53.652C145.032 54.012 145.224 54.576 145.26 54.948C146.1 54.948 146.688 54.912 147.084 54.684C147.48 54.48 147.612 54.132 147.612 53.436V50.58C148.068 50.46 148.512 50.328 148.956 50.208L148.788 48.9ZM148.416 53.316V54.648H155.784V53.316H148.416ZM165.936 44.196C165.648 45.132 165.096 46.368 164.628 47.196L165.876 47.628C166.392 46.872 167.004 45.732 167.532 44.664L165.936 44.196ZM160.8 47.004C160.536 46.236 159.948 45.132 159.324 44.304L158.016 44.82C158.604 45.66 159.192 46.824 159.42 47.58L160.8 47.004ZM163.512 43.824H161.94V47.976H158.304V49.404H165.804V50.508H158.712V51.888H165.804V53.136H158.028V54.552H165.804V55.044H167.328V47.976H163.512V43.824Z" fill="#333333"/>
<path d="M229.139 344.27L229.419 345.306C230.497 345.292 232.079 345.25 233.493 345.11V347.658H229.279C228.859 347.658 228.369 347.63 228.047 347.602V348.764C228.383 348.736 228.859 348.708 229.307 348.708H233.465C233.297 351.214 232.135 352.782 229.923 353.804L231.029 354.574C233.437 353.174 234.459 351.326 234.613 348.708H238.519C238.869 348.708 239.289 348.736 239.597 348.764V347.602C239.303 347.63 238.799 347.658 238.491 347.658H234.627V344.97C235.635 344.816 236.713 344.606 237.413 344.424C237.609 344.368 237.889 344.298 238.197 344.214L237.455 343.248C236.769 343.542 235.117 343.878 233.843 344.06C232.331 344.256 230.203 344.312 229.139 344.27ZM241.983 347.938V349.31C242.417 349.268 243.159 349.24 243.929 349.24H251.615C252.245 349.24 252.833 349.296 253.113 349.31V347.938C252.805 347.966 252.301 348.008 251.601 348.008H243.929C243.145 348.008 242.403 347.966 241.983 347.938ZM261.411 343.556L260.011 343.276C259.969 343.64 259.913 343.976 259.745 344.62C259.353 345.992 257.925 350.472 257.141 352.404C256.889 352.418 256.651 352.432 256.441 352.446C256.035 352.46 255.559 352.474 255.139 352.46L255.349 353.762C255.755 353.706 256.161 353.636 256.511 353.608C258.387 353.44 263.077 352.922 265.233 352.642C265.555 353.328 265.821 353.972 266.003 354.476L267.179 353.944C266.591 352.502 265.065 349.688 264.071 348.246L263.021 348.722C263.539 349.394 264.169 350.486 264.729 351.592C263.189 351.802 260.501 352.096 258.443 352.292C259.143 350.472 260.529 346.174 260.935 344.858C261.117 344.27 261.271 343.906 261.411 343.556Z" fill="#333333"/>
<g clip-path="url(#clip1_248_594)">
<path d="M22.4445 355.743L23.4251 350.682C23.9032 348.163 25.2192 346.787 26.343 346.787C27.204 346.787 27.4909 347.347 27.4909 348.14C27.4878 348.57 27.4478 348.999 27.3714 349.422L26.1496 355.743H29.5941L30.8859 349.119C30.9946 348.479 31.0585 347.832 31.077 347.184C31.077 345.225 30.0006 344.082 28.0886 344.082C27.2742 344.079 26.4717 344.274 25.7534 344.648C25.035 345.022 24.4231 345.564 23.9726 346.226H23.9246L24.1637 344.337H21.1048C20.9611 345.34 20.7699 346.599 20.4846 348.045L19.0017 355.742L22.4445 355.743ZM42.0099 352.664C40.9894 353.149 39.8678 353.396 38.7329 353.387C38.3132 353.421 37.8913 353.358 37.5009 353.204C37.1105 353.05 36.7623 352.809 36.4843 352.501C36.2571 352.152 36.133 351.748 36.1257 351.335C40.814 351.452 43.7082 350.4 43.7082 347.486C43.7082 345.364 42.0099 344.081 39.6418 344.081C35.4079 344.081 32.8249 347.696 32.8249 351.173C32.8249 354.136 34.5469 355.978 37.8956 355.978C39.3964 356.004 40.8841 355.701 42.249 355.092L42.0099 352.664ZM40.4797 347.51C40.4797 348.537 39.14 348.909 36.4611 348.885C36.5726 348.244 36.9069 347.66 37.4079 347.231C37.9088 346.802 38.5459 346.554 39.2121 346.529C40.0015 346.53 40.4797 346.927 40.4797 347.51ZM45.2396 344.338L47.9906 349.841L42.9194 355.743H46.89L48.2771 353.761C48.8031 352.968 49.1381 352.386 49.473 351.848H49.5446C49.76 352.524 49.9511 353.084 50.286 353.924L51.0275 355.743H54.8053L52.0808 349.866L57.0082 344.338H53.0613L51.7695 346.135C51.2671 346.834 50.9564 347.347 50.5257 347.954H50.4541C50.2849 347.511 50.0712 346.951 49.7126 346.041L49.0191 344.337L45.2396 344.338ZM68.8484 353.761C68.0165 354.167 67.1001 354.383 66.1695 354.39C64.2801 354.39 63.299 353.2 63.299 351.382C63.299 348.723 65.1884 345.829 68.2044 345.829C68.8824 345.823 69.553 345.967 70.1661 346.249L70.7401 344.709C69.979 344.382 69.1557 344.215 68.324 344.22C64.1622 344.22 61.2438 347.765 61.2438 351.613C61.2438 354.015 62.703 355.975 65.6931 355.975C66.8463 355.987 67.9886 355.757 69.0418 355.298L68.8484 353.761ZM77.5552 344.198C73.8 344.198 71.1449 347.65 71.1449 351.359C71.1449 353.901 72.7716 356 75.6658 356C79.5405 356 82.0761 352.385 82.0761 348.908C82.0756 346.507 80.6885 344.198 77.5547 344.198H77.5552ZM77.3399 345.738C79.421 345.738 80.0429 347.58 80.0429 348.886C80.0429 351.522 78.273 354.461 75.9269 354.461C74.2286 354.461 73.2001 353.131 73.2001 351.289C73.1776 348.699 74.8522 345.738 77.3393 345.738H77.3399ZM85.4028 355.744L86.4792 350.076C86.9337 347.674 88.7278 345.808 90.1865 345.808C91.6451 345.808 91.9085 346.788 91.9085 347.744C91.9055 348.205 91.8574 348.666 91.7647 349.118L90.4729 355.742H92.3866L93.5109 349.958C93.989 347.439 95.6873 345.806 97.1229 345.806C98.4146 345.806 98.8708 346.576 98.8708 347.765C98.8645 348.259 98.8078 348.752 98.7017 349.235L97.4578 355.742H99.3929L100.685 349.072C100.803 348.44 100.867 347.8 100.876 347.159C100.876 345.037 99.4166 344.197 98.0775 344.197C97.2032 344.214 96.349 344.456 95.6013 344.898C94.8537 345.34 94.2392 345.967 93.8199 346.716C93.724 345.293 92.8873 344.197 91.1168 344.197C89.586 344.197 88.1284 345.013 87.0504 346.575H86.9788L87.2894 344.453H85.5415C85.422 345.388 85.2545 346.483 85.0155 347.742L83.4609 355.742L85.4028 355.744ZM104.73 355.744L105.806 350.076C106.261 347.674 108.055 345.808 109.513 345.808C110.972 345.808 111.235 346.788 111.235 347.744C111.232 348.205 111.184 348.666 111.092 349.118L109.8 355.742H111.713L112.838 349.958C113.316 347.439 115.014 345.806 116.45 345.806C117.742 345.806 118.198 346.576 118.198 347.765C118.191 348.259 118.135 348.752 118.029 349.235L116.785 355.742H118.722L120.012 349.072C120.13 348.44 120.194 347.8 120.203 347.159C120.203 345.037 118.744 344.197 117.405 344.197C116.531 344.214 115.676 344.456 114.929 344.898C114.181 345.34 113.567 345.967 113.147 346.716C113.051 345.293 112.215 344.197 110.444 344.197C108.913 344.197 107.456 345.013 106.378 346.575H106.306L106.617 344.453H104.869C104.749 345.388 104.582 346.483 104.343 347.742L102.788 355.742L104.73 355.744ZM131.302 344.453L130.179 350.239C129.701 352.734 127.859 354.367 126.424 354.367C125.06 354.367 124.558 353.574 124.558 352.408C124.567 351.85 124.64 351.295 124.773 350.752L125.992 344.453H124.006L122.763 350.844C122.631 351.466 122.559 352.098 122.547 352.733C122.547 355.298 124.102 355.998 125.585 355.998C126.413 355.952 127.217 355.712 127.929 355.297C128.641 354.883 129.24 354.308 129.675 353.619H129.723L129.413 355.742H131.207C131.326 354.807 131.494 353.712 131.733 352.453L133.287 344.453H131.302ZM136.564 355.742L137.617 350.261C138.143 347.462 140.154 345.807 141.564 345.807C142.927 345.807 143.382 346.647 143.382 347.79C143.374 348.276 143.317 348.761 143.213 349.236L141.946 355.743H143.932L145.223 349.166C145.347 348.567 145.419 347.958 145.439 347.347C145.439 344.968 143.884 344.198 142.497 344.198C141.625 344.216 140.772 344.453 140.022 344.887C139.272 345.32 138.649 345.935 138.215 346.672H138.167L138.454 344.457H136.684C136.54 345.391 136.397 346.486 136.134 347.745L134.577 355.743L136.564 355.742ZM149.337 355.742L151.561 344.453H149.575L147.351 355.742H149.337ZM151.085 342.517C151.262 342.522 151.438 342.491 151.603 342.427C151.767 342.362 151.917 342.266 152.042 342.144C152.167 342.022 152.266 341.876 152.332 341.716C152.397 341.556 152.429 341.384 152.425 341.211C152.438 341.055 152.417 340.897 152.364 340.749C152.311 340.6 152.226 340.465 152.116 340.35C152.005 340.236 151.871 340.145 151.722 340.085C151.574 340.024 151.414 339.995 151.253 339.998C151.078 339.999 150.905 340.033 150.744 340.099C150.583 340.165 150.437 340.261 150.314 340.383C150.192 340.504 150.095 340.649 150.031 340.807C149.966 340.965 149.934 341.134 149.937 341.305C149.923 341.459 149.942 341.615 149.994 341.762C150.045 341.909 150.127 342.044 150.235 342.159C150.343 342.273 150.474 342.364 150.62 342.426C150.766 342.488 150.924 342.52 151.083 342.519L151.085 342.517ZM160.605 353.759C159.773 354.166 158.857 354.381 157.926 354.389C156.037 354.389 155.056 353.199 155.056 351.38C155.056 348.721 156.945 345.827 159.961 345.827C160.639 345.821 161.31 345.965 161.923 346.247L162.497 344.708C161.736 344.381 160.912 344.214 160.081 344.218C155.919 344.218 153 347.763 153 351.612C153 354.014 154.46 355.973 157.449 355.973C158.602 355.986 159.745 355.755 160.798 355.297L160.605 353.759ZM172.11 355.742C172.095 353.988 172.264 352.238 172.613 350.519L173.785 344.641C172.776 344.346 171.728 344.197 170.675 344.198C165.628 344.198 162.662 348.35 162.662 352.268C162.662 354.412 163.954 356 165.989 356C167.639 356 169.218 355.16 170.486 352.828H170.534C170.396 353.795 170.308 354.767 170.27 355.742L172.11 355.742ZM170.888 349.306C170.314 352.314 168.351 354.413 166.702 354.413C165.172 354.413 164.717 353.177 164.717 351.918C164.741 348.792 167.181 345.737 170.171 345.737C170.638 345.733 171.105 345.788 171.558 345.902L170.888 349.306ZM178.208 341.912L177.705 344.454H176.055L175.744 345.97H177.419L176.271 351.684C176.117 352.382 176.037 353.093 176.032 353.806C176.032 354.949 176.702 355.999 178.471 355.999C178.99 356.013 179.508 355.942 180.002 355.789L180.098 354.273C179.79 354.322 179.478 354.346 179.165 354.343C179.016 354.363 178.864 354.349 178.721 354.302C178.578 354.256 178.448 354.177 178.341 354.073C178.235 353.969 178.154 353.843 178.106 353.703C178.059 353.564 178.044 353.416 178.065 353.27C178.079 352.659 178.151 352.05 178.28 351.451L179.357 345.97H182.131L182.443 344.454H179.668L180.266 341.422L178.208 341.912ZM184.546 355.743L186.771 344.453H184.786L182.56 355.743L184.546 355.743ZM186.294 342.519C186.471 342.523 186.648 342.492 186.812 342.428C186.977 342.364 187.126 342.268 187.251 342.145C187.377 342.023 187.475 341.878 187.541 341.717C187.607 341.557 187.638 341.385 187.634 341.212C187.647 341.056 187.627 340.898 187.573 340.75C187.52 340.601 187.435 340.466 187.325 340.351C187.214 340.237 187.08 340.147 186.932 340.086C186.783 340.025 186.623 339.996 186.462 339.999C186.287 340 186.114 340.034 185.953 340.1C185.792 340.166 185.646 340.262 185.523 340.384C185.401 340.506 185.305 340.65 185.24 340.808C185.175 340.966 185.143 341.135 185.146 341.306C185.133 341.46 185.152 341.616 185.203 341.763C185.255 341.91 185.337 342.045 185.445 342.159C185.553 342.273 185.684 342.364 185.83 342.426C185.976 342.488 186.133 342.52 186.293 342.519L186.294 342.519ZM194.618 344.198C190.863 344.198 188.208 347.649 188.208 351.358C188.208 353.9 189.835 355.999 192.729 355.999C196.604 355.999 199.139 352.385 199.139 348.907C199.137 346.507 197.75 344.198 194.617 344.198L194.618 344.198ZM194.403 345.737C196.484 345.737 197.106 347.579 197.106 348.886C197.106 351.521 195.336 354.46 192.99 354.46C191.292 354.46 190.263 353.131 190.263 351.288C190.24 348.699 191.914 345.738 194.401 345.738L194.403 345.737ZM202.512 355.743L203.564 350.262C204.09 347.463 206.102 345.809 207.511 345.809C208.875 345.809 209.329 346.649 209.329 347.792C209.321 348.278 209.265 348.762 209.16 349.238L207.892 355.745H209.878L211.169 349.168C211.293 348.568 211.365 347.96 211.385 347.348C211.385 344.97 209.83 344.2 208.443 344.2C207.571 344.218 206.719 344.455 205.968 344.888C205.218 345.322 204.596 345.937 204.161 346.674H204.113L204.4 344.458H202.63C202.486 345.393 202.343 346.488 202.08 347.747L200.525 355.747L202.512 355.743ZM212.845 355.207C213.701 355.737 214.701 356.005 215.715 355.976C218.155 355.976 220.14 354.647 220.14 352.268C220.14 351.008 219.255 350.029 217.964 349.306C216.935 348.746 216.385 348.233 216.385 347.417C216.385 346.437 217.246 345.712 218.442 345.712C219.145 345.714 219.837 345.891 220.451 346.225L221.001 344.756C220.26 344.366 219.427 344.173 218.585 344.196C216.145 344.196 214.399 345.712 214.399 347.694C214.399 348.837 215.141 349.838 216.48 350.563C217.676 351.216 218.083 351.753 218.083 352.639C218.083 353.642 217.222 354.481 215.884 354.481C215.008 354.453 214.153 354.213 213.396 353.782L212.845 355.207Z" fill="#333333"/>
</g>
<path d="M58.8508 234.403L53.7453 229.599C53.2503 229.133 52.6018 228.876 51.9194 228.876C51.5154 228.876 51.1196 228.969 50.7619 229.141L48.9367 227.423C52.6882 221.602 51.8791 213.732 46.6595 208.818C46.1761 208.364 45.6631 207.944 45.1306 207.563V202.422C45.1306 201.638 44.4915 201 43.706 201H41.2301C40.4446 201 39.8056 201.638 39.8056 202.422V205.188C37.4829 204.676 35.0412 204.736 32.7494 205.358C32.7253 205.031 32.5904 204.711 32.3414 204.46L31.4472 203.568C31.1811 203.302 30.8265 203.155 30.4484 203.155C30.0706 203.155 29.7157 203.302 29.4496 203.568L29.372 203.646C29.2961 203.611 29.2195 203.578 29.1426 203.547V203.44C29.1426 202.662 28.5084 202.029 27.729 202.029H26.4653C25.6859 202.029 25.0517 202.662 25.0517 203.44V203.547C24.9748 203.578 24.8982 203.611 24.8222 203.646L24.7447 203.568C24.4786 203.302 24.1237 203.155 23.7459 203.155C23.3678 203.155 23.0132 203.302 22.7474 203.568L21.8508 204.462C21.3021 205.015 21.3027 205.911 21.8532 206.462L21.9798 206.588C21.9551 206.648 21.9313 206.708 21.9084 206.768H21.7262C20.9468 206.768 20.313 207.402 20.313 208.182V209.445C20.313 210.225 20.9468 210.859 21.7262 210.859H21.9609C21.9798 210.906 21.9997 210.953 22.0198 210.999L21.8523 211.166C21.5862 211.432 21.4394 211.787 21.4394 212.165C21.4394 212.543 21.5862 212.898 21.8523 213.164L22.7467 214.059C22.8081 214.12 22.8746 214.174 22.9442 214.223C21.0634 219.097 21.9277 224.608 25.2632 228.746C25.3798 228.891 25.5507 228.966 25.7231 228.966C25.8531 228.966 25.984 228.924 26.0933 228.836C26.3472 228.631 26.3871 228.259 26.1824 228.005C23.0602 224.131 22.2902 218.953 24.138 214.416C24.3654 214.351 24.5738 214.23 24.7456 214.058L24.9113 213.891C24.958 213.912 25.0047 213.931 25.0517 213.951V214.185C25.0517 214.852 25.5168 215.411 26.1393 215.559C24.5589 219.76 25.6361 224.519 28.9503 227.639C29.7294 228.372 30.5869 228.97 31.4939 229.437C31.5263 229.458 31.5607 229.476 31.5971 229.49C32.327 229.856 33.0884 230.137 33.8663 230.333C33.9094 230.349 33.9548 230.36 34.0021 230.366C34.8612 230.571 35.7395 230.674 36.6171 230.674C37.1555 230.674 37.6932 230.635 38.2263 230.558C38.2825 230.558 38.3362 230.549 38.3875 230.534C39.1147 230.418 39.8325 230.231 40.5289 229.973C40.5823 229.961 40.6326 229.942 40.6796 229.916C42.1866 229.332 43.5894 228.412 44.7689 227.159C44.8373 227.086 44.9041 227.013 44.9703 226.939C44.981 226.927 44.9914 226.916 45.0009 226.904C46.7849 224.889 47.7801 222.314 47.8094 219.614C47.839 216.893 46.889 214.277 45.1306 212.222V209.049C45.3771 209.25 45.6179 209.46 45.8508 209.679C51.2578 214.769 51.5175 223.311 46.4294 228.721C43.8095 231.505 40.2075 232.933 36.5927 232.933C33.6597 232.933 30.7185 231.992 28.2872 230.073C28.0311 229.871 27.66 229.915 27.458 230.171C27.256 230.427 27.2996 230.798 27.5557 231C30.1441 233.044 33.3256 234.14 36.612 234.14C36.9623 234.14 37.3142 234.128 37.6663 234.103C40.6787 233.888 43.5159 232.759 45.8334 230.881L47.5777 232.522C47.438 232.864 47.3696 233.235 47.3815 233.616C47.4038 234.329 47.7007 234.989 48.2171 235.474L53.3226 240.277C53.8167 240.743 54.4652 241 55.1482 241C55.8815 241 56.5889 240.696 57.0897 240.165L58.9659 238.17C59.9711 237.101 59.9198 235.411 58.8508 234.403ZM39.8056 206.4V208.76C37.8824 208.191 35.8289 208.148 33.8813 208.638V208.182C33.8813 207.402 33.2474 206.768 32.468 206.768H32.2858C32.2819 206.758 32.2776 206.748 32.2733 206.737C34.6851 205.92 37.3261 205.801 39.8056 206.4ZM25.8201 212.973C25.5626 212.892 25.3099 212.785 25.0694 212.656C24.9815 212.608 24.8857 212.586 24.7905 212.586C24.6367 212.586 24.4853 212.645 24.3718 212.76L23.9098 213.224C23.8515 213.282 23.7819 213.291 23.7459 213.291C23.7093 213.291 23.64 213.282 23.5817 213.224L22.6869 212.329C22.6289 212.271 22.6201 212.201 22.6201 212.165C22.6201 212.129 22.6289 212.059 22.6863 212.002L23.1514 211.539C23.3363 211.355 23.3784 211.071 23.2552 210.841C23.1273 210.603 23.0205 210.35 22.9375 210.09C22.8593 209.845 22.632 209.678 22.3747 209.678H21.7262C21.6002 209.678 21.4937 209.571 21.4937 209.445V208.182C21.4937 208.056 21.5999 207.949 21.7262 207.949H22.3345C22.5981 207.949 22.8297 207.774 22.9024 207.521C22.9808 207.245 23.0858 206.981 23.214 206.734C23.333 206.505 23.2893 206.225 23.1065 206.043L22.6872 205.626C22.5978 205.537 22.5987 205.385 22.6866 205.296L23.5817 204.403C23.64 204.345 23.7096 204.336 23.7459 204.336C23.7822 204.336 23.8515 204.345 23.9098 204.403L24.29 204.784C24.4771 204.971 24.7655 205.01 24.9962 204.881C25.2589 204.734 25.536 204.614 25.8198 204.524C26.0655 204.447 26.2327 204.219 26.2327 203.961V203.44C26.2327 203.315 26.3392 203.21 26.4653 203.21H27.729C27.855 203.21 27.9615 203.315 27.9615 203.44V203.961C27.9615 204.219 28.1288 204.447 28.3747 204.524C28.6585 204.614 28.9353 204.734 29.1981 204.881C29.4285 205.01 29.7172 204.971 29.9043 204.784L30.2842 204.403C30.3425 204.345 30.4124 204.336 30.4484 204.336C30.4847 204.336 30.5543 204.345 30.6129 204.404L31.5055 205.294C31.5955 205.385 31.5961 205.537 31.5083 205.625L31.2205 205.911C31.2141 205.917 31.2083 205.923 31.2025 205.929L31.0877 206.043C30.9046 206.225 30.8613 206.505 30.98 206.734C31.1082 206.981 31.2132 207.245 31.2919 207.521C31.3645 207.775 31.5961 207.949 31.8595 207.949H32.468C32.5941 207.949 32.7006 208.056 32.7006 208.182V209.43V209.434V209.445C32.7006 209.571 32.5941 209.678 32.468 209.678H31.8217C31.5662 209.678 31.3395 209.842 31.2605 210.086C31.1735 210.352 31.0654 210.606 30.9394 210.841C30.8158 211.071 30.8579 211.355 31.0429 211.539L31.507 212.001C31.5958 212.09 31.5958 212.24 31.507 212.329L30.6123 213.224C30.5543 213.282 30.4847 213.291 30.4484 213.291C30.4121 213.291 30.3425 213.282 30.2854 213.225L29.8225 212.76C29.6385 212.575 29.3543 212.532 29.1245 212.656C28.8844 212.785 28.6317 212.892 28.3741 212.973C28.1285 213.051 27.9615 213.279 27.9615 213.536V214.185C27.9615 214.311 27.855 214.418 27.7287 214.418H26.4653C26.3392 214.418 26.2327 214.311 26.2327 214.185V213.536C26.2327 213.278 26.0655 213.051 25.8201 212.973ZM28.2612 224.999V219.387C28.2612 219.255 28.3717 219.143 28.5026 219.143H30.9806C31.1127 219.143 31.2244 219.255 31.2244 219.387V227.921C30.7105 227.592 30.2195 227.211 29.7593 226.778C29.1831 226.236 28.6836 225.638 28.2612 224.999ZM34.664 229.302V224.853C34.664 224.527 34.3998 224.263 34.0735 224.263C33.7476 224.263 33.483 224.527 33.483 224.853V228.993C33.1177 228.873 32.7576 228.732 32.4052 228.568V219.387C32.4052 218.601 31.7661 217.962 30.9806 217.962H28.5026C27.7183 217.962 27.0802 218.601 27.0802 219.387V222.536C26.3667 220.307 26.4436 217.85 27.3951 215.598H27.7287C28.5081 215.598 29.1422 214.964 29.1422 214.185V213.95C29.1892 213.931 29.2362 213.912 29.2826 213.891L29.4496 214.059C29.7157 214.325 30.0706 214.472 30.4484 214.472C30.8265 214.472 31.1811 214.325 31.4472 214.059L32.342 213.164C32.8928 212.613 32.8928 211.717 32.3408 211.165L32.1741 210.999C32.1946 210.953 32.2144 210.906 32.2336 210.859H32.468C33.0958 210.859 33.6286 210.447 33.8123 209.88C35.7721 209.309 37.8732 209.35 39.8056 209.998V228.976C39.4772 229.086 39.1443 229.178 38.8083 229.253V214.375C38.8083 213.589 38.1693 212.95 37.3834 212.95H34.9079C34.1224 212.95 33.4833 213.589 33.4833 214.375V222.019C33.4833 222.346 33.7476 222.61 34.0735 222.61C34.3998 222.61 34.664 222.346 34.664 222.019V214.375C34.664 214.243 34.7757 214.131 34.9079 214.131H37.3837C37.5159 214.131 37.6276 214.243 37.6276 214.375V229.443C36.6406 229.542 35.6412 229.495 34.664 229.302ZM40.9863 228.496V202.422C40.9863 202.291 41.098 202.181 41.2301 202.181H43.706C43.8381 202.181 43.9498 202.291 43.9498 202.422V207.866V207.87V226.305C43.9361 226.32 43.9227 226.335 43.9089 226.349C43.0484 227.264 42.055 227.979 40.9863 228.496ZM45.1306 224.751V214.221C47.1044 217.427 47.0956 221.549 45.1306 224.751ZM47.2893 229.53C47.6321 229.165 47.9522 228.788 48.2506 228.399L49.8229 229.879L48.258 231.541L46.7239 230.098C46.9167 229.914 47.1056 229.725 47.2893 229.53ZM58.1059 237.36L56.23 239.355C55.9477 239.654 55.5635 239.819 55.1482 239.819C54.7673 239.819 54.4069 239.676 54.1319 239.417L49.0258 234.612C48.7389 234.343 48.5738 233.976 48.5616 233.579C48.5491 233.181 48.6913 232.803 48.962 232.516L50.8391 230.522C51.1205 230.222 51.5041 230.057 51.9194 230.057C52.3 230.057 52.6607 230.2 52.936 230.459L58.0412 235.262C58.6366 235.824 58.6656 236.765 58.1059 237.36Z" fill="#333333"/>
<path d="M29.2551 210.842C30.3712 209.654 30.3135 207.776 29.1263 206.656C28.5758 206.138 27.8559 205.852 27.0994 205.852C26.2855 205.852 25.499 206.192 24.9421 206.783C24.3998 207.358 24.1138 208.11 24.1373 208.9C24.1608 209.692 24.491 210.426 25.0669 210.969C25.618 211.489 26.3386 211.774 27.096 211.774C27.909 211.775 28.6957 211.435 29.2551 210.842ZM25.3174 208.865C25.3034 208.391 25.4752 207.939 25.8015 207.593C26.1417 207.232 26.6025 207.033 27.0994 207.033C27.5541 207.033 27.9865 207.204 28.3167 207.515C29.0308 208.189 29.0656 209.319 28.3951 210.033C28.054 210.395 27.5925 210.594 27.096 210.594C26.641 210.594 26.2083 210.422 25.8768 210.109C25.5301 209.783 25.3315 209.341 25.3174 208.865Z" fill="#333333"/>
<g clip-path="url(#clip2_248_594)">
<path d="M158.284 236.321C157.761 236.321 157.337 236.745 157.337 237.268C157.337 237.791 157.761 238.215 158.284 238.215C158.807 238.215 159.231 237.791 159.231 237.268C159.231 236.745 158.807 236.321 158.284 236.321Z" fill="#333333"/>
<path d="M155.049 238.215C155.572 238.215 155.996 237.791 155.996 237.268C155.996 236.745 155.572 236.321 155.049 236.321C154.526 236.321 154.102 236.745 154.102 237.268C154.102 237.791 154.526 238.215 155.049 238.215Z" fill="#333333"/>
<path d="M151.813 238.215C152.336 238.215 152.76 237.791 152.76 237.268C152.76 236.745 152.336 236.321 151.813 236.321C151.29 236.321 150.866 236.745 150.866 237.268C150.866 237.791 151.29 238.215 151.813 238.215Z" fill="#333333"/>
<path d="M164 235.611C164 234.418 163.029 233.447 161.836 233.447H126.164C124.971 233.447 124 234.418 124 235.611V261.286C124 261.61 124.262 261.872 124.586 261.872C124.91 261.872 125.172 261.61 125.172 261.286V241.09H162.828V244.188C162.828 244.511 163.09 244.774 163.414 244.774C163.738 244.774 164 244.511 164 244.188V235.611ZM125.172 239.918V235.611C125.172 235.064 125.617 234.619 126.164 234.619H161.836C162.383 234.619 162.828 235.064 162.828 235.611V239.918H125.172V239.918Z" fill="#333333"/>
<path d="M163.414 246.336C163.09 246.336 162.828 246.598 162.828 246.922V266.389C162.828 266.936 162.383 267.381 161.836 267.381H126.164C125.617 267.381 125.172 266.936 125.172 266.389V264.02C125.172 263.697 124.91 263.435 124.586 263.435C124.262 263.435 124 263.697 124 264.02V266.389C124 267.582 124.971 268.553 126.164 268.553H161.836C163.029 268.553 164 267.582 164 266.389V246.922C164 246.598 163.738 246.336 163.414 246.336Z" fill="#333333"/>
<path d="M144.498 253.65H137.292C136.969 253.65 136.706 253.913 136.706 254.236V265.442C136.706 265.766 136.969 266.028 137.292 266.028H157.495C157.819 266.028 158.081 265.766 158.081 265.442V258.568C160.086 258.282 161.632 256.555 161.632 254.473C161.632 252.191 159.776 250.335 157.495 250.335C155.495 250.335 153.823 251.761 153.44 253.65H147.232C146.908 253.65 146.646 253.912 146.646 254.236C146.646 254.56 146.908 254.822 147.232 254.822H153.374C153.536 256.745 155.018 258.298 156.909 258.568V264.856H137.878V254.822H144.498C144.821 254.822 145.084 254.56 145.084 254.236C145.084 253.912 144.821 253.65 144.498 253.65ZM154.53 254.473C154.53 252.838 155.86 251.507 157.495 251.507C159.13 251.507 160.461 252.838 160.461 254.473C160.461 256.106 159.133 257.435 157.5 257.438C157.498 257.438 157.497 257.438 157.495 257.438C157.494 257.438 157.492 257.438 157.491 257.438C155.858 257.435 154.53 256.106 154.53 254.473Z" fill="#333333"/>
<path d="M142.834 256.849C142.722 256.578 142.461 256.403 142.168 256.403C142.167 256.403 142.167 256.403 142.167 256.403C141.874 256.403 141.612 256.579 141.501 256.85C141.499 256.855 141.497 256.859 141.496 256.864L139.27 262.708C139.155 263.011 139.306 263.349 139.609 263.465C139.677 263.491 139.748 263.503 139.817 263.503C140.053 263.503 140.276 263.359 140.365 263.125L140.776 262.047H143.543L143.949 263.124C144.064 263.427 144.402 263.58 144.705 263.465C145.007 263.351 145.16 263.013 145.046 262.71L142.84 256.865C142.838 256.86 142.836 256.855 142.834 256.849ZM141.222 260.875L142.166 258.397L143.101 260.875H141.222Z" fill="#333333"/>
<path d="M153.853 262.322C153.519 262.322 153.198 262.188 152.995 261.964C152.777 261.725 152.407 261.706 152.167 261.924C151.927 262.141 151.909 262.512 152.126 262.751C152.554 263.223 153.183 263.494 153.853 263.494C154.695 263.494 155.402 262.953 155.535 262.207C155.636 261.641 155.385 260.904 154.378 260.532C153.944 260.372 153.539 260.198 153.392 260.135C153.354 260.097 153.351 260.05 153.356 260.015C153.369 259.925 153.445 259.853 153.565 259.817C154.022 259.68 154.459 260.019 154.474 260.031C154.722 260.236 155.089 260.203 155.296 259.956C155.504 259.708 155.472 259.339 155.224 259.131C154.887 258.847 154.087 258.436 153.227 258.695C152.669 258.863 152.274 259.305 152.196 259.848C152.122 260.361 152.345 260.854 152.776 261.135C152.802 261.152 152.829 261.167 152.857 261.179C152.879 261.189 153.394 261.418 153.973 261.632C154.188 261.711 154.408 261.85 154.381 262.001C154.358 262.13 154.174 262.322 153.853 262.322Z" fill="#333333"/>
<path d="M149.605 263.108C149.687 263.333 149.902 263.494 150.156 263.494C150.479 263.494 150.742 263.231 150.742 262.908V257.335C150.742 257.012 150.479 256.749 150.156 256.749C149.832 256.749 149.57 257.012 149.57 257.335V258.948C149.196 258.718 148.757 258.585 148.287 258.585C146.934 258.585 145.833 259.686 145.833 261.039C145.833 262.393 146.934 263.494 148.287 263.494C148.772 263.494 149.224 263.352 149.605 263.108ZM147.004 261.039C147.004 260.332 147.58 259.757 148.287 259.757C148.994 259.757 149.57 260.332 149.57 261.039C149.57 261.746 148.994 262.322 148.287 262.322C147.58 262.322 147.004 261.747 147.004 261.039Z" fill="#333333"/>
<path d="M157.495 255.301L157.806 255.612C157.921 255.727 158.071 255.784 158.221 255.784C158.371 255.784 158.521 255.727 158.635 255.612C158.864 255.384 158.864 255.013 158.635 254.784L158.324 254.473L158.635 254.161C158.864 253.933 158.864 253.562 158.635 253.333C158.406 253.104 158.035 253.104 157.806 253.333L157.495 253.644L157.184 253.333C156.955 253.104 156.584 253.104 156.355 253.333C156.127 253.562 156.127 253.933 156.355 254.161L156.667 254.472L156.356 254.784C156.127 255.012 156.127 255.383 156.355 255.612C156.47 255.727 156.62 255.784 156.77 255.784C156.92 255.784 157.07 255.727 157.184 255.612L157.495 255.301Z" fill="#333333"/>
<path d="M155.759 242.443H132.241C131.917 242.443 131.655 242.706 131.655 243.029V245.555C131.655 245.878 131.917 246.141 132.241 246.141H155.759C156.083 246.141 156.345 245.878 156.345 245.555V243.029C156.345 242.706 156.083 242.443 155.759 242.443ZM155.173 244.969H132.827V243.615H155.173V244.969H155.173Z" fill="#333333"/>
<path d="M126.525 251.71C126.525 252.034 126.788 252.296 127.111 252.296H147.63C147.954 252.296 148.216 252.034 148.216 251.71C148.216 251.387 147.954 251.125 147.63 251.125H127.111C126.788 251.125 126.525 251.387 126.525 251.71Z" fill="#333333"/>
<path d="M132.636 248.599C132.312 248.599 132.05 248.861 132.05 249.185C132.05 249.509 132.312 249.771 132.636 249.771H147.63C147.954 249.771 148.216 249.509 148.216 249.185C148.216 248.861 147.954 248.599 147.63 248.599H132.636Z" fill="#333333"/>
<path d="M127.111 254.822H134.766C135.09 254.822 135.352 254.559 135.352 254.236C135.352 253.912 135.09 253.65 134.766 253.65H127.111C126.788 253.65 126.525 253.912 126.525 254.236C126.525 254.559 126.788 254.822 127.111 254.822Z" fill="#333333"/>
<path d="M127.111 257.347H134.766C135.09 257.347 135.352 257.085 135.352 256.761C135.352 256.438 135.09 256.175 134.766 256.175H127.111C126.788 256.175 126.525 256.438 126.525 256.761C126.525 257.085 126.788 257.347 127.111 257.347Z" fill="#333333"/>
<path d="M127.111 259.873H130.821C131.144 259.873 131.406 259.61 131.406 259.287C131.406 258.963 131.144 258.701 130.821 258.701H127.111C126.788 258.701 126.525 258.963 126.525 259.287C126.525 259.61 126.788 259.873 127.111 259.873Z" fill="#333333"/>
</g>
<path d="M232.836 225.479C232.913 225.513 232.993 225.529 233.072 225.529C233.299 225.529 233.515 225.398 233.611 225.177L239.681 211.358L241.076 212.753C241.191 212.868 241.341 212.926 241.492 212.926C241.642 212.926 241.793 212.868 241.908 212.753C242.138 212.523 242.138 212.151 241.908 211.921L240.189 210.202L241.523 207.164L257.517 223.158C257.632 223.272 257.782 223.33 257.933 223.33C258.084 223.33 258.234 223.273 258.349 223.158C258.579 222.928 258.579 222.555 258.349 222.325L241.607 205.583C241.38 205.356 241.255 205.054 241.255 204.732C241.255 204.411 241.38 204.108 241.607 203.881L241.866 203.622C242.336 203.153 243.099 203.152 243.569 203.622L245.082 205.135C245.311 205.364 245.684 205.364 245.914 205.135C246.144 204.905 246.144 204.532 245.914 204.302L244.401 202.79C243.473 201.861 241.962 201.861 241.034 202.79L240.775 203.049C240.325 203.498 240.078 204.096 240.078 204.732C240.078 205.298 240.274 205.833 240.634 206.261L232.534 224.704C232.403 225.001 232.538 225.349 232.836 225.479Z" fill="#333333"/>
<path d="M247.687 206.076C247.457 205.846 247.085 205.846 246.855 206.076C246.625 206.306 246.625 206.678 246.855 206.908L264.159 224.212C264.386 224.439 264.511 224.741 264.511 225.063C264.511 225.384 264.386 225.687 264.159 225.914L263.9 226.173C263.672 226.4 263.37 226.526 263.048 226.526C262.727 226.526 262.425 226.4 262.197 226.173L260.13 224.106C259.9 223.876 259.527 223.876 259.297 224.106C259.068 224.336 259.068 224.708 259.297 224.938L260.617 226.258L257.579 227.592L243.75 213.763C243.52 213.533 243.147 213.533 242.917 213.763C242.687 213.993 242.687 214.365 242.917 214.595L256.422 228.1L236.641 236.788C236.613 236.756 236.586 236.724 236.555 236.693L231.087 231.225C231.057 231.195 231.025 231.166 230.993 231.138L232.58 227.525C232.711 227.228 232.575 226.88 232.278 226.75C231.98 226.619 231.633 226.754 231.502 227.052L229.912 230.673C229.853 230.668 229.794 230.665 229.735 230.665C229.224 230.665 228.743 230.864 228.382 231.225L227.657 231.95C226.911 232.696 226.911 233.91 227.657 234.655L233.125 240.124H233.125C233.486 240.485 233.967 240.684 234.478 240.684C234.989 240.684 235.469 240.485 235.83 240.124L236.555 239.398C236.973 238.981 237.157 238.416 237.106 237.869L238.228 237.376L238.816 238.579C239.027 239.011 239.305 239.4 239.642 239.737C240.469 240.564 241.56 241 242.676 241C243.253 241 243.838 240.883 244.395 240.642L247.811 239.167C249.947 238.245 250.971 235.742 250.094 233.587L249.603 232.38L261.52 227.146C261.96 227.516 262.504 227.702 263.048 227.702C263.658 227.702 264.268 227.469 264.732 227.005L264.991 226.746C265.44 226.297 265.688 225.699 265.688 225.063C265.688 224.427 265.441 223.829 264.991 223.379L247.687 206.076ZM235.723 238.566L234.998 239.291C234.859 239.43 234.674 239.507 234.478 239.507C234.281 239.507 234.096 239.43 233.957 239.291H233.957L228.489 233.823C228.202 233.536 228.202 233.069 228.489 232.782L229.214 232.057C229.353 231.918 229.538 231.842 229.735 231.842C229.931 231.842 230.116 231.918 230.255 232.057L235.723 237.526C236.01 237.812 236.01 238.279 235.723 238.566ZM246.331 235.119C246.38 235.24 246.32 235.386 246.201 235.437L242.785 236.912C242.664 236.965 242.524 236.913 242.466 236.795L241.951 235.741L245.881 234.015L246.331 235.119ZM249.004 234.031C249.641 235.597 248.897 237.416 247.345 238.087L243.928 239.562C242.742 240.074 241.386 239.816 240.474 238.905C240.23 238.66 240.028 238.377 239.874 238.062L239.307 236.902L240.873 236.215L241.409 237.312C241.655 237.815 242.159 238.11 242.686 238.11C242.875 238.11 243.067 238.073 243.251 237.993L246.667 236.518C247.372 236.213 247.711 235.387 247.421 234.675L246.959 233.542L248.524 232.854L249.004 234.031Z" fill="#333333"/>
<path d="M256.425 212.066C256.576 212.066 256.727 212.008 256.842 211.893L257.49 211.245C257.72 211.015 257.72 210.642 257.49 210.413C257.26 210.183 256.888 210.183 256.658 210.413L256.009 211.061C255.779 211.291 255.779 211.663 256.009 211.893C256.124 212.008 256.275 212.066 256.425 212.066Z" fill="#333333"/>
<path d="M259.512 208.857C259.663 208.857 259.814 208.799 259.929 208.684L262.674 205.939C262.904 205.709 262.904 205.337 262.674 205.107C262.444 204.877 262.071 204.877 261.841 205.107L259.096 207.852C258.866 208.082 258.866 208.455 259.096 208.684C259.211 208.799 259.362 208.857 259.512 208.857Z" fill="#333333"/>
<path d="M253.167 206.045C253.183 206.047 253.198 206.047 253.214 206.047C253.518 206.047 253.776 205.814 253.8 205.505L254.108 201.635C254.134 201.311 253.892 201.028 253.568 201.002C253.244 200.976 252.96 201.218 252.934 201.542L252.627 205.412C252.601 205.736 252.843 206.02 253.167 206.045Z" fill="#333333"/>
<path d="M266.901 214.335C266.875 214.011 266.592 213.769 266.267 213.795L262.397 214.102C262.073 214.128 261.831 214.412 261.857 214.736C261.882 215.044 262.139 215.278 262.443 215.278C262.459 215.278 262.475 215.277 262.49 215.276L266.361 214.968C266.685 214.942 266.926 214.659 266.901 214.335Z" fill="#333333"/>
<defs>
<clipPath id="clip0_248_594">
<rect width="40" height="13" fill="white" transform="translate(123 118)"/>
</clipPath>
<clipPath id="clip1_248_594">
<rect width="202" height="16" fill="white" transform="translate(19 340)"/>
</clipPath>
<clipPath id="clip2_248_594">
<rect width="40" height="40" fill="white" transform="translate(124 231)"/>
</clipPath>
</defs>
</svg>
