<svg width="442" height="369" viewBox="0 0 442 369" fill="none" xmlns="http://www.w3.org/2000/svg">
<rect x="123" y="104" width="185" height="83" fill="#333333"/>
<g clip-path="url(#clip0_248_592)">
<path d="M198.625 130.718L199.657 125.154C200.16 122.385 201.545 120.873 202.728 120.873C203.634 120.873 203.936 121.488 203.936 122.359C203.933 122.832 203.891 123.304 203.81 123.769L202.525 130.718H206.15L207.509 123.436C207.624 122.733 207.691 122.022 207.71 121.308C207.71 119.155 206.578 117.899 204.565 117.899C203.708 117.896 202.864 118.109 202.108 118.521C201.351 118.932 200.708 119.528 200.233 120.256H200.183L200.435 118.179H197.215C197.064 119.281 196.863 120.666 196.563 122.255L195.002 130.717L198.625 130.718ZM219.217 127.333C218.143 127.866 216.962 128.138 215.768 128.128C215.326 128.165 214.882 128.096 214.471 127.926C214.06 127.757 213.694 127.493 213.401 127.154C213.162 126.77 213.032 126.326 213.024 125.872C217.958 126 221.004 124.845 221.004 121.641C221.004 119.309 219.217 117.898 216.724 117.898C212.268 117.898 209.55 121.872 209.55 125.694C209.55 128.951 211.362 130.976 214.886 130.976C216.466 131.004 218.032 130.671 219.468 130.002L219.217 127.333ZM217.606 121.667C217.606 122.796 216.196 123.205 213.377 123.178C213.494 122.474 213.846 121.832 214.373 121.36C214.9 120.889 215.571 120.616 216.272 120.589C217.103 120.59 217.606 121.027 217.606 121.667ZM222.616 118.181L225.511 124.23L220.174 130.718H224.353L225.812 128.538C226.366 127.667 226.718 127.027 227.071 126.436H227.146C227.373 127.179 227.574 127.794 227.927 128.718L228.707 130.718H232.683L229.815 124.257L235.001 118.181H230.847L229.488 120.155C228.959 120.925 228.632 121.488 228.179 122.155H228.104C227.925 121.668 227.701 121.053 227.323 120.053L226.593 118.179L222.616 118.181Z" fill="white"/>
</g>
<path d="M179.708 141.788C178.808 143.312 176.876 145.22 174.8 146.288C175.112 146.588 175.52 147.116 175.7 147.44C177.68 146.324 179.528 144.656 180.5 143.192C181.532 144.668 183.536 146.396 185.396 147.428C185.672 146.984 185.996 146.516 186.356 146.144C184.436 145.316 182.468 143.684 181.172 141.788H179.708ZM181.376 149.024H184.592V147.764H181.376V145.196H179.876V151.424H178.172V147.26H176.768V151.424H175.46V152.72H185.672V151.424H181.376V149.024ZM196.676 150.992H189.428V144.68H188.036V153.044H189.428V152.336H196.676V153.032H198.056V144.68H196.676V150.992ZM194.66 147.02H193.616V146.012H194.66V147.02ZM194.66 149.12H193.616V148.1H194.66V149.12ZM191.348 148.1H192.392V149.12H191.348V148.1ZM191.348 146.012H192.392V147.02H191.348V146.012ZM187.676 142.556V143.888H192.284V144.848H190.184V150.284H195.896V144.848H193.712V143.888H198.416V142.556H187.676ZM202.52 145.904C201.68 145.904 200.984 146.6 200.984 147.44C200.984 148.28 201.68 148.976 202.52 148.976C203.36 148.976 204.056 148.28 204.056 147.44C204.056 146.6 203.36 145.904 202.52 145.904ZM217.508 144.008C217.316 143.444 216.788 142.616 216.308 141.98L215.228 142.544C215.696 143.18 216.164 144.08 216.356 144.632L217.508 144.008ZM210.308 143.84C210.224 143.312 209.984 142.472 209.72 141.848L208.544 142.112C208.784 142.772 209 143.636 209.048 144.176L210.308 143.84ZM208.364 144.068C208.256 143.528 207.908 142.712 207.56 142.1L206.396 142.472C206.72 143.108 207.044 143.96 207.128 144.488L208.364 144.068ZM207.968 147.356H209.036V148.04H207.968V147.356ZM207.968 145.676H209.036V146.372H207.968V145.676ZM211.244 146.372H210.224V145.676H211.244V146.372ZM211.244 148.04H210.224V147.356H211.244V148.04ZM212.792 151.064V149.804H210.308V149.096H212.468V144.632H211.688C212.084 144.044 212.6 143.12 213.032 142.268L211.556 141.872C211.352 142.628 210.92 143.624 210.548 144.272L211.64 144.632H206.816V149.096H208.952V149.804H206.396V151.064H208.952V153.032H210.308V151.064H212.792ZM216.272 146.396C216.044 147.128 215.72 147.836 215.336 148.508C215.228 147.872 215.144 147.14 215.072 146.36L217.652 146.036L217.508 144.728L214.976 145.04C214.916 144.044 214.88 142.988 214.868 141.884H213.512C213.548 143.06 213.584 144.164 213.644 145.196L212.576 145.328L212.72 146.648L213.752 146.516C213.86 147.872 214.028 149.048 214.256 150.02C213.5 150.884 212.612 151.592 211.604 152.048C211.964 152.3 212.396 152.72 212.636 153.044C213.38 152.636 214.076 152.096 214.7 151.448C215.108 152.42 215.66 152.972 216.38 152.996C216.884 153.02 217.484 152.552 217.796 150.536C217.568 150.404 217.004 150.02 216.776 149.72C216.704 150.752 216.584 151.304 216.38 151.304C216.128 151.28 215.9 150.896 215.708 150.236C216.416 149.252 216.98 148.148 217.352 147.008L216.272 146.396ZM225.14 148.604C225.716 148.268 226.268 147.884 226.784 147.452C227.276 147.884 227.828 148.28 228.428 148.604H225.14ZM225.512 151.4V149.852H227.972V151.4H225.512ZM223.484 145.604C223.712 145.82 223.94 146.048 224.06 146.204C224.36 145.952 224.66 145.652 224.948 145.316C225.2 145.712 225.5 146.12 225.836 146.504C225.128 147.104 224.312 147.596 223.484 147.956V145.604ZM221.816 149.468V147.068H222.416V149.468H221.816ZM220.364 147.068H220.928V149.468H220.364V147.068ZM220.928 143.768V145.892H220.364V143.768H220.928ZM222.416 145.892H221.816V143.768H222.416V145.892ZM227.816 144.212C227.528 144.716 227.168 145.196 226.76 145.64C226.34 145.208 226.004 144.752 225.728 144.308L225.8 144.212H227.816ZM228.74 142.964L228.5 143.024H226.496C226.64 142.748 226.772 142.472 226.88 142.184L225.536 141.812C225.104 142.94 224.36 144.032 223.484 144.812V142.544H219.332V151.676H220.364V150.692H223.484V148.604C223.64 148.82 223.796 149.048 223.892 149.228L224.192 149.096V153.032H225.512V152.648H227.972V153.02H229.364V149.048L229.448 149.084C229.652 148.736 230.072 148.16 230.36 147.884C229.376 147.584 228.5 147.092 227.756 146.528C228.572 145.652 229.232 144.608 229.676 143.42L228.74 142.964ZM242.06 143.936H237.68V141.848H236.192V143.936H231.932V145.34H242.06V143.936ZM235.964 150.392C235.844 149.12 235.4 147.26 234.836 145.784L233.468 146.144C233.996 147.608 234.416 149.528 234.5 150.776L235.964 150.392ZM239.036 151.148C239.552 149.744 240.116 147.8 240.536 146.036L238.892 145.736C238.64 147.464 238.064 149.696 237.524 151.148H231.548V152.576H242.408V151.148H239.036ZM248.216 145.82H251.024C250.82 146.168 250.544 146.48 250.124 146.732C249.356 146.54 248.588 146.372 247.892 146.24L248.216 145.82ZM254.888 150.344V149.168H250.112V148.352H248.996C249.512 148.232 249.956 148.088 250.34 147.92C251.516 148.256 252.596 148.616 253.316 148.928L254.168 147.92C253.496 147.668 252.608 147.392 251.636 147.116C252.044 146.756 252.344 146.324 252.56 145.82H254.672V144.704H249.068C249.212 144.512 249.344 144.32 249.476 144.14L248.384 143.816H253.208V144.476H254.588V142.64H250.148V141.848H248.72V142.64H244.316V144.476H245.636V143.816H248.096C247.904 144.092 247.676 144.392 247.448 144.704H244.232V145.82H246.596C246.26 146.228 245.948 146.612 245.66 146.924L247.016 147.296L247.172 147.116C247.532 147.188 247.916 147.284 248.3 147.368C247.376 147.572 246.164 147.704 244.544 147.788C244.724 148.064 244.952 148.556 245.012 148.892C246.512 148.784 247.724 148.64 248.696 148.424V149.168H244.028V150.344H247.688C246.668 150.992 245.168 151.52 243.728 151.772C244.028 152.048 244.412 152.576 244.604 152.924C246.092 152.564 247.592 151.868 248.696 150.968V153.032H250.112V150.896C251.252 151.82 252.8 152.552 254.3 152.912C254.504 152.552 254.9 152 255.212 151.7C253.76 151.472 252.26 150.968 251.204 150.344H254.888ZM174.98 162.008L173.804 161.252C173.48 161.336 173.096 161.348 172.856 161.348H167.312C166.916 161.348 166.232 161.288 165.872 161.252V162.944C166.184 162.92 166.76 162.896 167.3 162.896H172.892C172.736 163.916 172.28 165.284 171.488 166.28C170.516 167.492 169.16 168.536 166.784 169.1L168.092 170.528C170.228 169.844 171.824 168.656 172.916 167.216C173.912 165.884 174.44 164.024 174.716 162.848C174.776 162.596 174.872 162.248 174.98 162.008ZM185.785 164.012L184.897 163.208C184.705 163.268 184.189 163.292 183.925 163.292H178.357C177.961 163.292 177.481 163.256 177.109 163.196V164.744C177.553 164.696 177.961 164.672 178.357 164.672H183.565C183.277 165.176 182.521 166.028 181.837 166.496L183.037 167.336C183.889 166.676 185.005 165.164 185.425 164.492C185.497 164.372 185.677 164.144 185.785 164.012ZM181.669 165.272H180.013C180.061 165.524 180.097 165.836 180.097 166.124C180.097 167.636 179.845 168.704 178.489 169.628C178.129 169.88 177.829 170.024 177.517 170.144L178.789 171.164C181.597 169.616 181.597 167.516 181.669 165.272ZM189.863 160.496L188.987 161.816C189.779 162.26 191.027 163.076 191.699 163.544L192.599 162.212C191.975 161.78 190.655 160.928 189.863 160.496ZM187.631 169.016L188.531 170.6C189.599 170.408 191.315 169.808 192.539 169.112C194.507 167.984 196.199 166.46 197.315 164.804L196.391 163.172C195.431 164.888 193.763 166.532 191.723 167.672C190.415 168.392 188.975 168.788 187.631 169.016ZM188.015 163.232L187.139 164.564C187.943 164.984 189.191 165.8 189.875 166.268L190.751 164.924C190.139 164.492 188.819 163.664 188.015 163.232ZM206.912 160.688H205.1C205.148 161.024 205.172 161.408 205.172 161.888V164.168C205.172 166.04 205.016 166.94 204.188 167.84C203.468 168.62 202.496 169.076 201.308 169.352L202.556 170.672C203.432 170.396 204.68 169.808 205.472 168.944C206.36 167.96 206.864 166.844 206.864 164.264V161.888C206.864 161.408 206.888 161.024 206.912 160.688ZM201.344 160.784H199.616C199.652 161.06 199.664 161.48 199.664 161.708V165.752C199.664 166.112 199.616 166.58 199.604 166.808H201.344C201.32 166.532 201.308 166.064 201.308 165.764V161.708C201.308 161.324 201.32 161.06 201.344 160.784ZM210.68 160.796V162.344C211.052 162.32 211.556 162.296 211.976 162.296H216.788C217.208 162.296 217.676 162.32 218.084 162.344V160.796C217.676 160.856 217.196 160.88 216.788 160.88H211.964C211.568 160.88 211.076 160.856 210.68 160.796ZM209.288 163.868V165.44C209.624 165.416 210.08 165.392 210.44 165.392H213.74C213.692 166.4 213.488 167.3 212.996 168.044C212.516 168.74 211.676 169.436 210.824 169.76L212.228 170.78C213.296 170.24 214.22 169.304 214.64 168.476C215.072 167.636 215.336 166.628 215.408 165.392H218.3C218.636 165.392 219.092 165.404 219.392 165.428V163.868C219.08 163.916 218.552 163.94 218.3 163.94H210.44C210.068 163.94 209.648 163.904 209.288 163.868ZM221.266 164.444V166.328C221.71 166.292 222.514 166.268 223.198 166.268H229.642C230.146 166.268 230.758 166.316 231.046 166.328V164.444C230.734 164.468 230.206 164.516 229.642 164.516H223.198C222.574 164.516 221.698 164.48 221.266 164.444ZM235.705 160.496L234.829 161.816C235.621 162.26 236.869 163.076 237.541 163.544L238.441 162.212C237.817 161.78 236.497 160.928 235.705 160.496ZM233.473 169.016L234.373 170.6C235.441 170.408 237.157 169.808 238.381 169.112C240.349 167.984 242.041 166.46 243.157 164.804L242.233 163.172C241.273 164.888 239.605 166.532 237.565 167.672C236.257 168.392 234.817 168.788 233.473 169.016ZM233.857 163.232L232.981 164.564C233.785 164.984 235.033 165.8 235.717 166.268L236.593 164.924C235.981 164.492 234.661 163.664 233.857 163.232ZM245.228 163.22V164.672C245.516 164.648 246.272 164.624 246.716 164.624H250.676V166.076H246.848C246.392 166.076 245.852 166.064 245.54 166.04V167.456C245.816 167.444 246.392 167.432 246.848 167.432H250.676V169.028H246.14C245.708 169.028 245.3 169.004 245.096 168.98V170.456C245.3 170.444 245.792 170.42 246.128 170.42H250.676C250.676 170.6 250.676 170.792 250.664 170.9H252.176C252.176 170.684 252.164 170.276 252.164 170.084V164.06C252.164 163.808 252.164 163.412 252.176 163.256C251.984 163.268 251.54 163.28 251.252 163.28H246.716C246.272 163.28 245.54 163.256 245.228 163.22ZM256.333 160.88L255.205 162.08C256.081 162.692 257.581 164 258.205 164.672L259.429 163.424C258.733 162.692 257.173 161.444 256.333 160.88ZM254.833 168.872L255.841 170.456C257.533 170.168 259.081 169.496 260.293 168.764C262.225 167.6 263.821 165.944 264.733 164.324L263.797 162.632C263.041 164.252 261.481 166.088 259.429 167.3C258.265 167.996 256.705 168.608 254.833 168.872Z" fill="white"/>
<circle cx="40" cy="221" r="40" fill="white"/>
<circle cx="392" cy="221" r="40" fill="white"/>
<circle cx="216" cy="251" r="40" fill="white"/>
<path d="M8.84306 279.168C10.8951 279.168 12.1071 277.932 12.1071 276.48C12.1071 275.196 11.3991 274.512 10.3191 274.068L9.15506 273.576C8.39906 273.276 7.77506 273.048 7.77506 272.412C7.77506 271.824 8.26706 271.476 9.04706 271.476C9.77906 271.476 10.3671 271.74 10.9311 272.208L11.8311 271.092C11.1111 270.36 10.0791 269.952 9.04706 269.952C7.24706 269.952 5.97506 271.068 5.97506 272.52C5.97506 273.816 6.87506 274.536 7.77506 274.908L8.96306 275.412C9.75506 275.748 10.2951 275.952 10.2951 276.612C10.2951 277.236 9.80306 277.632 8.87906 277.632C8.09906 277.632 7.25906 277.236 6.62306 276.648L5.60306 277.872C6.46706 278.7 7.65506 279.168 8.84306 279.168ZM14.1593 279H19.7393V277.512H15.9353V275.136H19.0553V273.648H15.9353V271.596H19.6073V270.108H14.1593V279ZM25.5502 279.168C27.9022 279.168 29.5222 277.404 29.5222 274.524C29.5222 271.644 27.9022 269.952 25.5502 269.952C23.1982 269.952 21.5782 271.632 21.5782 274.524C21.5782 277.404 23.1982 279.168 25.5502 279.168ZM25.5502 277.632C24.2302 277.632 23.3902 276.42 23.3902 274.524C23.3902 272.616 24.2302 271.476 25.5502 271.476C26.8702 271.476 27.7102 272.616 27.7102 274.524C27.7102 276.42 26.8702 277.632 25.5502 277.632ZM32.6057 269.796V271.344C32.9537 271.32 33.4697 271.308 33.8537 271.308H38.4497C38.8817 271.308 39.4457 271.32 39.7697 271.344V269.796C39.4337 269.844 38.8457 269.856 38.4737 269.856H33.8537C33.4457 269.856 32.9417 269.844 32.6057 269.796ZM40.7777 273.276L39.7097 272.616C39.5417 272.688 39.2177 272.736 38.8337 272.736H32.8937C32.5217 272.736 32.0057 272.7 31.5017 272.664V274.224C32.0057 274.176 32.6057 274.164 32.8937 274.164H38.6897C38.4737 274.836 38.1017 275.58 37.4537 276.24C36.5417 277.176 35.1017 277.968 33.3017 278.34L34.4897 279.696C36.0257 279.264 37.5617 278.448 38.7737 277.104C39.6737 276.108 40.1897 274.944 40.5497 273.78C40.5977 273.648 40.6937 273.432 40.7777 273.276ZM42.4857 274.332L43.2417 275.844C44.7177 275.412 46.2417 274.764 47.4777 274.116V277.956C47.4777 278.484 47.4417 279.24 47.3937 279.528H49.2897C49.2057 279.228 49.1817 278.484 49.1817 277.956V273.108C50.3457 272.34 51.4977 271.404 52.4097 270.504L51.1137 269.268C50.3337 270.216 48.9657 271.416 47.7297 272.184C46.3977 273 44.6337 273.78 42.4857 274.332ZM59.3505 269.496L57.6105 268.956C57.5025 269.364 57.2505 269.916 57.0585 270.204C56.4585 271.248 55.3425 272.892 53.2425 274.2L54.5385 275.196C55.7505 274.356 56.8665 273.204 57.7065 272.088H61.1385C60.9585 272.832 60.4425 273.876 59.8185 274.74C59.0625 274.236 58.3065 273.744 57.6705 273.384L56.6025 274.476C57.2145 274.86 58.0065 275.4 58.7865 275.976C57.7905 276.972 56.4585 277.944 54.3825 278.58L55.7745 279.792C57.6465 279.084 59.0145 278.064 60.0705 276.948C60.5625 277.344 61.0065 277.716 61.3305 278.016L62.4705 276.66C62.1225 276.372 61.6545 276.024 61.1385 275.652C61.9905 274.452 62.5905 273.168 62.9145 272.196C63.0225 271.896 63.1785 271.572 63.3105 271.344L62.0865 270.588C61.8225 270.672 61.4145 270.72 61.0425 270.72H58.6065C58.7505 270.456 59.0505 269.916 59.3505 269.496ZM65.2159 273.444V275.328C65.6599 275.292 66.4639 275.268 67.1479 275.268H73.5919C74.0959 275.268 74.7079 275.316 74.9959 275.328V273.444C74.6839 273.468 74.1559 273.516 73.5919 273.516H67.1479C66.5239 273.516 65.6479 273.48 65.2159 273.444Z" fill="#333333"/>
<path d="M344.106 279H345.882V275.844H347.07C348.978 275.844 350.502 274.932 350.502 272.904C350.502 270.804 348.99 270.108 347.022 270.108H344.106V279ZM345.882 274.44V271.524H346.89C348.114 271.524 348.762 271.872 348.762 272.904C348.762 273.924 348.174 274.44 346.95 274.44H345.882ZM352.59 279H354.366V275.64H355.602L357.426 279H359.406L357.33 275.364C358.35 274.968 359.022 274.14 359.022 272.808C359.022 270.768 357.546 270.108 355.686 270.108H352.59V279ZM354.366 274.236V271.524H355.518C356.658 271.524 357.294 271.848 357.294 272.808C357.294 273.756 356.658 274.236 355.518 274.236H354.366ZM361.603 270.624V272.268C361.903 272.244 362.419 272.22 362.743 272.22H365.059V277.116H362.011C361.639 277.116 361.207 277.08 360.835 277.02V278.76C361.231 278.712 361.651 278.7 362.011 278.7H369.919C370.195 278.7 370.699 278.712 371.047 278.76V277.02C370.735 277.068 370.351 277.116 369.919 277.116H366.739V272.22H369.271C369.619 272.22 370.039 272.244 370.399 272.268V270.624C370.051 270.66 369.631 270.696 369.271 270.696H362.743C362.407 270.696 361.915 270.66 361.603 270.624ZM373.097 273.444V275.328C373.541 275.292 374.345 275.268 375.029 275.268H381.473C381.977 275.268 382.589 275.316 382.877 275.328V273.444C382.565 273.468 382.037 273.516 381.473 273.516H375.029C374.405 273.516 373.529 273.48 373.097 273.444ZM392.752 269.784L391.744 270.204C392.176 270.816 392.452 271.332 392.8 272.088L393.844 271.644C393.568 271.092 393.088 270.288 392.752 269.784ZM394.396 269.208L393.376 269.628C393.82 270.228 394.12 270.696 394.504 271.452L395.524 270.996C395.236 270.468 394.768 269.688 394.396 269.208ZM387.532 269.556L386.668 270.876C387.46 271.32 388.708 272.124 389.38 272.592L390.268 271.272C389.644 270.828 388.324 269.988 387.532 269.556ZM385.312 278.076L386.212 279.648C387.268 279.456 388.996 278.856 390.22 278.172C392.176 277.032 393.88 275.52 394.984 273.852L394.06 272.22C393.112 273.936 391.432 275.58 389.392 276.72C388.096 277.44 386.656 277.848 385.312 278.076ZM385.684 272.292L384.82 273.612C385.624 274.044 386.872 274.848 387.556 275.328L388.432 273.984C387.82 273.552 386.5 272.724 385.684 272.292ZM397.91 272.496V274.008C398.174 273.984 398.606 273.96 398.858 273.96H400.73V277.824H398.282C397.982 277.824 397.61 277.788 397.298 277.752V279.324C397.622 279.276 397.994 279.264 398.282 279.264H404.918C405.122 279.264 405.566 279.276 405.83 279.324V277.752C405.578 277.776 405.242 277.824 404.918 277.824H402.302V273.96H404.354C404.63 273.96 404.99 273.984 405.29 274.008V272.496C405.002 272.532 404.642 272.556 404.354 272.556H398.858C398.594 272.556 398.174 272.544 397.91 272.496ZM409.665 269.88L408.537 271.08C409.413 271.692 410.913 273 411.537 273.672L412.761 272.424C412.065 271.692 410.505 270.444 409.665 269.88ZM408.165 277.872L409.173 279.456C410.865 279.168 412.413 278.496 413.625 277.764C415.557 276.6 417.153 274.944 418.065 273.324L417.129 271.632C416.373 273.252 414.813 275.088 412.761 276.3C411.597 276.996 410.037 277.608 408.165 277.872ZM422.269 269.496L421.393 270.816C422.185 271.26 423.433 272.076 424.105 272.544L425.005 271.212C424.381 270.78 423.061 269.928 422.269 269.496ZM420.037 278.016L420.937 279.6C422.005 279.408 423.721 278.808 424.945 278.112C426.913 276.984 428.605 275.46 429.721 273.804L428.797 272.172C427.837 273.888 426.169 275.532 424.129 276.672C422.821 277.392 421.381 277.788 420.037 278.016ZM420.421 272.232L419.545 273.564C420.349 273.984 421.597 274.8 422.281 275.268L423.157 273.924C422.545 273.492 421.225 272.664 420.421 272.232ZM431.301 273.444V275.328C431.745 275.292 432.549 275.268 433.233 275.268H439.677C440.181 275.268 440.793 275.316 441.081 275.328V273.444C440.769 273.468 440.241 273.516 439.677 273.516H433.233C432.609 273.516 431.733 273.48 431.301 273.444Z" fill="#333333"/>
<path d="M180.154 309H182.326L183.298 304.608C183.442 303.912 183.562 303.228 183.682 302.544H183.73C183.838 303.228 183.97 303.912 184.114 304.608L185.11 309H187.318L188.962 300.108H187.282L186.574 304.452C186.442 305.376 186.31 306.324 186.178 307.284H186.118C185.926 306.324 185.746 305.364 185.554 304.452L184.534 300.108H183.01L181.978 304.452C181.786 305.376 181.594 306.324 181.414 307.284H181.366C181.234 306.324 181.09 305.388 180.958 304.452L180.25 300.108H178.45L180.154 309ZM193.559 309.168C194.387 309.168 195.239 308.88 195.899 308.424L195.299 307.344C194.819 307.644 194.339 307.812 193.787 307.812C192.791 307.812 192.071 307.236 191.927 306.132H196.067C196.115 305.976 196.151 305.652 196.151 305.316C196.151 303.468 195.191 302.112 193.343 302.112C191.747 302.112 190.211 303.468 190.211 305.64C190.211 307.86 191.675 309.168 193.559 309.168ZM191.903 304.956C192.035 303.984 192.659 303.48 193.367 303.48C194.231 303.48 194.639 304.056 194.639 304.956H191.903ZM201.455 309.168C202.931 309.168 204.311 307.836 204.311 305.52C204.311 303.468 203.315 302.112 201.659 302.112C200.999 302.112 200.327 302.436 199.799 302.916L199.847 301.836V299.424H198.083V309H199.463L199.619 308.292H199.667C200.207 308.856 200.855 309.168 201.455 309.168ZM201.059 307.716C200.699 307.716 200.267 307.584 199.847 307.212V304.26C200.303 303.792 200.711 303.564 201.167 303.564C202.091 303.564 202.499 304.272 202.499 305.556C202.499 307.02 201.875 307.716 201.059 307.716ZM208.17 301.728H216.786V300.36H212.454V298.848H210.966V300.36H206.742V303.384C206.742 305.076 206.658 307.536 205.626 309.228C205.962 309.36 206.586 309.78 206.85 310.02C207.978 308.208 208.17 305.28 208.17 303.384V301.728ZM217.05 309.408C216.618 308.148 215.49 306.336 214.458 304.968L213.126 305.544C213.606 306.216 214.11 306.996 214.53 307.764C213.294 307.836 212.034 307.896 210.894 307.944C211.47 306.432 212.094 304.428 212.562 302.616L210.93 302.292C210.606 304.104 209.958 306.408 209.358 308.016C208.842 308.028 208.374 308.052 207.954 308.064L208.086 309.54C209.946 309.432 212.634 309.24 215.166 309.036C215.346 309.408 215.478 309.756 215.574 310.068L217.05 309.408ZM226.422 306.564V308.184H221.382V306.564H226.422ZM219.918 310.092H221.382V309.504H226.422V310.056H227.958V305.244H219.918V310.092ZM224.874 303.072V301.692H228.378V300.384H224.874V298.824H223.362V300.384H221.454C221.634 300 221.79 299.616 221.922 299.22L220.494 298.86C220.074 300.156 219.318 301.476 218.454 302.292C218.814 302.448 219.462 302.82 219.762 303.048C220.098 302.676 220.434 302.22 220.746 301.692H223.362V303.072H218.538V304.392H229.11V303.072H224.874ZM235.314 300.216H240.282V300.852H241.602V299.208H234.066V300.852H235.314V300.216ZM235.842 305.112V304.644H237.066V305.112H235.842ZM235.842 303.348H237.066V303.816H235.842V303.348ZM239.73 303.348V303.816H238.458V303.348H239.73ZM239.73 305.112H238.458V304.644H239.73V305.112ZM237.066 308.244H238.458V307.452H241.722V306.42H238.458V305.976H241.002V302.46H238.458V302.04H241.206V301.056H238.458V300.432H237.066V301.056H234.402V302.04H237.066V302.46H234.63V305.976H237.066V306.42H233.958V307.452H237.066V308.244ZM233.814 301.044C233.43 300.468 232.602 299.676 231.93 299.136L230.838 299.952C231.51 300.528 232.302 301.356 232.638 301.944L233.814 301.044ZM233.49 303.492H230.79V304.8H232.134V307.416C231.654 307.824 231.114 308.22 230.646 308.52L231.318 309.936C231.93 309.42 232.422 308.964 232.902 308.496C233.622 309.42 234.582 309.768 236.01 309.828C237.474 309.888 240.018 309.864 241.506 309.792C241.578 309.396 241.782 308.736 241.95 308.4C240.294 308.532 237.462 308.568 236.022 308.508C234.798 308.46 233.958 308.124 233.49 307.32V303.492ZM249.618 305.196V303.72H252.15V305.196H249.618ZM245.886 305.196C245.91 304.752 245.922 304.32 245.922 303.936V303.72H248.178V305.196H245.886ZM248.178 300.996V302.388H245.922V300.996H248.178ZM252.15 302.388H249.618V300.996H252.15V302.388ZM253.566 299.64H244.506V303.924C244.506 305.604 244.398 307.74 243.09 309.18C243.414 309.348 243.99 309.84 244.218 310.104C245.082 309.168 245.514 307.848 245.73 306.54H248.178V309.888H249.618V306.54H252.15V308.34C252.15 308.556 252.066 308.628 251.838 308.628C251.622 308.628 250.83 308.64 250.158 308.604C250.338 308.976 250.566 309.588 250.614 309.972C251.694 309.984 252.426 309.96 252.918 309.72C253.398 309.504 253.566 309.12 253.566 308.352V299.64Z" fill="#333333"/>
<circle opacity="0.2" cx="40" cy="70" r="40" fill="#333333"/>
<circle opacity="0.2" cx="392" cy="70" r="40" fill="#333333"/>
<circle opacity="0.2" cx="216" cy="40" r="40" fill="#333333"/>
<path d="M33.4403 61.368C33.7043 60.444 33.9683 59.436 34.1963 58.464H34.2563C34.5083 59.424 34.7483 60.444 35.0243 61.368L35.2883 62.34H33.1763L33.4403 61.368ZM30.3683 66H32.1683L32.7923 63.72H35.6723L36.2963 66H38.1563L35.3003 57.108H33.2123L30.3683 66ZM44.2838 62.616C44.0318 62.376 43.1077 61.548 42.5318 61.08C43.1077 60.288 43.5878 59.424 43.9478 58.512L43.1438 57.996L42.8918 58.056H42.3517V55.848H40.9357V58.056H39.2317V59.352H42.1237C41.3437 60.732 40.0837 61.992 38.7757 62.7C38.9917 62.976 39.3277 63.672 39.4477 64.056C39.9517 63.744 40.4557 63.348 40.9357 62.904V67.044H42.3517V62.52C42.7598 62.964 43.1678 63.444 43.4198 63.78L44.2838 62.616ZM47.7397 65.304V60.912H50.0078V59.532H47.7397V55.944H46.2758V59.532H43.9958V60.912H46.2758V65.304H43.5038V66.696H50.2958V65.304H47.7397Z" fill="#333333"/>
<path d="M385.44 61.368C385.704 60.444 385.968 59.436 386.196 58.464H386.256C386.508 59.424 386.748 60.444 387.024 61.368L387.288 62.34H385.176L385.44 61.368ZM382.368 66H384.168L384.792 63.72H387.672L388.296 66H390.156L387.3 57.108H385.212L382.368 66ZM396.284 62.616C396.032 62.376 395.108 61.548 394.532 61.08C395.108 60.288 395.588 59.424 395.948 58.512L395.144 57.996L394.892 58.056H394.352V55.848H392.936V58.056H391.232V59.352H394.124C393.344 60.732 392.084 61.992 390.776 62.7C390.992 62.976 391.328 63.672 391.448 64.056C391.952 63.744 392.456 63.348 392.936 62.904V67.044H394.352V62.52C394.76 62.964 395.168 63.444 395.42 63.78L396.284 62.616ZM399.74 65.304V60.912H402.008V59.532H399.74V55.944H398.276V59.532H395.996V60.912H398.276V65.304H395.504V66.696H402.296V65.304H399.74Z" fill="#333333"/>
<path d="M209.44 31.368C209.704 30.444 209.968 29.436 210.196 28.464H210.256C210.508 29.424 210.748 30.444 211.024 31.368L211.288 32.34H209.176L209.44 31.368ZM206.368 36H208.168L208.792 33.72H211.672L212.296 36H214.156L211.3 27.108H209.212L206.368 36ZM220.284 32.616C220.032 32.376 219.108 31.548 218.532 31.08C219.108 30.288 219.588 29.424 219.948 28.512L219.144 27.996L218.892 28.056H218.352V25.848H216.936V28.056H215.232V29.352H218.124C217.344 30.732 216.084 31.992 214.776 32.7C214.992 32.976 215.328 33.672 215.448 34.056C215.952 33.744 216.456 33.348 216.936 32.904V37.044H218.352V32.52C218.76 32.964 219.168 33.444 219.42 33.78L220.284 32.616ZM223.74 35.304V30.912H226.008V29.532H223.74V25.944H222.276V29.532H219.996V30.912H222.276V35.304H219.504V36.696H226.296V35.304H223.74Z" fill="#333333"/>
<path d="M19.528 75.312V75.924H17.644V75.312H19.528ZM17.644 77.508V76.86H19.528V77.508H17.644ZM20.872 78.54V74.292H16.252V85.044H17.644V78.54H20.872ZM20.68 81.18V80.28H21.796V81.18H20.68ZM24.364 82.344V81.18H23.044V80.28H24.172V79.152H18.376V80.28H19.468V81.18H18.208V82.344H19.42C19.3 82.956 18.964 83.736 18.196 84.216C18.472 84.408 18.904 84.78 19.108 85.032C20.128 84.336 20.524 83.172 20.644 82.344H21.796V84.816H23.044V82.344H24.364ZM23.02 77.532V76.86H24.964V77.532H23.02ZM24.964 75.312V75.924H23.02V75.312H24.964ZM26.368 74.292H21.664V78.564H24.964V83.364C24.964 83.532 24.904 83.604 24.712 83.604C24.532 83.616 23.944 83.616 23.404 83.592C23.596 83.964 23.788 84.612 23.836 85.008C24.748 85.008 25.372 84.972 25.804 84.732C26.236 84.504 26.368 84.108 26.368 83.376V74.292ZM34.444 80.592H32.968V79.236H34.444V80.592ZM37.024 79.236V78.852C37.48 79.2 37.972 79.5 38.5 79.752C38.716 79.368 39.148 78.804 39.484 78.528C38.8 78.252 38.176 77.88 37.612 77.424C38.14 77.052 38.716 76.584 39.208 76.128L38.164 75.384C37.828 75.792 37.3 76.284 36.808 76.68C36.628 76.476 36.448 76.272 36.28 76.056C36.772 75.696 37.324 75.228 37.816 74.784L36.736 74.016C36.46 74.352 36.064 74.772 35.668 75.132C35.428 74.724 35.236 74.292 35.068 73.848L33.784 74.208C34.312 75.624 35.032 76.872 35.968 77.88H31.624C32.464 77.016 33.148 75.948 33.568 74.688L32.62 74.244L32.368 74.292H29.236V75.516H31.684C31.468 75.9 31.216 76.26 30.928 76.596C30.592 76.308 30.136 75.96 29.776 75.708L28.876 76.452C29.272 76.752 29.752 77.16 30.064 77.472C29.452 78 28.768 78.42 28.072 78.708C28.348 78.972 28.744 79.464 28.936 79.788C29.488 79.524 30.028 79.212 30.532 78.84V79.236H31.54V80.592H28.972V81.9H31.348C31.048 82.704 30.328 83.448 28.672 83.952C28.972 84.216 29.404 84.768 29.584 85.092C31.804 84.348 32.596 83.16 32.86 81.9H34.444V83.208C34.444 84.54 34.768 84.96 36.064 84.96H37.372C38.428 84.96 38.8 84.48 38.944 82.896C38.536 82.812 37.96 82.572 37.66 82.332C37.612 83.46 37.552 83.7 37.24 83.7H36.316C35.98 83.7 35.932 83.628 35.932 83.196V81.9H38.488V80.592H35.932V79.236H37.024ZM49.624 77.676H46.612V75.924H49.624V77.676ZM49.624 80.82H46.612V79.008H49.624V80.82ZM51.052 74.604H45.244V82.14H51.052V74.604ZM44.788 78.9L43.612 79.2V77.436H44.872V76.116H43.612V73.848H42.22V76.116H40.732V77.436H42.22V79.536C41.62 79.68 41.044 79.812 40.576 79.908L40.948 81.276L42.22 80.94V83.436C42.22 83.604 42.16 83.664 41.992 83.664C41.836 83.664 41.332 83.664 40.864 83.652C41.032 84.012 41.224 84.576 41.26 84.948C42.1 84.948 42.688 84.912 43.084 84.684C43.48 84.48 43.612 84.132 43.612 83.436V80.58C44.068 80.46 44.512 80.328 44.956 80.208L44.788 78.9ZM44.416 83.316V84.648H51.784V83.316H44.416ZM61.936 74.196C61.648 75.132 61.096 76.368 60.628 77.196L61.876 77.628C62.392 76.872 63.004 75.732 63.532 74.664L61.936 74.196ZM56.8 77.004C56.536 76.236 55.948 75.132 55.324 74.304L54.016 74.82C54.604 75.66 55.192 76.824 55.42 77.58L56.8 77.004ZM59.512 73.824H57.94V77.976H54.304V79.404H61.804V80.508H54.712V81.888H61.804V83.136H54.028V84.552H61.804V85.044H63.328V77.976H59.512V73.824Z" fill="#333333"/>
<path d="M373.316 76.44L372.116 75.456C371.864 75.54 371.456 75.588 371 75.588H364.34C363.932 75.588 363.272 75.528 362.96 75.48V77.16C363.212 77.136 363.86 77.076 364.34 77.076H370.688C370.124 78.06 368.996 79.452 367.64 80.532C366.884 79.872 366.092 79.224 365.612 78.864L364.34 79.884C365.06 80.4 366.284 81.48 366.98 82.188C367.76 82.98 368.768 84.108 369.272 84.78L370.676 83.664C370.208 83.1 369.5 82.32 368.816 81.636C370.508 80.268 372.044 78.348 372.908 76.944C373.004 76.788 373.148 76.632 373.316 76.44ZM374.983 78.444V80.328C375.427 80.292 376.231 80.268 376.915 80.268H383.359C383.863 80.268 384.475 80.316 384.763 80.328V78.444C384.451 78.468 383.923 78.516 383.359 78.516H376.915C376.291 78.516 375.415 78.48 374.983 78.444ZM391.326 74.604L389.465 74.232C389.442 74.604 389.358 75.072 389.214 75.468C389.07 75.924 388.854 76.548 388.518 77.1C388.062 77.856 387.294 78.936 386.442 79.572L387.942 80.484C388.662 79.86 389.406 78.84 389.886 77.964H392.418C392.226 80.472 391.23 81.948 389.97 82.908C389.682 83.148 389.262 83.4 388.83 83.568L390.45 84.66C392.622 83.292 393.87 81.144 394.086 77.964H395.766C396.042 77.964 396.57 77.964 397.014 78.012V76.368C396.618 76.44 396.078 76.452 395.766 76.452H390.594C390.726 76.14 390.834 75.828 390.93 75.576C391.026 75.324 391.182 74.904 391.326 74.604ZM407.427 77.676H404.414V75.924H407.427V77.676ZM407.427 80.82H404.414V79.008H407.427V80.82ZM408.854 74.604H403.046V82.14H408.854V74.604ZM402.59 78.9L401.414 79.2V77.436H402.674V76.116H401.414V73.848H400.022V76.116H398.534V77.436H400.022V79.536C399.422 79.68 398.846 79.812 398.378 79.908L398.75 81.276L400.022 80.94V83.436C400.022 83.604 399.962 83.664 399.794 83.664C399.638 83.664 399.134 83.664 398.666 83.652C398.834 84.012 399.026 84.576 399.062 84.948C399.902 84.948 400.49 84.912 400.886 84.684C401.282 84.48 401.414 84.132 401.414 83.436V80.58C401.87 80.46 402.314 80.328 402.758 80.208L402.59 78.9ZM402.218 83.316V84.648H409.587V83.316H402.218ZM419.738 74.196C419.45 75.132 418.898 76.368 418.43 77.196L419.678 77.628C420.194 76.872 420.806 75.732 421.334 74.664L419.738 74.196ZM414.602 77.004C414.338 76.236 413.75 75.132 413.126 74.304L411.818 74.82C412.406 75.66 412.994 76.824 413.222 77.58L414.602 77.004ZM417.314 73.824H415.742V77.976H412.106V79.404H419.606V80.508H412.514V81.888H419.606V83.136H411.83V84.552H419.606V85.044H421.13V77.976H417.314V73.824Z" fill="#333333"/>
<path d="M200.16 53.436H194.532V52.392H200.16V53.436ZM195.504 48.552H199.068V49.392H195.504V48.552ZM200.448 50.436V47.496H194.184V50.436H196.368C196.32 50.676 196.248 50.928 196.188 51.168H193.176V55.068H194.532V54.672H200.16V55.068H201.576V51.168H197.604C197.712 50.94 197.82 50.7 197.916 50.436H200.448ZM200.76 45.696C201.096 45.3 201.456 44.82 201.804 44.364L200.268 43.884C200.04 44.46 199.584 45.18 199.2 45.696H197.232L198.072 45.384C197.904 44.952 197.508 44.268 197.16 43.8L195.912 44.22C196.2 44.676 196.524 45.264 196.692 45.696H194.844L195.228 45.528C195.024 45.084 194.556 44.448 194.16 43.992L192.924 44.532C193.2 44.88 193.5 45.312 193.716 45.696H192.252V48.252H193.56V46.908H201.06V48.252H202.44V45.696H200.76ZM211.236 46.956C211.104 47.28 210.96 47.628 210.816 47.916H208.572L208.776 47.88C208.692 47.628 208.536 47.268 208.368 46.956H211.236ZM215.112 52.308V51.132H210.444V50.604H214.044V49.572H210.444V49.032H214.608V47.916H212.256C212.436 47.628 212.628 47.304 212.82 46.956H215.076V45.792H213.516C213.792 45.372 214.116 44.832 214.452 44.28L212.952 43.92C212.784 44.448 212.484 45.168 212.196 45.66L212.628 45.792H211.56V43.836H210.216V45.792H209.328V43.836H207.996V45.792H206.904L207.492 45.576C207.324 45.108 206.928 44.4 206.58 43.884L205.356 44.304C205.62 44.76 205.932 45.336 206.1 45.792H204.492V46.956H207L206.856 46.98C207.012 47.256 207.168 47.616 207.264 47.916H204.984V49.032H209.04V49.572H205.584V50.604H209.04V51.132H204.456V52.308H207.9C206.868 52.932 205.452 53.436 204.108 53.712C204.408 54 204.816 54.552 205.02 54.9C206.448 54.528 207.924 53.832 209.04 52.956V55.044H210.444V52.884C211.548 53.82 213 54.54 214.476 54.912C214.692 54.528 215.112 53.928 215.436 53.616C214.044 53.4 212.652 52.932 211.632 52.308H215.112ZM225.624 47.676H222.612V45.924H225.624V47.676ZM225.624 50.82H222.612V49.008H225.624V50.82ZM227.052 44.604H221.244V52.14H227.052V44.604ZM220.788 48.9L219.612 49.2V47.436H220.872V46.116H219.612V43.848H218.22V46.116H216.732V47.436H218.22V49.536C217.62 49.68 217.044 49.812 216.576 49.908L216.948 51.276L218.22 50.94V53.436C218.22 53.604 218.16 53.664 217.992 53.664C217.836 53.664 217.332 53.664 216.864 53.652C217.032 54.012 217.224 54.576 217.26 54.948C218.1 54.948 218.688 54.912 219.084 54.684C219.48 54.48 219.612 54.132 219.612 53.436V50.58C220.068 50.46 220.512 50.328 220.956 50.208L220.788 48.9ZM220.416 53.316V54.648H227.784V53.316H220.416ZM237.936 44.196C237.648 45.132 237.096 46.368 236.628 47.196L237.876 47.628C238.392 46.872 239.004 45.732 239.532 44.664L237.936 44.196ZM232.8 47.004C232.536 46.236 231.948 45.132 231.324 44.304L230.016 44.82C230.604 45.66 231.192 46.824 231.42 47.58L232.8 47.004ZM235.512 43.824H233.94V47.976H230.304V49.404H237.804V50.508H230.712V51.888H237.804V53.136H230.028V54.552H237.804V55.044H239.328V47.976H235.512V43.824Z" fill="#333333"/>
<path d="M307.393 350.49L307.753 351.822C309.139 351.804 311.173 351.75 312.991 351.57V354.846H307.573C307.033 354.846 306.403 354.81 305.989 354.774V356.268C306.421 356.232 307.033 356.196 307.609 356.196H312.955C312.739 359.418 311.245 361.434 308.401 362.748L309.823 363.738C312.919 361.938 314.233 359.562 314.431 356.196H319.453C319.903 356.196 320.443 356.232 320.839 356.268V354.774C320.461 354.81 319.813 354.846 319.417 354.846H314.449V351.39C315.745 351.192 317.131 350.922 318.031 350.688C318.283 350.616 318.643 350.526 319.039 350.418L318.085 349.176C317.203 349.554 315.079 349.986 313.441 350.22C311.497 350.472 308.761 350.544 307.393 350.49ZM323.906 355.206V356.97C324.464 356.916 325.418 356.88 326.408 356.88H336.29C337.1 356.88 337.856 356.952 338.216 356.97V355.206C337.82 355.242 337.172 355.296 336.272 355.296H326.408C325.4 355.296 324.446 355.242 323.906 355.206ZM348.886 349.572L347.086 349.212C347.032 349.68 346.96 350.112 346.744 350.94C346.24 352.704 344.404 358.464 343.396 360.948C343.072 360.966 342.766 360.984 342.496 361.002C341.974 361.02 341.362 361.038 340.822 361.02L341.092 362.694C341.614 362.622 342.136 362.532 342.586 362.496C344.998 362.28 351.028 361.614 353.8 361.254C354.214 362.136 354.556 362.964 354.79 363.612L356.302 362.928C355.546 361.074 353.584 357.456 352.306 355.602L350.956 356.214C351.622 357.078 352.432 358.482 353.152 359.904C351.172 360.174 347.716 360.552 345.07 360.804C345.97 358.464 347.752 352.938 348.274 351.246C348.508 350.49 348.706 350.022 348.886 349.572Z" fill="#333333"/>
<g clip-path="url(#clip1_248_592)">
<path d="M76.8026 362.711L77.885 357.017C78.4129 354.183 79.8657 352.636 81.1063 352.636C82.0568 352.636 82.3736 353.265 82.3736 354.157C82.3702 354.641 82.326 355.124 82.2417 355.6L80.8928 362.711H84.6954L86.1215 355.259C86.2415 354.539 86.312 353.811 86.3325 353.081C86.3325 350.878 85.1442 349.592 83.0334 349.592C82.1343 349.589 81.2485 349.808 80.4554 350.229C79.6623 350.65 78.9868 351.26 78.4895 352.004H78.4365L78.7005 349.879H75.3236C75.1649 351.007 74.9539 352.424 74.6389 354.051L73.0018 362.71L76.8026 362.711ZM98.402 359.247C97.2754 359.792 96.0372 360.071 94.7843 360.061C94.3209 360.098 93.8552 360.028 93.4242 359.855C92.9932 359.681 92.6089 359.411 92.3019 359.064C92.0511 358.671 91.9141 358.217 91.906 357.752C97.0818 357.883 100.277 356.7 100.277 353.422C100.277 351.035 98.402 349.591 95.7877 349.591C91.1136 349.591 88.2621 353.658 88.2621 357.57C88.2621 360.903 90.1631 362.975 93.8599 362.975C95.5168 363.004 97.1591 362.663 98.6659 361.978L98.402 359.247ZM96.7126 353.449C96.7126 354.604 95.2337 355.023 92.2764 354.995C92.3994 354.274 92.7685 353.617 93.3215 353.134C93.8745 352.652 94.5779 352.373 95.3134 352.345C96.1848 352.347 96.7126 352.793 96.7126 353.449ZM101.967 349.881L105.004 356.071L99.406 362.711H103.789L105.321 360.481C105.901 359.589 106.271 358.934 106.641 358.329H106.72C106.958 359.09 107.169 359.719 107.538 360.664L108.357 362.711H112.528L109.52 356.099L114.959 349.881H110.602L109.176 351.901C108.622 352.689 108.279 353.266 107.803 353.948H107.724C107.537 353.45 107.301 352.82 106.905 351.796L106.14 349.879L101.967 349.881ZM128.031 360.481C127.112 360.938 126.101 361.181 125.073 361.189C122.987 361.189 121.904 359.851 121.904 357.804C121.904 354.813 123.99 351.557 127.32 351.557C128.068 351.551 128.808 351.712 129.485 352.03L130.119 350.298C129.279 349.93 128.37 349.742 127.452 349.747C122.857 349.747 119.635 353.735 119.635 358.065C119.635 360.767 121.246 362.972 124.547 362.972C125.82 362.986 127.081 362.726 128.244 362.211L128.031 360.481ZM137.643 349.723C133.497 349.723 130.566 353.606 130.566 357.778C130.566 360.639 132.362 363 135.557 363C139.834 363 142.634 358.933 142.634 355.021C142.633 352.321 141.102 349.723 137.642 349.723H137.643ZM137.405 351.455C139.702 351.455 140.389 353.527 140.389 354.997C140.389 357.962 138.435 361.268 135.845 361.268C133.97 361.268 132.835 359.773 132.835 357.7C132.81 354.787 134.659 351.455 137.404 351.455H137.405ZM146.306 362.712L147.494 356.336C147.996 353.633 149.977 351.534 151.587 351.534C153.197 351.534 153.488 352.636 153.488 353.712C153.485 354.231 153.432 354.749 153.329 355.258L151.903 362.71H154.016L155.257 356.203C155.785 353.368 157.66 351.532 159.245 351.532C160.671 351.532 161.174 352.398 161.174 353.736C161.167 354.292 161.105 354.846 160.987 355.389L159.614 362.71H161.751L163.177 355.205C163.307 354.495 163.378 353.776 163.388 353.054C163.388 350.666 161.777 349.721 160.298 349.721C159.333 349.74 158.39 350.013 157.565 350.51C156.739 351.008 156.061 351.713 155.598 352.555C155.492 350.954 154.569 349.721 152.614 349.721C150.924 349.721 149.315 350.64 148.125 352.397H148.046L148.389 350.01H146.459C146.327 351.061 146.142 352.293 145.878 353.71L144.162 362.71L146.306 362.712ZM167.642 362.712L168.83 356.336C169.332 353.633 171.313 351.534 172.923 351.534C174.533 351.534 174.824 352.636 174.824 353.712C174.821 354.231 174.768 354.749 174.665 355.258L173.239 362.71H175.352L176.593 356.203C177.121 353.368 178.996 351.532 180.581 351.532C182.007 351.532 182.51 352.398 182.51 353.736C182.503 354.292 182.441 354.846 182.324 355.389L180.95 362.71H183.089L184.513 355.205C184.644 354.495 184.715 353.776 184.724 353.054C184.724 350.666 183.113 349.721 181.635 349.721C180.67 349.74 179.727 350.013 178.902 350.51C178.076 351.008 177.398 351.713 176.935 352.555C176.829 350.954 175.905 349.721 173.951 349.721C172.261 349.721 170.652 350.64 169.462 352.397H169.383L169.726 350.01H167.796C167.664 351.061 167.479 352.293 167.215 353.71L165.499 362.71L167.642 362.712ZM196.977 350.01L195.737 356.519C195.209 359.326 193.176 361.163 191.591 361.163C190.086 361.163 189.532 360.271 189.532 358.959C189.542 358.331 189.622 357.707 189.769 357.096L191.115 350.01H188.923L187.55 357.2C187.405 357.899 187.325 358.611 187.312 359.325C187.312 362.211 189.028 362.998 190.666 362.998C191.58 362.946 192.467 362.675 193.253 362.21C194.039 361.744 194.701 361.096 195.181 360.322H195.234L194.891 362.709H196.872C197.004 361.658 197.189 360.426 197.452 359.009L199.169 350.01H196.977ZM202.786 362.709L203.948 356.543C204.529 353.394 206.75 351.533 208.306 351.533C209.811 351.533 210.313 352.478 210.313 353.764C210.304 354.311 210.242 354.856 210.126 355.39L208.728 362.711H210.919L212.346 355.312C212.482 354.637 212.562 353.953 212.583 353.265C212.583 350.589 210.867 349.723 209.335 349.723C208.373 349.743 207.432 350.01 206.604 350.497C205.776 350.985 205.088 351.677 204.608 352.506H204.555L204.872 350.014H202.918C202.76 351.065 202.601 352.297 202.311 353.714L200.592 362.711L202.786 362.709ZM216.887 362.709L219.343 350.01H217.15L214.694 362.709H216.887ZM218.817 347.832C219.012 347.837 219.207 347.802 219.388 347.73C219.57 347.658 219.735 347.55 219.873 347.412C220.011 347.275 220.12 347.111 220.193 346.931C220.265 346.75 220.3 346.557 220.296 346.363C220.31 346.186 220.287 346.009 220.229 345.842C220.17 345.675 220.076 345.523 219.954 345.394C219.832 345.265 219.684 345.164 219.52 345.095C219.356 345.027 219.179 344.994 219.001 344.998C218.809 344.998 218.618 345.037 218.44 345.111C218.262 345.185 218.101 345.294 217.966 345.431C217.83 345.567 217.724 345.73 217.653 345.908C217.581 346.086 217.546 346.276 217.549 346.468C217.534 346.642 217.555 346.817 217.612 346.983C217.669 347.148 217.759 347.3 217.878 347.429C217.997 347.557 218.142 347.66 218.304 347.729C218.465 347.799 218.639 347.835 218.815 347.834L218.817 347.832ZM229.326 360.479C228.408 360.936 227.396 361.179 226.369 361.187C224.283 361.187 223.2 359.849 223.2 357.803C223.2 354.811 225.286 351.556 228.615 351.556C229.364 351.549 230.104 351.711 230.781 352.028L231.415 350.296C230.574 349.928 229.666 349.74 228.747 349.745C224.153 349.745 220.931 353.733 220.931 358.063C220.931 360.765 222.542 362.97 225.842 362.97C227.115 362.984 228.376 362.724 229.539 362.209L229.326 360.479ZM242.028 362.709C242.011 360.737 242.197 358.768 242.582 356.833L243.876 350.221C242.763 349.89 241.606 349.722 240.443 349.723C234.872 349.723 231.598 354.393 231.598 358.802C231.598 361.214 233.024 363 235.27 363C237.092 363 238.835 362.056 240.234 359.432H240.287C240.135 360.519 240.038 361.613 239.996 362.71L242.028 362.709ZM240.679 355.469C240.045 358.853 237.878 361.215 236.058 361.215C234.368 361.215 233.866 359.825 233.866 358.408C233.892 354.891 236.585 351.454 239.886 351.454C240.403 351.449 240.917 351.512 241.418 351.64L240.679 355.469ZM248.759 347.151L248.204 350.011H246.382L246.039 351.716H247.888L246.621 358.145C246.451 358.93 246.363 359.729 246.357 360.532C246.357 361.818 247.096 362.999 249.05 362.999C249.623 363.015 250.194 362.935 250.74 362.762L250.846 361.057C250.505 361.113 250.161 361.139 249.816 361.136C249.651 361.158 249.483 361.143 249.325 361.09C249.168 361.038 249.024 360.949 248.907 360.833C248.789 360.716 248.7 360.573 248.647 360.416C248.594 360.26 248.579 360.093 248.601 359.929C248.617 359.241 248.696 358.556 248.839 357.882L250.027 351.716H253.091L253.434 350.011H250.371L251.031 346.6L248.759 347.151ZM255.757 362.711L258.213 350.01H256.021L253.564 362.711L255.757 362.711ZM257.686 347.833C257.882 347.838 258.076 347.803 258.258 347.731C258.439 347.659 258.604 347.551 258.743 347.414C258.881 347.276 258.99 347.112 259.062 346.932C259.135 346.751 259.17 346.558 259.165 346.364C259.18 346.188 259.157 346.01 259.098 345.843C259.039 345.677 258.946 345.524 258.824 345.395C258.702 345.267 258.554 345.165 258.39 345.097C258.226 345.028 258.049 344.995 257.871 344.999C257.678 345 257.487 345.038 257.309 345.112C257.132 345.186 256.97 345.295 256.835 345.432C256.7 345.569 256.594 345.731 256.522 345.909C256.451 346.087 256.416 346.277 256.419 346.469C256.404 346.643 256.425 346.818 256.482 346.983C256.539 347.149 256.629 347.3 256.749 347.429C256.868 347.557 257.012 347.66 257.173 347.73C257.335 347.799 257.509 347.835 257.684 347.834L257.686 347.833ZM266.876 349.722C262.73 349.722 259.799 353.605 259.799 357.778C259.799 360.638 261.595 362.999 264.79 362.999C269.067 362.999 271.867 358.933 271.867 355.021C271.864 352.321 270.333 349.723 266.874 349.723L266.876 349.722ZM266.638 351.454C268.935 351.454 269.622 353.527 269.622 354.996C269.622 357.962 267.668 361.268 265.078 361.268C263.203 361.268 262.068 359.772 262.068 357.699C262.042 354.787 263.89 351.455 266.635 351.455L266.638 351.454ZM275.589 362.711L276.752 356.545C277.332 353.396 279.553 351.535 281.109 351.535C282.614 351.535 283.116 352.48 283.116 353.766C283.107 354.313 283.045 354.857 282.929 355.392L281.53 362.713H283.721L285.147 355.314C285.284 354.639 285.364 353.955 285.385 353.267C285.385 350.591 283.669 349.725 282.137 349.725C281.175 349.745 280.234 350.012 279.406 350.499C278.577 350.987 277.89 351.679 277.41 352.508H277.357L277.674 350.016H275.72C275.561 351.067 275.403 352.298 275.113 353.715L273.397 362.715L275.589 362.711ZM286.997 362.107C287.942 362.704 289.046 363.006 290.166 362.973C292.859 362.973 295.051 361.478 295.051 358.802C295.051 357.385 294.073 356.282 292.648 355.469C291.513 354.839 290.905 354.262 290.905 353.344C290.905 352.242 291.856 351.426 293.176 351.426C293.952 351.428 294.716 351.627 295.394 352.003L296.001 350.35C295.183 349.912 294.263 349.695 293.334 349.72C290.641 349.72 288.713 351.426 288.713 353.656C288.713 354.942 289.531 356.068 291.01 356.884C292.331 357.618 292.779 358.222 292.779 359.219C292.779 360.347 291.829 361.292 290.352 361.292C289.385 361.26 288.441 360.99 287.605 360.504L286.997 362.107Z" fill="#333333"/>
</g>
<path d="M58.8508 234.403L53.7453 229.599C53.2503 229.133 52.6018 228.876 51.9194 228.876C51.5154 228.876 51.1196 228.969 50.7619 229.141L48.9367 227.423C52.6882 221.602 51.8791 213.732 46.6595 208.818C46.1761 208.364 45.6631 207.944 45.1306 207.563V202.422C45.1306 201.638 44.4915 201 43.706 201H41.2301C40.4446 201 39.8056 201.638 39.8056 202.422V205.188C37.4829 204.676 35.0412 204.736 32.7494 205.358C32.7253 205.031 32.5904 204.711 32.3414 204.46L31.4472 203.568C31.1811 203.302 30.8265 203.155 30.4484 203.155C30.0706 203.155 29.7157 203.302 29.4496 203.568L29.372 203.646C29.2961 203.611 29.2195 203.578 29.1426 203.547V203.44C29.1426 202.662 28.5084 202.029 27.729 202.029H26.4653C25.6859 202.029 25.0517 202.662 25.0517 203.44V203.547C24.9748 203.578 24.8982 203.611 24.8222 203.646L24.7447 203.568C24.4786 203.302 24.1237 203.155 23.7459 203.155C23.3678 203.155 23.0132 203.302 22.7474 203.568L21.8508 204.462C21.3021 205.015 21.3027 205.911 21.8532 206.462L21.9798 206.588C21.9551 206.648 21.9313 206.708 21.9084 206.768H21.7262C20.9468 206.768 20.313 207.402 20.313 208.182V209.445C20.313 210.225 20.9468 210.859 21.7262 210.859H21.9609C21.9798 210.906 21.9997 210.953 22.0198 210.999L21.8523 211.166C21.5862 211.432 21.4394 211.787 21.4394 212.165C21.4394 212.543 21.5862 212.898 21.8523 213.164L22.7467 214.059C22.8081 214.12 22.8746 214.174 22.9442 214.223C21.0634 219.097 21.9277 224.608 25.2632 228.746C25.3798 228.891 25.5507 228.966 25.7231 228.966C25.8531 228.966 25.984 228.924 26.0933 228.836C26.3472 228.631 26.3871 228.259 26.1824 228.005C23.0602 224.131 22.2902 218.953 24.138 214.416C24.3654 214.351 24.5738 214.23 24.7456 214.058L24.9113 213.891C24.958 213.912 25.0047 213.931 25.0517 213.951V214.185C25.0517 214.852 25.5168 215.411 26.1393 215.559C24.5589 219.76 25.6361 224.519 28.9503 227.639C29.7294 228.372 30.5869 228.97 31.4939 229.437C31.5263 229.458 31.5607 229.476 31.5971 229.49C32.327 229.856 33.0884 230.137 33.8663 230.333C33.9094 230.349 33.9548 230.36 34.0021 230.366C34.8612 230.571 35.7395 230.674 36.6171 230.674C37.1555 230.674 37.6932 230.635 38.2263 230.558C38.2825 230.558 38.3362 230.549 38.3875 230.534C39.1147 230.418 39.8325 230.231 40.5289 229.973C40.5823 229.961 40.6326 229.942 40.6796 229.916C42.1866 229.332 43.5894 228.412 44.7689 227.159C44.8373 227.086 44.9041 227.013 44.9703 226.939C44.981 226.927 44.9914 226.916 45.0009 226.904C46.7849 224.889 47.7801 222.314 47.8094 219.614C47.839 216.893 46.889 214.277 45.1306 212.222V209.049C45.3771 209.25 45.6179 209.46 45.8508 209.679C51.2578 214.769 51.5175 223.311 46.4294 228.721C43.8095 231.505 40.2075 232.933 36.5927 232.933C33.6597 232.933 30.7185 231.992 28.2872 230.073C28.0311 229.871 27.66 229.915 27.458 230.171C27.256 230.427 27.2996 230.798 27.5557 231C30.1441 233.044 33.3256 234.14 36.612 234.14C36.9623 234.14 37.3142 234.128 37.6663 234.103C40.6787 233.888 43.5159 232.759 45.8334 230.881L47.5777 232.522C47.438 232.864 47.3696 233.235 47.3815 233.616C47.4038 234.329 47.7007 234.989 48.2171 235.474L53.3226 240.277C53.8167 240.743 54.4652 241 55.1482 241C55.8815 241 56.5889 240.696 57.0897 240.165L58.9659 238.17C59.9711 237.101 59.9198 235.411 58.8508 234.403ZM39.8056 206.4V208.76C37.8824 208.191 35.8289 208.148 33.8813 208.638V208.182C33.8813 207.402 33.2474 206.768 32.468 206.768H32.2858C32.2819 206.758 32.2776 206.748 32.2733 206.737C34.6851 205.92 37.3261 205.801 39.8056 206.4ZM25.8201 212.973C25.5626 212.892 25.3099 212.785 25.0694 212.656C24.9815 212.608 24.8857 212.586 24.7905 212.586C24.6367 212.586 24.4853 212.645 24.3718 212.76L23.9098 213.224C23.8515 213.282 23.7819 213.291 23.7459 213.291C23.7093 213.291 23.64 213.282 23.5817 213.224L22.6869 212.329C22.6289 212.271 22.6201 212.201 22.6201 212.165C22.6201 212.129 22.6289 212.059 22.6863 212.002L23.1514 211.539C23.3363 211.355 23.3784 211.071 23.2552 210.841C23.1273 210.603 23.0205 210.35 22.9375 210.09C22.8593 209.845 22.632 209.678 22.3747 209.678H21.7262C21.6002 209.678 21.4937 209.571 21.4937 209.445V208.182C21.4937 208.056 21.5999 207.949 21.7262 207.949H22.3345C22.5981 207.949 22.8297 207.774 22.9024 207.521C22.9808 207.245 23.0858 206.981 23.214 206.734C23.333 206.505 23.2893 206.225 23.1065 206.043L22.6872 205.626C22.5978 205.537 22.5987 205.385 22.6866 205.296L23.5817 204.403C23.64 204.345 23.7096 204.336 23.7459 204.336C23.7822 204.336 23.8515 204.345 23.9098 204.403L24.29 204.784C24.4771 204.971 24.7655 205.01 24.9962 204.881C25.2589 204.734 25.536 204.614 25.8198 204.524C26.0655 204.447 26.2327 204.219 26.2327 203.961V203.44C26.2327 203.315 26.3392 203.21 26.4653 203.21H27.729C27.855 203.21 27.9615 203.315 27.9615 203.44V203.961C27.9615 204.219 28.1288 204.447 28.3747 204.524C28.6585 204.614 28.9353 204.734 29.1981 204.881C29.4285 205.01 29.7172 204.971 29.9043 204.784L30.2842 204.403C30.3425 204.345 30.4124 204.336 30.4484 204.336C30.4847 204.336 30.5543 204.345 30.6129 204.404L31.5055 205.294C31.5955 205.385 31.5961 205.537 31.5083 205.625L31.2205 205.911C31.2141 205.917 31.2083 205.923 31.2025 205.929L31.0877 206.043C30.9046 206.225 30.8613 206.505 30.98 206.734C31.1082 206.981 31.2132 207.245 31.2919 207.521C31.3645 207.775 31.5961 207.949 31.8595 207.949H32.468C32.5941 207.949 32.7006 208.056 32.7006 208.182V209.43V209.434V209.445C32.7006 209.571 32.5941 209.678 32.468 209.678H31.8217C31.5662 209.678 31.3395 209.842 31.2605 210.086C31.1735 210.352 31.0654 210.606 30.9394 210.841C30.8158 211.071 30.8579 211.355 31.0429 211.539L31.507 212.001C31.5958 212.09 31.5958 212.24 31.507 212.329L30.6123 213.224C30.5543 213.282 30.4847 213.291 30.4484 213.291C30.4121 213.291 30.3425 213.282 30.2854 213.225L29.8225 212.76C29.6385 212.575 29.3543 212.532 29.1245 212.656C28.8844 212.785 28.6317 212.892 28.3741 212.973C28.1285 213.051 27.9615 213.279 27.9615 213.536V214.185C27.9615 214.311 27.855 214.418 27.7287 214.418H26.4653C26.3392 214.418 26.2327 214.311 26.2327 214.185V213.536C26.2327 213.278 26.0655 213.051 25.8201 212.973ZM28.2612 224.999V219.387C28.2612 219.255 28.3717 219.143 28.5026 219.143H30.9806C31.1127 219.143 31.2244 219.255 31.2244 219.387V227.921C30.7105 227.592 30.2195 227.211 29.7593 226.778C29.1831 226.236 28.6836 225.638 28.2612 224.999ZM34.664 229.302V224.853C34.664 224.527 34.3998 224.263 34.0735 224.263C33.7476 224.263 33.483 224.527 33.483 224.853V228.993C33.1177 228.873 32.7576 228.732 32.4052 228.568V219.387C32.4052 218.601 31.7661 217.962 30.9806 217.962H28.5026C27.7183 217.962 27.0802 218.601 27.0802 219.387V222.536C26.3667 220.307 26.4436 217.85 27.3951 215.598H27.7287C28.5081 215.598 29.1422 214.964 29.1422 214.185V213.95C29.1892 213.931 29.2362 213.912 29.2826 213.891L29.4496 214.059C29.7157 214.325 30.0706 214.472 30.4484 214.472C30.8265 214.472 31.1811 214.325 31.4472 214.059L32.342 213.164C32.8928 212.613 32.8928 211.717 32.3408 211.165L32.1741 210.999C32.1946 210.953 32.2144 210.906 32.2336 210.859H32.468C33.0958 210.859 33.6286 210.447 33.8123 209.88C35.7721 209.309 37.8732 209.35 39.8056 209.998V228.976C39.4772 229.086 39.1443 229.178 38.8083 229.253V214.375C38.8083 213.589 38.1693 212.95 37.3834 212.95H34.9079C34.1224 212.95 33.4833 213.589 33.4833 214.375V222.019C33.4833 222.346 33.7476 222.61 34.0735 222.61C34.3998 222.61 34.664 222.346 34.664 222.019V214.375C34.664 214.243 34.7757 214.131 34.9079 214.131H37.3837C37.5159 214.131 37.6276 214.243 37.6276 214.375V229.443C36.6406 229.542 35.6412 229.495 34.664 229.302ZM40.9863 228.496V202.422C40.9863 202.291 41.098 202.181 41.2301 202.181H43.706C43.8381 202.181 43.9498 202.291 43.9498 202.422V207.866V207.87V226.305C43.9361 226.32 43.9227 226.335 43.9089 226.349C43.0484 227.264 42.055 227.979 40.9863 228.496ZM45.1306 224.751V214.221C47.1044 217.427 47.0956 221.549 45.1306 224.751ZM47.2893 229.53C47.6321 229.165 47.9522 228.788 48.2506 228.399L49.8229 229.879L48.258 231.541L46.7239 230.098C46.9167 229.914 47.1056 229.725 47.2893 229.53ZM58.1059 237.36L56.23 239.355C55.9477 239.654 55.5635 239.819 55.1482 239.819C54.7673 239.819 54.4069 239.676 54.1319 239.417L49.0258 234.612C48.7389 234.343 48.5738 233.976 48.5616 233.579C48.5491 233.181 48.6913 232.803 48.962 232.516L50.8391 230.522C51.1205 230.222 51.5041 230.057 51.9194 230.057C52.3 230.057 52.6607 230.2 52.936 230.459L58.0412 235.262C58.6366 235.824 58.6656 236.765 58.1059 237.36Z" fill="#333333"/>
<path d="M29.2552 210.842C30.3713 209.654 30.3136 207.776 29.1265 206.656C28.5759 206.138 27.856 205.852 27.0995 205.852C26.2856 205.852 25.4991 206.192 24.9422 206.783C24.3999 207.358 24.114 208.11 24.1374 208.9C24.1609 209.692 24.4911 210.426 25.067 210.969C25.6182 211.489 26.3387 211.774 27.0961 211.774C27.9091 211.775 28.6959 211.435 29.2552 210.842ZM25.3176 208.865C25.3035 208.391 25.4753 207.939 25.8016 207.593C26.1418 207.232 26.6027 207.033 27.0995 207.033C27.5542 207.033 27.9866 207.204 28.3168 207.515C29.0309 208.189 29.0657 209.319 28.3953 210.033C28.0541 210.395 27.5926 210.594 27.0961 210.594C26.6411 210.594 26.2084 210.422 25.877 210.109C25.5303 209.783 25.3316 209.341 25.3176 208.865Z" fill="#333333"/>
<g clip-path="url(#clip2_248_592)">
<path d="M230.284 236.321C229.761 236.321 229.337 236.745 229.337 237.268C229.337 237.791 229.761 238.215 230.284 238.215C230.807 238.215 231.231 237.791 231.231 237.268C231.231 236.745 230.807 236.321 230.284 236.321Z" fill="#333333"/>
<path d="M227.049 238.215C227.572 238.215 227.996 237.791 227.996 237.268C227.996 236.745 227.572 236.321 227.049 236.321C226.526 236.321 226.102 236.745 226.102 237.268C226.102 237.791 226.526 238.215 227.049 238.215Z" fill="#333333"/>
<path d="M223.813 238.215C224.336 238.215 224.76 237.791 224.76 237.268C224.76 236.745 224.336 236.321 223.813 236.321C223.29 236.321 222.866 236.745 222.866 237.268C222.866 237.791 223.29 238.215 223.813 238.215Z" fill="#333333"/>
<path d="M236 235.611C236 234.418 235.029 233.447 233.836 233.447H198.164C196.971 233.447 196 234.418 196 235.611V261.286C196 261.61 196.262 261.872 196.586 261.872C196.91 261.872 197.172 261.61 197.172 261.286V241.09H234.828V244.188C234.828 244.511 235.09 244.774 235.414 244.774C235.738 244.774 236 244.511 236 244.188V235.611ZM197.172 239.918V235.611C197.172 235.064 197.617 234.619 198.164 234.619H233.836C234.383 234.619 234.828 235.064 234.828 235.611V239.918H197.172V239.918Z" fill="#333333"/>
<path d="M235.414 246.336C235.09 246.336 234.828 246.599 234.828 246.922V266.389C234.828 266.936 234.383 267.381 233.836 267.381H198.164C197.617 267.381 197.172 266.936 197.172 266.389V264.021C197.172 263.697 196.91 263.435 196.586 263.435C196.262 263.435 196 263.697 196 264.021V266.389C196 267.583 196.971 268.553 198.164 268.553H233.836C235.029 268.553 236 267.583 236 266.389V246.922C236 246.599 235.738 246.336 235.414 246.336Z" fill="#333333"/>
<path d="M216.498 253.65H209.292C208.969 253.65 208.706 253.913 208.706 254.236V265.442C208.706 265.766 208.969 266.028 209.292 266.028H229.495C229.819 266.028 230.081 265.766 230.081 265.442V258.568C232.086 258.282 233.632 256.555 233.632 254.473C233.632 252.191 231.776 250.335 229.495 250.335C227.495 250.335 225.823 251.762 225.44 253.65H219.232C218.908 253.65 218.646 253.913 218.646 254.236C218.646 254.56 218.908 254.822 219.232 254.822H225.374C225.536 256.746 227.018 258.298 228.909 258.568V264.856H209.878V254.822H216.498C216.821 254.822 217.084 254.56 217.084 254.236C217.084 253.913 216.821 253.65 216.498 253.65ZM226.53 254.473C226.53 252.838 227.86 251.507 229.495 251.507C231.13 251.507 232.461 252.838 232.461 254.473C232.461 256.106 231.133 257.435 229.5 257.438C229.498 257.438 229.497 257.438 229.495 257.438C229.494 257.438 229.492 257.438 229.491 257.438C227.858 257.436 226.53 256.106 226.53 254.473Z" fill="#333333"/>
<path d="M214.834 256.849C214.722 256.578 214.461 256.403 214.168 256.403C214.167 256.403 214.167 256.403 214.167 256.403C213.874 256.403 213.612 256.579 213.501 256.85C213.499 256.855 213.497 256.859 213.496 256.864L211.27 262.708C211.155 263.011 211.306 263.349 211.609 263.465C211.677 263.491 211.748 263.503 211.817 263.503C212.053 263.503 212.276 263.359 212.365 263.125L212.776 262.047H215.543L215.949 263.124C216.064 263.427 216.402 263.58 216.705 263.465C217.007 263.351 217.16 263.013 217.046 262.71L214.84 256.865C214.838 256.86 214.836 256.855 214.834 256.849ZM213.222 260.875L214.166 258.397L215.101 260.875H213.222Z" fill="#333333"/>
<path d="M225.853 262.322C225.519 262.322 225.198 262.188 224.995 261.965C224.777 261.725 224.407 261.707 224.167 261.924C223.927 262.141 223.909 262.512 224.126 262.752C224.554 263.223 225.183 263.494 225.853 263.494C226.695 263.494 227.402 262.953 227.535 262.207C227.636 261.641 227.385 260.904 226.378 260.532C225.944 260.372 225.539 260.198 225.392 260.135C225.354 260.097 225.351 260.05 225.356 260.015C225.369 259.925 225.445 259.853 225.565 259.817C226.022 259.68 226.459 260.019 226.474 260.031C226.722 260.236 227.089 260.203 227.296 259.956C227.504 259.709 227.472 259.339 227.224 259.131C226.887 258.847 226.087 258.436 225.227 258.695C224.669 258.863 224.274 259.305 224.196 259.848C224.122 260.361 224.345 260.854 224.776 261.135C224.802 261.152 224.829 261.167 224.857 261.179C224.879 261.189 225.394 261.418 225.973 261.632C226.188 261.711 226.408 261.85 226.381 262.001C226.358 262.13 226.174 262.322 225.853 262.322Z" fill="#333333"/>
<path d="M221.605 263.108C221.687 263.333 221.902 263.494 222.156 263.494C222.479 263.494 222.742 263.232 222.742 262.908V257.335C222.742 257.012 222.479 256.749 222.156 256.749C221.832 256.749 221.57 257.012 221.57 257.335V258.948C221.196 258.718 220.757 258.585 220.287 258.585C218.934 258.585 217.833 259.686 217.833 261.039C217.833 262.393 218.934 263.494 220.287 263.494C220.772 263.494 221.224 263.352 221.605 263.108ZM219.004 261.039C219.004 260.332 219.58 259.757 220.287 259.757C220.994 259.757 221.57 260.332 221.57 261.039C221.57 261.747 220.994 262.322 220.287 262.322C219.58 262.322 219.004 261.747 219.004 261.039Z" fill="#333333"/>
<path d="M229.495 255.301L229.806 255.612C229.921 255.727 230.07 255.784 230.22 255.784C230.37 255.784 230.52 255.727 230.635 255.612C230.864 255.384 230.864 255.013 230.635 254.784L230.324 254.473L230.635 254.161C230.864 253.933 230.864 253.562 230.635 253.333C230.406 253.104 230.035 253.104 229.806 253.333L229.495 253.644L229.184 253.333C228.955 253.104 228.584 253.104 228.355 253.333C228.127 253.562 228.127 253.933 228.355 254.161L228.667 254.473L228.355 254.784C228.127 255.012 228.127 255.383 228.355 255.612C228.47 255.727 228.62 255.784 228.77 255.784C228.92 255.784 229.07 255.727 229.184 255.612L229.495 255.301Z" fill="#333333"/>
<path d="M227.759 242.443H204.241C203.917 242.443 203.655 242.706 203.655 243.029V245.555C203.655 245.878 203.917 246.141 204.241 246.141H227.759C228.083 246.141 228.345 245.878 228.345 245.555V243.029C228.345 242.706 228.083 242.443 227.759 242.443ZM227.173 244.969H204.827V243.615H227.173V244.969H227.173Z" fill="#333333"/>
<path d="M198.525 251.711C198.525 252.034 198.788 252.297 199.111 252.297H219.63C219.954 252.297 220.216 252.034 220.216 251.711C220.216 251.387 219.954 251.125 219.63 251.125H199.111C198.788 251.125 198.525 251.387 198.525 251.711Z" fill="#333333"/>
<path d="M204.636 248.599C204.312 248.599 204.05 248.862 204.05 249.185C204.05 249.509 204.312 249.771 204.636 249.771H219.63C219.954 249.771 220.216 249.509 220.216 249.185C220.216 248.862 219.954 248.599 219.63 248.599H204.636Z" fill="#333333"/>
<path d="M199.111 254.822H206.766C207.09 254.822 207.352 254.56 207.352 254.236C207.352 253.912 207.09 253.65 206.766 253.65H199.111C198.788 253.65 198.525 253.912 198.525 254.236C198.525 254.56 198.788 254.822 199.111 254.822Z" fill="#333333"/>
<path d="M199.111 257.347H206.766C207.09 257.347 207.352 257.085 207.352 256.761C207.352 256.438 207.09 256.175 206.766 256.175H199.111C198.788 256.175 198.525 256.438 198.525 256.761C198.525 257.085 198.788 257.347 199.111 257.347Z" fill="#333333"/>
<path d="M199.111 259.873H202.821C203.144 259.873 203.406 259.61 203.406 259.287C203.406 258.963 203.144 258.701 202.821 258.701H199.111C198.788 258.701 198.525 258.963 198.525 259.287C198.525 259.61 198.788 259.873 199.111 259.873Z" fill="#333333"/>
</g>
<path d="M377.836 225.479C377.913 225.513 377.993 225.529 378.072 225.529C378.299 225.529 378.515 225.398 378.611 225.177L384.681 211.358L386.076 212.753C386.191 212.868 386.341 212.926 386.492 212.926C386.642 212.926 386.793 212.868 386.908 212.753C387.138 212.523 387.138 212.151 386.908 211.921L385.189 210.202L386.523 207.163L402.517 223.157C402.632 223.272 402.782 223.33 402.933 223.33C403.084 223.33 403.234 223.272 403.349 223.157C403.579 222.928 403.579 222.555 403.349 222.325L386.607 205.583C386.38 205.356 386.255 205.054 386.255 204.732C386.255 204.41 386.38 204.108 386.607 203.881L386.866 203.622C387.336 203.152 388.099 203.152 388.569 203.622L390.082 205.135C390.311 205.364 390.684 205.364 390.914 205.135C391.144 204.905 391.144 204.532 390.914 204.302L389.401 202.789C388.473 201.861 386.962 201.861 386.034 202.789L385.775 203.049C385.325 203.498 385.078 204.096 385.078 204.732C385.078 205.298 385.274 205.833 385.634 206.261L377.534 224.704C377.403 225.001 377.538 225.348 377.836 225.479Z" fill="#333333"/>
<path d="M392.687 206.076C392.457 205.846 392.085 205.846 391.855 206.076C391.625 206.306 391.625 206.678 391.855 206.908L409.159 224.212C409.386 224.439 409.511 224.741 409.511 225.063C409.511 225.384 409.386 225.687 409.159 225.914L408.9 226.173C408.672 226.4 408.37 226.526 408.048 226.526C407.727 226.526 407.425 226.4 407.197 226.173L405.13 224.106C404.9 223.876 404.527 223.876 404.297 224.106C404.068 224.336 404.068 224.708 404.297 224.938L405.617 226.258L402.579 227.592L388.75 213.763C388.52 213.533 388.147 213.533 387.917 213.763C387.687 213.993 387.687 214.365 387.917 214.595L401.422 228.1L381.641 236.788C381.613 236.756 381.586 236.724 381.555 236.693L376.087 231.225C376.057 231.195 376.025 231.166 375.993 231.138L377.58 227.525C377.711 227.228 377.575 226.88 377.278 226.75C376.98 226.619 376.633 226.754 376.502 227.052L374.912 230.673C374.853 230.668 374.794 230.665 374.735 230.665C374.224 230.665 373.743 230.864 373.382 231.225L372.657 231.95C371.911 232.696 371.911 233.91 372.657 234.655L378.125 240.124H378.125C378.486 240.485 378.967 240.684 379.478 240.684C379.989 240.684 380.469 240.485 380.83 240.124L381.555 239.398C381.973 238.981 382.157 238.416 382.106 237.869L383.228 237.376L383.816 238.579C384.027 239.011 384.305 239.4 384.642 239.737C385.469 240.564 386.56 241 387.676 241C388.253 241 388.838 240.883 389.395 240.642L392.811 239.167C394.947 238.245 395.971 235.742 395.094 233.587L394.603 232.38L406.52 227.146C406.96 227.516 407.504 227.701 408.048 227.701C408.658 227.701 409.268 227.469 409.732 227.005L409.991 226.746C410.44 226.297 410.688 225.699 410.688 225.063C410.688 224.427 410.441 223.829 409.991 223.379L392.687 206.076ZM380.723 238.566L379.998 239.291C379.859 239.43 379.674 239.507 379.478 239.507C379.281 239.507 379.096 239.43 378.957 239.291H378.957L373.489 233.823C373.202 233.536 373.202 233.069 373.489 232.782L374.214 232.057C374.353 231.918 374.538 231.842 374.735 231.842C374.931 231.842 375.116 231.918 375.255 232.057L380.723 237.525C381.01 237.812 381.01 238.279 380.723 238.566ZM391.331 235.119C391.38 235.24 391.32 235.386 391.201 235.437L387.785 236.912C387.664 236.965 387.524 236.913 387.466 236.795L386.951 235.741L390.881 234.015L391.331 235.119ZM394.004 234.031C394.641 235.597 393.897 237.416 392.345 238.087L388.928 239.562C387.742 240.074 386.386 239.816 385.474 238.905C385.23 238.66 385.028 238.377 384.874 238.062L384.307 236.902L385.873 236.215L386.409 237.312C386.655 237.815 387.159 238.11 387.686 238.11C387.875 238.11 388.067 238.073 388.251 237.993L391.667 236.518C392.372 236.213 392.711 235.387 392.421 234.675L391.959 233.541L393.524 232.854L394.004 234.031Z" fill="#333333"/>
<path d="M401.425 212.066C401.576 212.066 401.727 212.008 401.842 211.893L402.49 211.245C402.72 211.015 402.72 210.642 402.49 210.412C402.26 210.183 401.888 210.183 401.658 210.412L401.009 211.061C400.779 211.291 400.779 211.663 401.009 211.893C401.124 212.008 401.275 212.066 401.425 212.066Z" fill="#333333"/>
<path d="M404.512 208.857C404.663 208.857 404.814 208.799 404.929 208.684L407.674 205.939C407.904 205.709 407.904 205.337 407.674 205.107C407.444 204.877 407.071 204.877 406.841 205.107L404.096 207.852C403.866 208.082 403.866 208.455 404.096 208.684C404.211 208.799 404.362 208.857 404.512 208.857Z" fill="#333333"/>
<path d="M398.167 206.045C398.183 206.047 398.198 206.047 398.214 206.047C398.518 206.047 398.776 205.814 398.8 205.505L399.108 201.635C399.133 201.311 398.892 201.028 398.568 201.002C398.244 200.976 397.96 201.218 397.934 201.542L397.627 205.412C397.601 205.736 397.843 206.02 398.167 206.045Z" fill="#333333"/>
<path d="M411.901 214.335C411.875 214.011 411.592 213.769 411.267 213.795L407.397 214.102C407.073 214.128 406.831 214.412 406.857 214.736C406.882 215.044 407.139 215.278 407.443 215.278C407.459 215.278 407.475 215.277 407.491 215.276L411.361 214.968C411.685 214.942 411.926 214.659 411.901 214.335Z" fill="#333333"/>
<defs>
<clipPath id="clip0_248_592">
<rect width="40" height="13" fill="white" transform="translate(195 118)"/>
</clipPath>
<clipPath id="clip1_248_592">
<rect width="223" height="18" fill="white" transform="translate(73 345)"/>
</clipPath>
<clipPath id="clip2_248_592">
<rect width="40" height="40" fill="white" transform="translate(196 231)"/>
</clipPath>
</defs>
</svg>
