<svg width="623" height="192" viewBox="0 0 623 192" fill="none" xmlns="http://www.w3.org/2000/svg">
<path d="M0.427868 191.421L0 187.547C6.00133 186.198 11.8844 184.724 17.8182 183.555C63.864 174.294 109.899 164.937 155.995 155.914C186.587 149.928 217.208 144.055 247.94 138.86C275.357 134.226 302.864 130.147 330.462 126.623C356.094 123.309 381.833 120.864 407.544 118.204C435.868 115.273 464.191 112.292 492.554 109.784C518.118 107.526 543.74 105.832 569.338 103.951C582.14 103.008 594.942 102.105 607.756 101.337C612.71 101.037 617.608 101.647 622.23 103.85C517.747 111.812 413.281 119.616 309.474 134.343C205.785 149.008 103.227 169.669 0.427868 191.421Z" fill="#333333"/>
<path d="M372.989 106.726L416.693 0C419.08 1.66583 421.337 3.02673 423.285 4.73773C423.848 5.25159 423.978 6.91177 423.629 7.77574C418.635 20.3174 413.641 32.8647 408.428 45.3161C398.424 69.1797 388.476 93.0603 381.552 118.065C381.405 118.595 381.158 119.092 380.932 119.674C377.915 119.781 375.663 118.827 373.462 116.608C360.761 103.767 351.956 88.2944 343.337 72.6638C338.636 64.1314 333.862 55.6386 328.818 46.5866C327.202 49.3028 325.4 51.5333 324.426 54.0857C318.763 68.9708 313.099 83.8616 307.886 98.9105C306.518 102.863 306.467 107.381 306.411 111.639C306.411 113.129 307.942 114.919 309.226 116.071C310.814 117.489 312.142 118.821 311.54 121.052C310.786 123.83 310.318 127.117 306.884 127.743C305.527 127.992 303.608 127.088 302.459 126.1C298.355 122.593 297.561 117.63 297.24 112.582C296.677 103.609 299.149 95.0763 301.423 86.606C305.178 72.5904 310.825 59.3034 317.75 46.5866C319.208 44.0721 320.95 41.734 322.94 39.6184C323.559 38.9238 325.125 38.6076 326.127 38.7996C330.968 39.7313 334.155 42.8202 336.536 47.0553C345.673 63.3127 354.793 79.5926 364.195 95.7031C366.43 99.4752 369.735 102.677 372.989 106.726Z" fill="#333333"/>
<path d="M259.622 64.4365C259.831 69.9648 257.483 73.0423 252.411 74.2451C250.361 74.7308 248.414 75.8488 246.573 76.9443C243.065 79.0337 241.157 82.1168 240.706 86.3125C240.504 88.5158 239.728 90.6269 238.454 92.4337C229.678 103.88 218.717 112.593 205.284 117.997C194.739 122.238 183.891 114.135 185.017 102.75C186.261 89.8531 191.958 79.1805 201.574 70.5351C203.218 69.0557 204.817 68.4627 206.911 69.1968C209.27 70.0213 211.066 69.5695 212.783 67.4406C214.984 64.7076 218.458 64.3179 221.571 64.9165C226.046 65.8364 230.444 67.0975 234.728 68.6886C237.246 69.6764 240.024 69.7799 242.609 68.9822C248.16 67.3277 253.858 65.9555 259.622 64.4365ZM232.949 82.8961C232.528 82.6098 232.081 82.364 231.614 82.162C223.575 80.9592 215.541 79.7339 207.485 78.644C207.057 78.6471 206.635 78.7508 206.254 78.947C205.872 79.1431 205.542 79.4261 205.29 79.7734C202.317 84.8556 199.069 89.8587 196.749 95.2458C195.06 99.1139 194.621 103.524 193.81 107.731C193.371 110.046 194.373 111.458 196.918 110.639C201.247 109.239 206.078 108.488 209.703 106.009C216.459 101.384 222.691 95.9065 228.771 90.3726C230.742 88.5882 231.547 85.5106 232.949 82.8961Z" fill="#333333"/>
<path d="M407.927 86.6909C412.391 89.328 414.57 86.9112 416.861 83.2407C420.682 77.1634 426.045 72.2135 432.399 68.8977C441.165 64.2108 449.463 68.0111 451.907 77.7181C452.807 81.2925 451.71 84.2741 449.227 86.6966C441.756 93.9754 433.345 99.8368 423.274 102.909C420.982 103.603 419.862 104.546 420.419 107.003C420.977 109.459 422.756 110.227 424.85 109.911C430.767 109.019 436.869 108.578 442.488 106.715C450.798 103.959 458.775 100.176 466.854 96.7367C470.721 95.0878 474.465 93.134 478.321 91.4682C480.01 90.751 481.818 90.4009 483.608 89.8701C484.531 95.0653 482.138 99.6166 476.953 101.915C466.612 106.5 456.174 110.871 445.736 115.23C438.356 118.313 430.671 117.862 423.043 116.619C418.218 115.834 415.161 112.469 413.196 108.177C411.232 103.886 409.469 99.3794 407.505 95.0257C406.294 92.383 406.334 89.8024 407.927 86.6909ZM445.736 75.3577C435.535 75.0528 424.878 84.0821 425.165 92.8009C432.754 87.7977 441.002 83.8111 445.736 75.3577Z" fill="#333333"/>
<path d="M536.736 53.6117C540.711 54.0352 544.359 54.1086 547.861 54.871C551.982 55.7688 555.872 55.2775 559.723 54.0126C562.538 53.0922 564.007 50.6528 564.896 48.0552C566.535 43.278 567.891 38.4047 569.4 33.571C569.614 32.8651 569.862 32.1762 570.087 31.4873C575.154 32.7804 577.152 35.4853 576.713 40.4376C576.488 43.0239 576.088 45.5932 575.739 48.3714C580.344 48.4561 583.97 46.4967 587.669 44.7857C590.292 43.5716 592.797 44.9381 594.655 48.5917C596.046 51.3247 594.025 52.4824 592.189 53.3011C588.48 55.0642 584.649 56.5588 580.727 57.7735C574.411 59.5748 570.549 63.6688 568.809 69.7392C565.898 79.9035 562.847 90.0679 560.618 100.419C558.236 111.486 556.773 122.758 554.78 133.916C554.656 134.627 553.44 135.61 552.702 135.649C549.448 135.774 546.656 133.995 546.51 130.776C546.179 125.946 546.482 121.094 547.41 116.343C550.878 100.345 554.757 84.438 558.591 68.5251C559.21 65.9501 558.591 64.9224 555.939 64.7812C552.86 64.6175 549.78 64.3069 546.724 63.8721C541.477 63.1267 537.981 59.6934 536.736 53.6117Z" fill="#333333"/>
<path d="M498.797 96.6069L485.122 116.811C484.959 116.793 484.798 116.755 484.644 116.698C477.888 111.707 477.674 110.572 482.071 103.445C484.627 99.3004 487.312 95.2234 489.66 90.96C490.38 89.6612 490.786 87.5719 490.274 86.3183C488.9 83.2562 487.253 80.3249 485.353 77.56C482.792 73.6354 479.982 69.8577 480.466 64.5722C482.103 64.794 483.672 65.3706 485.064 66.2619C486.456 67.1532 487.638 68.3378 488.528 69.7335C490.296 72.3762 491.81 75.194 493.544 77.8593C494.293 78.9887 495.318 79.9769 496.646 81.5354C499.095 78.8136 501.274 76.3177 503.526 73.8895C507.146 69.9932 510.732 66.0743 514.493 62.3248C515.619 61.1954 517.212 60.3484 518.935 61.9803C520.657 63.6122 521.941 65.4531 520.905 67.9039C520.293 69.1673 519.515 70.3429 518.591 71.3993C513.356 78.0117 508.086 84.5903 502.552 91.519C505.643 93.7778 508.66 95.9236 511.56 98.1936C512.545 98.9616 513.778 99.995 513.964 101.068C514.228 102.609 514.155 104.784 513.237 105.76C512.579 106.461 510.073 106.099 508.824 105.416C506.898 104.371 505.311 102.683 503.644 101.192C502.074 99.7974 500.57 98.2953 498.797 96.6069Z" fill="#333333"/>
<g clip-path="url(#clip0_198_1158)">
<path d="M137.985 99.4168C133.287 103.422 128.707 107.565 123.847 111.369C120.448 114.02 116.668 116.189 113.045 118.552C110.077 120.482 107.197 122.582 104.092 124.249C97.845 127.615 91.5101 130.805 85.1502 133.933C79.1527 136.872 72.7866 135.763 67.3763 133.25C63.1698 131.247 59.8373 127.773 58.0052 123.478C55.1626 116.872 55.7936 110.015 56.9494 103.647C58.6425 94.3024 60.9415 84.9009 65.4334 76.2954C69.3068 68.8745 72.6866 61.1715 76.9286 53.9762C81.3908 46.4381 87.1285 39.738 93.8841 34.1767C96.6704 31.8639 98.9195 29.0748 102.518 27.6082C105.073 26.5678 106.791 23.5968 109.284 22.2305C114.438 19.4038 120.03 17.3731 125.69 20.6698C127.982 22.0111 129.688 24.4305 131.55 26.4424C132.987 28.0031 134.573 29.5762 134.049 32.0457C133.911 32.6724 133.624 33.5938 133.137 33.8257C132.649 34.0576 131.812 33.5687 131.331 33.1488C129.825 31.8326 128.638 29.9272 126.914 29.1312C124.945 28.2915 122.795 27.968 120.667 28.191C115.125 28.7301 110.502 31.6069 106.516 35.2673C100.157 41.115 93.6342 46.875 87.999 53.3871C84.2943 57.6742 81.9453 63.1646 79.1402 68.2038C76.908 72.029 74.8972 75.98 73.1177 80.0372C70.525 86.3048 68.1822 92.7606 66.0331 99.2288C63.6341 106.437 63.8215 113.958 64.0402 121.435C64.1402 124.926 67.545 127.966 70.9873 127.371C75.1981 126.644 79.5838 126.117 83.4821 124.506C88.9674 122.231 94.1028 119.072 99.3256 116.208C102.356 114.547 105.379 112.855 108.241 110.931C114.426 106.781 120.548 102.538 126.608 98.2009C128.301 96.9913 129.638 95.2989 131.262 93.9827C133.337 92.303 135.542 90.7863 137.916 89.0376C138.151 89.6064 138.426 90.1573 138.741 90.686C139.228 91.3128 139.765 91.9395 140.284 92.5161C140.871 91.7891 141.827 91.131 141.983 90.3224C142.695 86.6433 143.176 82.914 143.857 78.6269C140.565 79.1534 137.504 79.9933 134.424 80.0748C121.733 80.3882 109.042 80.5554 96.3518 80.5763C91.9349 80.5763 88.5238 76.0447 89.2173 71.4254C90.2793 71.3815 91.3976 71.2875 92.5159 71.2875C102.718 71.2875 112.926 71.4881 123.128 71.1685C130.032 70.9554 136.916 70.0027 143.801 69.2882C144.497 69.1641 145.152 68.8738 145.713 68.442C147.862 66.9691 149.88 66.0101 152.504 67.8152C153.197 68.2916 154.896 67.1885 156.165 66.9378C159.582 66.2421 163.037 65.7281 166.442 64.9258C171.539 63.7099 176.581 62.2558 181.666 61.0023C185.4 59.9897 189.183 59.1676 192.999 58.5391C196.829 58.0001 199.703 60.0308 200.977 63.8478C201.19 64.4746 200.515 66.0415 199.934 66.2421C195.936 67.6022 191.931 69.238 187.795 69.7833C181.835 70.5667 176.362 73.1553 170.221 73.4436C165.392 73.6755 160.613 75.606 155.89 77.0413C154.703 77.3985 153.147 78.6019 152.903 79.6799C151.423 86.2798 150.367 92.9674 148.974 99.5861C148.199 103.271 146.993 106.863 146.075 110.517C145.656 112.19 145.481 113.92 145.163 115.619C143.913 122.225 142.758 128.844 141.364 135.418C140.215 140.815 138.716 146.13 137.479 151.514C136.909 154.079 136.492 156.677 136.229 159.292C136.198 159.568 137.572 160.313 138.266 160.282C139.247 160.232 140.202 159.655 141.571 159.167C141.771 164.519 140.221 168.455 136.348 171.269C133.649 173.231 128.345 170.674 127.839 167.007C127.441 164.305 127.456 161.557 127.883 158.859C129.332 150.335 131.094 141.868 132.699 133.369C133.405 129.646 133.949 125.891 134.698 122.175C135.711 117.198 136.929 112.266 137.935 107.289C138.447 104.744 138.697 102.15 139.072 99.5798L137.985 99.4168Z" fill="#333333"/>
</g>
<defs>
<clipPath id="clip0_198_1158">
<rect width="166" height="153" fill="white" transform="translate(56 18.9717)"/>
</clipPath>
</defs>
</svg>
