<svg width="287" height="32" viewBox="0 0 287 32" fill="none" xmlns="http://www.w3.org/2000/svg">
<path d="M11.232 7.16796C10.976 8.25596 10.464 9.72796 10.048 10.688L12.16 11.136H5.88803L7.48803 10.688C7.36003 9.72796 6.94403 8.25596 6.40003 7.16796H11.232ZM10.816 19.936H16.096V16.736H10.816V14.272H16.384V11.136H13.152C13.6 10.176 14.112 8.89596 14.688 7.51996L12.832 7.16796H16.128V4.06396H10.816V1.15196H7.13603V4.06396H1.76003V7.16796H5.34403L3.39203 7.61596C3.84003 8.67196 4.22403 10.08 4.35203 11.136H1.40803V14.272H7.13603V16.736H1.50403V19.936H6.36803C4.89603 22.336 2.68803 24.736 0.608032 26.112C1.40803 26.72 2.49603 27.968 3.07203 28.8C4.44803 27.68 5.88803 26.08 7.13603 24.288V30.72H10.816V23.904C11.744 24.8 12.64 25.76 13.152 26.4L15.36 23.68C14.624 23.104 11.968 20.992 10.816 20.192V19.936ZM30.912 11.424H20.928V6.94396C24.288 6.23996 27.936 5.24796 30.752 3.99996L27.712 1.21596C25.76 2.27196 22.624 3.29596 19.584 4.03196L17.344 3.39196V14.496C17.344 18.912 16.96 24.352 13.28 28.256C14.144 28.704 15.52 30.016 16 30.848C20.224 26.464 20.896 19.712 20.928 14.944H24.192V30.592H27.872V14.944H30.912V11.424Z" fill="#333333"/>
<path d="M39.4385 2.65596C39.7265 3.90396 39.8545 5.43996 39.8545 6.94396C39.8545 9.66396 39.5345 17.984 39.5345 22.24C39.5345 27.648 42.8945 29.92 48.0785 29.92C55.3105 29.92 59.7905 25.696 61.8385 22.688L58.9585 19.136C56.6865 22.592 53.3585 25.6 48.1105 25.6C45.6785 25.6 43.7585 24.576 43.7585 21.376C43.7585 17.44 43.9825 10.336 44.1425 6.94396C44.1745 5.66396 44.3345 4.06396 44.5585 2.71996L39.4385 2.65596Z" fill="#333333"/>
<path d="M73.4415 5.21596L68.5775 5.15196C68.7695 6.11196 68.8015 7.45596 68.8015 8.35196C68.8015 10.304 68.8655 13.984 69.1535 16.896C70.0495 25.408 73.0895 28.544 76.5455 28.544C79.1055 28.544 81.0895 26.592 83.2015 21.088L80.0015 17.248C79.3935 19.744 78.1455 23.456 76.6415 23.456C74.6575 23.456 73.6975 20.352 73.2495 15.776C73.0575 13.504 73.0255 11.104 73.0575 9.05596C73.0575 8.19196 73.2175 6.33596 73.4415 5.21596ZM89.2815 5.88796L85.2495 7.23196C88.7055 11.136 90.4015 18.592 90.8815 23.68L95.0735 22.08C94.7215 17.216 92.2895 9.56796 89.2815 5.88796Z" fill="#333333"/>
<path d="M111.336 18.688V15.168H113.416V18.688H111.336ZM118.792 15.168V18.688H116.712V15.168H118.792ZM118.024 22.56C118.376 23.168 118.696 23.84 119.016 24.544L116.712 24.704V21.568H121.896V12.288H116.712V10.016C118.856 9.72796 120.904 9.37596 122.632 8.92796L120.136 6.20796C117.128 7.03996 112.104 7.55196 107.688 7.80796C108.04 8.54396 108.488 9.85596 108.616 10.624C110.152 10.56 111.784 10.464 113.416 10.336V12.288H108.456V21.568H113.416V24.896C110.984 25.056 108.776 25.184 107.016 25.248L107.272 28.672C110.792 28.384 115.56 28 120.2 27.584C120.456 28.384 120.648 29.12 120.776 29.76L123.88 28.736C123.496 26.784 122.216 23.84 120.904 21.632L118.024 22.56ZM103.752 2.17596V13.312C103.752 18.112 103.464 24.512 100.232 28.832C101.096 29.216 102.664 30.24 103.304 30.88C106.856 26.208 107.368 18.624 107.368 13.312V5.72796H123.08C123.08 19.36 123.144 30.784 127.784 30.784C129.736 30.784 130.472 29.024 130.824 25.152C130.152 24.448 129.32 23.2 128.712 22.176C128.68 24.704 128.456 26.656 128.168 26.656C126.632 26.656 126.632 14.752 126.792 2.17596H103.752Z" fill="#333333"/>
<path d="M153.551 23.392C153.519 21.952 153.455 19.616 153.423 17.856C155.375 16.96 157.167 16.256 158.575 15.712C159.663 15.264 161.327 14.624 162.351 14.368L160.751 10.688C159.599 11.232 158.479 11.776 157.263 12.32C155.951 12.896 154.607 13.44 152.975 14.208C152.271 12.576 150.671 11.744 148.751 11.744C147.695 11.744 145.999 11.968 145.167 12.384C145.839 11.456 146.479 10.304 146.991 9.18396C150.383 9.05596 154.287 8.79996 157.327 8.35196L157.359 4.63996C154.575 5.15196 151.375 5.40796 148.399 5.56796C148.783 4.28796 149.007 3.19996 149.167 2.43196L145.007 2.07996C144.975 2.97596 144.751 4.25596 144.367 5.69596H142.831C141.231 5.69596 138.863 5.59996 137.263 5.34396V9.05596C138.991 9.21596 141.327 9.27996 142.607 9.27996H142.991C141.583 12.096 139.343 14.912 136.015 17.984L139.407 20.512C140.495 19.136 141.391 17.984 142.351 17.024C143.567 15.872 145.519 14.848 147.311 14.848C148.175 14.848 149.007 15.136 149.519 15.936C145.903 17.792 142.063 20.352 142.063 24.384C142.063 28.48 145.807 29.664 150.767 29.664C153.743 29.664 157.615 29.408 159.727 29.152L159.855 25.024C157.071 25.6 153.551 25.952 150.863 25.952C147.759 25.952 146.255 25.472 146.255 23.712C146.255 22.144 147.535 20.896 149.871 19.616C149.839 20.992 149.807 22.464 149.743 23.392H153.551Z" fill="#333333"/>
<path d="M192.647 10.368H184.551V20.192C184.551 23.872 185.575 24.896 189.127 24.896H193.671C196.775 24.896 197.703 23.552 198.119 18.784C197.159 18.56 195.591 17.952 194.791 17.344C194.663 20.928 194.471 21.504 193.351 21.504H189.639C188.391 21.504 188.167 21.344 188.167 20.192V13.632H192.647V14.464H196.327V2.11196H184.263V5.43996H192.647V10.368ZM178.503 20.416H183.047V17.12H178.503V13.664H183.335V10.368H177.799V7.35996H182.535V4.09596H177.799V0.959961H174.247V4.09596H169.479V7.35996H174.247V10.368H168.615V13.664H175.015V23.616C174.183 22.688 173.543 21.504 173.031 19.936C173.095 18.592 173.159 17.216 173.191 15.808L169.703 15.552C169.639 21.024 169.319 26.336 167.751 29.568C168.583 29.92 170.247 30.752 170.919 31.2C171.623 29.632 172.103 27.744 172.423 25.6C174.919 29.184 178.727 29.952 184.679 29.952H197.031C197.255 28.832 197.895 27.072 198.471 26.208C195.591 26.336 187.111 26.336 184.679 26.304C182.215 26.304 180.199 26.176 178.503 25.696V20.416Z" fill="#333333"/>
<path d="M206.463 9.02396C209.055 9.21596 211.807 9.37596 215.135 9.37596C218.143 9.37596 222.079 9.15196 224.287 8.99196V4.73596C221.855 4.99196 218.239 5.18396 215.103 5.18396C211.775 5.18396 208.831 5.05596 206.463 4.79996V9.02396ZM204.991 17.856C204.735 19.04 204.351 20.576 204.351 22.432C204.351 26.784 207.999 29.216 215.263 29.216C219.711 29.216 223.519 28.8 226.271 28.128L226.239 23.68C223.423 24.448 219.391 24.928 215.103 24.928C210.527 24.928 208.607 23.456 208.607 21.44C208.607 20.384 208.863 19.392 209.151 18.24L204.991 17.856Z" fill="#333333"/>
<path d="M237.919 3.58396L238.111 7.64796C239.103 7.55196 240.159 7.42396 240.959 7.35996C242.239 7.23196 246.143 7.03996 247.423 6.94396C245.471 8.70396 241.343 12.288 238.495 14.144C236.863 14.336 234.655 14.624 232.959 14.784L233.343 18.624C236.511 18.08 240.063 17.6 242.943 17.376C241.791 18.464 240.639 20.416 240.639 22.368C240.639 27.648 245.375 30.08 253.503 29.728L254.335 25.568C253.151 25.664 251.263 25.696 249.503 25.504C246.655 25.152 244.703 24.192 244.703 21.696C244.703 19.104 247.135 17.056 250.047 16.64C251.967 16.384 255.135 16.384 258.175 16.576V12.832C254.303 12.832 249.087 13.152 244.831 13.6C246.975 11.904 250.111 9.27996 252.383 7.48796C253.023 6.94396 254.207 6.17596 254.847 5.72796L252.351 2.81596C251.903 2.94396 251.167 3.10396 250.143 3.19996C248.223 3.42396 242.271 3.71196 240.927 3.71196C239.839 3.71196 238.911 3.67996 237.919 3.58396Z" fill="#333333"/>
<path d="M281.835 17.472C281.835 22.432 276.811 24.992 268.939 25.888L271.243 29.856C280.043 28.64 286.315 24.416 286.315 17.632C286.315 12.672 282.795 9.82396 277.771 9.82396C274.091 9.82396 270.539 10.752 268.203 11.264C267.179 11.488 265.803 11.712 264.747 11.808L265.931 16.32C266.859 16 268.075 15.52 269.003 15.232C270.635 14.752 273.771 13.696 277.259 13.696C280.235 13.664 281.835 15.392 281.835 17.472ZM269.419 2.23996L268.779 6.07996C272.427 6.71996 279.307 7.32796 283.019 7.58396L283.659 3.67996C280.299 3.67996 273.099 3.03996 269.419 2.23996Z" fill="#333333"/>
</svg>
